<?xml version="1.0" encoding="utf-8"?>
<!-- Generator: Adobe Illustrator 27.5.0, SVG Export Plug-In . SVG Version: 6.00 Build 0)  -->
<svg version="1.1" id="Layer_1" xmlns="http://www.w3.org/2000/svg" xmlns:xlink="http://www.w3.org/1999/xlink" x="0px" y="0px"
	 viewBox="0 0 4000 4000" style="enable-background:new 0 0 4000 4000;" xml:space="preserve">
<g>
	<g>
		<rect style="fill:#CBEDFF;" width="4000" height="4000"/>
	</g>
	<g>
		<g>
			<ellipse style="fill:#97D6F2;" cx="2051.445" cy="3437.157" rx="928.741" ry="129.681"/>
		</g>
		<g>
			<g>
				<g>
					<g>
						<path style="fill:#FFFFFF;" d="M2369.78,2897.261c90.922,125.652,297.694,203.214,451.619,39.823
							c48.104-51.064,64.886-108.752,62.377-168.914c-6.957-168.905-165.436-357.583-207.973-476.165
							c-16.317-45.345-15.602-80.452,16.992-100.23c85.931-52.139,88.606,102.967,195.187,101.796
							c44.533-0.522,150.874-67.149,74.759-211.395c-96.067-182.182-334.564-192.455-455.55-47.205
							c-67.473,80.987-62.982,170.129-28.484,260.007c83.961,218.939,345.771,442.185,177.73,562.179
							c-43.814,31.252-92.619,23.168-140.697-5.562c-132.657-79.264-259.577-315.708-259.577-315.708
							S2278.804,2771.679,2369.78,2897.261"/>
					</g>
					<g>
						<path style="fill:#D3DDEA;" d="M2369.78,2897.261c90.922,125.652,297.694,203.214,451.619,39.823
							c48.104-51.064,64.886-108.752,62.377-168.914c-47.981,137.241-206.087,273.109-368.036,83.426
							c-132.657-79.264-259.577-315.708-259.577-315.708S2278.804,2771.679,2369.78,2897.261"/>
					</g>
					<g>
						<path style="fill:#F6A42B;" d="M2478.708,2294.977c79.579,41.007,160.387,13.317,190.323,0.14
							c2.68-1.188,4.939-2.228,6.772-3.114c-16.317-45.345-15.602-80.452,16.992-100.226
							c85.931-52.139,88.606,102.962,195.187,101.796c38.919-0.456,125.012-51.363,95.353-160.448
							c-4.294-15.773-10.97-32.739-20.594-50.951c-96.067-182.182-334.564-192.455-455.55-47.2
							C2439.718,2115.962,2444.209,2205.103,2478.708,2294.977"/>
					</g>
					<g>
						<path style="fill:#EF7E21;" d="M2669.029,2295.118c2.68-1.189,4.939-2.228,6.772-3.114
							c-16.317-45.345-15.602-80.452,16.992-100.23c85.935-52.135,88.606,102.967,195.188,101.795
							c38.919-0.452,125.012-51.363,95.352-160.448c-12.624,34.353-41.643,83.461-105.134,86.918
							c-83.33,4.553-97.607-62.793-141.259-105.388C2681.941,2061.007,2550.6,2174.997,2669.029,2295.118"/>
					</g>
					<g>
						<path style="fill:#000072;" d="M2619.988,3051.777c-6.228,0-12.485-0.2-18.779-0.61
							c-95.203-6.147-190.696-60.181-249.211-141.016c-93.369-128.979-116.707-362.285-117.654-372.153
							c-0.999-10.396,5.474-20.049,15.469-23.081c9.98-3.037,20.737,1.406,25.684,10.61
							c1.582,2.944,159.805,294.858,297.939,327.041c26.235,6.104,49.211,1.772,70.256-13.252
							c91.768-65.518,34.695-164.766-66.023-321.279c-102.446-159.194-218.56-339.629-87.336-497.119
							c64.255-77.124,162.358-116.909,262.344-106.387c98.538,10.352,182.175,67.72,229.468,157.397
							c44.724,84.805,29.973,143.145,9.722,177.148c-25.684,43.13-71.589,66.064-103.665,66.426c-0.483,0.005-0.974,0.01-1.458,0.01
							c-61.184,0.005-94.299-43.149-118.535-74.727c-29.802-38.823-38.601-45.693-64.067-30.249
							c-41.047,24.902-2.351,98.438,66.26,216.587c46.287,79.707,98.748,170.044,122.546,259.878
							c28.677,108.257,10.5,194.971-55.569,265.098C2775.703,3017.563,2700.881,3051.777,2619.988,3051.777z M2295.757,2643.681
							c15.891,76.069,44.216,175.059,91.77,240.747c51.05,70.522,134.011,117.642,216.509,122.969
							c74.592,4.863,144.255-24.707,201.418-85.376c124.734-132.397,15.105-321.182-72.983-472.871
							c-33.264-57.28-64.68-111.382-79.541-156.05c-18.882-56.758-9.307-97.153,28.462-120.063
							c61.479-37.295,96.233,7.983,121.611,41.04c22.717,29.6,44.189,57.573,83.765,57.573c0.315,0,0.625,0,0.942-0.005
							c16.104-0.181,48.369-14.614,66.47-45.01c20.806-34.937,17.058-81.357-10.835-134.248
							c-40.349-76.509-111.516-125.435-195.251-134.233c-85.43-8.994-169.199,24.985-224.065,90.84
							c-110.61,132.754-8.359,291.646,90.525,445.308c90.984,141.387,185.066,287.583,54.626,380.708
							c-31.47,22.471-67.036,29.287-105.72,20.269C2461.96,2871.615,2358.354,2738.569,2295.757,2643.681z"/>
					</g>
					<g style="opacity:0.7;">
						<g>
							<g>
								<path style="fill:#FFFFFF;" d="M2724.503,1979.121c-35.603-8.018-121.81,1.601-172.532,75.057
									c-37.682,54.569-15.479,70.645,2.671,60.464c32.897-18.444,39.831-69.465,150.207-97.554
									C2762.817,2002.338,2746.89,1984.157,2724.503,1979.121"/>
							</g>
						</g>
					</g>
					<g style="opacity:0.7;">
						<g>
							<g>
								<path style="fill:#FFFFFF;" d="M2823.793,1994.931c-7.312-7.4-19.124-15.615-40.252-11.378
									c-21.129,4.237-25.37,22.33-16.997,30.112c8.378,7.781,37.994,23.484,53.148,14.554
									C2836.469,2018.336,2831.105,2002.331,2823.793,1994.931"/>
							</g>
						</g>
					</g>
					<g>
						<path style="fill:#FFFFFF;" d="M1929.644,3408.798c-50.415,62.438-217.408,41.708-279.307,38.437
							c-66.043-3.443-81.838-53.938-74.333-92.124c0.869-4.645,2.154-9.119,3.689-13.268c17.703-47.801,63.346-63.885,63.346-63.885
							c-46.972-113.055-82.251-295.141-94.317-437.882c-5.597-66.004-6.22-123.547-0.746-162.023l442.488,209.118
							C1923.964,3128.667,1990.67,3333.139,1929.644,3408.798"/>
					</g>
					<g>
						<path style="fill:#D3DDEA;" d="M1929.644,3408.798c-50.415,62.438-217.408,41.708-279.307,38.437
							c-66.043-3.443-81.838-53.938-74.333-92.124c14.01,17.409,47.512,45.125,117.283,45.647
							c129.403,0.965,208.907,0.952,215.75-125.867c6.803-126.784-29.476-189.507-44.902-214.592
							c-19.567-31.884-233.865-71.474-315.414-220.224c-5.597-66.004-6.22-123.547-0.746-162.023l442.488,209.118
							C1923.964,3128.667,1990.67,3333.139,1929.644,3408.798"/>
					</g>
					<g>
						<path style="fill:#000072;" d="M1769.531,3475.165c-34.29,0-67.625-2.383-94.895-4.336
							c-9.683-0.688-18.289-1.309-25.459-1.685c-45.999-2.412-69.595-24.131-81.289-41.919
							c-20.403-31.04-17.913-68.408-8.777-93.027c12.976-34.976,38.186-55.747,56.165-66.733
							c-65.957-173.271-105.918-473.628-89.021-592.505l43.428,6.172c-16.792,118.13,25.586,424.683,93.608,588.408
							c2.314,5.562,2.234,11.836-0.22,17.339c-2.451,5.503-7.061,9.756-12.744,11.758c-0.229,0.088-36.331,13.726-50.093,50.82
							c-5.564,14.995-6.389,37.402,4.307,53.672c8.921,13.574,24.712,21.05,46.936,22.217c7.402,0.386,16.287,1.021,26.287,1.733
							c64.109,4.59,197.537,14.121,234.8-32.061c24.785-30.718,24.246-95.508,23.564-177.539
							c-0.776-93.228-1.741-209.258,33.196-336.128l42.29,11.641c-33.313,120.981-32.378,233.618-31.626,324.126
							c0.754,90.796,1.35,162.51-33.289,205.444C1912.129,3465.405,1838.894,3475.16,1769.531,3475.165z"/>
					</g>
					<g>
						<path style="fill:#000072;" d="M1770.611,3338.596c-3.645,4.413-7.597,9.452-10.567,14.343
							c-3.053,4.935-5.509,9.948-7.136,14.975c-0.877,2.487-1.483,5.009-1.899,7.527c-0.482,2.693-0.939,5.711-1.132,8.492
							c-0.496,5.654-0.154,11.097,0.772,16.102c1.934,10.036,7.093,18.001,15.304,24.418c8.22,6.421,19.15,10.988,30.769,14.606
							l0.211,0.066c6.728,2.092,10.479,9.242,8.386,15.97c-1.948,6.237-8.242,9.922-14.518,8.746
							c-14.137-2.645-28.739-7.514-41.797-17.251c-6.47-4.869-12.365-11.11-16.799-18.405c-4.47-7.281-7.18-15.549-8.422-23.646
							c-1.254-8.123-0.891-16.128,0.206-23.659c0.562-3.833,1.263-7.378,2.294-11.158c1.127-3.952,2.566-7.781,4.334-11.396
							c3.641-7.202,8.549-13.439,14.128-18.611c5.799-5.097,11.742-9.141,19.247-12.001c3.32-1.272,7.04,0.395,8.307,3.719
							c0.851,2.241,0.373,4.663-1.048,6.386L1770.611,3338.596z"/>
					</g>
					<g>
						<path style="fill:#000072;" d="M1670.122,3335.641c-3.649,4.413-7.597,9.452-10.567,14.347
							c-3.057,4.93-5.513,9.948-7.136,14.97c-0.877,2.487-1.483,5.009-1.899,7.527c-0.482,2.693-0.943,5.715-1.132,8.492
							c-0.5,5.658-0.154,11.102,0.772,16.106c1.93,10.036,7.093,17.997,15.304,24.414c8.22,6.421,19.15,10.992,30.769,14.606
							l0.21,0.07c6.724,2.092,10.479,9.242,8.387,15.97c-1.948,6.237-8.246,9.917-14.518,8.742
							c-14.137-2.641-28.739-7.509-41.797-17.251c-6.474-4.864-12.369-11.106-16.799-18.405c-4.47-7.281-7.18-15.545-8.426-23.642
							c-1.25-8.128-0.891-16.128,0.21-23.664c0.562-3.829,1.263-7.373,2.294-11.159c1.127-3.952,2.566-7.777,4.329-11.396
							c3.641-7.198,8.549-13.435,14.133-18.611c5.799-5.093,11.738-9.141,19.247-11.997c3.32-1.272,7.04,0.395,8.303,3.715
							c0.855,2.241,0.377,4.663-1.044,6.386L1670.122,3335.641z"/>
					</g>
					<g>
						<path style="fill:#FFFFFF;" d="M2084.143,3408.798c50.411,62.438,217.408,41.708,279.306,38.437
							c66.039-3.443,81.838-53.938,74.333-92.124c-0.868-4.645-2.153-9.119-3.689-13.268
							c-17.703-47.801-63.346-63.885-63.346-63.885c46.972-113.055,82.251-295.141,94.318-437.882
							c5.592-66.004,6.219-123.547,0.745-162.023l-442.488,209.118C2089.823,3128.667,2023.118,3333.139,2084.143,3408.798"/>
					</g>
					<g>
						<path style="fill:#D3DDEA;" d="M2084.143,3408.798c50.411,62.438,217.408,41.708,279.306,38.437
							c66.039-3.443,81.838-53.938,74.333-92.124c-14.01,17.409-47.511,45.125-117.283,45.647
							c-129.403,0.965-208.912,0.952-215.754-125.867c-6.799-126.784,29.48-189.507,44.906-214.592
							c19.567-31.884,233.865-71.474,315.414-220.224c5.592-66.004,6.219-123.547,0.745-162.023l-442.488,209.118
							C2089.823,3128.667,2023.118,3333.139,2084.143,3408.798"/>
					</g>
					<g>
						<path style="fill:#000072;" d="M2244.255,3475.165c-69.37,0-142.593-9.756-177.168-52.598
							c-34.639-42.939-34.043-114.653-33.289-205.449c0.752-90.508,1.687-203.145-31.626-324.126l42.29-11.641
							c34.937,126.87,33.972,242.9,33.196,336.128c-0.681,82.031-1.221,146.821,23.564,177.544
							c37.266,46.177,170.681,36.636,234.8,32.056c9.998-0.713,18.882-1.348,26.284-1.733c22.222-1.167,38.015-8.643,46.936-22.212
							c10.696-16.27,9.868-38.682,4.307-53.677c-13.76-37.095-49.861-50.732-50.225-50.869c-5.608-2.061-10.203-6.343-12.598-11.816
							s-2.524-11.714-0.234-17.231c68.018-163.721,110.398-470.278,93.611-588.408l43.428-6.172
							c16.892,118.877-23.069,419.233-89.021,592.505c17.979,10.986,43.191,31.763,56.162,66.738
							c9.136,24.619,11.626,61.987-8.777,93.022c-11.697,17.793-35.293,39.507-81.289,41.919c-7.17,0.376-15.774,0.996-25.457,1.685
							C2311.885,3472.778,2278.538,3475.16,2244.255,3475.165z"/>
					</g>
					<g>
						<path style="fill:#000072;" d="M2249.796,3327.712c7.505,2.86,13.444,6.904,19.247,12.001
							c5.579,5.171,10.483,11.413,14.124,18.611c1.772,3.618,3.206,7.448,4.338,11.396c1.031,3.781,1.732,7.325,2.294,11.158
							c1.096,7.535,1.46,15.536,0.206,23.664c-1.246,8.093-3.952,16.361-8.426,23.642c-4.435,7.294-10.325,13.536-16.795,18.409
							c-13.063,9.733-27.664,14.606-41.797,17.247c-6.926,1.29-13.588-3.272-14.878-10.198c-1.202-6.426,2.649-12.624,8.741-14.518
							l0.211-0.062c11.624-3.619,22.55-8.185,30.769-14.606c8.216-6.417,13.374-14.387,15.308-24.423
							c0.921-5,1.268-10.448,0.768-16.102c-0.189-2.776-0.649-5.799-1.127-8.487c-0.421-2.518-1.022-5.044-1.904-7.531
							c-1.627-5.022-4.079-10.04-7.136-14.975c-2.965-4.886-6.921-9.93-10.566-14.343l-0.632-0.767
							c-2.268-2.737-1.881-6.794,0.86-9.062C2245.248,3327.238,2247.7,3326.918,2249.796,3327.712"/>
					</g>
					<g>
						<path style="fill:#000072;" d="M2350.285,3324.761c7.505,2.855,13.444,6.904,19.247,11.996
							c5.579,5.176,10.488,11.417,14.128,18.615c1.768,3.619,3.207,7.444,4.334,11.391c1.031,3.785,1.732,7.329,2.294,11.159
							c1.096,7.54,1.46,15.536,0.206,23.668c-1.241,8.093-3.952,16.356-8.422,23.637c-4.434,7.299-10.325,13.54-16.799,18.409
							c-13.063,9.738-27.664,14.611-41.797,17.247c-6.921,1.294-13.584-3.272-14.878-10.194c-1.198-6.43,2.649-12.628,8.742-14.519
							l0.215-0.066c11.619-3.614,22.55-8.185,30.765-14.606c8.216-6.417,13.378-14.383,15.308-24.418
							c0.926-5,1.268-10.448,0.772-16.106c-0.193-2.772-0.654-5.799-1.132-8.487c-0.421-2.518-1.022-5.044-1.904-7.531
							c-1.623-5.018-4.075-10.04-7.136-14.97c-2.965-4.891-6.917-9.935-10.562-14.347l-0.632-0.763
							c-2.268-2.741-1.882-6.799,0.855-9.066C2345.741,3324.287,2348.193,3323.967,2350.285,3324.761"/>
					</g>
					<g>
						<path style="fill:#000072;" d="M2241.99,3475.165c-69.37,0-142.593-9.756-177.168-52.598
							c-34.639-42.939-34.043-114.653-33.289-205.449c0.752-90.508,1.687-203.145-31.626-324.126l42.29-11.641
							c34.937,126.87,33.972,242.9,33.196,336.128c-0.681,82.031-1.221,146.821,23.564,177.544
							c37.266,46.177,170.684,36.636,234.8,32.056c9.998-0.713,18.882-1.348,26.284-1.733c22.222-1.167,38.013-8.643,46.934-22.212
							c10.696-16.274,9.871-38.682,4.307-53.672c-13.76-37.1-49.861-50.737-50.222-50.874c-5.608-2.061-10.205-6.343-12.598-11.816
							c-2.395-5.474-2.524-11.714-0.234-17.231c68.02-163.726,110.398-470.283,93.606-588.408l43.428-6.172
							c16.897,118.872-23.062,419.229-89.016,592.505c17.979,10.986,43.186,31.758,56.16,66.738
							c9.136,24.614,11.626,61.982-8.777,93.022c-11.694,17.793-35.291,39.507-81.287,41.919c-7.17,0.376-15.774,0.996-25.457,1.685
							C2309.619,3472.778,2276.272,3475.16,2241.99,3475.165z"/>
					</g>
					<g>
						<path style="fill:#FFFFFF;" d="M1875.373,1981.717l-48.88,111.191l-45.231,102.818l-65.131,148.005
							c-374.159-28.357-711.096-282.539-748.282-412.635c-23.8-83.29,24.501-192.367,65.631-232.168
							c1.158-1.123,2.32-2.237,3.522-3.316c46.389-43.406,102.857-64.425,276.153,80.965
							c44.279,37.147,112.437,76.948,191.871,111.48C1617.669,1937.149,1753.072,1975.787,1875.373,1981.717"/>
					</g>
					<g>
						<path style="fill:#D3DDEA;" d="M1875.373,1981.717l-48.88,111.191c-150.786-34.287-269.683-109.866-321.467-204.85
							C1617.669,1937.149,1753.072,1975.787,1875.373,1981.717"/>
					</g>
					<g>
						<path style="fill:#D3DDEA;" d="M2512.756,1887.147c-51.657,95.686-171.471,171.848-323.415,206.092l-49.047-111.52
							C2263.342,1975.745,2399.701,1936.65,2512.756,1887.147"/>
					</g>
					<g>
						<path style="fill:#D3DDEA;" d="M2311.349,2053.897c-85.9,37.187-190.253,58.951-302.685,58.951
							c-113.761,0-219.233-22.265-305.716-60.28c24.958-26.782,122.757-117.74,297.672-117.74
							C2178.644,1934.828,2286.102,2029.062,2311.349,2053.897"/>
					</g>
					<g>
						<path style="fill:#D3DDEA;" d="M1781.262,2195.726l-65.131,148.005c-374.159-28.357-711.096-282.539-748.282-412.635
							c-23.8-83.29,24.501-192.367,65.631-232.168c1.158-1.123,2.32-2.237,3.522-3.32c49.17,19.778,96.558,44.117,116.994,70.026
							c18.988,24.129,10.615,78.11-16.913,172.471c-24.256,83.202,100.62,174.91,242.243,226.689
							c221.43,80.97,397.046-13.637,397.046-13.637L1781.262,2195.726z"/>
					</g>
					<g>
						<path style="fill:#000072;" d="M1874.752,1994.876c-87.76-3.408-173.87-21.602-257.09-47.389
							c-41.647-12.926-82.584-28.094-122.758-45.205c-40.147-17.181-79.395-36.665-117.2-59.175
							c-18.878-11.303-37.344-23.44-55.192-36.792c-4.417-3.43-8.926-6.671-13.246-10.29l-12.724-10.422
							c-8.158-6.825-16.431-13.457-24.73-20.054c-16.663-13.084-33.621-25.69-51.012-37.345
							c-17.391-11.593-35.199-22.475-53.538-31.002c-18.238-8.641-37.217-15.018-55.174-16.049
							c-18.023-1.123-34.002,4.11-48.999,15.37c-3.75,2.803-7.465,5.829-11.132,9.176c-1.842,1.623-3.676,3.386-5.509,5.119
							c-1.781,1.755-3.29,3.237-4.908,5.009c-6.351,6.93-12.304,14.869-17.703,23.278c-10.834,16.839-19.852,35.313-27.024,54.363
							c-7.158,19.071-12.479,38.827-15.387,58.701c-2.904,19.856-3.29,39.906-0.096,58.911c0.816,4.746,1.833,9.417,3.083,14.001
							c0.588,2.307,1.355,4.386,2.031,6.601c0.864,2.189,1.579,4.382,2.544,6.575c3.671,8.772,8.387,17.492,13.694,25.997
							c10.636,17.041,23.585,33.243,37.472,48.678c27.892,30.897,59.727,58.828,93.089,84.707
							c33.489,25.782,68.715,49.49,105.151,71.193c72.93,43.34,150.54,79.027,230.953,106.011
							c80.413,26.91,163.839,44.911,248.107,51.402l0.039,0.004c9.663,0.741,16.891,9.176,16.146,18.839
							c-0.741,9.658-9.176,16.887-18.839,16.141c-87.523-6.737-173.721-25.387-256.59-53.108
							c-82.878-27.822-162.633-64.5-237.769-109.143c-37.546-22.361-73.895-46.819-108.647-73.57
							c-34.647-26.887-67.851-55.938-97.712-88.988c-14.883-16.567-28.98-34.094-41.169-53.591
							c-6.079-9.759-11.681-20.015-16.33-31.103c-1.193-2.746-2.184-5.663-3.272-8.487c-0.925-2.921-1.974-5.926-2.724-8.825
							c-1.588-5.803-2.855-11.654-3.864-17.523c-3.926-23.51-3.32-47.042-0.022-69.754c3.329-22.734,9.307-44.783,17.264-66.013
							c8.014-21.229,17.944-41.687,30.41-61.074c6.237-9.694,13.19-19.089,21.392-28.037c2.004-2.202,4.329-4.505,6.391-6.518
							c2.075-1.965,4.132-3.939,6.325-5.873c4.281-3.908,8.904-7.711,13.781-11.338c9.79-7.229,21.089-13.646,33.564-17.532
							c12.404-4.075,25.602-5.321,38.108-4.641c12.558,0.676,24.51,3.219,35.827,6.65c11.329,3.443,22.111,7.759,32.397,12.667
							c20.716,9.663,39.744,21.352,58.161,33.616c18.378,12.317,35.993,25.431,53.201,38.936
							c8.558,6.794,17.076,13.633,25.436,20.624l12.282,10.009c3.943,3.29,8.207,6.312,12.303,9.466
							c16.668,12.4,34.318,23.808,52.367,34.647c72.57,42.91,150.825,77.737,231.479,104.506
							c20.164,6.733,40.52,12.882,61.021,18.462c20.488,5.615,41.125,10.689,61.898,15.018
							c41.511,8.865,83.536,15.159,125.718,17.878l0.088,0.004c7.25,0.465,12.751,6.724,12.281,13.974
							C1887.932,1989.709,1881.853,1995.148,1874.752,1994.876"/>
					</g>
					<g>
						<path style="fill:#FFFFFF;" d="M1204.864,1690.932c-26.87-25.041-88.277-166.909-167.326-154.413
							c-82.356,13.018-61.912,142.197,4.821,184.84"/>
					</g>
					<g style="opacity:0.6;">
						<g>
							<g>
								<path style="fill:#FFFFFF;" d="M1204.884,1690.928l-12.444,2.338c-32.059-48.841-83.913-137.109-146.965-127.135
									c-44.661,7.049-59.096,48.288-52.297,91.391c-19.773-51.907-10.615-112.34,44.349-121.012
									C1116.593,1524.032,1178.013,1665.869,1204.884,1690.928"/>
							</g>
						</g>
					</g>
					<g>
						<path style="fill:#000072;" d="M1042.339,1743.295c-4.043,0-8.132-1.118-11.79-3.452
							c-48.215-30.815-77.971-101.211-66.331-156.929c7.827-37.471,33.303-62.275,69.897-68.057
							c72.629-11.519,126.184,71.177,161.611,125.884c9.395,14.507,19.109,29.507,24.087,34.146
							c8.862,8.257,9.351,22.134,1.094,30.996c-8.257,8.857-22.136,9.355-30.996,1.094c-8.945-8.335-18.196-22.622-31.001-42.392
							c-27.476-42.432-73.499-113.433-117.947-106.406c-18.628,2.944-29.687,13.97-33.811,33.706
							c-7.947,38.042,14.021,89.912,47.014,110.996c10.208,6.523,13.193,20.083,6.67,30.293
							C1056.653,1739.721,1049.573,1743.295,1042.339,1743.295z"/>
					</g>
					<g>
						<path style="fill:#FFFFFF;" d="M1137.1,1750.921c-0.693,68.921-34.629,216.338-121.178,211.645
							c-54.166-2.917-81.242-46.104-87.97-99.589c-11.545-91.497,36.48-213.114,110.66-215.509
							c21.9-0.688,52.28,5.452,73.408,27.993C1127.034,1691.361,1137.416,1715.371,1137.1,1750.921"/>
					</g>
					<g>
						<path style="fill:#D3DDEA;" d="M1137.1,1750.921c-0.693,68.921-34.629,216.338-121.178,211.645
							c-54.166-2.917-81.242-46.104-87.97-99.589c5.233,8.294,38.353,56.556,88.755,32.669
							c72.237-34.173-69.298-108.502,2.535-205.267c22.914-30.826,58.056-28.962,92.778-14.918
							C1127.034,1691.361,1137.416,1715.371,1137.1,1750.921"/>
					</g>
					<g>
						<path style="fill:#000072;" d="M1020.051,1984.609c-1.76,0-3.528-0.049-5.31-0.146
							c-69.111-3.745-111.423-62.197-110.422-152.549c1.077-97.222,52.463-203.76,133.604-206.353h0.002
							c15.901-0.547,56.223,1.582,87.153,31.831c22.9,22.397,34.316,53.936,33.936,93.745
							c-0.54,55.889-20.229,156.758-72.268,205.581C1067.004,1975.239,1044.59,1984.609,1020.051,1984.609z M1039.324,1669.399
							L1039.324,1669.399c-51.152,1.636-90.308,87.407-91.145,162.998c-0.271,24.507,3.899,104.746,68.933,108.267
							c14.392,0.767,27.363-4.434,39.622-15.933c39.063-36.65,57.952-125.503,58.418-174.014
							c0.264-27.402-6.714-48.247-20.742-61.968C1075.022,1669.784,1047.336,1669.14,1039.324,1669.399z"/>
					</g>
					<g>
						<path style="fill:#FFFFFF;" d="M1305.418,1770.128c-30.537-21.992-125.53-141.416-204.706-111.037
							c-84.58,32.44-89.554,129.916-43.003,154.132c58.539,30.462,112.832-31.388,112.832-31.388"/>
					</g>
					<g>
						<path style="fill:#000072;" d="M1295.165,1784.363c-6.176-4.562-10.571-8.707-15.137-12.904l-13.031-12.409
							c-8.505-8.185-16.887-16.22-25.409-23.975c-17.014-15.488-34.572-30.032-53.179-41.766
							c-18.479-11.632-38.45-20.545-57.315-21.488c-4.698-0.263-9.277,0.009-13.716,0.798c-2.224,0.373-4.408,0.899-6.549,1.561
							c-2.136,0.623-4.198,1.417-6.689,2.452c-9.474,3.965-18.207,9.185-25.896,15.488c-15.413,12.545-25.997,30.243-29.804,49.047
							c-3.926,18.58-0.535,38.923,9.812,50.297c1.272,1.412,2.636,2.689,4.088,3.825c0.724,0.57,1.487,1.079,2.25,1.592l1.18,0.711
							l1.518,0.763c4.026,2.303,8.264,3.895,12.602,5.097c8.667,2.346,18.01,2.667,27.642,0.82
							c19.291-3.342,39.415-14.918,56.416-28.225l0.623-0.487c3.825-2.991,9.351-2.316,12.347,1.509
							c2.469,3.149,2.439,7.461,0.215,10.553c-7.75,10.786-16.532,19.457-26.813,27.484c-10.238,7.873-21.953,14.483-35.186,18.694
							c-13.181,3.996-28.081,5.645-42.476,2.684c-7.158-1.386-14.22-3.544-20.725-6.593l-2.474-1.136l-2.693-1.434
							c-1.759-1.018-3.496-2.088-5.158-3.25c-3.329-2.325-6.422-4.948-9.242-7.794c-11.382-11.426-17.655-25.984-20.585-40.209
							c-2.794-14.352-2.369-28.8,0.627-42.507c5.886-27.506,22.098-51.929,43.419-69.004c10.663-8.553,22.523-15.374,34.884-20.383
							c2.969-1.189,6.421-2.531,9.948-3.579c3.496-1.07,7.066-1.925,10.658-2.535c7.185-1.276,14.466-1.671,21.554-1.285
							c14.22,0.75,27.616,4.281,39.884,9.132c12.303,4.86,23.642,10.983,34.331,17.699c21.357,13.487,40.244,29.273,58.135,45.529
							c8.935,8.132,17.598,16.444,26.103,24.624l12.615,12.01c4.088,3.816,8.395,7.685,11.733,10.123l0.272,0.197
							c7.825,5.715,9.531,16.69,3.816,24.519c-5.715,7.82-16.694,9.527-24.515,3.816L1295.165,1784.363z"/>
					</g>
					<g>
						<path style="fill:#FFFFFF;" d="M2140.299,1981.717l94.111,214.009l65.131,148.005
							c374.159-28.357,711.096-282.539,748.282-412.635c23.8-83.29-24.501-192.367-65.631-232.168
							c-1.158-1.123-2.32-2.237-3.518-3.316c-46.393-43.406-102.862-64.425-276.157,80.965
							C2595.388,1866.421,2348.794,1971.598,2140.299,1981.717"/>
					</g>
					<g>
						<path style="fill:#D3DDEA;" d="M2512.756,1887.147c-51.657,95.686-171.471,171.848-323.415,206.092l-49.047-111.52
							C2263.342,1975.745,2399.701,1936.65,2512.756,1887.147"/>
					</g>
					<g>
						<path style="fill:#D3DDEA;" d="M2234.41,2195.726l65.131,148.005c374.159-28.357,711.096-282.539,748.282-412.635
							c23.8-83.29-24.501-192.367-65.631-232.168c-1.158-1.123-2.32-2.237-3.517-3.32c-49.17,19.778-96.559,44.117-116.999,70.026
							c-18.988,24.129-10.615,78.11,16.913,172.471c24.256,83.202-100.615,174.91-242.238,226.689
							c-221.435,80.97-397.051-13.637-397.051-13.637L2234.41,2195.726z"/>
					</g>
					<g>
						<path style="fill:#000072;" d="M2139.648,1968.592c42.187-2.719,84.211-9.014,125.718-17.878
							c20.773-4.325,41.41-9.404,61.898-15.019c20.501-5.575,40.862-11.729,61.025-18.462
							c80.65-26.769,158.905-61.596,231.475-104.506c18.049-10.838,35.704-22.243,52.367-34.647
							c4.097-3.154,8.36-6.176,12.303-9.465l12.281-10.01c8.36-6.992,16.883-13.825,25.436-20.624
							c17.207-13.505,34.823-26.62,53.201-38.937c18.417-12.264,37.449-23.953,58.161-33.616
							c10.286-4.904,21.067-9.224,32.397-12.667c11.316-3.43,23.273-5.974,35.827-6.645c12.51-0.684,25.703,0.561,38.112,4.636
							c12.47,3.886,23.769,10.303,33.559,17.532c4.877,3.628,9.505,7.435,13.786,11.339c2.193,1.939,4.246,3.908,6.321,5.873
							c2.066,2.013,4.386,4.316,6.391,6.518c8.202,8.948,15.154,18.343,21.396,28.037c12.461,19.387,22.392,39.844,30.405,61.074
							c7.961,21.234,13.94,43.279,17.264,66.017c3.303,22.708,3.908,46.244-0.022,69.75c-1.004,5.869-2.276,11.72-3.864,17.523
							c-0.75,2.899-1.798,5.904-2.724,8.825c-1.088,2.825-2.079,5.742-3.272,8.488c-4.645,11.093-10.251,21.343-16.33,31.103
							c-12.189,19.497-26.287,37.029-41.165,53.591c-29.866,33.05-63.07,62.1-97.717,88.988
							c-34.748,26.756-71.101,51.209-108.647,73.57c-75.132,44.643-154.891,81.321-237.765,109.143
							c-82.873,27.725-169.072,46.371-256.594,53.113c-9.658,0.746-18.093-6.487-18.839-16.146
							c-0.746-9.663,6.483-18.097,16.15-18.839l0.035-0.004c84.268-6.487,167.694-24.493,248.107-51.402
							c80.413-26.984,158.023-62.67,230.953-106.011c36.441-21.703,71.662-45.411,105.156-71.193
							c33.357-25.879,65.193-53.81,93.084-84.707c13.887-15.435,26.84-31.638,37.472-48.678
							c5.307-8.505,10.027-17.225,13.694-25.997c0.965-2.193,1.68-4.386,2.544-6.575c0.676-2.215,1.448-4.294,2.031-6.601
							c1.254-4.584,2.268-9.255,3.088-13.996c3.189-19.01,2.802-39.059-0.101-58.916c-2.904-19.874-8.229-39.63-15.387-58.701
							c-7.172-19.049-16.185-37.52-27.024-54.363c-5.395-8.408-11.352-16.347-17.703-23.278c-1.614-1.772-3.127-3.255-4.908-5.009
							c-1.833-1.733-3.662-3.491-5.505-5.119c-3.671-3.347-7.386-6.373-11.137-9.172c-14.996-11.264-30.975-16.497-48.998-15.374
							c-17.957,1.031-36.937,7.408-55.17,16.049c-18.343,8.527-36.151,19.409-53.543,31.002
							c-17.391,11.659-34.344,24.265-51.008,37.344c-8.303,6.597-16.575,13.233-24.734,20.054l-12.725,10.422
							c-4.316,3.619-8.83,6.86-13.246,10.29c-17.848,13.352-36.314,25.488-55.192,36.796c-37.805,22.506-77.049,41.989-117.2,59.17
							c-40.174,17.111-81.11,32.278-122.762,45.204c-83.215,25.787-169.322,43.981-257.082,47.389
							c-7.264,0.285-13.382-5.373-13.663-12.637c-0.276-7.145,5.193-13.181,12.286-13.641L2139.648,1968.592z"/>
					</g>
					<g>
						<path style="fill:#FFFFFF;" d="M2810.81,1690.932c26.87-25.041,88.277-166.909,167.326-154.413
							c82.356,13.018,61.912,142.197-4.821,184.84"/>
					</g>
					<g style="opacity:0.6;">
						<g>
							<g>
								<path style="fill:#FFFFFF;" d="M2810.789,1690.928l12.448,2.338c32.055-48.841,83.909-137.109,146.965-127.135
									c44.656,7.049,59.091,48.288,52.292,91.391c19.773-51.907,10.619-112.34-44.349-121.012
									C2899.083,1524.032,2837.663,1665.869,2810.789,1690.928"/>
							</g>
						</g>
					</g>
					<g>
						<path style="fill:#000072;" d="M2973.335,1743.295c-7.234,0-14.314-3.574-18.499-10.122c-6.523-10.21-3.538-23.77,6.67-30.293
							c32.993-21.084,54.961-72.949,47.014-110.996c-4.124-19.736-15.181-30.762-33.809-33.706
							c-44.534-7.056-90.474,63.979-117.949,106.406c-12.805,19.771-22.056,34.057-31.001,42.392
							c-8.86,8.257-22.739,7.769-30.996-1.094s-7.769-22.739,1.094-30.996c4.978-4.639,14.692-19.639,24.087-34.146
							c35.427-54.702,88.953-137.373,161.614-125.884c36.592,5.781,62.068,30.591,69.895,68.057
							c11.641,55.718-18.115,126.113-66.331,156.929C2981.467,1742.177,2977.378,1743.295,2973.335,1743.295z"/>
					</g>
					<g>
						<path style="fill:#FFFFFF;" d="M2878.574,1750.921c0.688,68.921,34.629,216.338,121.178,211.645
							c54.166-2.917,81.242-46.104,87.97-99.589c11.54-91.497-36.48-213.114-110.665-215.509
							c-21.896-0.688-52.275,5.452-73.404,27.993C2888.64,1691.361,2878.258,1715.371,2878.574,1750.921"/>
					</g>
					<g>
						<path style="fill:#D3DDEA;" d="M2878.574,1750.921c0.688,68.921,34.629,216.338,121.178,211.645
							c54.166-2.917,81.242-46.104,87.97-99.589c-5.237,8.294-38.358,56.556-88.755,32.669
							c-72.237-34.173,69.293-108.502-2.54-205.267c-22.909-30.826-58.052-28.962-92.773-14.918
							C2888.64,1691.361,2878.258,1715.371,2878.574,1750.921"/>
					</g>
					<g>
						<path style="fill:#000072;" d="M2995.623,1984.609c-24.543,0-46.958-9.37-66.702-27.895
							c-52.041-48.828-71.726-149.693-72.261-205.576c-0.383-39.81,11.035-71.348,33.933-93.745
							c30.93-30.254,71.26-32.378,87.156-31.831h0.002c81.14,2.593,132.524,109.131,133.601,206.353
							c1.001,90.351-41.309,148.804-110.417,152.549C2999.155,1984.56,2997.38,1984.609,2995.623,1984.609z M2974.06,1669.365
							c-10.11,0-34.958,1.938-52.798,19.385c-14.026,13.721-21.006,34.57-20.74,61.968c0.464,48.506,19.348,137.358,58.411,174.009
							c12.263,11.504,25.205,16.694,39.631,15.938c65.032-3.521,69.199-83.76,68.928-108.267
							c-0.837-75.596-39.993-161.362-91.143-162.998C2975.708,1669.379,2974.939,1669.365,2974.06,1669.365z"/>
					</g>
					<g>
						<path style="fill:#FFFFFF;" d="M2710.257,1770.128c30.537-21.992,125.525-141.416,204.705-111.037
							c84.575,32.44,89.554,129.916,43.003,154.132c-58.539,30.462-112.831-31.388-112.831-31.388"/>
					</g>
					<g>
						<path style="fill:#000072;" d="M2700.002,1755.891c3.338-2.439,7.645-6.303,11.738-10.123l12.615-12.009
							c8.501-8.18,17.164-16.492,26.098-24.624c17.892-16.255,36.779-32.041,58.135-45.529
							c10.685-6.711,22.028-12.839,34.331-17.698c12.268-4.851,25.668-8.378,39.884-9.132c7.088-0.386,14.369,0.009,21.554,1.285
							c3.593,0.609,7.167,1.469,10.663,2.535c3.522,1.048,6.97,2.39,9.943,3.579c12.36,5.009,24.221,11.834,34.884,20.383
							c21.322,17.076,37.533,41.503,43.419,69.005c2.996,13.707,3.421,28.155,0.627,42.511c-2.93,14.22-9.202,28.778-20.585,40.208
							c-2.82,2.842-5.913,5.47-9.246,7.79c-1.658,1.167-3.395,2.237-5.154,3.25l-2.693,1.434l-2.474,1.136
							c-6.505,3.048-13.567,5.211-20.725,6.593c-14.396,2.961-29.296,1.311-42.477-2.68c-13.233-4.211-24.949-10.825-35.186-18.698
							c-10.282-8.027-19.058-16.698-26.813-27.484c-2.838-3.943-1.934-9.439,2.005-12.273c3.25-2.338,7.553-2.14,10.549,0.202
							l0.631,0.5c17.001,13.303,37.125,24.883,56.416,28.221c9.632,1.847,18.975,1.526,27.642-0.82
							c4.338-1.202,8.575-2.794,12.602-5.092l1.522-0.768l1.176-0.71c0.763-0.509,1.526-1.022,2.25-1.592
							c1.452-1.132,2.816-2.408,4.088-3.825c10.347-11.369,13.738-31.717,9.812-50.293c-3.807-18.808-14.387-36.507-29.805-49.051
							c-7.689-6.303-16.422-11.523-25.896-15.484c-2.491-1.039-4.553-1.829-6.689-2.456c-2.141-0.658-4.325-1.184-6.549-1.557
							c-4.439-0.794-9.022-1.066-13.716-0.803c-18.865,0.943-38.832,9.856-57.311,21.488
							c-18.611,11.733-36.169,26.282-53.183,41.766c-8.522,7.755-16.905,15.79-25.405,23.979l-13.036,12.404
							c-4.566,4.198-8.961,8.343-15.137,12.904c-7.794,5.764-18.778,4.114-24.537-3.68c-5.759-7.79-4.11-18.777,3.68-24.536
							l0.079-0.057L2700.002,1755.891z"/>
					</g>
					<g>
						<path style="fill:#FFFFFF;" d="M2414.76,2840.275c-28.76,39.687-100.445,98.129-216.465,131.293
							c-54.139,15.466-117.897,25.471-191.472,25.471c-74.54,0-139.026-10.246-193.604-26.102
							c-114.757-33.257-185.77-91.216-214.289-130.662c-171.458-257.893,35.046-667.282,86.483-760.871
							c6.961-12.615,11.067-19.479,11.067-19.479s99.05-125.104,304.155-125.104c205.109,0,316.528,125.104,316.528,125.104
							s3.097,5.176,8.413,14.742C2372.082,2158.15,2589.266,2577.741,2414.76,2840.275"/>
					</g>
					<g>
						<path style="fill:#D3DDEA;" d="M2311.349,2053.897c-85.9,37.187-190.253,58.951-302.685,58.951
							c-113.761,0-219.233-22.265-305.716-60.28c24.958-26.782,122.757-117.74,297.672-117.74
							C2178.644,1934.828,2286.102,2029.062,2311.349,2053.897"/>
					</g>
					<g>
						<path style="fill:#D3DDEA;" d="M2414.747,2840.288c-28.77,39.669-100.454,98.107-216.47,131.28
							c-54.109,15.47-117.897,25.471-191.441,25.471c-74.566,0-139.052-10.25-193.626-26.094
							c-114.731-33.248-185.761-91.234-214.281-130.657c-59.876-90.084-73.667-198.604-64.035-305.685
							c6.75,66.71,26.173,131.034,64.035,187.985c28.519,39.467,99.55,97.41,214.281,130.662
							c54.573,15.887,119.06,26.133,193.626,26.133c73.544,0,137.333-10,191.441-25.475c116.016-33.168,187.7-91.602,216.47-131.319
							c37.901-56.951,57.323-121.358,64.034-188.069C2488.409,2641.64,2474.623,2750.203,2414.747,2840.288"/>
					</g>
					<g>
						<path style="fill:#000072;" d="M1591.604,2845.124c-5.759-5.013-11.031-10.505-15.953-16.273
							c-4.768-5.856-8.952-12.128-13.097-18.444c-3.934-6.422-7.202-13.207-10.558-19.949c-3.158-6.829-5.812-13.865-8.733-20.799
							c-10.825-28.05-18.747-57.162-23.611-86.663c-4.711-29.519-7-59.311-6.834-88.97c0.285-29.656,2.474-59.166,6.452-88.334
							c8.053-58.333,22.01-115.402,40.573-170.659c18.514-55.28,41.56-108.805,68.412-160.172c2.246-4.298,7.557-5.961,11.86-3.711
							c3.983,2.079,5.702,6.79,4.149,10.887l-0.013,0.031c-20.243,53.6-38.766,107.599-54.144,162.286
							c-15.238,54.683-27.532,110.094-33.761,165.966c-3.127,27.91-4.987,55.889-4.799,83.764
							c0.079,27.853,1.676,55.635,5.908,82.948c4.07,27.309,10.193,54.271,19.365,80.172c2.478,6.395,4.68,12.917,7.369,19.225
							c2.776,6.268,5.237,12.685,7.768,19.106c2.719,6.321,5.176,12.812,7.457,19.488c2.662,6.452,4.974,13.181,6.799,20.392
							l0.158,0.632c1.233,4.864-1.71,9.803-6.579,11.031C1596.815,2847.83,1593.771,2846.983,1591.604,2845.124"/>
					</g>
					<g>
						<path style="fill:#000072;" d="M2200.73,2980c-30.713,12.558-63.061,21.01-95.822,26.51
							c-16.365,2.934-32.914,4.623-49.455,6.123c-16.563,1.25-33.169,1.816-49.762,1.93c-16.589-0.18-33.195-0.754-49.758-2.11
							c-16.54-1.531-33.077-3.312-49.437-6.281c-32.739-5.615-65.061-14.163-95.738-26.8c-4.509-1.851-6.654-7.009-4.798-11.518
							c1.601-3.882,5.658-6.018,9.632-5.338l0.053,0.013c31.747,5.395,63.263,9.873,94.931,12.746
							c15.843,1.276,31.655,2.614,47.538,3.158c15.856,0.706,31.734,1.224,47.626,1.057c15.891,0.132,31.774-0.237,47.635-0.969
							c15.878-0.469,31.699-1.798,47.547-3.009c31.677-2.785,63.201-7.136,94.979-12.382l0.052-0.009
							c4.807-0.79,9.352,2.465,10.146,7.272C2206.778,2974.535,2204.458,2978.478,2200.73,2980"/>
					</g>
					<g>
						<path style="fill:#000072;" d="M2385.418,2174.904c28.414,50.674,51.363,104.384,69.684,159.769
							c9.189,27.69,16.957,55.894,23.773,84.378c6.781,28.497,12.304,57.376,16.049,86.597c7.79,58.337,8.65,118.292-1.053,177.34
							c-5.044,29.454-12.751,58.591-23.576,86.641c-10.496,28.046-25.216,55.271-48.244,75.496
							c-3.772,3.312-9.514,2.939-12.821-0.833c-2.171-2.469-2.759-5.79-1.846-8.715l0.057-0.162
							c8.763-27.747,20.01-52.275,29.475-78.167c9.172-25.901,15.51-52.832,19.405-80.189c8.141-54.722,6.812-110.937,0.447-166.655
							c-3.369-27.861-8.014-55.666-13.795-83.303c-5.759-27.651-12.97-55.034-20.703-82.321
							c-15.563-54.573-34.177-108.379-52.85-162.668l-0.013-0.031c-1.583-4.601,0.864-9.615,5.465-11.194
							C2378.962,2169.478,2383.379,2171.259,2385.418,2174.904"/>
					</g>
					<g>
						<path style="fill:#FFFFFF;" d="M2220.755,776.792c143.259-143.991,318.739-246.967,390.076-205.653
							c80.347,46.534,80.233,443.347,3.237,587.996L2220.755,776.792z"/>
					</g>
					<g>
						<path style="fill:#000072;" d="M2619.807,1195.82l-430.779-418.762l15.916-15.994
							c141.394-142.117,330.061-259.614,417.063-209.226c64.087,37.114,71.526,205.684,71.75,276.435
							c0.349,109.868-15.232,257.236-60.002,341.34L2619.807,1195.82z M2252.629,776.674l354.219,344.336
							c26.423-68.335,42.664-178.367,42.302-292.595c-0.437-137.666-25.232-223.921-49.497-237.974
							C2551.704,562.665,2402.986,631.034,2252.629,776.674z"/>
					</g>
					<g>
						<path style="fill:#F6A42B;" d="M1791.585,776.792c-143.263-143.991-318.739-246.967-390.077-205.653
							c-80.347,46.534-80.237,443.347-3.241,587.996L1791.585,776.792z"/>
					</g>
					<g style="opacity:0.5;">
						<g>
							<g>
								<path style="fill:#FFFFFF;" d="M1791.598,776.784l-21.212,20.585c-139.78-134.82-304.115-228.062-372.575-188.406
									c-27.199,15.764-45.196,71.719-54.078,144.421c6.829-90.699,25.989-163.848,57.784-182.248
									C1472.833,529.826,1648.335,632.81,1791.598,776.784"/>
							</g>
						</g>
					</g>
					<g>
						<path style="fill:#000072;" d="M1392.527,1195.82l-13.948-26.206c-44.771-84.104-60.347-231.472-59.998-341.34
							c0.225-70.752,7.666-239.321,71.748-276.435c87.017-50.369,275.674,67.109,417.065,209.224l15.916,15.996L1392.527,1195.82z
							 M1439.934,584.369c-11.038,0-20.225,2.004-27.249,6.072c-24.265,14.053-49.06,100.308-49.497,237.974
							c-0.364,114.229,15.874,224.26,42.297,292.595l354.224-344.336C1631.379,652.372,1504.241,584.369,1439.934,584.369z"/>
					</g>
					<g>
						<path style="fill:#FFFFFF;" d="M2740.806,1639.672c-6.365,38.656-21.094,81.163-49.477,123.626
							c-79.957,119.49-268.477,238.602-684.502,270.661c-421.087-32.432-609.05-154.102-687.336-275.074
							c-26.524-40.976-40.463-81.86-46.595-119.214c-15.146-91.935,12.545-168.545,15.47-196.279
							c19.141-168.313,63.416-764.218,718.46-764.218c327.524,0,502.342,148.983,597.672,318.971
							c95.379,170.037,111.218,361.11,120.788,445.246C2728.213,1471.127,2755.903,1547.737,2740.806,1639.672"/>
					</g>
					<g>
						<path style="fill:#D3DDEA;" d="M2691.328,1763.296c-79.957,119.49-268.477,238.602-684.502,270.661
							c-421.087-32.432-609.05-154.101-687.332-275.074c0,0,118.468,85.479,345.039,140.767
							c225.965,55.139,462.247,55.139,688.217,0C2548.662,1851.841,2663.73,1781.508,2691.328,1763.296"/>
					</g>
					<g>
						<path style="fill:#FFFFFF;" d="M1978.068,801.898c0,236.379-191.683,428.057-428.101,428.057
							c-77.584,0-150.382-20.624-213.145-56.771c64.342-218.86,219.785-474.836,623.683-492.999
							C1971.941,718.739,1978.068,759.623,1978.068,801.898"/>
					</g>
					<g>
						<path style="fill:#F6A42B;" d="M1978.068,801.898c0,236.379-191.683,428.057-428.101,428.057
							c-77.584,0-150.382-20.624-213.145-56.771c64.342-218.86,219.785-474.836,623.683-492.999
							C1971.941,718.739,1978.068,759.623,1978.068,801.898"/>
					</g>
					<g style="opacity:0.5;">
						<g>
							<g>
								<path style="fill:#FFFFFF;" d="M1971.63,727.571c-317.91-19.339-526.835,239.716-611.419,458.147
									c-7.926-3.939-15.769-8.132-23.405-12.531c64.368-218.847,219.794-474.832,623.7-493.013
									C1965.117,695.614,1968.806,711.426,1971.63,727.571"/>
							</g>
						</g>
					</g>
					<g>
						<path style="fill:#000072;" d="M2638.188,1044.708c3.917,6.079,7.601,12.295,11.242,18.549l5.369,9.439
							c1.693,3.185,3.219,6.448,4.847,9.672c3.246,6.456,6.382,12.966,9.395,19.536c2.86,6.623,5.68,13.264,8.325,19.988
							c2.75,6.68,5.347,13.409,7.663,20.243c2.355,6.816,4.799,13.61,6.922,20.505c4.132,13.804,8.294,27.62,11.834,41.577
							c14.887,55.679,24.918,112.437,32.533,169.177c1.869,14.176,3.627,28.366,5.25,42.481l2.386,21.142
							c0.206,1.671,0.39,3.724,0.61,5.084l0.64,4.259c0.614,3.158,1.198,6.294,1.965,9.711c2.939,13.453,6.272,27.708,8.957,42.038
							c2.711,14.374,4.948,28.958,6.496,43.682c2.86,29.476,3.233,59.548-0.798,89.326c-3.816,29.809-11.917,59.311-23.918,86.883
							c-5.798,13.904-12.979,27.142-20.519,40.103c-4.018,6.325-7.803,12.812-12.202,18.861l-6.421,9.198l-6.825,8.873
							c-18.291,23.607-39.323,44.801-62.034,63.622c-22.686,18.861-46.867,35.643-72.035,50.446
							c-25.177,14.795-51.244,27.747-77.772,39.41c-26.489,11.808-53.78,21.357-81.119,30.462
							c-13.768,4.206-27.493,8.623-41.423,12.15l-20.826,5.553l-20.957,4.93c-55.942,12.781-112.582,21.536-169.449,26.155
							c-4.833,0.39-9.075-3.211-9.47-8.049c-0.364-4.483,2.71-8.457,7.018-9.325c55.389-11.264,110.366-23.44,164.313-38.63
							c27.08-7.224,53.617-16.032,80.049-24.909c26.234-9.386,52.275-19.264,77.492-30.765
							c25.221-11.466,49.841-24.094,73.377-38.318c23.523-14.233,45.863-30.186,66.552-47.832
							c20.694-17.637,39.586-37.147,55.955-58.424l6.097-8.005l5.698-8.272c3.93-5.43,7.229-11.238,10.795-16.887
							c6.623-11.571,12.953-23.335,17.988-35.638c5.18-12.237,9.658-24.773,13.01-37.607c3.391-12.834,6.149-25.752,7.623-39.055
							c3.654-26.432,3.5-53.433,1.005-80.352c-1.36-13.474-3.351-26.94-5.838-40.432c-2.465-13.544-5.535-26.918-8.588-41.173
							c-0.767-3.496-1.482-7.334-2.193-11.132l-0.908-6.255c-0.298-2.15-0.412-3.632-0.627-5.479l-2.29-21.115
							c-1.478-14.067-2.983-28.032-4.641-41.976c-3.316-27.879-7.286-55.591-12.115-83.132
							c-4.763-27.55-10.492-54.889-17.304-81.926c-13.563-54.223-31.085-106.669-47.034-160.957l-0.035-0.118
							c-1.373-4.693,1.312-9.61,6-10.992C2632.104,1039.874,2636.117,1041.497,2638.188,1044.708"/>
					</g>
					<g>
						<path style="fill:#000072;" d="M1717.479,718.439c22.396-10.479,45.709-18.979,69.377-26.317
							c23.721-7.158,47.849-13.045,72.241-17.479c24.352-4.667,48.99-7.592,73.636-9.869c24.673-2.07,49.407-2.956,74.114-3.158
							v35.09h-0.022v-35.09c24.73,0.206,49.49,1.088,74.184,3.162c24.672,2.281,49.327,5.215,73.71,9.886
							c24.409,4.443,48.56,10.343,72.303,17.51c23.69,7.351,47.02,15.869,69.438,26.366c4.395,2.062,6.294,7.299,4.233,11.698
							c-1.855,3.974-6.303,5.904-10.387,4.733l-0.048-0.013c-23.146-6.628-46.327-12.672-69.768-17.479
							c-23.387-4.987-46.976-8.847-70.64-11.987c-23.699-2.917-47.455-5.413-71.32-6.671c-23.852-1.469-47.766-2.241-71.706-2.114
							v-35.09h0.022v35.09c-23.918-0.127-47.81,0.645-71.636,2.11c-23.844,1.259-47.577,3.742-71.254,6.654
							c-23.646,3.136-47.209,6.983-70.574,11.961c-23.418,4.794-46.582,10.821-69.715,17.427l-0.044,0.013
							c-4.676,1.338-9.544-1.369-10.878-6.044C1711.545,724.61,1713.632,720.237,1717.479,718.439"/>
					</g>
					<g>
						<path style="fill:#000072;" d="M1867.367,2027.764c-56.92-4.29-113.568-13.088-169.537-25.813
							c-55.942-12.803-111.143-30.133-164.295-53.306c-26.532-11.663-52.609-24.62-77.794-39.415
							c-25.168-14.812-49.358-31.599-72.048-50.464c-22.729-18.813-43.682-40.099-62.004-63.679l-6.825-8.878l-6.43-9.198
							c-4.395-6.053-8.18-12.54-12.198-18.87c-7.54-12.961-14.72-26.199-20.527-40.108c-5.943-13.826-11.097-28.041-15.005-42.617
							c-3.926-14.531-7.198-29.401-8.878-44.292c-3.996-29.782-3.649-59.854-0.776-89.33c1.553-14.725,3.785-29.313,6.496-43.683
							c2.68-14.334,6.018-28.585,8.957-42.038c0.772-3.421,1.351-6.553,1.965-9.716l0.64-4.259c0.219-1.356,0.404-3.408,0.61-5.079
							l2.395-21.146c1.645-14.111,3.386-28.3,5.259-42.476c7.606-56.74,17.633-113.498,32.511-169.181
							c3.535-13.957,7.715-27.769,11.821-41.582c2.132-6.891,4.544-13.698,6.904-20.514c2.276-6.843,4.908-13.566,7.654-20.247
							c2.649-6.715,5.435-13.378,8.316-19.992c3.031-6.562,6.145-13.084,9.404-19.532c1.623-3.228,3.167-6.483,4.851-9.676
							l5.382-9.431c3.641-6.255,7.343-12.461,11.273-18.536c2.654-4.105,8.136-5.281,12.246-2.627
							c3.364,2.176,4.759,6.246,3.698,9.904l-0.04,0.132c-15.821,54.341-33.462,106.734-47.025,160.957
							c-6.821,27.037-12.549,54.381-17.313,81.931c-4.834,27.536-8.807,55.249-12.128,83.128
							c-1.654,13.944-3.176,27.91-4.632,41.981l-2.276,21.115c-0.219,1.847-0.333,3.329-0.632,5.479l-0.908,6.255
							c-0.711,3.803-1.421,7.636-2.193,11.137c-3.048,14.255-6.119,27.625-8.588,41.169c-2.483,13.496-4.478,26.958-5.838,40.432
							c-2.487,26.918-2.662,53.924,1.022,80.352c3.312,26.418,10.189,52.183,20.672,76.636
							c5.035,12.303,11.365,24.063,17.988,35.634c3.566,5.645,6.869,11.448,10.795,16.883l5.702,8.264l6.093,8.005
							c16.339,21.304,35.309,40.726,55.981,58.372c20.69,17.633,43.02,33.581,66.543,47.81
							c23.536,14.225,48.148,26.844,73.369,38.309c25.19,11.553,51.314,21.207,77.509,30.664
							c13.251,4.356,26.41,8.961,39.809,12.944l20.032,6.202l20.221,5.654c53.92,15.242,108.884,27.37,164.234,38.963
							c4.75,0.996,7.799,5.65,6.803,10.404C1875.723,2025.163,1871.701,2028.093,1867.367,2027.764"/>
					</g>
					<g>
						<path style="fill:#000072;" d="M2094.933,1675.76c-16.47,20.742-21.348,44.564-27.296,65.53
							c-6.439,22.721-14.102,42.161-38.923,50.889c-12.957,4.575-27.291,4.575-40.248,0c-24.703-8.689-32.405-27.98-38.809-50.582
							c-6.022-21.045-10.865-44.985-27.41-65.837l86.339-31.805L2094.933,1675.76z"/>
					</g>
					<g>
						<path style="fill:#EE7A7C;" d="M2067.639,1741.292c-6.443,22.721-14.106,42.156-38.924,50.889
							c-12.957,4.575-27.296,4.575-40.252,0c-24.703-8.693-32.401-27.98-38.805-50.587c7.772-3.772,16.501-5.908,25.69-5.908
							c12.505,0,24.094,3.926,33.625,10.597c9.527-6.671,21.155-10.597,33.66-10.597
							C2051.59,1735.687,2060.055,1737.709,2067.639,1741.292"/>
					</g>
					<g>
						<path style="fill:#000072;" d="M2033.83,1722.27l-7.382,15.668c0,0-17.497,4.891-17.497,23.716
							c0-18.826-17.448-23.716-17.448-23.716l-7.382-15.668l10.075,3.316l14.755,4.395l14.803-4.395L2033.83,1722.27z"/>
					</g>
					<g>
						<path style="fill:#000072;" d="M2008.589,1812.06c-8.672,0-17.341-1.45-25.596-4.36
							c-35.881-12.627-44.209-43.218-51.558-70.21c-4.822-17.715-9.81-36.035-22.073-51.523c-5.637-7.124-4.434-17.471,2.688-23.105
							c7.122-5.64,17.466-4.443,23.108,2.686c16.44,20.772,22.59,43.369,28.02,63.306c7.319,26.89,12.012,41.23,30.74,47.817
							c9.453,3.335,19.873,3.33,29.336,0.005c18.73-6.592,23.423-20.933,30.745-47.827c5.427-19.937,11.58-42.529,28.018-63.301
							c5.642-7.124,15.989-8.32,23.105-2.686c7.124,5.635,8.328,15.981,2.69,23.105c-12.261,15.488-17.249,33.809-22.073,51.523
							c-7.349,26.992-15.676,57.583-51.56,70.215C2025.93,1810.61,2017.258,1812.06,2008.589,1812.06z"/>
					</g>
					<g>
						<path style="fill:#000072;" d="M1616.609,1084.831c-6.851-10.694,38.669-106.239,124.306-77.939
							c30.848,10.198,33.721,40.283,9.799,46.683c-22.795,6.097-33.05,1.154-68.381,13.554
							C1662.34,1074.142,1623.46,1095.525,1616.609,1084.831"/>
					</g>
					<g>
						<path style="fill:#000072;" d="M2395.249,1084.831c6.851-10.694-38.669-106.239-124.306-77.939
							c-30.844,10.198-33.721,40.283-9.799,46.683c22.795,6.097,33.055,1.154,68.386,13.554
							C2349.518,1074.142,2388.397,1095.525,2395.249,1084.831"/>
					</g>
					<g>
						<path style="fill:#EE7E80;" d="M2614.081,955.681c-4.904,35.037-10.47,57.977-13.905,57.977
							c-7.891,0-46.525-72.127-103.445-137.916c-17.659-20.44-35.283-39.13-51.025-54.214c-25.598-24.493-20.326-61.662,2.899-88.44
							c36.844-42.52,115.472-87.049,146.746-83.9c11.615,1.145,21.221,36.594,25.844,89.462c1.188,13.698,2.044,28.537,2.535,44.24
							C2625.652,844.999,2620.419,910.419,2614.081,955.681"/>
					</g>
					<g>
						<path style="fill:#EA5C66;" d="M2606.422,955.681c-4.904,35.037-10.47,57.977-13.905,57.977
							c-7.891,0-46.525-72.127-103.445-137.916c-17.659-20.44-35.283-39.13-51.025-54.214c-25.598-24.493-20.326-61.662,2.899-88.44
							c36.844-42.52,115.472-87.049,146.746-83.9c11.615,1.145,21.221,36.594,25.844,89.462c0,0-21.383-32.585-43.138-31.278
							c-17.949,1.105-72.491,34.673-74.579,66.89c-3.228,50.008,32.835,44.244,68.899,150.303
							C2575.551,956.457,2591.456,963.326,2606.422,955.681"/>
					</g>
					<g>
						<path style="fill:#000072;" d="M2630.903,782.451c0.504,37.853-1.43,75.456-5.158,112.853
							c-1.82,18.707-3.956,37.371-6.715,56.003c-1.351,9.325-2.689,18.659-4.36,28.015c-1.71,9.404-3.426,18.628-6.294,28.528
							c-0.807,2.575-1.478,4.952-3.079,8.334c-0.202,0.425-0.408,0.847-0.732,1.403c-0.29,0.509-0.566,1.005-1.101,1.755
							c-0.268,0.364-0.43,0.605-0.803,1.057c-0.421,0.5-0.882,0.983-1.355,1.434c-0.171,0.171-0.513,0.482-1.052,0.882
							c-0.478,0.355-0.974,0.689-1.487,0.978c-0.662,0.465-2.969,1.43-4.943,1.597c-1.198,0.131-1.719,0.074-2.127,0.035
							c-0.487-0.044-0.982-0.105-1.478-0.197c-0.982-0.176-1.961-0.452-2.873-0.798c-0.562-0.215-0.662-0.294-0.873-0.395
							l-0.605-0.329l-1.176-0.697c-0.364-0.224-0.82-0.526-1.083-0.728l-0.64-0.518l-1.25-1.066
							c-2.698-2.539-4.233-4.522-5.926-6.584c-1.588-2.013-3.066-3.982-4.5-5.948c-5.663-7.812-10.865-15.505-16.128-23.181
							c-10.435-15.365-21.023-30.436-31.941-45.217c-21.738-29.677-45.485-57.249-71.123-83.444
							c-6.382-6.527-12.86-12.944-19.444-19.181l-4.961-4.645c-2.004-2.066-4.088-4.136-6.013-6.329
							c-3.715-4.571-7.132-9.514-9.65-14.988c-5.158-10.86-7.356-23.12-6.562-34.752c0.776-11.663,4.057-22.743,8.922-32.765
							c2.408-5.04,5.355-9.729,8.518-14.233c1.575-2.263,3.36-4.347,5.044-6.514c1.711-2.026,3.408-3.807,5.115-5.715
							c6.812-7.571,14.132-14.216,21.532-20.747c14.983-12.738,30.835-24.006,47.498-34.134c8.268-5.167,16.97-9.693,25.844-14.018
							c8.974-4.215,18.075-8.215,28.085-11.325c4.869-1.662,10.233-2.943,15.734-4.005c2.974-0.373,5.807-0.803,8.904-1.018
							l5.097,0.048l2.544,0.079c0.531,0.039,0.605-0.018,1.513,0.105c1.079,0.158,2.158,0.377,3.219,0.645
							c2.237,0.535,3.71,1.338,5.5,2.211c1.518,0.855,2.724,1.75,4.013,2.728c0.991,0.864,1.948,1.768,2.873,2.702
							c0.754,0.847,1.448,1.684,2.149,2.549c2.469,3.276,4.101,6.255,5.43,9.036c2.654,5.588,4.263,10.654,5.741,15.694
							c5.435,19.944,7.571,38.888,9.347,57.969C2629.802,744.637,2630.622,763.559,2630.903,782.451 M2601.26,783.359
							c-0.873-18.256-2.281-36.458-4.5-54.398c-2.285-17.821-5.338-35.849-10.251-51.639c-1.233-3.838-2.627-7.606-4.075-10.36
							c-0.697-1.395-1.434-2.439-1.776-2.86c-0.057-0.022-0.101-0.079-0.11-0.114c0.079,0.14,0.189,0.254,0.333,0.324
							c0.32,0.342,0.61,0.509,1.119,0.79c0.711,0.469,1.206,0.553,2.277,0.939c0.491,0.149,1.004,0.245,1.522,0.276
							c0.333,0.026-0.18,0.035-0.228,0.048l-0.943,0.061c-0.627,0.026-1.246,0.026-1.873,0.005l-4.913,0.745
							c-3.57,0.838-7.307,1.588-11.216,2.987c-15.619,4.956-31.493,13.321-46.726,22.054c-15.264,8.869-29.998,18.922-43.555,30.002
							c-6.623,5.641-13.203,11.378-18.94,17.536c-1.412,1.522-2.961,3.075-4.272,4.575c-1.175,1.487-2.478,2.895-3.583,4.43
							c-2.233,3.053-4.285,6.22-5.992,9.514c-3.483,6.553-5.75,13.554-6.483,20.431c-0.724,6.891,0.338,13.523,2.877,19.554
							c1.224,3.053,3.066,5.842,5.062,8.584l3.439,3.908l5.04,5.066c6.671,6.777,13.167,13.676,19.541,20.655
							c12.733,14.01,24.966,28.23,36.835,43.086c11.786,14.826,22.905,30.063,33.748,45.415
							c10.825,15.361,21.137,31.028,31.445,46.503c5.141,7.716,10.25,15.488,15.4,22.786c1.285,1.807,2.575,3.566,3.838,5.22
							c1.211,1.562,2.601,3.211,3.281,3.864l0.075,0.066l0.026,0.053l-0.351-0.263c-0.145-0.092-0.289-0.175-0.438-0.246
							l-0.232-0.092c-0.083-0.035-0.07-0.017-0.483-0.21c-0.636-0.276-1.329-0.482-2.031-0.592
							c-0.355-0.048-0.706-0.083-1.057-0.088c-0.267,0.009-0.649-0.022-1.702,0.053c-1.697,0.088-3.698,1.039-4.132,1.298
							c-0.395,0.215-0.772,0.465-1.123,0.737l-0.724,0.605c-0.281,0.246-0.535,0.513-0.763,0.803l-0.29,0.356
							c-0.184,0.285-0.184,0.272-0.184,0.272c-0.017,0.062,0.022-0.044,0.07-0.145c0.404-0.807,1.114-2.886,1.654-4.755
							c2.281-7.961,3.987-17.045,5.535-25.922c1.513-8.952,2.891-18.001,3.987-27.098c2.118-18.207,3.746-36.533,4.864-54.881
							C2602.33,856.6,2602.94,819.813,2601.26,783.359"/>
					</g>
					<g>
						<path style="fill:#EE7E80;" d="M1415.173,951.53c4.908,35.037,10.466,57.982,13.9,57.982
							c7.891,0,46.534-72.132,103.445-137.917c17.668-20.444,35.287-39.134,51.029-54.218c25.598-24.493,20.321-61.662-2.904-88.44
							c-36.84-42.52-115.468-87.049-146.741-83.9c-11.615,1.145-21.225,36.594-25.844,89.462
							c-1.184,13.698-2.044,28.537-2.535,44.24C1403.602,840.848,1408.835,906.269,1415.173,951.53"/>
					</g>
					<g>
						<path style="fill:#EA5C66;" d="M1407.513,951.53c4.908,35.037,10.465,57.982,13.9,57.982
							c7.891,0,46.534-72.132,103.445-137.917c17.668-20.444,35.287-39.134,51.029-54.218c25.598-24.493,20.321-61.662-2.904-88.44
							c-36.84-42.52-115.468-87.049-146.741-83.9c-11.615,1.145-21.225,36.594-25.844,89.462c0,0,21.383-32.585,43.134-31.278
							c17.953,1.105,72.496,34.673,74.579,66.894c3.233,50.003-32.831,44.24-68.895,150.299
							C1438.384,952.307,1422.479,959.176,1407.513,951.53"/>
					</g>
					<g>
						<path style="fill:#000072;" d="M1412.673,779.208c-1.68,36.454-1.07,73.241,0.978,109.941
							c1.114,18.343,2.746,36.669,4.864,54.876c1.097,9.097,2.478,18.146,3.992,27.103c1.544,8.873,3.255,17.957,5.535,25.918
							c0.539,1.869,1.246,3.948,1.653,4.759c0.044,0.101,0.088,0.202,0.066,0.14c0,0,0,0.013-0.184-0.272l-0.289-0.355
							c-0.224-0.289-0.483-0.557-0.759-0.803l-0.724-0.605c-0.355-0.272-0.733-0.522-1.123-0.737
							c-0.434-0.259-2.439-1.211-4.132-1.298c-1.057-0.07-1.439-0.044-1.706-0.053c-0.346,0.009-0.702,0.035-1.053,0.088
							c-0.706,0.109-1.399,0.316-2.031,0.592c-0.412,0.193-0.399,0.176-0.487,0.211l-0.233,0.092
							c-0.149,0.07-0.294,0.153-0.434,0.246l-0.351,0.263l0.026-0.052l0.07-0.066c0.68-0.654,2.07-2.298,3.281-3.864
							c1.268-1.649,2.553-3.412,3.838-5.22c5.149-7.299,10.259-15.071,15.396-22.786c10.317-15.475,20.624-31.142,31.449-46.503
							c10.847-15.352,21.966-30.59,33.748-45.415c11.869-14.856,24.102-29.076,36.84-43.082
							c6.373-6.979,12.865-13.882,19.536-20.659l5.04-5.066l3.439-3.904c1.996-2.741,3.842-5.535,5.066-8.588
							c2.54-6.031,3.597-12.659,2.869-19.553c-0.728-6.873-2.996-13.878-6.478-20.431c-1.706-3.294-3.759-6.461-5.992-9.514
							c-1.105-1.531-2.408-2.943-3.579-4.43c-1.316-1.5-2.864-3.053-4.277-4.575c-5.733-6.158-12.312-11.896-18.944-17.536
							c-13.553-11.08-28.287-21.133-43.551-30.002c-15.234-8.729-31.107-17.097-46.727-22.054
							c-3.908-1.399-7.641-2.149-11.216-2.987l-4.913-0.746c-0.627,0.022-1.25,0.022-1.873-0.004l-0.943-0.061
							c-0.044-0.013-0.557-0.022-0.224-0.049c0.509-0.03,1.026-0.127,1.522-0.276c1.066-0.386,1.561-0.465,2.272-0.939
							c0.509-0.281,0.798-0.447,1.123-0.79c0.14-0.07,0.254-0.184,0.329-0.32c-0.009,0.031-0.053,0.088-0.105,0.109
							c-0.347,0.421-1.083,1.465-1.781,2.86c-1.447,2.754-2.842,6.522-4.07,10.36c-4.917,15.79-7.97,33.818-10.255,51.643
							C1414.954,742.754,1413.546,760.953,1412.673,779.208 M1383.036,778.3c0.272-18.891,1.097-37.809,2.807-56.828
							c1.781-19.08,3.913-38.029,9.347-57.973c1.478-5.04,3.088-10.106,5.746-15.694c1.329-2.781,2.956-5.759,5.426-9.036
							c0.702-0.864,1.399-1.702,2.154-2.548c0.921-0.93,1.882-1.838,2.869-2.702c1.29-0.978,2.5-1.873,4.013-2.728
							c1.794-0.873,3.268-1.68,5.5-2.211c1.062-0.267,2.145-0.487,3.224-0.645c0.908-0.119,0.978-0.066,1.509-0.105l2.548-0.079
							l5.092-0.048c3.101,0.215,5.93,0.645,8.904,1.018c5.505,1.061,10.865,2.342,15.733,4.009
							c10.009,3.11,19.111,7.11,28.09,11.325c8.869,4.32,17.571,8.847,25.839,14.014c16.663,10.128,32.515,21.396,47.499,34.134
							c7.399,6.531,14.72,13.176,21.532,20.747c1.706,1.908,3.408,3.689,5.114,5.716c1.689,2.167,3.47,4.25,5.044,6.513
							c3.163,4.505,6.115,9.194,8.523,14.233c4.86,10.022,8.141,21.102,8.917,32.765c0.794,11.632-1.404,23.892-6.566,34.752
							c-2.509,5.474-5.93,10.417-9.641,14.988c-1.93,2.193-4.009,4.268-6.014,6.329l-4.961,4.645
							c-6.588,6.237-13.067,12.654-19.449,19.181c-25.638,26.199-49.38,53.766-71.123,83.444
							c-10.917,14.781-21.506,29.853-31.941,45.213c-5.268,7.68-10.461,15.378-16.128,23.19c-1.434,1.956-2.912,3.93-4.5,5.943
							c-1.689,2.061-3.228,4.044-5.921,6.584l-1.255,1.066l-0.636,0.518c-0.268,0.206-0.719,0.5-1.083,0.728l-1.18,0.697
							l-0.601,0.329c-0.211,0.105-0.316,0.18-0.877,0.395c-0.912,0.346-1.886,0.623-2.877,0.798
							c-0.491,0.092-0.987,0.153-1.474,0.197c-0.408,0.04-0.93,0.097-2.127-0.035c-1.974-0.167-4.281-1.132-4.939-1.592
							c-0.513-0.298-1.013-0.627-1.487-0.978c-0.539-0.399-0.882-0.711-1.053-0.886c-0.478-0.452-0.934-0.934-1.36-1.434
							c-0.373-0.452-0.535-0.693-0.803-1.057c-0.535-0.75-0.812-1.246-1.101-1.755c-0.32-0.557-0.526-0.978-0.733-1.404
							c-1.601-3.382-2.272-5.755-3.079-8.334c-2.869-9.9-4.583-19.124-6.29-28.528c-1.671-9.356-3.009-18.69-4.36-28.015
							c-2.763-18.633-4.899-37.296-6.715-56.004C1384.465,853.756,1382.527,816.153,1383.036,778.3"/>
					</g>
					<g>
						<path style="fill:#F1959E;" d="M2622.797,1641.814c0,47.573-50.968,86.132-113.84,86.132
							c-62.872,0-113.84-38.559-113.84-86.132c0-47.569,50.968-86.132,113.84-86.132
							C2571.829,1555.681,2622.797,1594.245,2622.797,1641.814"/>
					</g>
					<g>
						<path style="fill:#F1959E;" d="M1618.582,1641.814c0,47.573-50.968,86.132-113.84,86.132
							c-62.872,0-113.84-38.559-113.84-86.132c0-47.569,50.968-86.132,113.84-86.132
							C1567.614,1555.681,1618.582,1594.245,1618.582,1641.814"/>
					</g>
					<g>
						<path style="fill:#000072;" d="M2673.393,1532.904c17.667-17.764,37.809-31.269,59.096-43.252
							c21.33-11.751,43.884-21.295,67.153-28.388c5.759-1.965,11.707-3.272,17.55-4.934l8.807-2.369
							c2.939-0.759,5.939-1.263,8.904-1.908c5.952-1.232,11.904-2.439,17.87-3.553l18.049-2.347
							c6.013-0.794,12.018-1.601,18.084-1.816c6.044-0.386,12.088-0.746,18.132-1.018l4.527-0.224l4.54,0.075l9.066,0.158
							l18.102,0.434c3.228,0.075,5.781,2.75,5.702,5.979c-0.07,3.066-2.504,5.531-5.522,5.693l-0.412,0.022l-17.633,0.899
							l-8.799,0.386l-4.395,0.197l-4.373,0.487c-11.641,1.509-23.375,1.925-34.871,4.241l-17.291,2.904
							c-5.689,1.351-11.391,2.605-17.098,3.829c-2.842,0.654-5.724,1.167-8.535,1.935l-8.422,2.382
							c-5.588,1.671-11.286,2.983-16.777,4.943c-22.221,7.136-43.665,16.378-64.469,26.822
							c-20.681,10.435-40.994,22.791-58.855,36.831l-0.381,0.298c-2.535,1.995-6.202,1.557-8.202-0.978
							C2671.104,1538.29,2671.341,1534.97,2673.393,1532.904"/>
					</g>
					<g>
						<path style="fill:#000072;" d="M2681.708,1626.359c21.203-5.496,42.463-7.803,64.056-8.215
							c21.541-0.386,43.182,1.561,64.425,5.9c10.636,2.066,21.137,4.93,31.44,8.404c10.338,3.347,20.383,7.654,30.107,12.558
							c19.558,9.588,37.458,22.572,52.793,37.884c2.285,2.285,2.29,5.992,0.004,8.273c-2.145,2.153-5.549,2.285-7.851,0.395
							l-0.105-0.088c-15.764-13.036-33.011-24.045-51.582-32.322c-4.575-2.197-9.378-3.921-14.08-5.825
							c-4.821-1.619-9.566-3.439-14.457-4.864c-9.702-3.062-19.624-5.439-29.651-7.382c-20.041-3.93-40.538-5.619-61.074-6.132
							c-20.471-0.382-41.397,0.412-61.543,2.842l-0.316,0.039c-3.206,0.386-6.118-1.895-6.505-5.106
							C2677.014,1629.776,2678.909,1627.079,2681.708,1626.359"/>
					</g>
					<g>
						<path style="fill:#000072;" d="M1332.127,1541.312c-17.861-14.04-38.173-26.396-58.855-36.831
							c-20.804-10.444-42.253-19.685-64.464-26.822c-5.496-1.961-11.194-3.272-16.782-4.943l-8.422-2.382
							c-2.812-0.768-5.693-1.281-8.536-1.935c-5.707-1.224-11.409-2.478-17.098-3.829l-17.29-2.904
							c-11.496-2.316-23.23-2.733-34.871-4.242l-4.377-0.487l-4.395-0.197l-8.794-0.386l-17.628-0.899l-0.395-0.022
							c-3.224-0.167-5.702-2.908-5.54-6.136c0.158-3.066,2.676-5.461,5.698-5.536l18.102-0.434l9.066-0.158l4.54-0.074l4.527,0.224
							c6.044,0.272,12.088,0.632,18.137,1.018c6.062,0.215,12.067,1.022,18.08,1.816l18.049,2.347
							c5.965,1.114,11.917,2.32,17.865,3.553c2.969,0.645,5.97,1.149,8.909,1.908l8.803,2.369
							c5.842,1.662,11.799,2.969,17.554,4.934c23.269,7.093,45.823,16.637,67.153,28.388c21.282,11.983,41.428,25.488,59.096,43.252
							c2.272,2.285,2.263,5.983-0.022,8.259c-2.119,2.106-5.443,2.25-7.729,0.452L1332.127,1541.312z"/>
					</g>
					<g>
						<path style="fill:#000072;" d="M1329.461,1637.787c-20.146-2.434-41.068-3.224-61.539-2.842
							c-20.541,0.513-41.033,2.202-61.078,6.132c-10.023,1.939-19.949,4.316-29.651,7.382c-4.891,1.426-9.632,3.246-14.457,4.865
							c-4.702,1.903-9.5,3.623-14.08,5.82c-18.571,8.281-35.818,19.291-51.578,32.322l-0.092,0.074
							c-2.487,2.062-6.18,1.711-8.237-0.781c-1.934-2.342-1.724-5.759,0.377-7.873c15.33-15.308,33.23-28.295,52.793-37.879
							c9.72-4.908,19.765-9.211,30.107-12.562c10.299-3.474,20.8-6.334,31.436-8.404c21.242-4.334,42.888-6.281,64.425-5.899
							c21.594,0.412,42.854,2.724,64.061,8.22c3.127,0.807,5.005,4,4.193,7.128c-0.741,2.868-3.496,4.689-6.36,4.338
							L1329.461,1637.787z"/>
					</g>
					<g>
						<path style="fill:#000072;" d="M2071.469,1562.562c0,18.69-28.348,43.113-64.342,52.113
							c-36.029-9-64.377-33.423-64.377-52.113c0-16.189,48.301-19.966,64.377-19.966
							C2023.202,1542.596,2071.469,1546.372,2071.469,1562.562"/>
					</g>
					<g style="opacity:0.6;">
						<g>
							<g>
								<path style="fill:#FFFFFF;" d="M2037.557,1557.842c0,5.645-13.413,13.023-30.436,15.742
									c-17.045-2.719-30.458-10.097-30.458-15.742c0-4.891,22.852-6.031,30.458-6.031
									C2014.722,1551.811,2037.557,1552.951,2037.557,1557.842"/>
							</g>
						</g>
					</g>
					<g>
						<path style="fill:#FFFFFF;" d="M2128.044,1623.044c0,0,13.036,37.827-21.098,57.21c-32.848,18.659-71.487-5.557-89.668-19.703
							c-6.61-5.15-10.452-13.04-10.452-21.418v-38.261v38.261c0,8.378-3.842,16.269-10.457,21.418
							c-18.177,14.145-56.819,38.362-89.663,19.703c-34.129-19.383-21.098-57.21-21.098-57.21"/>
					</g>
					<g>
						<path style="fill:#D3DDEA;" d="M2106.927,1680.245c-32.827,18.677-71.465-5.562-89.641-19.712
							c-6.601-5.145-10.461-13.031-10.461-21.418c0,8.386-3.86,16.273-10.457,21.418c-18.181,14.15-56.819,38.388-89.65,19.712
							c-34.155-19.378-21.124-57.188-21.124-57.188h0.123c2.991,8.843,9.176,17.764,21.001,24.484
							c32.831,18.677,71.469-5.562,89.65-19.711c1.825-1.408,3.399-2.992,4.728-4.772h11.452c1.329,1.781,2.908,3.364,4.737,4.772
							c18.177,14.15,56.815,38.388,89.641,19.711c11.83-6.72,18.014-15.641,21.001-24.484h0.123
							C2128.051,1623.058,2141.087,1660.867,2106.927,1680.245"/>
					</g>
					<g>
						<path style="fill:#000072;" d="M2134.263,1620.898c2.785,5.264,4.281,10.124,5.303,15.624
							c1.018,5.4,1.162,11.119,0.351,16.896c-1.346,11.615-7.803,23.278-16.817,31.169c-8.847,7.825-19.961,13.01-31.668,15.001
							c-11.703,2.04-23.331,0.75-33.822-2.127c-10.553-2.869-20.234-7.224-29.269-12.286c-4.513-2.553-8.895-5.246-13.075-8.202
							c-2.101-1.461-4.163-2.978-6.198-4.522c-0.439-0.312-1.132-0.864-1.855-1.469c-0.706-0.561-1.36-1.189-2.031-1.798
							c-1.316-1.246-2.535-2.588-3.684-3.987c-4.54-5.641-7.623-12.475-8.729-19.642c-0.281-1.785-0.465-3.593-0.5-5.4l-0.044-3.895
							l-0.039-7.075l-0.158-28.309c-0.044-8.176,6.544-14.834,14.72-14.882c8.172-0.044,14.834,6.544,14.874,14.716v0.167
							l-0.145,28.309l-0.04,7.075l-0.039,3.895c-0.035,1.807-0.219,3.614-0.504,5.404c-1.105,7.167-4.189,14.001-8.729,19.646
							c-1.149,1.399-2.373,2.741-3.689,3.987c-0.662,0.61-1.32,1.237-2.026,1.798c-0.728,0.61-1.421,1.158-1.855,1.469
							c-2.035,1.544-4.097,3.066-6.202,4.522c-4.176,2.961-8.549,5.676-13.062,8.22c-9.044,5.057-18.725,9.417-29.283,12.286
							c-10.487,2.877-22.124,4.167-33.831,2.127c-11.711-2-22.826-7.176-31.704-14.984c-9.062-7.856-15.562-19.545-16.856-31.195
							c-0.846-5.777-0.64-11.514,0.364-16.918c1.048-5.505,2.548-10.365,5.369-15.62c1.728-3.219,5.737-4.43,8.961-2.702
							c2.233,1.197,3.5,3.5,3.487,5.873l-0.004,1.118c-0.061,7.979,0.689,16.742,3.369,23.409c2.5,6.908,6.632,12.018,12.049,16.212
							c5.592,4.259,12.185,7.303,19.124,8.22c6.97,1.031,14.554,0.119,22.155-2.219c7.606-2.303,15.189-5.913,22.479-10.277
							c3.649-2.189,7.22-4.584,10.733-7.093c1.759-1.246,3.483-2.553,5.189-3.877c0.513-0.386,0.737-0.583,0.912-0.737
							c0.224-0.162,0.404-0.373,0.614-0.553c0.395-0.381,0.75-0.794,1.097-1.219c1.329-1.737,2.254-3.794,2.539-5.969
							c0.075-0.54,0.132-1.088,0.123-1.636l-0.004-3.189l-0.04-7.075l-0.145-28.309h29.594l-0.153,28.309l-0.04,7.075l-0.004,3.189
							c-0.009,0.548,0.053,1.097,0.127,1.636c0.281,2.18,1.211,4.237,2.54,5.978c0.347,0.421,0.706,0.838,1.101,1.219
							c0.206,0.18,0.386,0.39,0.605,0.552c0.184,0.154,0.399,0.355,0.912,0.737c1.711,1.329,3.439,2.632,5.198,3.877
							c3.509,2.513,7.066,4.93,10.72,7.11c7.294,4.364,14.882,7.97,22.488,10.277c7.606,2.338,15.194,3.255,22.168,2.22
							c6.939-0.926,13.54-3.957,19.159-8.202c5.465-4.158,9.636-9.299,12.088-16.238c2.689-6.685,3.408-15.462,3.294-23.427
							l-0.017-1.101c-0.053-3.654,2.864-6.658,6.518-6.711C2130.886,1617.337,2133.136,1618.78,2134.263,1620.898"/>
					</g>
					<g>
						<g>
							<ellipse style="fill:#000072;" cx="1730.495" cy="1460.654" rx="116.853" ry="148.884"/>
						</g>
						<g>
							
								<ellipse transform="matrix(0.9426 -0.334 0.334 0.9426 -370.2488 671.1971)" style="fill:#FFFFFF;" cx="1766.807" cy="1412.332" rx="33.146" ry="48.464"/>
						</g>
						<g style="opacity:0.67;">
							<g>
								
									<ellipse transform="matrix(0.2978 -0.9546 0.9546 0.2978 -265.2513 2733.0034)" style="fill:#FFFFFF;" cx="1725.115" cy="1546.805" rx="28.484" ry="36.834"/>
							</g>
						</g>
					</g>
					<g>
						<g>
							<ellipse style="fill:#000072;" cx="2281.691" cy="1460.654" rx="116.853" ry="148.884"/>
						</g>
						<g>
							
								<ellipse transform="matrix(0.334 -0.9426 0.9426 0.334 164.2133 3057.0684)" style="fill:#FFFFFF;" cx="2245.378" cy="1412.332" rx="48.464" ry="33.146"/>
						</g>
						<g style="opacity:0.67;">
							<g>
								
									<ellipse transform="matrix(0.9546 -0.2978 0.2978 0.9546 -356.8725 751.2788)" style="fill:#FFFFFF;" cx="2287.07" cy="1546.805" rx="36.834" ry="28.484"/>
							</g>
						</g>
					</g>
				</g>
			</g>
		</g>
	</g>
</g>
</svg>
