<?xml version="1.0" encoding="utf-8"?>
<svg xmlns="http://www.w3.org/2000/svg" viewBox="417.1257 815.869 3190.3474 2337.4731" width="3190.35px" height="2337.47px" preserveAspectRatio="none"><g id="object-0"><g><g><path style="fill:#FFAD40;" d="M1101.78,3115.842H789.798c-110.729-202.862,5.016-307.061,48.077-481.198 c2.981-12.067,4.401-24.465,4.164-36.721c-0.379-21.341-5.726-42.399-16.42-61.185c-52.1-91.422-161.551-33.739-146.125,76.233 c0.568,4.022,1.562,7.949,2.556,11.925c19.732,78.126-38.897,141.156-107.18,127.149c-19.685-4.022-37.383-14.716-51.39-29.102 c-7.477-7.666-14.291-15.569-20.49-23.66c-81.391-105.808-60.144-246.964,22.004-347.33 c159.99-195.527,475.52-119.247,536.138,126.061c4.448,17.982,7.902,36.531,10.363,55.459c3.927,30.285,5.11,60.712,3.738,90.997 c-2.934,62.983-17.083,125.257-40.837,184.124c-17.934,44.338-35.443,95.965-35.585,146.456 c-0.047,15.994,1.656,31.846,5.678,47.32c4.022,15.616,10.41,30.853,19.733,45.38 C1040.311,3073.017,1065.202,3096.204,1101.78,3115.842z"/></g><g><path style="fill:#FF9343;" d="M1101.78,3115.842H789.798c-110.729-202.862,5.016-307.061,48.077-481.198 c2.981-12.067,4.401-24.465,4.164-36.721c23.234-16.136,50.349-26.737,78.315-30.616c1.278,13.865,1.704,27.729,1.514,41.311 c-0.71,50.159-7.429,100.271-19.969,148.869c-20.064,3.454-39.796,9.606-52.809,24.606c11.073,13.155,22.95,25.837,35.679,37.619 c-9.369,38.755-13.108,78.22,9.843,108.884c22.998,30.853,68.047,39.655,104.199,26.452c-0.047,15.994,1.656,31.846,5.678,47.32 c4.022,15.616,10.41,30.853,19.733,45.38C1040.311,3073.017,1065.202,3096.204,1101.78,3115.842z"/></g><g><path style="fill:#DFE8F4;" d="M1000.061,2993.186c-7.514-10.462-22.397-11.889-35.252-11.082 c-41.747,2.623-82.514,19.018-114.452,46.03c-4.575,3.869-9.276,8.534-9.784,14.505c-0.675,7.933,6.188,14.292,12.609,18.999 c66.265,48.57,154.406,65.988,234.165,46.273c-19.851-4.91-36.479-18.942-48.5-35.485c-12.021-16.543-20-35.612-27.87-54.486 c-3.476-8.335-6.952-16.67-10.428-25.006L1000.061,2993.186z"/></g><g><path style="fill:#DFE8F4;" d="M901.9,2757.486c-1.42,5.583-2.934,11.12-4.543,16.657c-4.212,14.669-8.849,30.048-12.587,45.569 c-12.729-11.783-24.607-24.464-35.679-37.619C862.104,2767.092,881.836,2760.94,901.9,2757.486z"/></g><g><path style="fill:#FFFFFF;" d="M1039.649,2772.581c-9.653,38.992-21.483,77.463-35.348,115.13 c-1.514,0.852-3.786-0.284-3.975-2.035l1.562-0.047c-44.339-10.079-83.52-34.78-117.117-65.917 c3.738-15.521,8.376-30.9,12.587-45.569c1.609-5.537,3.123-11.073,4.543-16.657c5.442-0.899,10.884-1.656,16.231-2.319 C959.82,2750.009,1006.194,2747.17,1039.649,2772.581z"/></g><g><path style="fill:#DFE8F4;" d="M920.355,2567.306c-27.966,3.88-55.081,14.48-78.315,30.616 c-0.379-21.341-5.726-42.399-16.42-61.185c-52.1-91.422-161.551-33.739-146.125,76.233c0.568,4.022,1.562,7.949,2.556,11.925 c19.732,78.126-38.897,141.156-107.18,127.149c-19.685-4.022-37.383-14.716-51.39-29.102c-7.477-7.666-14.291-15.569-20.49-23.66 c21.625,14.67,50.017,19.685,74.908,11.452c9.937-3.265,19.543-8.659,25.742-17.13c10.931-15.001,8.896-35.348,7.855-53.898 c-3.785-66.816,14.669-137.796,63.031-184.17c48.314-46.327,129.752-60.191,183.697-20.49 C898.919,2465,915.575,2515.774,920.355,2567.306z"/></g><g><path style="fill:#FFFFFF;" d="M1075.234,2624.469c-29.244-32.177-70.412-53.66-113.758-58.015 c-13.676-1.372-27.493-1.088-41.121,0.852c-4.779-51.532-21.436-102.306-62.131-132.26 c-53.945-39.702-135.383-25.837-183.697,20.49c-48.361,46.374-66.816,117.354-63.031,184.17 c1.041,18.55,3.076,38.897-7.855,53.898c-6.199,8.47-15.805,13.865-25.742,17.13c-24.891,8.234-53.283,3.218-74.908-11.452 c-81.391-105.808-60.144-246.964,22.004-347.33c159.99-195.527,475.52-119.247,536.138,126.061 c4.448,17.982,7.902,36.531,10.363,55.459C1075.423,2563.757,1076.606,2594.184,1075.234,2624.469z"/></g><g><path style="fill:#FFAD40;" d="M2819.314,2855.581l-121.471,260.261h-1548.08c1.987-48.125,7.382-92.748,15.426-134.295 c13.155-67.762,33.503-127.197,58.109-179.628c25.222-53.755,54.986-100.129,86.075-140.588 c37.572-48.882,77.132-89.104,113.095-123.222c71.406-67.715,128.758-111.344,128.664-150.998l343.592,17.603l210.054,10.789 l416.418,61.516l114.846,145.841l92.416,117.354L2819.314,2855.581z"/></g><g><path style="fill:#FF9343;" d="M2655.87,2837.552c-15.001,105.998-67.668,204.613-142.954,278.29h-634.138 c-7.902-40.364-7.287-83.898-12.35-125.209c-12.729-103.773-63.646-201.727-61.611-306.303l-6.293-5.915 c4.685-43.44-20.395-88.536-59.103-106.423c-38.755-17.887-88.157-7.193-116.644,25.221 c-28.061,31.989-34.071,78.031-35.774,121.093c-3.644,94.214,14.811,201.868,91.943,252.879 c46.516,30.805,104.72,34.071,160.037,36.437c-2.461,36.105-4.969,72.163-7.382,108.221h-640.1 c1.609-40.411,5.584-78.315,11.451-113.995c1.089-6.861,2.272-13.628,3.549-20.3c9.417-49.922,22.619-95.303,38.519-136.708 c5.678-14.811,11.688-29.102,17.982-42.92c17.177-37.714,36.579-71.784,57.068-102.732c8.707-13.203,17.603-25.789,26.641-37.856 c24.086-32.225,49.024-60.712,73.252-86.123c12.445-13.155,24.796-25.458,36.72-37.099 c69.419-67.715,125.209-111.344,125.115-150.998l334.081,17.603l204.234,10.789l404.919,61.516l111.676,145.841 C2658.709,2691.853,2666.091,2765.625,2655.87,2837.552z"/></g><g><path style="fill:#FFFFFF;" d="M1245.019,2844.839c-15.9,41.405-29.102,86.786-38.519,136.708 c-1.277,6.672-2.46,13.439-3.549,20.3c-13.486-5.016-26.215-11.83-37.761-20.3c13.155-67.762,33.503-127.197,58.109-179.628 C1229.166,2816.873,1236.453,2831.258,1245.019,2844.839z"/></g><g><path style="fill:#DFE8F4;" d="M1385.891,2977.194c-37.336,22.619-80.444,36.863-124.026,36.011 c-20.016-0.426-40.175-4.212-58.914-11.357c1.089-6.861,2.272-13.628,3.549-20.3c9.417-49.922,22.619-95.303,38.519-136.708 c7.855,12.54,16.846,24.323,26.783,35.253c17.414,19.118,37.62,35.396,57.731,51.674 C1348.318,2946.909,1367.104,2962.051,1385.891,2977.194z"/></g><g><path style="fill:#FFFFFF;" d="M1422.469,2538.109c-1.372,12.304-2.224,24.701-2.508,37.099 c-24.228,25.411-49.166,53.898-73.252,86.123c-9.038,12.067-17.934,24.654-26.641,37.856c-5.11-12.161-8.802-24.89-10.694-37.856 C1346.946,2612.45,1386.506,2572.228,1422.469,2538.109z"/></g><g><path style="fill:#DFE8F4;" d="M1496.904,2833.009c-44.008,4.212-85.271-22.004-117.354-52.431 c-22.24-21.057-42.304-45.001-55.601-72.636c-1.372-2.887-2.697-5.773-3.88-8.755c8.707-13.203,17.603-25.789,26.641-37.856 c24.086-32.225,49.024-60.712,73.252-86.123C1417.595,2666.3,1444.473,2758.338,1496.904,2833.009z"/></g><g><path style="fill:#000072;" d="M2697.842,3129.887H1149.764c-3.826,0-7.485-1.56-10.134-4.321s-4.058-6.482-3.899-10.303 c1.931-46.78,7.205-92.666,15.669-136.387c12.485-64.304,32.397-125.847,59.185-182.925 c23.604-50.305,52.275-97.139,87.651-143.179c40.671-52.913,82.59-94.517,114.568-124.854 c13.372-12.681,26.04-24.326,38.293-35.588c48.079-44.194,86.055-79.102,85.991-105.186c-0.01-3.855,1.567-7.546,4.36-10.205 c2.791-2.661,6.538-4.063,10.403-3.855l553.647,28.391c0.447,0.022,0.891,0.066,1.333,0.132l416.418,61.516 c3.547,0.525,6.763,2.385,8.982,5.205l298.118,378.562c3.279,4.165,3.936,9.824,1.692,14.629l-121.472,260.261 C2708.262,3126.726,2703.299,3129.887,2697.842,3129.887z M1164.515,3101.797h1524.382l114.033-244.319l-289.312-367.38 l-410.229-60.603l-540.093-27.695c-8.501,33.367-45.017,66.934-93.191,111.213c-12.173,11.189-24.761,22.761-37.971,35.288 c-31.233,29.629-72.144,70.225-111.626,121.589c-34.124,44.409-61.763,89.548-84.495,137.996 c-25.806,54.983-44.995,114.312-57.039,176.338C1171.661,3022.004,1166.807,3061.489,1164.515,3101.797z"/></g><g><path style="fill:#DFE8F4;" d="M2728.459,2740.214c-9.038,155.399-85.082,291.397-197.703,375.627h-534.908 c-120.146-89.861-198.65-238.635-198.65-406.954c0-114.609,36.389-220.134,97.527-304.174l210.054,10.789l416.418,61.516 L2728.459,2740.214z"/></g><g><g><g><path style="fill:#FFAD40;" d="M2732.437,1397.543l-215.46-114.537l-248.971-132.31 c94.114-146.178,301.357-326.745,382.032-297.563c15.281,5.55,29.715,22.324,42.584,47.65 C2740.932,995.769,2767.174,1210.448,2732.437,1397.543z"/></g><g><path style="fill:#FF9343;" d="M2732.437,1397.543l-215.46-114.537c24.36-130.64,90.547-431.404,175.645-382.223 C2740.932,995.769,2767.174,1210.448,2732.437,1397.543z"/></g><g style="opacity:0.5;"><path style="fill:#FFFFFF;" d="M2698.011,912.076c-9.553-13.894-19.824-23.204-30.45-27.061 c-77.688-28.14-272.497,138.058-370.941,280.898l-28.615-15.217c94.114-146.178,301.357-326.745,382.032-297.563 C2667.47,859.44,2683.837,880.484,2698.011,912.076z"/></g><g><path style="fill:#000072;" d="M2732.442,1411.743c-0.862,0-1.733-0.078-2.61-0.242c-7.708-1.433-12.795-8.843-11.365-16.55 c20.068-108.02,20.977-234.241,2.49-346.299c-18.75-113.682-51.548-173.401-75.732-182.153 c-65.862-23.857-263.87,134.373-365.271,291.882c-4.241,6.594-13.035,8.496-19.619,4.253 c-6.594-4.243-8.496-13.027-4.253-19.619c91.921-142.786,304.6-337.288,398.806-303.215 c85.64,31.001,134.38,329.497,91.494,560.337C2745.113,1406.968,2739.148,1411.743,2732.442,1411.743z"/></g><g><path style="fill:#F27E80;" d="M2683.141,1223.08c-48.868-44.4-88.173-73.488-121.605-94.418 c-29.312-18.292-54.077-30.276-76.816-40.659c0.213-25.195,124.738-189.458,157.14-152.045 c9.69,11.186,18.541,29.38,26.012,51.639C2691.112,1056.522,2701.332,1164.343,2683.141,1223.08z"/></g><g><path style="fill:#FF5C64;" d="M2667.873,987.597c-12.441-10.473-30.573-22.205-43.69-16.016 c-22.332,10.548-56.072,98.855-62.647,157.081c-29.312-18.292-54.077-30.276-76.816-40.659 c0.213-25.195,124.738-189.458,157.14-152.045C2651.551,947.143,2660.402,965.338,2667.873,987.597z"/></g><g><path style="fill:#000072;" d="M2683.128,1234.902c-2.905,0-5.75-1.072-7.954-3.074 c-89.595-81.382-145.632-110.356-195.352-133.059c-4.243-1.938-6.951-6.187-6.914-10.852 c0.21-27.798,92.207-148.189,141.519-166.365c20.2-7.437,31.467,0.977,36.384,6.655 c44.043,50.847,68.501,218.157,43.616,298.369c-1.199,3.86-4.285,6.843-8.186,7.908 C2685.213,1234.766,2684.168,1234.902,2683.128,1234.902z M2498.824,1081.479c46.345,21.633,99.077,50.525,177.507,119.634 c15.32-81.545-10.669-219.624-43.406-257.415c0-0.003,0-0.003,0-0.003c-0.649-0.75-2.163-2.512-8.652-0.508 C2585.367,955.207,2512.679,1050.593,2498.824,1081.479z"/></g></g><g><g><path style="fill:#FFAD40;" d="M1877.634,1180.198l-336.203,314.135l-145.297,135.748 c-123.537-202.386-175.157-464.091-143.453-579.827c6.526-23.811,16.566-41.403,30.23-51.1 C1371.999,936.017,1702.236,1055.337,1877.634,1180.198z"/></g><g><path style="fill:#FF9343;" d="M1541.431,1494.334l-145.297,135.748c-123.537-202.386-175.157-464.091-143.453-579.827 c28.951-35.012,76.575-60.78,125.353,48.161C1428.619,1211.23,1500.536,1390.808,1541.431,1494.334z"/></g><g style="opacity:0.5;"><path style="fill:#FFFFFF;" d="M1877.634,1180.198l-21.196,19.787c-180.87-116.512-503.694-213.717-567.672-179.873 c-52.011,27.513-38.932,198.822-10.4,335.24c-46.999-168.266-47.277-319.499,4.545-356.198 C1371.999,936.017,1702.236,1055.337,1877.634,1180.198z"/></g><g><path style="fill:#000072;" d="M1396.165,1644.27c-4.785,0-9.456-2.419-12.131-6.802 c-144.854-237.285-203.096-583.506-109.329-649.922c98.699-69.895,440.427,59.561,611.169,181.077 c6.387,4.546,7.878,13.408,3.333,19.797c-4.541,6.384-13.403,7.883-19.797,3.333 c-173.945-123.792-497.756-238.079-578.293-181.038c-67.339,47.698-35.569,361.787,117.151,611.958 c4.084,6.692,1.973,15.43-4.719,19.514C1401.238,1643.596,1398.685,1644.27,1396.165,1644.27z"/></g><g><path style="fill:#F27E80;" d="M1582.386,1194.279c-51.884,43.135-112.567,97.901-193.966,224.799 c-4.944-6.172-9.723-13.128-14.225-20.698c-31.789-52.764-53.664-135.856-58.964-205.935 c-3.331-43.615-0.306-82.179,10.75-105.3C1351.561,1033.531,1572.144,1166.623,1582.386,1194.279z"/></g><g><path style="fill:#FF5C64;" d="M1582.386,1194.279c-51.884,43.135-112.567,97.901-193.966,224.799 c-4.944-6.172-9.723-13.128-14.225-20.698c4.338-50.617,44.972-107.05,59.691-150.299 c30.546-89.726-45.107-141.531-72.048-131.259c-15.967,6.094-37.772,54.446-46.607,75.623 c-3.331-43.615-0.306-82.179,10.75-105.3C1351.561,1033.531,1572.144,1166.623,1582.386,1194.279z"/></g><g><path style="fill:#000072;" d="M1388.428,1430.911c-3.586,0-6.995-1.631-9.246-4.451 c-61.409-76.926-97.825-273.269-63.877-344.404c4.497-9.429,15.273-20.425,41.248-19.241 c68.96,3.137,225.703,97.078,236.912,127.373c1.741,4.705,0.322,9.998-3.535,13.203 c-53.215,44.216-111.838,97.788-191.543,222.075c-2.058,3.211-5.54,5.229-9.346,5.427 C1388.836,1430.903,1388.631,1430.911,1388.428,1430.911z M1352.723,1086.384c-0.103,0-0.198,0.002-0.3,0.002 c-8.625,0.044-13.928,2.014-15.764,5.859l0,0c-26.453,55.432-2.598,223.428,51.257,305.894 c72.656-110.591,128.157-163.508,178.406-205.85C1538.199,1164.477,1408.465,1086.384,1352.723,1086.384z M1325.982,1087.151 h0.049H1325.982z"/></g></g><g><path style="fill:#FFAD40;" d="M2961.984,2151.362c-22.998,48.408-59.765,96.533-110.635,141.866 c-96.107,85.745-242.469,161.362-441.355,209.818c-201.253,32.273-378.562,39.56-530.459,22.43 c-164.107-18.502-298.59-65.538-401.606-140.493c-26.925-19.591-51.532-41.642-73.677-65.634 c-40.08-43.582-71.974-93.741-94.877-147.97c-20.726-49.07-33.976-101.501-39.181-155.399 c-1.94-20.111-2.745-40.412-2.413-60.807c0.521-31.799,2.271-63.031,5.252-93.694c12.351-129.609,45.759-249.14,95.918-354.949 c5.347-11.309,10.931-22.477,16.657-33.455c65.964-120.524,157.34-225.244,272.375-315.2c3.265-2.319,6.577-4.59,9.89-6.861 c52.384-35.727,108.505-64.971,167.561-87.069c31.752-11.877,64.403-21.672,97.716-29.339 c38.187-8.707,77.321-14.575,117.212-17.414c40.553-1.657,79.64-1.42,117.307,0.709c34.497,1.941,67.762,5.395,99.846,10.363 h0.047c55.791,8.565,107.843,21.625,156.251,38.708c323.197,113.852,481.909,407.19,464.116,759.394 c38.424,31.184,66.248,67.289,83.331,106.376c4.827,11.168,8.849,22.572,11.925,34.212 C2998.752,2025.206,2991.938,2088.52,2961.984,2151.362z"/></g><g style="opacity:0.5;"><path style="fill:#FFFFFF;" d="M2983.184,1966.955c-3.076-11.641-7.098-23.045-11.925-34.212 c-17.083-39.086-44.907-75.192-83.331-106.376c17.792-352.204-140.92-645.542-464.116-759.394 c-48.408-17.083-100.461-30.143-156.251-38.708h-0.047c-32.083-4.968-65.349-8.423-99.846-10.363 c-37.667-2.129-76.753-2.366-117.307-0.709c-39.891,2.839-79.025,8.707-117.212,17.414 c-33.313,7.666-65.964,17.461-97.716,29.339c-59.056,22.099-115.177,51.342-167.561,87.069c-3.312,2.271-6.625,4.542-9.89,6.861 c-19.723,15.423-38.698,31.314-57.021,47.61c9.394-7.823,18.895-15.581,28.629-23.193c3.265-2.319,6.577-4.59,9.89-6.861 c52.384-35.727,108.505-64.97,167.561-87.069c31.752-11.877,64.403-21.672,97.716-29.339 c38.188-8.707,77.321-14.574,117.212-17.413c40.553-1.657,79.64-1.42,117.307,0.709c34.497,1.941,67.762,5.395,99.846,10.363 h0.047c55.791,8.565,107.843,21.625,156.251,38.708c323.197,113.852,481.909,407.19,464.116,759.394 c38.424,31.184,66.248,67.289,83.331,106.376c4.827,11.167,8.849,22.572,11.925,34.213 c15.568,58.251,8.754,121.565-21.199,184.407c-22.163,46.651-57.155,93.031-105.191,136.911 c7.931-6.426,15.605-12.911,22.949-19.462c50.869-45.332,87.637-93.457,110.635-141.866 C2991.938,2088.52,2998.752,2025.206,2983.184,1966.955z"/></g><g><path style="fill:#FF9343;" d="M1273.032,1861.478c12.351-129.609,45.759-249.14,95.918-354.949l0.852,0.189 c-55.506,124.263-71.312,266.318-42.872,399.146c-5.158-2.461-10.221-5.3-15.095-8.423 C1296.929,1887.788,1284.294,1875.296,1273.032,1861.478z"/></g><g><path style="fill:#FF9343;" d="M1446.318,2157.371c-43.156,17.177-91.186,22.193-136.945,14.007 c-20.726-49.07-33.976-101.501-39.181-155.399c25.6,2.46,51.816-0.994,75.807-10.316c3.312-1.278,6.577-2.697,9.795-4.211 C1377.988,2057.526,1408.652,2110.24,1446.318,2157.371z"/></g><g><path style="fill:#FF9343;" d="M1879.535,2525.475c-164.107-18.502-298.59-65.538-401.606-140.493 c-26.925-19.591-51.532-41.642-73.677-65.634c22.24-12.871,40.459-33.833,55.364-55.317 c12.493-17.982,23.707-37.099,30.001-58.015c40.979,41.405,88.016,76.753,139.547,104.104 c54.276,28.771,112.906,48.645,172.861,62.415C1797.103,2430.74,1821.615,2487.477,1879.535,2525.475z"/></g><g><path style="fill:#FF9343;" d="M2886.65,2106.407c20.963,22.288,47.367,38.093,75.334,44.954 c-22.998,48.408-59.765,96.533-110.635,141.866c6.956-45.711-1.041-89.245-23.566-125.304 c15.332-12.823,29.859-27.067,44.386-43.866C2877.186,2118.238,2882.013,2112.37,2886.65,2106.407z"/></g><g><path style="fill:#FF9343;" d="M2939.365,2020.427c14.054-29.765,24.37-59.387,31.894-87.684 c4.827,11.168,8.849,22.572,11.925,34.212C2971.306,1987.35,2956.353,2005.474,2939.365,2020.427z"/></g><g><path style="fill:#DFE8F4;" d="M2851.35,2293.227c-96.107,85.745-242.469,161.362-441.355,209.818 c-201.253,32.273-378.562,39.56-530.459,22.43c-57.92-37.998-82.432-94.735-77.51-152.939 c15.427,3.549,30.995,6.672,46.563,9.464c47.273,8.423,100.555,15.379,171.394,16.326 c105.903,1.419,374.208,4.968,659.738-141.345c63.598-32.556,108.41-55.933,148.065-89.057 C2850.308,2203.982,2858.305,2247.517,2851.35,2293.227z"/></g><g><path style="fill:#FFFFFF;" d="M2827.784,2167.924c-39.655,33.124-84.467,56.501-148.065,89.057 c-285.53,146.313-553.835,142.764-659.738,141.345c-70.839-0.947-124.121-7.903-171.394-16.326 c-15.568-2.792-31.136-5.915-46.563-9.464c8.092-95.871,96.06-195.763,246.633-222.594l103.205-121.424 c52.289-114.609,181.378-159.421,274.694-81.485l123.032,108.836l137.229,24.086 C2753.728,2092.59,2801.001,2124.91,2827.784,2167.924z"/></g><g><path style="fill:#FFFFFF;" d="M1955.815,1289.756c-82.905-68.567-182.609-116.55-287.943-138.742 c52.384-35.727,108.505-64.971,167.561-87.069c54.891,44.292,95.965,105.571,115.887,173.334 C1956.335,1254.313,1960.026,1272.484,1955.815,1289.756z"/></g><g><path style="fill:#FFFFFF;" d="M2174.434,1243.524c-39.181-51.011-78.835-102.448-128.616-143.144 c-33.786-27.635-71.974-49.875-112.669-65.775c38.187-8.707,77.321-14.575,117.212-17.414 c40.553-1.657,79.64-1.42,117.307,0.709c12.398,43.818,15.569,90.382,18.597,136.093 C2188.252,1184.469,2189.813,1217.072,2174.434,1243.524z"/></g><g><path style="fill:#FFFFFF;" d="M2411.887,1149.026c-9.038,29.149-23.329,60.238-51.39,72.163 c-22.24-68.331-46.137-139.453-92.937-192.924c55.791,8.565,107.843,21.625,156.251,38.708 C2425.846,1094.134,2420.026,1122.621,2411.887,1149.026z"/></g><g><path style="fill:#DFE8F4;" d="M1489.616,2206.017c-6.294,20.915-17.508,40.033-30.001,58.015 c-14.906,21.484-33.124,42.446-55.364,55.317c-40.08-43.582-71.974-93.741-94.877-147.97 c45.759,8.187,93.789,3.171,136.945-14.007C1459.852,2174.36,1474.285,2190.59,1489.616,2206.017z"/></g><g><path style="fill:#FFFFFF;" d="M1490.374,2203.319c-0.237,0.899-0.521,1.799-0.757,2.698 c-15.332-15.427-29.764-31.657-43.298-48.645c14.338-5.678,28.156-12.681,41.169-21.01 C1496.762,2157.229,1496.525,2181.363,1490.374,2203.319z"/></g><g><path style="fill:#DFE8F4;" d="M1355.795,2001.452c-3.218,1.514-6.483,2.934-9.795,4.211 c-23.991,9.322-50.207,12.776-75.807,10.316c-1.94-20.111-2.745-40.412-2.413-60.807c0.521-31.799,2.271-63.031,5.252-93.694 c11.262,13.818,23.897,26.31,38.803,35.964c4.874,3.123,9.937,5.962,15.095,8.423c3.88,18.407,8.66,36.578,14.291,54.56 C1345.574,1974.29,1350.401,1987.965,1355.795,2001.452z"/></g><g><path style="fill:#FFFFFF;" d="M1432.454,1928.058c-16.562,31.941-44.008,58.157-76.659,73.394 c-5.394-13.487-10.221-27.162-14.574-41.027c-5.631-17.981-10.41-36.153-14.291-54.56 C1359.107,1921.386,1396.443,1924.982,1432.454,1928.058z"/></g><g><path style="fill:#DFE8F4;" d="M2961.984,2151.362c-27.967-6.861-54.371-22.666-75.334-44.954 c21.767-27.918,38.992-56.973,52.715-85.933v-0.047c16.988-14.953,31.941-33.077,43.819-53.472 C2998.752,2025.206,2991.938,2088.52,2961.984,2151.362z"/></g><g><path style="fill:#FFFFFF;" d="M2939.365,2020.474c-13.723,28.96-30.948,58.015-52.715,85.933 c-12.019-12.682-22.24-27.493-30.048-43.96C2886.698,2056.532,2915.137,2041.674,2939.365,2020.474z"/></g><g><path style="fill:#000072;" d="M1385.607,1473.074c-56.02,153.425-101.823,307.989-103.037,471.871 c-5.695,159.156,63.735,320.008,190.132,418.183c262.36,197.208,629.615,173.534,934.424,128.157 c164.344-41.414,329.425-105.846,453.54-224.313c59.101-57.352,108.232-132.273,115.952-215.514 c9.035-83.252-32.753-163.15-97.646-214.067c-3.663-2.968-5.444-7.356-5.229-11.741c2.999-72.223-0.49-144.739-13.628-215.837 c-43.652-241.417-188.537-430.62-419.236-519.809c-49.491-19.639-103.458-34.072-155.855-43.382 c-106.261-17.293-216.703-23.58-323.008-3.263c-71.067,12.96-138.837,38.402-204.184,68.833 c-33.015,14.772-65.564,30.719-99.85,45.683c25.73-27.217,56.064-49.382,88.286-68.147 c81.524-45.439,173.33-71.653,265.664-83.348c92.58-9.881,186.459-4.351,278.33,10.561c44.925,7.552,92.319,19.9,135.481,34.562 c14.725,4.782,31.365,11.975,45.929,17.345c3.287,1.545,27.972,12.536,32.019,14.41 c291.885,138.737,415.391,432.417,398.42,743.826c0.001,0-5.229-11.738-5.229-11.738 c70.962,55.86,117.415,147.114,106.595,238.653c-21.267,181.171-189.867,304.145-343.5,376.209 c-79.317,36.845-162.603,63.917-247.116,84.606c-81.321,12.939-163.245,22.535-245.56,27.725 c-243.653,13.712-510.257-4.789-711.922-157.29c-133.693-103.023-208.86-273.185-201.741-441.038 C1260.025,1780.95,1290.49,1609.31,1385.607,1473.074L1385.607,1473.074z"/></g><g><path style="fill:#000072;" d="M2640.374,1407.275c0,0-64.527-69.662-102.922-58.794c-38.395,10.868-30.55,44.68-6.367,55.564 C2566.211,1419.855,2640.374,1407.275,2640.374,1407.275z"/></g><g><path style="fill:#000072;" d="M1769.458,1503.367c0,0,57.799-99.618,105.91-96.049s47.73,46.122,22.077,65.17 C1860.183,1500.157,1769.458,1503.367,1769.458,1503.367z"/></g><g><g><path style="fill:#AD5833;" d="M1482.519,1939.935c-63.21,13.615-122.593,31.995-177.222,56.294 c-21.182,9.422-33.546,31.932-29.505,54.76c3.455,19.521,9.037,39.217,9.082,56.87c0.095,37.115-51.667,47.448-65.416,12.974 c-10.731-26.906-13.109-63.467-9.245-98.544c4.65-42.213,28.068-79.818,63.34-103.471 c60.178-40.357,128.106-66.713,204.234-78.255C1472.431,1873.039,1473.781,1906.142,1482.519,1939.935z"/></g><g><path style="fill:#994629;" d="M1477.786,1840.563c-3.492,0.529-6.949,1.124-10.406,1.716 c-0.015,0.243-0.029,0.486-0.042,0.729c-2.477,43.806-31.951,81.101-74.23,92.832c-37.409,10.38-73.281,22.546-107.418,36.729 c-22.677,9.422-35.913,31.932-31.588,54.761c3.699,19.521,9.675,39.217,9.723,56.87c0.065,23.582-22.278,36.327-42.359,33.659 c-0.959,1.214-1.162,1.472-2.121,2.686c13.574,34.821,65.625,24.533,65.53-12.685c-0.045-17.653-5.628-37.35-9.083-56.872 c-4.019-22.711,7.933-45.143,28.998-54.533c54.768-24.411,114.323-42.863,177.729-56.52 C1473.781,1906.142,1472.431,1873.039,1477.786,1840.563z"/></g><g><path style="fill:#000072;" d="M1250.032,2153.755c-18.401,0-34.451-10.703-41.563-28.54 c-10.862-27.231-14.421-64.246-10.015-104.221c4.993-45.327,29.963-86.15,68.508-112 c61.919-41.524,132.253-68.482,209.05-80.127c3.755-0.564,7.534,0.696,10.19,3.386c2.661,2.695,3.87,6.499,3.254,10.234 c-5.146,31.216-3.628,63.005,4.512,94.487c0.808,3.118,0.308,6.431-1.384,9.172s-4.429,4.675-7.578,5.354 c-64.38,13.865-123.228,32.551-174.905,55.537c-16.416,7.302-25.735,24.529-22.664,41.887 c0.984,5.552,2.144,11.118,3.293,16.646c2.917,14.026,5.935,28.528,5.972,42.256c0.066,26.104-18.684,41.418-37.295,45.017 C1256.241,2153.457,1253.101,2153.755,1250.032,2153.755z M1463.985,1854.858c-67.268,12.251-129.045,37.036-183.843,73.784 c-32.739,21.958-53.943,56.563-58.171,94.944c-3.928,35.664-0.84,69.512,8.477,92.864c4.885,12.249,15.842,14.832,24.47,13.164 c8.384-1.621,18.162-8.284,18.125-21.726c-0.029-11.323-2.673-24.038-5.474-37.498c-1.199-5.759-2.402-11.558-3.425-17.341 c-4.973-28.088,9.973-55.898,36.345-67.627c49.988-22.236,106.379-40.535,167.783-54.453 C1462.95,1905.618,1461.517,1880.12,1463.985,1854.858z"/></g><g><path style="fill:#9DA9B9;" d="M1566.654,1963.595c-18.739,0.142-36.484-1.515-52.336-6.483 c-20.016-6.293-34.212-23.944-37.241-44.718c-2.839-19.495-3.359-38.187-1.372-56.027 c2.082-34.733,37.336-57.162,87.258-53.661l0.047,2.319c-9.937,19.307-14.433,41.405-12.351,63.835 C1553.688,1901.605,1558.893,1933.358,1566.654,1963.595z"/></g><g><path style="fill:#000072;" d="M1564.522,1975.434c-21.055,0-38.655-2.305-53.743-7.034 c-23.872-7.505-41.694-28.816-45.41-54.299c-2.993-20.547-3.481-40.31-1.455-58.755c1.084-16.746,8.479-31.585,21.399-42.925 c18.379-16.135,46.252-23.748,78.477-21.516c6.101,0.43,10.872,5.437,11.001,11.553l0.049,2.317 c0.039,1.968-0.41,3.914-1.311,5.664c-9.097,17.671-12.93,37.495-11.089,57.327c3.049,32.993,8.323,64.243,15.674,92.891 c0.903,3.525,0.134,7.271-2.085,10.156c-2.222,2.883-5.645,4.585-9.285,4.612 C1565.999,1975.432,1565.259,1975.434,1564.522,1975.434z M1546.026,1814.39c-18.667,1.101-34.617,6.604-45.105,15.813 c-8.262,7.253-12.773,16.294-13.408,26.872c-0.012,0.2-0.029,0.403-0.051,0.601c-1.841,16.523-1.396,34.358,1.321,53.015 c2.415,16.548,13.828,30.339,29.082,35.134c9.663,3.03,20.779,4.883,33.689,5.603c-5.781-25.603-10.034-52.937-12.673-81.479 C1537.122,1851.016,1539.583,1832.082,1546.026,1814.39z"/></g><g><path style="fill:#AD5833;" d="M2880.309,1620.05c-13.533-34.023-44.055-58.298-80.255-63.882 c-171.867-26.451-416.086,6.625-484.7,90.382c-73.204-10.363-137.655,1.846-189.281,47.32 c-77.368-93.647-371.984-22.619-519.859,65.207c-18.786,11.167-33.55,27.256-43.203,45.948 c-9.937,19.307-14.433,41.405-12.351,63.835c3.028,32.745,8.234,64.497,15.994,94.735 c12.871,50.585,32.793,96.959,61.043,136.85c52.052,73.441,137.418,115.982,227.421,116.786 c37.241,0.331,74.104-3.927,108.979-13.391c118.916-32.178,200.543-140.163,204.328-263.242 c1.656-53.141-2.839-105.95-13.723-158.428c-2.981-14.29,2.981-28.817,14.906-37.146 c36.389-25.459,72.968-38.282,109.783-30.096c13.013,2.887,23.234,13.108,26.878,25.979 c30.332,106.707,75.097,201.111,149.437,270.435c47.368,44.15,109.689,69.277,174.423,71.453 c12.256,0.426,24.37,0.237,36.342-0.567c100.271-6.814,185.826-75.24,217.957-170.495 C2917.172,1814.774,2911.683,1698.934,2880.309,1620.05z M2102.933,1965.677c-2.744,43.819-22.288,85.224-55.223,114.231 c-158.097,139.5-389.635,68.236-416.086-192.072c-2.65-26.216,10.694-51.484,33.692-64.355 c104.672-58.63,235.938-94.12,341.794-87.637c37.667,2.319,70.365,27.02,82.669,62.747 C2104.116,1840.374,2107.24,1897.868,2102.933,1965.677z M2670.208,2023.219c-61.989,8.849-123.932-14.149-168.696-57.92 c-67.384-65.87-100.035-159.138-105.193-238.115c-1.372-20.868,9.653-40.743,28.203-50.349 c87.022-44.907,223.115-64.355,334.459-53.046c21.483,2.177,40.411,14.859,51.106,33.645 C2876.24,1773.983,2837.295,1999.37,2670.208,2023.219z"/></g><g><g><path style="fill:#994629;" d="M2824.282,1633.774c-10.694-18.787-29.623-31.469-51.106-33.645 c-111.344-11.309-247.437,8.139-334.459,53.046c-13.056,6.761-22.359,18.617-26.261,32.318 c3.539-3.396,7.576-6.333,12.065-8.658c87.022-44.907,223.115-64.355,334.459-53.046 c21.483,2.177,40.411,14.859,51.106,33.645c40.185,70.798,41.58,181.749-0.961,263.298 C2865.747,1838.267,2868.513,1711.7,2824.282,1633.774z"/></g><g><path style="fill:#994629;" d="M2680.666,2058.567c-11.972,0.804-24.086,0.993-36.342,0.567 c-64.734-2.177-127.055-27.304-174.422-71.453c-74.34-69.324-119.105-163.728-149.437-270.435 c-3.644-12.871-13.865-23.092-26.878-25.979c-36.815-8.186-73.394,4.637-109.783,30.096 c-8.358,5.838-13.698,14.74-15.171,24.452c0.337-0.252,0.628-0.549,0.975-0.792c36.389-25.459,72.968-38.282,109.783-30.096 c13.013,2.887,23.234,13.108,26.878,25.979c30.332,106.707,75.097,201.111,149.437,270.435 c47.368,44.15,109.689,69.277,174.423,71.453c12.256,0.426,24.37,0.237,36.342-0.567 c86.476-5.877,161.972-57.6,201.728-132.814C2826.093,2011.662,2757.742,2053.329,2680.666,2058.567z"/></g><g><path style="fill:#994629;" d="M2086.039,2029.531c18.284-25.396,29.105-55.809,31.09-87.514 c4.306-67.81,1.183-125.304-13.155-167.087c-12.303-35.727-45.002-60.428-82.669-62.747 c-105.855-6.483-237.121,29.007-341.794,87.637c-14.566,8.152-25.241,21.286-30.451,36.475 c4.654-5.007,10.094-9.367,16.255-12.815c104.672-58.63,235.938-94.12,341.794-87.637 c37.667,2.319,70.365,27.02,82.669,62.747c14.338,41.784,17.461,99.278,13.155,167.087 C2101.533,1988.036,2095.735,2009.755,2086.039,2029.531z"/></g><g><path style="fill:#994629;" d="M1978.292,2180.18c-34.875,9.464-71.738,13.722-108.979,13.391 c-90.003-0.804-175.369-43.345-227.421-116.786c-28.25-39.891-48.172-86.265-61.043-136.85 c-7.76-30.238-12.966-61.99-15.994-94.735c-1.875-20.195,1.624-40.101,9.585-57.963c-4.34,5.591-8.197,11.527-11.431,17.788 c-9.937,19.307-14.433,41.405-12.351,63.835c3.028,32.745,8.234,64.497,15.994,94.735 c12.871,50.585,32.793,96.959,61.043,136.85c52.052,73.441,137.418,115.982,227.421,116.786 c37.241,0.331,74.104-3.927,108.979-13.391c75.182-20.344,135.426-71.008,170.55-136.611 C2098.551,2121.251,2044.159,2162.356,1978.292,2180.18z"/></g></g><g><path style="fill:#000072;" d="M1859.163,2229.079c-1.384,0-2.764-0.007-4.15-0.02 c-94.939-0.847-183.525-46.37-236.968-121.775c-28.003-39.539-49.148-86.902-62.856-140.771 c-7.654-29.834-13.145-62.332-16.309-96.565c-2.258-24.326,2.449-48.65,13.613-70.339 c10.906-21.111,27.388-38.64,47.676-50.701c77.449-45.998,188.748-85.142,290.464-102.153 c66.04-11.05,181.445-20.908,236.404,30.884c48.699-38.684,108.94-52.991,183.574-43.657 c76.523-83.11,319.407-115.952,491.243-89.504c40.168,6.194,74.443,33.476,89.448,71.201 c34.688,87.214,36.384,204.915,4.333,299.837l0,0c-34.182,101.338-123.821,171.411-228.362,178.513 c-12.305,0.83-24.939,1.023-37.556,0.591c-68.247-2.297-132.915-28.799-182.078-74.624 c-69.011-64.355-117.549-152.009-152.751-275.854c-2.544-8.994-9.465-15.757-18.062-17.666 c-30.674-6.814-63.528,2.417-100.437,28.242c-8.132,5.681-12.097,15.505-10.107,25.037 c10.957,52.825,15.654,107.058,13.967,161.213c-4.019,130.664-89.644,240.896-213.062,274.292 C1933.379,2224.433,1897.051,2229.079,1859.163,2229.079z M1989.375,1661.218c-116.677,0-277.578,48.911-377.122,108.03 c-16.472,9.795-29.868,24.043-38.733,41.206c-9.089,17.656-12.922,37.481-11.082,57.312 c3.049,32.993,8.323,64.243,15.674,92.891c12.993,51.069,32.922,95.793,59.236,132.952 c49.063,69.221,130.51,111.013,217.874,111.794c37.288,0.291,72.817-4.033,105.776-12.981 c113.301-30.657,191.904-132.004,195.603-252.187c1.628-52.3-2.908-104.67-13.484-155.662 c-3.923-18.804,3.813-38.14,19.717-49.248c42.642-29.834,81.611-40.288,119.124-31.946c17.1,3.796,30.779,16.941,35.691,34.304 c33.972,119.509,80.405,203.721,146.125,265.005c44.98,41.929,104.202,66.179,166.75,68.284 c11.824,0.413,23.647,0.227,35.151-0.549c94.956-6.453,176.423-70.227,207.542-162.471v-0.003 c29.9-88.54,28.333-202.48-3.901-283.525c-11.919-29.966-39.15-51.641-71.067-56.563 c-165.549-25.481-408.562,6.614-473.745,86.187c-2.617,3.198-6.729,4.792-10.808,4.216 c-74.961-10.61-133.777,3.938-179.805,44.482c-2.402,2.114-5.562,3.174-8.755,2.915c-3.191-0.251-6.145-1.789-8.186-4.258 C2093.548,1673.076,2046.819,1661.218,1989.375,1661.218z"/></g><g><path style="fill:#000072;" d="M1873.958,2161.963c-28.987,0.002-57.771-5.295-85.376-16.108 c-94.399-36.98-155.894-130.583-168.713-256.809c-3.135-30.867,12.432-60.662,39.653-75.903l0,0 c109.692-61.421,243.167-95.557,348.311-89.097c42.705,2.625,79.258,30.374,93.12,70.691 c14.006,40.723,18.518,96.885,13.796,171.692c-2.979,47.202-24.556,91.802-59.194,122.361 C2001.104,2136.823,1937.081,2161.958,1873.958,2161.963z M1981.626,1746.919c-96.565,0-213.081,32.292-310.547,86.868l0,0 c-18.992,10.632-29.854,31.384-27.671,52.866c11.892,117.095,67.952,203.54,153.804,237.17 c79.292,31.057,170.02,11.331,242.688-52.778c29.976-26.44,48.65-65.117,51.235-106.106 c4.521-71.636,0.415-124.793-12.556-162.507c-10.74-31.238-39.08-52.737-72.197-54.773 C1998.304,1747.163,1990.032,1746.919,1981.626,1746.919z M1665.301,1823.464h0.049H1665.301z"/></g><g><path style="fill:#000072;" d="M2644.292,2036.88c-54.722,0-109.595-22.585-151.035-63.106 c-62.004-60.627-102.654-152.527-108.735-245.83c-1.677-25.715,11.89-49.895,34.568-61.604l0,0 c86.138-44.463,223.213-66.301,341.084-54.319c25.061,2.547,47.561,17.346,60.188,39.59 c41.689,73.447,42.563,186.597,2.08,269.045c-31.597,64.351-85.076,104.937-150.583,114.28 C2662.72,2036.24,2653.504,2036.88,2644.292,2036.88z M2429.944,1687.365L2429.944,1687.365 c-14.316,7.39-22.878,22.715-21.814,39.041c5.715,87.639,43.721,173.789,101.67,230.449 c43.198,42.241,102.532,62.673,158.718,54.658c73.723-10.515,112.847-60.884,132.686-101.287 c37.29-75.94,36.692-179.792-1.418-246.936c-8.85-15.591-24.553-25.957-42.004-27.729 C2644.095,1624.009,2512.342,1644.834,2429.944,1687.365z"/></g><g><g><g><path style="fill:#000072;" d="M1992.083,1764.102c-9.682,90.416-111.996,162.964-199.959,157.967 c29.366-31.972,63.826-57.021,97.027-83.544C1923.461,1811.978,1953.713,1788.243,1992.083,1764.102L1992.083,1764.102z"/></g><g><path style="fill:#000072;" d="M1957.21,2079.738c-67.425,5.465-127.733-59.803-134.671-145.777 c-0.666-8.41-0.822-16.714-0.471-24.817c69.3-32.6,125.548-79.621,161.025-131.149 c44.495,20.886,78.524,72.971,83.678,136.238C2073.71,2000.206,2024.633,2074.319,1957.21,2079.738z"/></g></g><g><ellipse transform="matrix(0.9974 -0.0718 0.0718 0.9974 -131.611 148.098)" style="fill:#FFFFFF;" cx="1993.685" cy="1904.267" rx="35.7" ry="50.257"/></g></g><g><g><g><path style="fill:#000072;" d="M2748.334,1789.17c-77.611,30.081-187.036-13.233-218.304-91.693 c39.946,12.808,73.142,26.709,110.582,41.317C2677.194,1753.805,2714.234,1767.335,2748.334,1789.17L2748.334,1789.17z"/></g><g><path style="fill:#000072;" d="M2644.271,1982.783c60.972-13.768,96.959-91.666,80.354-173.981 c-1.636-8.049-3.693-15.855-6.146-23.332c-69.802-11.075-131.893-39.285-176.838-77.523 c-33.761,31.982-50.032,90.2-37.855,150.788C2520.389,1941.049,2583.312,1996.593,2644.271,1982.783z"/></g></g><g><ellipse transform="matrix(0.9826 -0.1859 0.1859 0.9826 -296.3881 510.2226)" style="fill:#FFFFFF;" cx="2571.8" cy="1835.155" rx="32.602" ry="48.373"/></g></g><g><g><path style="fill:#000072;" d="M2401.771,2135.805l-0.187-0.045c-12.981-3.209-25.444-7.97-36.88-14.253 c-5.716-3.119-11.191-6.585-16.223-10.354c-2.468-1.834-4.893-3.814-7.062-5.799c0.188-3.531,0.224-7.034,0.006-10.482 c-0.325-6.491-1.092-12.857-2.373-19.022c-1.182-5.887-2.72-11.62-4.566-17.224c23.211-16.546,51.956-59.116,42.489-80.441 c-15.679-35.32-157.193-3.359-151.166,40.654c3.944,28.799,53.532,44.895,81.966,46.78c0.937,4.801,1.584,9.632,1.923,14.404 c0.398,4.964,0.329,9.863-0.039,14.615c-0.251,4.193-1.072,8.17-1.968,12.05c-4.693,11.077-13.051,21.577-23.397,30.921 c-11.195,10.161-24.413,19.086-38.072,27.702c-3.978,2.493-5.182,7.74-2.688,11.719c2.23,3.559,6.685,4.884,10.443,3.346 c15.241-6.282,30.679-13.074,45.566-22.438c7.427-4.695,14.707-10.061,21.49-16.454c2.456-2.313,4.811-4.82,7.101-7.418 c1.767,0.922,3.539,1.795,5.326,2.651c7.096,3.34,14.284,6.05,21.563,8.29c14.537,4.502,29.484,6.941,44.353,7.553 c4.692,0.193,8.652-3.457,8.845-8.148C2408.392,2140.3,2405.616,2136.752,2401.771,2135.805z"/></g><g><g><path style="fill:#FFFFFF;" d="M2294.194,1990.654c1.431,10.448,21.997,11.095,28.598,9.984 c8.879-1.494,21.055-14.535,17.564-22.399C2335.567,1967.454,2292.353,1977.214,2294.194,1990.654z"/></g></g></g></g></g><g><g><path style="fill:#FF9343;" d="M2587.445,2429.699l-81.249,243.746L2388.7,3025.934l-179.817,9.464l20.632-357.362l3.502-60.759 c5.347-93.221,54.892-179.249,134.815-227.515C2450.642,2339.743,2544.336,2341.825,2587.445,2429.699z"/></g><g><path style="fill:#FFFFFF;" d="M2587.445,2429.699l-81.249,243.746c-12.966,6.341-26.31,11.877-39.796,16.704 c-46.232,16.609-95.871,25.742-144.705,20.158c-32.556-3.739-64.734-14.528-92.18-32.273l3.502-60.759 c1.278-22.572,5.158-44.718,11.499-66.012c19.638-66.674,62.746-124.925,123.316-161.503 c49.497-29.907,102.874-41.169,147.024-26.642C2544.573,2372.868,2570.126,2394.351,2587.445,2429.699z"/></g><g><path style="fill:#DFE8F4;" d="M2587.445,2429.699l-81.249,243.746c-12.966,6.341-26.31,11.877-39.796,16.704 c-46.232,16.609-95.871,25.742-144.705,20.158c-32.556-3.739-64.734-14.528-92.18-32.273l3.502-60.759 c1.278-22.572,5.158-44.718,11.499-66.012c35.301,33.077,88.016,47.936,136.188,38.945 c61.422-11.404,113.474-57.399,139.784-114.041c16.941-36.389,21.957-84.609-5.631-113.049 C2544.573,2372.868,2570.126,2394.351,2587.445,2429.699z"/></g><g><path style="fill:#000072;" d="M2208.882,3049.443c-3.728,0-7.314-1.482-9.956-4.138c-2.817-2.832-4.297-6.729-4.065-10.715 l24.124-418.123c5.735-99.402,58.66-188.645,141.572-238.728c53.621-32.393,108.523-42.783,154.58-29.258 c36.763,10.793,66.125,36.741,84.917,75.032c1.624,3.311,1.88,7.129,0.715,10.627l-198.745,596.233 c-1.826,5.479-6.821,9.282-12.588,9.585l-179.817,9.465C2209.373,3049.436,2209.126,3049.443,2208.882,3049.443z M2474.207,2370.913c-30.955,0-65.581,10.605-99.126,30.869c-74.983,45.293-122.852,126.152-128.054,216.301l-23.22,402.463 l154.595-8.137l193.853-581.553c-15.354-28.621-37.209-47.253-65.032-55.422 C2496.902,2372.402,2485.811,2370.913,2474.207,2370.913z"/></g><g><path style="fill:#000072;" d="M2538.668,2610.801c-60.625,39.146-142.872,27.84-206.753,3.449 c33.905,1.24,67.724,2.532,101.157-0.67c32.768-3.068,64.485-10.695,90.385-26.389 C2539.074,2578.205,2553.292,2600.275,2538.668,2610.801L2538.668,2610.801z"/></g><g><path style="fill:#000072;" d="M2431.499,2355.618c54.664,52.349,37.238,164.192-42.8,178.186 c15.31-7.761,27.872-19.009,36.291-32.37c24.704-39.209,15.721-92.786-13.831-126.443 C2399.552,2361.334,2418.438,2343.402,2431.499,2355.618L2431.499,2355.618z"/></g></g><g><g><path style="fill:#FFAD40;" d="M2241.629,2895.85c-2.792,42.778-18.881,73.015-56.406,78.031 c-18.928,42.588-80.823,50.727-118.301,23.66c-47.32,18.928-76.848-3.265-108.836-52.052 c-16.515,8.234-32.982,15.757-49.402,22.382c-170.021,69.135-327.361,46.752-340.327-185.542 c-1.609-27.73-1.089-58.441,1.703-92.369l132.496,42.588c64.119-52.1,146.03-88.11,228.225-98.237 c39.087-4.827,78.268-3.786,115.556,4.117c104.719,22.241,182.135,110.02,194.155,213.461 C2242.197,2866.275,2242.575,2880.992,2241.629,2895.85z"/></g><g><path style="fill:#FFFFFF;" d="M2240.493,2851.89c-0.757-1.94-1.562-3.833-2.366-5.726 c1.514,28.108-14.149,55.317-36.295,72.731c-22.098,17.367-49.97,26.073-77.794,30.285c-26.452,4.022-53.992,4.211-79.356-4.212 c-58.156-19.212-93.789-80.303-103.158-140.825c-15.284,8.944-21.152,27.587-29.622,43.156 c-10.268,18.786-25.269,33.833-42.967,45.617c-11.925-33.502-17.367-69.087-14.764-104.53 c4.259-58.724,31.988-116.171,76.611-154.075c39.087-4.827,78.268-3.786,115.556,4.117 C2151.058,2660.669,2228.474,2748.448,2240.493,2851.89z"/></g><g><path style="fill:#FFFFFF;" d="M1605.693,2913.074c0.142,0.379,0.331,0.758,0.521,1.136c-1.278,0.142-2.556,0.189-3.833,0.236 L1605.693,2913.074z"/></g><g><path style="fill:#FFFFFF;" d="M1732.038,2926.466c-30.048-1.325-59.623-8.233-85.697-22.761 c15.095-7.003,28.723-17.224,39.418-30.001c6.104-7.24,11.499-15.426,19.591-20.3c12.492,7.193,20.442,20.584,23.991,34.496 C1732.511,2900.44,1732.605,2913.501,1732.038,2926.466z"/></g><g><path style="fill:#DFE8F4;" d="M1732.038,2926.466c0,1.467-0.094,2.886-0.142,4.353c-0.994,22.241-3.455,46.327-18.502,62.747 c-1.183,1.278-2.603,2.603-4.353,2.84c-1.609,0.237-3.17-0.521-4.59-1.23c-19.685-9.606-39.512-19.26-57.163-32.273 c-17.272-12.729-32.556-29.007-41.074-48.692c13.912-0.947,27.54-4.591,40.127-10.506 C1672.414,2918.233,1701.99,2925.141,1732.038,2926.466z"/></g><g><path style="fill:#DFE8F4;" d="M2242.149,2879.525c0,5.394-0.189,10.836-0.521,16.325 c-2.792,42.778-18.881,73.015-56.406,78.031c-18.928,42.588-80.823,50.727-118.301,23.66 c-47.32,18.928-76.848-3.265-108.836-52.052c-16.515,8.234-32.982,15.757-49.402,22.382 c-16.751-22.903-30.285-48.266-39.749-74.955c17.698-11.783,32.698-26.831,42.967-45.617 c8.47-15.569,14.338-34.212,29.622-43.156c9.369,60.522,45.001,121.613,103.158,140.825c25.363,8.423,52.904,8.234,79.356,4.212 c27.824-4.212,55.696-12.918,77.794-30.285c22.146-17.414,37.809-44.623,36.295-72.731c0.804,1.892,1.609,3.786,2.366,5.726 c0.284,2.224,0.521,4.495,0.71,6.766v0.189c0.142,1.183,0.237,2.319,0.284,3.502c0.094,1.183,0.142,2.319,0.236,3.502 c0.142,1.893,0.189,3.833,0.284,5.726v0.852C2242.102,2874.793,2242.149,2877.159,2242.149,2879.525z"/></g><g><path style="fill:#FF9343;" d="M1908.684,2967.872c-170.021,69.135-327.361,46.752-340.327-185.542 c0.094-0.095,0.237-0.189,0.331-0.237l7.051,3.218c-3.123,47.084,26.594,92.558,67.242,116.503 c1.136,0.662,2.224,1.278,3.36,1.892c-12.587,5.915-26.215,9.559-40.127,10.506c8.518,19.685,23.802,35.963,41.074,48.692 c17.65,13.013,37.478,22.667,57.163,32.273c1.42,0.709,2.981,1.467,4.59,1.23c1.751-0.237,3.17-1.562,4.353-2.84 c15.048-16.42,17.509-40.506,18.502-62.747c0.047-1.467,0.142-2.886,0.142-4.353c16.089,0.757,32.272-0.095,48.125-2.224 c31.089-4.211,62.841-14.196,88.773-31.326C1878.399,2919.605,1891.933,2944.969,1908.684,2967.872z"/></g><g><path style="fill:#000072;" d="M1702.557,2732.549c85.909-89.873,231.594-132.627,352.949-105.844 c84.575,18.636,157.218,83.129,186.012,165.065c17.2,49.113,25.456,116.505-1.73,163.445 c-10.686,18.117-32.094,30.628-52.708,32.587c0,0.001,10.978-8.217,10.978-8.217c-5.641,12.868-15.251,23.986-26.611,31.672 c-33.666,22.499-79.943,20.909-112.748-2.329c0,0,13.44,1.652,13.44,1.652c-40.621,17.355-77.758,4.067-104.802-29.073 c-7.837-9.149-14.616-18.69-20.995-28.317l18.025,4.861c-58.986,30.852-124.715,55.233-192.598,59.387 c-42.162,1.675-85.632-4.654-121.992-28.364c-78.375-50.661-96.673-153.789-89.877-240.168 c1.934-19.883,5.133-39.601,10.162-58.946c5.189,52.908,7.262,104.666,18.504,154.167 c26.768,115.567,104.987,158.136,218.732,137.758c49.576-8.879,97.924-27.158,144.505-48.959 c6.45-3.188,14.171-0.984,18.029,4.861c21.666,33.184,49.087,66.007,91.953,46.681c4.585-1.805,9.626-0.973,13.363,1.688 c28.697,21.076,81.196,17.305,97.241-17.981c2.109-4.474,6.396-7.518,10.979-8.218c6.953-1.062,13.262-3.22,18.563-6.584 c38.839-27.465,25.421-111.955,11.139-151.315c-33.743-95.385-124.461-155.634-224.95-157.35 C1886.141,2639.812,1788.931,2680.759,1702.557,2732.549L1702.557,2732.549z"/></g><g><path style="fill:#000072;" d="M1956.53,2967.903c-28.333-51.416-27.039-114.235-12.64-169.106 c-2.7,27.761-1.353,55.679,4.255,82.222c5.62,26.418,15.839,51.802,31.663,71.162 C1992.037,2968.349,1967,2985.313,1956.53,2967.903L1956.53,2967.903z"/></g><g><path style="fill:#000072;" d="M2050.77,2991.206c17.59-12.512,6.673-88.865,6.689-111.965 c4.83,18.092,11.581,42.788,15.293,60.903c3.739,21.488,10.696,49.805-5.992,68.079c-0.505,0.173-0.108,1.487-2.314-0.413 l-14.335-12.339C2048.684,2994.301,2049.076,2991.891,2050.77,2991.206L2050.77,2991.206z"/></g><g><path style="fill:#000072;" d="M2165.229,2979.822c14.218-35.413,9.99-80.103-8.398-114.778 c13.775,15.715,23.717,35.1,30.034,55.75c6.223,20.846,9.015,43.502,5.061,66.746 C2187.583,3007.746,2158.123,2999.254,2165.229,2979.822L2165.229,2979.822z"/></g></g><g><path style="fill:#000072;" d="M3420.279,3153.342H581.07c-12.427,0-22.5-10.073-22.5-22.5s10.073-22.5,22.5-22.5h2839.209 c12.427,0,22.5,10.073,22.5,22.5S3432.706,3153.342,3420.279,3153.342z"/></g><g><path style="fill:#000072;" d="M1101.78,3129.887H789.798c-5.139,0-9.866-2.805-12.329-7.317 c-83.467-152.917-42.146-254.431,1.599-361.907c16.506-40.552,33.574-82.483,45.173-129.392 c2.705-10.945,3.967-22.075,3.755-33.079c-0.347-19.517-5.388-38.357-14.583-54.507c-17.871-31.357-44.595-44.604-71.497-35.432 c-29.844,10.178-56.091,48.745-48.513,102.766c0.444,3.159,1.289,6.536,2.183,10.107c10.872,43.049,0.798,85.83-26.863,114.768 c-24.89,26.038-61.025,37.234-96.675,29.905c-21.592-4.409-41.87-15.842-58.633-33.062 c-101.785-104.543-101.494-264.785,0.711-389.68c77.471-94.68,195.493-135.022,315.73-107.915 c121.321,27.354,215.166,119.124,244.912,239.5c4.534,18.328,8.118,37.512,10.654,57.017c3.972,30.63,5.264,62.068,3.84,93.445 c-2.971,63.801-17.048,127.297-41.841,188.743c-21.917,54.258-45.054,124.316-29.336,184.998 c3.806,14.783,9.846,28.679,17.957,41.318c15.701,24.658,40.044,45.942,72.38,63.303c5.671,3.047,8.547,9.558,6.978,15.801 S1108.218,3129.887,1101.78,3129.887z M798.211,3101.797h256.577c-17.385-13.936-31.577-29.485-42.415-46.504 c-9.7-15.12-16.936-31.76-21.484-49.421c-17.773-68.616,6.956-144.285,30.486-202.542 c23.606-58.499,37.007-118.899,39.827-179.517c1.35-29.731,0.127-59.526-3.635-88.535c-2.4-18.455-5.786-36.587-10.068-53.894 c-27.178-109.985-112.939-193.838-223.821-218.838c-109.612-24.719-217.222,12.031-287.813,98.301 c-75.952,92.815-109.075,242.651-2.322,352.297c12.817,13.164,28.079,21.858,44.138,25.139 c26.506,5.435,52.295-2.507,70.737-21.799c20.942-21.904,28.423-54.858,20.015-88.149c-1.128-4.512-2.192-8.772-2.847-13.406 c-10.147-72.339,27.754-119.788,67.266-133.262c31.382-10.701,75.449-3.689,104.971,48.118 c11.519,20.229,17.83,43.704,18.259,67.888c0.259,13.43-1.279,27.009-4.57,40.339c-12.087,48.879-29.543,91.768-46.426,133.242 C762.884,2874.934,726.341,2964.729,798.211,3101.797z"/></g><defs><filter id="Adobe_OpacityMaskFilter" filterUnits="userSpaceOnUse" x="1423.368" y="1076.342" width="2148.336" height="1930.663"><feFlood style="flood-color:white;flood-opacity:1" result="back"/><feBlend in="SourceGraphic" in2="back" mode="normal"/></filter></defs><mask maskUnits="userSpaceOnUse" x="1423.368" y="1076.342" width="2148.336" height="1930.663" id="SVGID_1_"><g style="filter:url(#Adobe_OpacityMaskFilter);"><linearGradient id="SVGID_00000182526508204727600650000015600633819755722147_" gradientUnits="userSpaceOnUse" x1="2059.9683" y1="1755.4449" x2="2907.9565" y2="2599.644"><stop offset="0" style="stop-color:#000000"/><stop offset="1" style="stop-color:#999999"/></linearGradient><polygon style="mask:url(#SVGID_1_);fill:url(#SVGID_00000182526508204727600650000015600633819755722147_);" points="&#10;&#9;&#9;&#9;&#9;&#9;2265.667,3007.006 1423.368,2396.575 2658.425,1076.342 3571.705,2287.739 &#9;&#9;&#9;&#9;"/></g></mask><polygon style="fill: rgba(68, 0, 255, 0.067);" points="2265.667 3007.006 1167.276 3029.219 2662.652 816.99 3571.705 2287.739"/><g><g><path style="fill:#ACBED1;" d="M1781.625,3006.182h1420.013c17.541,0,32.105,13.498,33.531,30.981 c1.297,15.899,1.297,31.798,0,47.698c-1.427,17.483-15.99,30.981-33.531,30.981h-1420.24c-15.567,0-28.448-12.129-29.447-27.664 c-1.216-18.896-1.126-37.208,0.268-54.937C1753.422,3017.941,1766.278,3006.182,1781.625,3006.182z"/></g><g><path style="fill:#8BA7C1;" d="M3234.887,3034.986c-2.41,16.408-16.447,28.803-33.249,28.803h-1420.24 c-15.38,0-28.116-11.845-29.385-27.111c-1.148,16.662-1.201,33.814-0.063,51.499c0.999,15.535,13.88,27.664,29.447,27.664 h1420.24c17.541,0,32.105-13.498,33.532-30.981c1.297-15.899,1.297-31.798,0-47.698 C3235.11,3036.427,3234.993,3035.708,3234.887,3034.986z"/></g><g><path style="fill:#ACBED1;" d="M3343.905,2927.034c-3.927,8.612-8.375,17.035-13.865,24.749 c-29.196,41.027-75.239,59.34-153.128,54.418h-910.44l41.263-81.343l312.834-616.676c19.543-38.567,57.778-64.024,100.887-67.29 c196.426-14.953,487.493-11.404,789.963-5.631c7.902,0.142,15.474,1.751,22.477,4.638c18.975,7.713,33.55,24.512,37.478,45.569 C3591.484,2393.83,3469.872,2648.697,3343.905,2927.034z"/></g><g><path style="fill:#8BA7C1;" d="M3343.905,2927.034c-3.927,8.612-8.375,17.035-13.865,24.749 c-29.196,41.027-75.239,59.34-153.128,54.418h-910.44l41.263-81.343c8.092,4.779,16.94,9.322,26.547,13.533 c27.635,11.972,52.667,16.846,70.98,18.928c73.63,5.395,177.924,9.937,302.849,4.732 c156.299-6.483,234.424-9.748,317.045-33.029c216.679-60.996,429.005-256.334,507.793-506.752 c18.36-58.393,30.048-124.641,1.372-178.776l-0.426-3.596c18.975,7.713,33.55,24.512,37.478,45.569 C3591.484,2393.83,3469.872,2648.697,3343.905,2927.034z"/></g><g><path style="fill:#000072;" d="M3201.639,3129.887H1781.397c-22.9,0-41.992-17.925-43.462-40.808 c-1.255-19.485-1.16-38.643,0.283-56.943c1.76-22.427,20.828-40,43.406-40h1420.015c24.644,0,45.522,19.277,47.529,43.884 c1.355,16.582,1.355,33.401,0,49.983C3247.161,3110.61,3226.282,3129.887,3201.639,3129.887z M1781.624,3020.227 c-8.015,0-14.78,6.199-15.403,14.111c-1.335,16.975-1.423,34.785-0.254,52.939c0.522,8.142,7.3,14.519,15.43,14.519h1420.242 c10.125,0,18.706-7.939,19.531-18.079c1.23-15.066,1.23-30.347,0-45.413c-0.825-10.139-9.407-18.079-19.531-18.079H1781.624z"/></g><g><path style="fill:#000072;" d="M2319.42,3015.647l-14.045,76.536l-14.044-76.536 C2288.651,2993.381,2322.1,2993.382,2319.42,3015.647L2319.42,3015.647z"/></g><g><path style="fill:#000072;" d="M3200.181,3020.998c-7.629,0-15.535-0.259-23.735-0.771H2266.49 c-4.883,0-9.414-2.537-11.968-6.697c-2.556-4.16-2.766-9.348-0.557-13.701l354.065-698.008 c21.606-42.593,64.653-71.306,112.341-74.934c201.257-15.317,501.26-11.204,791.299-5.674 c36.082,0.686,66.997,26.638,73.508,61.709c19.368,104.287-81.99,327.385-199.353,585.713 c-9.644,21.221-19.375,42.642-29.133,64.204c-4.761,10.522-9.739,19.38-15.215,27.08 C3312.037,3001.311,3266.783,3020.996,3200.181,3020.998z M2289.363,2992.136h887.527c0.298,0,0.596,0.01,0.894,0.029 c70.31,4.478,113.743-10.488,140.803-48.528c4.414-6.206,8.508-13.528,12.515-22.38c9.763-21.575,19.502-43.008,29.148-64.243 c110.601-243.435,215.066-473.372,197.312-568.965c-4.089-22.019-23.613-38.318-46.426-38.75 c-289.355-5.513-588.601-9.624-788.633,5.596c-37.964,2.888-72.227,25.74-89.419,59.634L2289.363,2992.136z"/></g><g><path style="fill:#000072;" d="M2353.928,2999.883c99.568-202.141,209.142-418.999,310.938-620.72 c5.838-12.015,12.928-23.832,21.942-33.738c18.394-20.492,43.549-34.677,70.632-39.617c18.48-3.398,56.342-2.952,75.021-4.107 c226.962-4.589,456.092-18.388,682.46,4.963c-194.969,13.421-389.289,7.948-584.092,18.158 c-32.677,1.4-114.405,4.991-145.871,6.648c-29.511,0.053-56.946,11.476-76.472,33.338c-7.26,8.021-12.839,17.744-17.506,27.465 c-69.455,138.961-153.716,308.378-223.762,446.428c-29.25,58.001-58.577,115.962-88.186,173.782 C2370.704,3028.165,2346.138,3017.187,2353.928,2999.883L2353.928,2999.883z"/></g><g><path style="fill:#FFFFFF;" d="M3144.032,2565.678c-18.912,36.192-59.233,58.608-102.529,52.313 c-50.138-7.29-87.399-52.568-84.85-103.169c2.89-57.37,53.136-99.854,109.526-93.996c4.86,0.505,9.597,1.349,14.192,2.51 c8.52,2.153,10.9,12.814,4.271,18.583c-23.78,20.694-32.83,52.091-20.033,77.366c11.984,23.668,39.607,35.072,68.317,30.798 C3141.67,2548.782,3148.126,2557.843,3144.032,2565.678z"/></g></g><g><g><path style="fill:#000072;" d="M756.502,2226.861c24.133,0,48.706,2.725,73.354,8.285 c121.321,27.354,215.166,119.121,244.912,239.497c4.536,18.34,8.123,37.524,10.657,57.017c3.97,30.63,5.261,62.065,3.84,93.442 c-2.974,63.813-17.051,127.31-41.843,188.745c-21.917,54.258-45.054,124.312-29.336,185c3.811,14.79,9.851,28.687,17.957,41.313 c15.706,24.663,40.046,45.947,72.38,63.306c5.671,3.042,8.547,9.556,6.978,15.796c-1.57,6.245-7.183,10.62-13.621,10.62H789.798 c-5.139,0-9.866-2.803-12.329-7.314c-83.467-152.92-42.146-254.434,1.599-361.904c16.506-40.552,33.574-82.485,45.173-129.39 c2.705-10.942,3.967-22.075,3.757-33.081c-0.347-19.517-5.391-38.359-14.585-54.507c-14.141-24.813-33.833-38.28-54.761-38.28 c-5.518,0-11.125,0.938-16.736,2.85c-29.844,10.176-56.091,48.745-48.513,102.759c0.449,3.174,1.296,6.567,2.195,10.156 c10.859,43.003,0.786,85.786-26.872,114.722c-19.873,20.786-46.917,32.108-75.154,32.108c-7.131,0-14.336-0.723-21.523-2.196 c-21.589-4.414-41.868-15.85-58.63-33.062c-101.787-104.551-101.497-264.79,0.708-389.688 C575.716,2267.789,662.92,2226.861,756.502,2226.861 M756.502,2206.861c-101.096,0-192.671,43.87-257.854,123.529 c-108.86,133.032-108.679,304.222,0.44,416.305c19.578,20.101,43.42,33.484,68.955,38.705c8.413,1.725,17.004,2.601,25.53,2.601 c34.18,0,66.003-13.597,89.609-38.287c32.446-33.944,44.336-83.827,31.809-133.439c-0.757-3.018-1.479-5.906-1.785-8.064 c-6.003-42.784,13.638-73.684,35.166-81.025c3.464-1.18,6.924-1.78,10.281-1.78c13.753,0,27.029,10.009,37.383,28.182 c7.539,13.24,11.68,28.789,11.965,44.96c0.178,9.297-0.891,18.684-3.176,27.926c-11.252,45.507-28.042,86.757-44.28,126.649 c-43.582,107.065-88.645,217.776-0.632,379.027c5.974,10.939,17.424,17.732,29.885,17.732h311.982 c15.63,0,29.207-10.586,33.018-25.745c3.813-15.157-3.145-30.907-16.921-38.296c-29.27-15.714-51.128-34.698-64.963-56.425 c-6.992-10.892-12.18-22.837-15.459-35.56c-14.258-55.051,7.749-121.113,28.513-172.52 c25.637-63.533,40.198-129.241,43.276-195.304c1.475-32.562,0.134-65.17-3.984-96.945c-2.632-20.24-6.357-40.172-11.077-59.248 c-31.572-127.767-131.172-225.175-259.927-254.205C808.443,2209.813,782.281,2206.861,756.502,2206.861L756.502,2206.861z"/></g><g><path style="fill:#000072;" d="M2630.708,835.869c8.706,0.001,16.809,1.267,24.18,3.931 c72.888,26.384,119.033,246.533,104.724,453.823c68.108,93.254,111.177,202.983,131.045,320.579 c0.205,0.496,0.444,0.972,0.645,1.472c24.863,62.527,32.681,140.688,23.364,214.912 c60.752,56.382,98.699,139.768,88.811,223.411c-7.168,61.067-31.121,115.493-65.552,163.616 c51.169-0.974,104.954-1.385,160.486-1.385c131.99,0,273.779,2.329,413.259,4.984c36.084,0.693,67,26.646,73.508,61.714 c19.37,104.292-81.995,327.393-199.363,585.728c-9.639,21.216-19.368,42.632-29.124,64.185 c-4.763,10.527-9.741,19.385-15.217,27.085c-22.502,31.636-54.287,50.552-97.747,57.729c2.966,5.566,4.9,11.763,5.439,18.369 c1.355,16.582,1.355,33.398,0,49.985c-2.007,24.604-22.886,43.877-47.529,43.877h-503.796h-916.443h-631.636 c-3.826,0-7.485-1.558-10.134-4.316c-2.649-2.764-4.058-6.484-3.899-10.308c1.931-46.763,7.205-92.646,15.671-136.382 c12.483-64.302,32.395-125.845,59.182-182.925c23.604-50.303,52.275-97.139,87.654-143.179 c40.674-52.915,82.59-94.521,114.565-124.854c13.372-12.681,26.042-24.326,38.296-35.591 c26.895-24.719,50.615-46.531,66.296-65.522c-21.248-12.612-41.965-26.396-62.017-41.56 c-80.547-62.068-139.807-148.523-172.671-244.146c-6.675,6.187-14.993,10.139-23.296,11.746c-3.171,0.61-6.309,0.908-9.38,0.908 c-18.401,0-34.448-10.703-41.563-28.54c-10.862-27.241-14.419-64.253-10.015-104.219c4.448-40.393,24.79-77.178,56.433-103.003 c6.88-124.353,28.831-252.173,83.555-364.395c-110.452-227.939-146.931-507.122-63.738-566.05 c19.258-13.645,47.764-19.697,82.454-19.696c103.159,0.003,260.962,53.53,392.493,120.053 c80.681-44.297,171.213-69.993,262.28-81.528c31.819-3.396,63.789-4.971,95.779-4.971c61.091,0,122.256,5.746,182.551,15.532 c18.301,3.076,37.004,6.982,55.671,11.482C2437.923,927.757,2556.495,835.86,2630.708,835.869 M2630.711,815.869 L2630.711,815.869c-84.128-0.01-204.167,96.771-291.563,190.419c-15.725-3.582-31.008-6.625-45.571-9.072 c-64.666-10.497-127.163-15.809-185.867-15.809c-33.352,0-66.292,1.71-97.9,5.083c-0.132,0.015-0.261,0.029-0.391,0.046 c-96.685,12.247-184.128,38.757-260.098,78.835c-116.228-57.678-277.388-117.516-392.163-117.518 c-40.491-0.001-72.122,7.864-94.016,23.377c-62.048,43.951-57.363,168.18-49.045,238.32 c12.954,109.261,50.071,234.1,102.17,344.053c-45.781,97.409-72.273,213.656-80.854,354.756 c-32.058,28.916-52.141,67.809-56.838,110.449c-4.756,43.161-0.737,83.583,11.318,113.815 c10.12,25.372,33.162,41.133,60.139,41.133c4.358,0,8.787-0.427,13.159-1.268c2.998-0.581,5.964-1.372,8.867-2.36 c36.279,92.883,95.093,172.383,171.113,230.962c13.816,10.449,28.291,20.521,43.269,30.118 c-13.501,13.883-30.305,29.327-48.877,46.396l-0.288,0.265c-12.219,11.234-24.856,22.85-38.235,35.54 c-32.498,30.826-75.125,73.14-116.66,127.177c-36.27,47.2-65.676,95.24-89.902,146.871 c-27.488,58.574-47.915,121.694-60.71,187.61c-8.66,44.73-14.048,91.617-16.021,139.368c-0.381,9.208,3.059,18.312,9.443,24.972 c6.399,6.664,15.349,10.477,24.573,10.477h631.636h916.443h503.796c34.983,0,64.617-27.344,67.463-62.251 c1.443-17.665,1.443-35.577,0-53.24c-0.049-0.593-0.105-1.185-0.168-1.776c37.874-10.376,67.07-30.497,88.838-61.101 c6.238-8.771,11.846-18.726,17.144-30.433c9.751-21.542,19.475-42.949,29.109-64.156 c118.777-261.436,221.338-487.175,200.818-597.653c-8.232-44.354-47.256-77.183-92.788-78.058 c-136.128-2.59-280.454-4.989-413.643-4.989c-44.312,0-84.973,0.256-123.252,0.778c26.292-44.799,42.466-91.974,48.181-140.675 c9.785-82.766-22.886-169.263-87.671-233.315c7.913-75.463-1.323-153.082-25.693-214.504 c-20.828-121.344-64.524-229.205-129.937-320.759c6.238-100.253-1.204-206.713-20.574-293.246 c-15.347-68.565-44.768-154.324-97.771-173.509C2652.291,817.594,2641.868,815.87,2630.711,815.869L2630.711,815.869z"/></g></g></g></g></svg>