<?xml version="1.0" encoding="utf-8"?>
<!-- Generator: Adobe Illustrator 27.5.0, SVG Export Plug-In . SVG Version: 6.00 Build 0)  -->
<svg version="1.1" id="Layer_1" xmlns="http://www.w3.org/2000/svg" xmlns:xlink="http://www.w3.org/1999/xlink" x="0px" y="0px"
	 viewBox="0 0 4000 4000" style="enable-background:new 0 0 4000 4000;" xml:space="preserve">
<g>
	<g>
		<rect style="fill:#FFFFFF;" width="4000" height="4000"/>
	</g>
	<g>
		<g>
			<g>
				<path style="fill:#DCB3FF;" d="M3613.084,3189.297c325.919-8.068,357.49-391.862,96.816-554.032c0,0-31.768-16.778-17.145-78.8
					c97.824-357.765-77.27-680.302-469.96-690.736c0,0-291.456,3.948-380.204-284.482s-537.277-955.804-1486.526-495.173
					c0,0-289.657,191.006-371.74,485.792s-473.885,466.776-614.571,696.945c-184.555,323.203-52.746,717.414,134.634,917.7"/>
			</g>
			<g>
				<path style="fill:#DCB3FF;" d="M843.236,1444.887c15.877-12.182,39.318-9.148,50.902,7.17
					c15.211,21.426,22.285,67.134-21.396,164.47c-60.013,133.73-132.54,222.934-197.879,177.532s20.887-115.744,61.732-155.076
					C773.368,1603.573,786.446,1488.461,843.236,1444.887z"/>
			</g>
			<g>
				<path style="fill:#DCB3FF;" d="M2832.507,1307.944c0,0,72.612,140.181,114.969,262.209s66.057,168.419,225.904,187.076
					c159.847,18.657,228.929-1.009,189.598-59.501c-39.331-58.493-194.136-80.176-312.13-253.133
					S2788.197,1216.769,2832.507,1307.944z"/>
			</g>
		</g>
		<g>
			<g>
				<path style="fill:#8ADDF6;" d="M3054.863,3123.203c-226,0-409.864-183.886-409.864-409.914
					c0-112.897,46.23-219.91,127.602-297.141h564.572c81.372,77.226,127.602,184.244,127.602,297.141
					C3464.774,2939.317,3280.887,3123.203,3054.863,3123.203z"/>
			</g>
			<g>
				<path style="fill:#62CD3E;" d="M2834.776,3015.66c0,0-40.088-34.136-34.289-76.493s28.49-65.552,4.79-109.674
					s12.067-117.49,12.067-117.49l163.556,186.819c0,0,19.269,44.884-14.263,72.617c-33.533,27.734-31.011,66.057-18.657,86.731"/>
			</g>
			<g>
				<path style="fill:#F8C8C8;" d="M3182.456,3042.179c0,0,2.773-52.816,68.578-51.304c65.804,1.513,50.854-50.595,135.354-36.769
					c0,0-80.391,113.163-187.291,137.871"/>
			</g>
			<g>
				<path style="fill:#3B0372;" d="M2950.006,3065.844c-3.462,0-6.833-1.768-8.74-4.956c-16.394-27.437-14.475-70.518,20.906-99.785
					c24.421-20.195,14.453-52.471,11.921-59.424l-151.658-173.228c-8.481,22.393-21.233,65.708-6.182,93.735
					c18.564,34.561,11.528,58.237,4.082,83.311c-3.01,10.127-6.121,20.601-7.756,32.554c-4.956,36.206,30.464,67.075,30.823,67.383
					c4.255,3.652,4.758,10.068,1.113,14.331c-3.64,4.263-10.042,4.78-14.314,1.143c-1.812-1.543-44.25-38.291-37.773-85.615
					c1.848-13.496,5.334-25.229,8.411-35.586c7.024-23.638,12.097-40.718-2.5-67.9c-25.869-48.159,10.33-123.569,11.882-126.758
					c1.492-3.062,4.419-5.171,7.795-5.62c3.372-0.479,6.75,0.815,8.997,3.379l163.557,186.816c0.701,0.801,1.272,1.709,1.692,2.686
					c7.705,17.944,14.038,58.691-17.126,84.468c-29.675,24.541-26.072,57.51-16.409,73.682c2.881,4.819,1.306,11.064-3.513,13.945
					C2953.577,3065.38,2951.781,3065.844,2950.006,3065.844z"/>
			</g>
			<g>
				<path style="fill:#3B0372;" d="M2870.328,3028.53c-4.075,0-7.92-2.466-9.482-6.494c-15.132-38.989-20.61-91.787,1.255-121.855
					c14.138-19.438,5.508-42.661,2.258-51.401c-0.845-2.271-1.355-3.643-1.58-5.22c-0.791-5.562,3.074-10.713,8.635-11.504
					c5.295-0.762,10.232,2.725,11.362,7.876c0.144,0.435,0.374,1.025,0.647,1.763c3.877,10.435,15.679,42.188-4.873,70.449
					c-16.497,22.681-11.855,68.75,1.255,102.539c2.031,5.234-0.566,11.123-5.801,13.159
					C2872.796,3028.31,2871.551,3028.53,2870.328,3028.53z M2882.818,2840.116c0.037,0.19,0.068,0.381,0.098,0.571
					C2882.894,2840.536,2882.867,2840.346,2882.818,2840.116z"/>
			</g>
			<g>
				<path style="fill:#3B0372;" d="M2906.114,3042.328c-4.863,0-9.165-3.501-10.012-8.457c-0.525-3.066-12.546-75.532,13.533-109.79
					c16.833-22.119,7.38-42.539,4.275-49.248c-1.013-2.188-1.814-3.916-1.814-6.416c0-5.615,4.553-10.171,10.168-10.171
					c4.622,0,8.525,3.086,9.761,7.31c0.095,0.21,0.21,0.454,0.339,0.732c11.748,25.376,9.546,48.965-6.548,70.107
					c-17.246,22.661-12.825,75.571-9.666,94.048c0.945,5.537-2.776,10.791-8.311,11.738
					C2907.259,3042.28,2906.683,3042.328,2906.114,3042.328z M2932.432,2868.403c0,0.005,0,0.01,0,0.015
					C2932.432,2868.412,2932.432,2868.407,2932.432,2868.403z M2932.432,2868.393v0.005V2868.393z"/>
			</g>
			<g>
				<path style="fill:#FFFFFF;" d="M2777.545,2614.54c-15.896,0-28.826-15.083-28.826-33.618s12.93-33.618,28.826-33.618
					s28.826,15.083,28.826,33.618S2793.441,2614.54,2777.545,2614.54z M2777.545,2567.646c-4.014,0-8.489,5.449-8.489,13.276
					s4.475,13.276,8.489,13.276s8.489-5.449,8.489-13.276S2781.558,2567.646,2777.545,2567.646z"/>
			</g>
			<g>
				<path style="fill:#FFFFFF;" d="M2835.784,2555.795c-21.455,0-38.911-19.038-38.911-42.441s17.456-42.446,38.911-42.446
					s38.911,19.043,38.911,42.446S2857.24,2555.795,2835.784,2555.795z M2835.784,2491.249c-10.242,0-18.574,9.917-18.574,22.104
					s8.333,22.1,18.574,22.1s18.574-9.912,18.574-22.1S2846.026,2491.249,2835.784,2491.249z"/>
			</g>
			<g>
				<path style="fill:#FFFFFF;" d="M2918.985,2499.321c-23.401,0-42.439-19.043-42.439-42.446s19.038-42.441,42.439-42.441
					c23.403,0,42.441,19.038,42.441,42.441S2942.388,2499.321,2918.985,2499.321z M2918.985,2434.775
					c-12.188,0-22.102,9.912-22.102,22.1s9.915,22.104,22.102,22.104s22.104-9.917,22.104-22.104
					S2931.173,2434.775,2918.985,2434.775z"/>
			</g>
			<g>
				<path style="fill:#F8C8C8;" d="M3257.589,3071.196c-50.677-38.177-126.314-33.678-164.637-15.525
					c-38.323,18.153-109.926,28.49-181.782-16.136c-71.855-44.626-127.466-19.113-127.466-19.113
					C2924.785,3135.883,3082.746,3152.808,3257.589,3071.196z"/>
			</g>
			<g>
				<g>
					<path style="fill:#FBA229;" d="M3141.028,2850.292c0,0,45.272,12.769,27.687,47.524
						c-17.586,34.756-70.532,27.003-86.227-13.085"/>
				</g>
				<g>
					<path style="fill:#FBA229;" d="M3142.62,2653.799c0,0,27.965,37.981-17.389,44.337l-0.102-0.051
						c-54.76-75.454-126.706-114.605-191.177-116.842c3.101-0.762,129.451-31.931,210.753,27.457
						c8.084,5.898,13.067,15.66,11.898,25.626C3155.84,2641.139,3152.281,2648.46,3142.62,2653.799z"/>
				</g>
				<g>
					<path style="fill:#FBA229;" d="M3358.966,2840.503c-38.591,76.928-144.654,58.421-184.974-24.965
						c-136.214,177.806-420.896,37.066-384.237-135.044c25.626-68.539,81.352-101.436,144.197-99.25
						c64.471,2.237,136.417,41.388,191.177,116.842c7.729,10.576,15.05,21.864,22.016,33.863
						c7.576,9.864,16.067,14.796,26.185,11.44c7.017-2.288,12.305-8.186,14.694-15.203c8.695-25.321,43.93-104.029,139.519-72.251
						c0,0-29.49,10.22-24.762,34.422c4.729,24.202-3.61,71.844-41.235,72.607c0,0,30.659,3.203,34.625,38.947
						C3300.138,2837.655,3332.069,2850.316,3358.966,2840.503z"/>
				</g>
				<g style="opacity:0.36;">
					<g>
						<path style="fill:#FFFFFF;" d="M3070.329,2715.805c-13.565,26.688-49.711,2.145-98.866-22.841
							c-49.155-24.986-92.706-40.954-79.14-67.642c13.566-26.688,64.411-28.067,113.566-3.081
							C3055.044,2647.228,3083.895,2689.117,3070.329,2715.805z"/>
					</g>
				</g>
				<g style="opacity:0.2;">
					<path style="fill:#3B0372;" d="M3358.966,2840.503c-38.591,76.928-144.654,58.421-184.974-24.965
						c-134.079,175.06-412.1,41.337-385.711-127.062c21.846,138.749,242.458,232.627,368.484,102.297
						c8.679-8.976,23.29-7.708,30.684,2.353c33.194,45.164,88.056,62.519,129.57,43.97
						C3329.171,2844.621,3344.78,2845.689,3358.966,2840.503z"/>
				</g>
				<g>
					<path style="fill:#3B0372;" d="M3009.93,2907.997c-38.613,0-75.764-9.453-106.56-23.647
						c-75.894-34.976-143.528-112.222-123.545-205.957c0.105-0.493,0.247-0.972,0.422-1.445
						c23.123-61.816,71.812-100.225,133.582-105.371c88.132-7.358,182.957,53.35,241.787,154.678
						c7.649,9.756,12.29,8.218,14.539,7.49c3.689-1.216,6.775-4.521,8.254-8.848c19.209-56.099,69.333-106.216,152.351-78.618
						c4.136,1.372,6.936,5.229,6.963,9.585s-2.725,8.247-6.843,9.673c-0.82,0.293-21.079,7.695-18.118,22.856
						c3.813,19.517,0.034,48.75-14.568,66.846c-2.954,3.662-6.257,6.782-9.863,9.346c8.623,7.48,16.033,19.048,17.939,36.201
						c1.387,12.476,6.887,22.021,15.906,27.607c9.353,5.796,21.79,6.748,33.271,2.539c3.914-1.426,8.306-0.327,11.084,2.778
						c2.776,3.11,3.372,7.603,1.504,11.328c-17.334,34.585-48.774,54.36-86.345,54.365c-0.261,0-0.525-0.005-0.789-0.005
						c-42.676-0.313-83.884-25.669-108.55-65.752C3125.189,2888.031,3066.019,2907.997,3009.93,2907.997z M2799.561,2683.368
						c-17.129,82.422,43.979,151.016,112.322,182.515c71.851,33.11,181.501,38.179,254.053-56.543
						c2.148-2.808,5.591-4.277,9.109-3.936c3.511,0.361,6.587,2.515,8.123,5.693c19.797,40.996,58.22,67.671,97.883,67.964
						c0.217,0,0.437,0,0.652,0c22.808,0.005,42.246-8.833,56.389-25.288c-9.517-0.469-18.718-3.193-26.626-8.091
						c-14.314-8.867-23.337-24.014-25.41-42.651c-2.93-26.372-23.337-29.683-25.654-29.976c-5.291-0.664-9.221-5.308-8.943-10.63
						c0.281-5.322,4.568-9.531,9.897-9.639c8.677-0.176,15.549-3.55,21.008-10.317c10.2-12.642,13.318-35.439,10.437-50.181
						c-2.661-13.633,2.505-24.36,9.912-32.134c-68.445-11.221-95.984,44.814-105.061,71.328
						c-3.53,10.313-11.433,18.384-21.138,21.577c-9.487,3.13-23.669,3.057-37.434-14.941c-0.264-0.347-0.505-0.708-0.725-1.084
						c-54.885-94.907-142.363-151.88-222.834-145.195C2861.358,2596.357,2820.203,2628.857,2799.561,2683.368z"/>
				</g>
				<g>
					<path style="fill:#3B0372;" d="M3125.203,2708.29c-4.993,0-9.348-3.677-10.059-8.765c-0.779-5.562,3.101-10.698,8.662-11.479
						c5.266-0.732,14.421-2.729,16.56-7.808c2.478-5.884-3.04-16.489-5.935-20.425c-1.736-2.358-2.371-5.352-1.743-8.208
						c0.627-2.861,2.456-5.313,5.02-6.724c7.158-3.95,8.459-8.564,8.816-11.689c0.674-5.933-2.4-12.334-7.83-16.299
						c-77.41-56.514-201.06-26.094-202.3-25.771c-5.447,1.377-10.974-1.914-12.356-7.358c-1.382-5.439,1.907-10.972,7.346-12.354
						c5.435-1.387,134.099-33.154,219.304,29.058c11.406,8.335,17.551,21.753,16.042,35.024c-0.703,6.157-3.232,14.16-10.667,21.089
						c3.938,8.027,7.82,20.22,3.044,31.553c-4.607,10.938-15.537,17.686-32.485,20.059
						C3126.146,2708.256,3125.672,2708.29,3125.203,2708.29z"/>
				</g>
				<g>
					<path style="fill:#3B0372;" d="M2797.219,2723.125c11.321,30.154,37.937,41.187,68.578,41.566
						c2.797,0.274,4.841,2.767,4.566,5.563c-0.22,2.241-1.871,3.999-3.953,4.468c-4.221,0.945-8.515,1.753-12.872,2.48
						c-23.269,2.82-48.299-4.519-63.34-23.318c-6.715-8.493-22.342-33.374-4.933-38.149
						C2790.783,2714.587,2795.43,2718.228,2797.219,2723.125L2797.219,2723.125z"/>
				</g>
				<g>
					<path style="fill:#3B0372;" d="M2999.1,2672.944c17.063,38.336,11.325,85.989-19.336,115.93
						c-9.416,9.9-20.282,17.908-31.673,24.51c-3.251,1.885-7.415,0.776-9.299-2.476c-1.685-2.908-0.974-6.545,1.514-8.625
						c41.456-34.186,57.897-71.803,42.78-123.787C2980.318,2668.337,2995.012,2663.258,2999.1,2672.944L2999.1,2672.944z"/>
				</g>
				<g>
					<path style="fill:#3B0372;" d="M2993.762,2721.882c33.85-20.9,78.368-24.298,86.967,23.9
						c4.605,26.264-3.283,57.516-28.843,70.71c-26.158,13.551-55.1-0.667-70.969-22.344c-3.638-5.906-15.558-17.429-6.094-23.198
						c3.059-1.575,6.758-0.594,8.665,2.16c12.852,18.323,31.773,34.23,52.85,28.972c2.185-0.927,4.655-1.371,6.594-2.729
						c2.08-1.069,2.925-1.658,4.666-3.213c18.101-13.667,21.643-66.672-6.534-69.458c-13.194-0.839-27.236,4.364-39.232,10.071
						C2992.193,2741.288,2984.763,2727.471,2993.762,2721.882L2993.762,2721.882z"/>
				</g>
				<g>
					
						<ellipse transform="matrix(0.3781 -0.9258 0.9258 0.3781 -668.1734 4360.0571)" style="fill:#3B0372;" cx="2911.17" cy="2677.36" rx="42.103" ry="30.633"/>
				</g>
				<g>
					<path style="fill:#FFFFFF;" d="M2919.381,2671.385c-2.546,6.233-8.286,9.784-12.821,7.932
						c-4.535-1.852-6.148-8.406-3.602-14.639c2.546-6.233,8.286-9.784,12.821-7.932S2921.927,2665.152,2919.381,2671.385z"/>
				</g>
				<g>
					<path style="fill:#3B0372;" d="M3132.147,2930.053c-0.933,0-1.868-0.024-2.813-0.068c-24.79-1.182-46.895-17.49-56.316-41.548
						c-2.046-5.229,0.532-11.128,5.762-13.174c5.234-2.056,11.128,0.527,13.179,5.762c6.499,16.602,21.55,27.847,38.345,28.643
						c13.052,0.635,23.735-5.371,29.336-16.44c3.223-6.367,3.804-11.729,1.777-16.387c-4.114-9.453-18.127-15.308-23.179-16.768
						c-5.383-1.558-8.511-7.178-6.973-12.568c1.541-5.391,7.136-8.535,12.524-6.997c2.791,0.786,27.512,8.262,36.23,28.115
						c3.149,7.173,5.32,18.857-2.231,33.784C3168.956,2919.863,3152.03,2930.053,3132.147,2930.053z"/>
				</g>
				<g>
					<path style="fill:#3B0372;" d="M3117.826,2743.293c-10.491,7.223-8.027,15.134-5.715,26.011
						c0.414,2.829-1.543,5.459-4.373,5.874c-1.759,0.256-3.461-0.425-4.582-1.641c-5.688-6.39-9.068-14.224-7.828-23.254
						c1.156-7.177,5.901-13.484,12.179-16.748c4.456-2.549,12.197-4.536,13.883,2.447
						C3122.128,2739.117,3120.21,2741.658,3117.826,2743.293L3117.826,2743.293z"/>
				</g>
				<g>
					<path style="fill:#3B0372;" d="M3134.511,2783.23c0.43,0.01-0.022,0.381-0.106,0.598c-2.348,3.728-2.459,7.895-2.341,12.544
						c0.173,4.484,1.887,12.503-5.005,12.768c-3.493,0.082-5.022-3.122-6.667-5.615c-4.01-7.409-5.064-16.824-0.313-24.558
						c3.188-5.648,14.023-12.357,17.981-3.997C3139.36,2778.232,3137.771,2781.929,3134.511,2783.23L3134.511,2783.23z"/>
				</g>
				<g>
					<path style="fill:#3B0372;" d="M3105.478,2802.881c-1.474,2.539-3.419,5.581-3.803,8.87c-0.695,3.427-0.073,9.915,0.119,13.594
						c0.173,2.913-2.048,5.415-4.961,5.588c-1.735,0.103-3.343-0.667-4.381-1.902c-4.304-5.397-6.561-11.931-5.948-19.067
						c0.761-7.894,5.386-15.278,13.104-18.357c1.39-0.559,2.971,0.112,3.531,1.504c0.05,0.125,0.091,0.249,0.121,0.376
						L3105.478,2802.881L3105.478,2802.881z"/>
				</g>
				<g>
					<path style="fill:#3B0372;" d="M3063.25,2840.125c-4.059,5.062-6.508,11.204-5.934,17.993
						c-0.012,4.885,3.409,13.71-4.186,14.404c-3.913,0.141-5.406-3.741-7.284-6.467c-4.723-8.759-4.729-20.479,1.329-28.782
						c2.655-3.675,5.365-6.048,9.675-8.13c4.334-2.163,9.399,2.474,7.746,6.946
						C3064.596,2836.089,3063.25,2840.125,3063.25,2840.125L3063.25,2840.125z"/>
				</g>
				<g>
					<path style="fill:#3B0372;" d="M3059.128,2665.774c-4.967,4.85-8.598,11.279-8.628,18.572
						c-0.576,4.921,2.54,14.285-5.257,14.458c-1.741-0.066-3.264-1.013-4.148-2.371c-4.456-6.853-6.137-15.096-4.155-23.276
						c0.791-8.346,18.263-27.466,24.714-15.296C3062.919,2660.925,3061.263,2663.748,3059.128,2665.774L3059.128,2665.774z"/>
				</g>
			</g>
			<g>
				<path style="fill:#3B0372;" d="M3019.239,3081.523c-35.132,0-74.524-9.185-113.433-33.35
					c-65.911-40.933-115.815-19.419-117.905-18.486c-5.112,2.285-11.13,0.02-13.438-5.078c-2.31-5.098-0.088-11.094,5-13.428
					c2.471-1.133,61.44-27.256,137.07,19.717c65.459,40.649,133.601,33.804,172.065,15.586
					c39.028-18.491,119.155-25.566,175.107,16.592c4.487,3.379,5.383,9.756,2.004,14.238c-3.381,4.487-9.761,5.386-14.241,2.002
					c-48.64-36.631-120.747-30.288-154.165-14.453C3076.444,3074.745,3049.412,3081.518,3019.239,3081.523z"/>
			</g>
			<g>
				<path style="fill:#3B0372;" d="M3054.886,3067.805c-1.14-3.435-5.678-40.498,27.602-43.523
					c33.281-3.025,41.79-31.735,63.157-27.308c21.368,4.427,43.461,12.441,39.694,32.354l-8.672,13.354
					c0,0-28.381-7.074-60.56,4.891C3083.929,3059.539,3054.886,3067.805,3054.886,3067.805z"/>
			</g>
			<g>
				<path style="fill:#3B0372;" d="M3182.464,3052.309c-0.203,0-0.403-0.005-0.608-0.015c-5.579-0.332-9.849-5.068-9.553-10.649
					c0.032-0.625,4.192-62.7,78.962-60.938c25.989,0.596,36.936-7.764,49.661-17.446c16.953-12.905,36.155-27.529,87.102-19.189
					c5.544,0.903,9.302,6.133,8.396,11.675c-0.908,5.542-6.128,9.331-11.677,8.394c-42.302-6.924-55.835,3.384-71.506,15.303
					c-13.774,10.483-29.419,22.397-62.441,21.597c-53.767-1.152-57.9,37.334-58.191,41.738
					C3192.254,3048.149,3187.781,3052.309,3182.464,3052.309z"/>
			</g>
			<g>
				<path style="fill:#23A3E4;" d="M3054.862,3138.456c-234.409,0-425.117-190.728-425.117-425.166
					c0-116.035,48.242-228.374,132.356-308.208c2.834-2.69,6.592-4.189,10.5-4.189h564.57c3.909,0,7.666,1.499,10.5,4.189
					c84.114,79.829,132.356,192.168,132.356,308.208C3480.028,2947.729,3289.298,3138.456,3054.862,3138.456z M2778.756,2431.401
					c-75.391,73.813-118.503,176.191-118.503,281.89c0,217.617,177.021,394.658,394.609,394.658
					c217.615,0,394.658-177.041,394.658-394.658c0-105.703-43.113-208.081-118.503-281.89H2778.756z"/>
			</g>
			<g style="opacity:0.19;">
				<path style="fill:#8ADDF6;" d="M3403.201,2325.289c-5.847,14.898-20.185,24.762-36.202,24.762h-625.903
					c-17.338,0-32.643-11.44-37.32-28.168c-4.932-17.542-4.424-36.303,1.678-56.235c4.983-16.321,20.033-27.507,37.117-27.507H3367
					c16.016,0,30.354,9.864,36.202,24.761C3411.336,2283.698,3411.336,2304.493,3403.201,2325.289z"/>
			</g>
			<g style="opacity:0.4;">
				<g>
					<ellipse style="fill:#FFFFFF;" cx="2898.041" cy="2294.095" rx="83.705" ry="63.103"/>
				</g>
			</g>
			<g style="opacity:0.19;">
				<path style="fill:#8ADDF6;" d="M3530.873,2713.288c0,262.92-213.092,476.012-476.012,476.012
					c-262.869,0-475.961-213.092-475.961-476.012c0-145.621,65.387-275.988,168.45-363.238h615.073
					C3465.487,2437.301,3530.873,2567.667,3530.873,2713.288z"/>
			</g>
			<g style="opacity:0.28;">
				<path style="fill:#23A3E4;" d="M3506.62,2691.577c0,262.92-213.092,476.012-476.012,476.012
					c-116.028,0-222.396-41.541-304.969-110.537l-0.305-0.305c-23.846-22.829-45.252-48.15-63.912-75.505
					c80.234,61.726,180.754,98.436,289.817,98.436c262.92,0,476.012-213.092,476.012-476.012c0-93.25-26.795-180.195-73.166-253.615
					h7.932C3451.199,2436.385,3506.62,2557.549,3506.62,2691.577z"/>
			</g>
			<g>
				<path style="fill:#23A3E4;" d="M3367,2365.302h-625.903c-24.153,0-45.54-16.167-52.012-39.312
					c-5.735-20.396-5.137-42.207,1.785-64.81c6.992-22.9,27.771-38.296,51.702-38.296H3367c22.405,0,42.188,13.521,50.4,34.443
					c9.546,24.399,9.546,49.131,0.007,73.516c-0.002,0.005-0.005,0.01-0.007,0.015
					C3409.188,2351.781,3389.405,2365.302,3367,2365.302z M2742.572,2253.393c-10.422,0-19.478,6.714-22.527,16.709
					c-5.186,16.929-5.715,32.959-1.584,47.656c2.808,10.039,12.114,17.036,22.637,17.036H3367c9.766,0,18.401-5.913,21.997-15.068
					c6.746-17.251,6.746-34.019-0.002-51.27c-3.589-9.146-12.224-15.063-21.995-15.063H2742.572z M3403.201,2325.287h0.049H3403.201
					z"/>
			</g>
			<g>
				<path style="fill:#23A3E4;" d="M3054.862,3204.555c-270.857,0-491.216-220.381-491.216-491.265
					c0-144.712,63.364-281.353,173.848-374.883c2.754-2.334,6.248-3.613,9.856-3.613h615.073c3.608,0,7.102,1.279,9.856,3.613
					c110.483,93.53,173.848,230.171,173.848,374.883C3546.126,2984.174,3325.745,3204.555,3054.862,3204.555z M2752.991,2365.302
					c-101.023,87.612-158.838,214.116-158.838,347.988c0,254.063,206.672,460.757,460.708,460.757
					c254.063,0,460.757-206.694,460.757-460.757c0-133.877-57.815-260.381-158.835-347.988H2752.991z"/>
			</g>
			<g style="opacity:0.4;">
				<g>
					<path style="fill:#FFFFFF;" d="M2940.825,2718.363c0,145.491,87.536,272.441-15.127,272.441s-185.888-117.944-185.888-263.435
						s83.225-263.435,185.888-263.435S2940.825,2572.872,2940.825,2718.363z"/>
				</g>
			</g>
		</g>
		<g>
			<path style="fill:#3B0372;" d="M360.985,3178.047c400.835-6.837,824.676-9.938,1225.494-11.546
				c675.563-1.435,1368.167-5.765,2042.489,11.544c6.213,0.177,11.107,5.358,10.931,11.571c-0.17,5.989-5.02,10.752-10.931,10.93
				c-811.353,19.692-1638.88,12.888-2450.987,9.27c-260.455-1.581-556.772-4.808-816.996-9.271
				c-6.213-0.097-11.171-5.212-11.074-11.426C350.007,3183.032,354.941,3178.149,360.985,3178.047L360.985,3178.047z"/>
		</g>
		<g>
			<g>
				<rect x="481.698" y="2555.687" style="fill:#DA865D;" width="942.946" height="630.835"/>
			</g>
			<g style="opacity:0.6;">
				<g>
					<rect x="535.652" y="2601.847" style="fill:#FFFFFF;" width="841.592" height="23.448"/>
				</g>
			</g>
			<g style="opacity:0.6;">
				<g>
					<rect x="535.652" y="2891.034" style="fill:#FFFFFF;" width="841.592" height="23.448"/>
				</g>
			</g>
			<g>
				<path style="fill:#3B0372;" d="M1424.644,3201.777H481.697c-8.425,0-15.254-6.831-15.254-15.254v-630.835
					c0-8.423,6.829-15.254,15.254-15.254h942.947c8.425,0,15.254,6.831,15.254,15.254v630.835
					C1439.898,3194.946,1433.069,3201.777,1424.644,3201.777z M496.951,3171.269h912.439v-600.327H496.951V3171.269z"/>
			</g>
			<g>
				<path style="fill:#3B0372;" d="M1377.244,2846.01H535.653c-7.019,0-12.712-5.688-12.712-12.71v-231.455
					c0-7.021,5.693-12.71,12.712-12.71h841.592c7.019,0,12.713,5.688,12.713,12.71V2833.3
					C1389.957,2840.322,1384.263,2846.01,1377.244,2846.01z M548.365,2820.59h816.167v-206.035H548.365V2820.59z"/>
			</g>
			<g>
				<path style="fill:#3B0372;" d="M1377.244,3202.153H535.653c-7.097,0-12.852-5.752-12.852-12.852v-302.3
					c0-7.1,5.754-12.852,12.852-12.852h841.592c7.097,0,12.852,5.752,12.852,12.852v302.3
					C1390.096,3196.401,1384.342,3202.153,1377.244,3202.153z M548.504,3176.449h815.889v-276.597H548.504V3176.449z"/>
			</g>
			<g>
				<path style="fill:#3B0372;" d="M956.448,2774.042c-32.241,0-58.472-26.23-58.472-58.472s26.23-58.472,58.472-58.472
					c32.241,0,58.472,26.23,58.472,58.472S988.69,2774.042,956.448,2774.042z M956.448,2682.802
					c-18.069,0-32.769,14.702-32.769,32.769s14.7,32.769,32.769,32.769c18.069,0,32.768-14.702,32.768-32.769
					S974.517,2682.802,956.448,2682.802z"/>
			</g>
			<g>
				<path style="fill:#3B0372;" d="M956.448,3100.024c-32.241,0-58.472-26.23-58.472-58.472s26.23-58.472,58.472-58.472
					c32.241,0,58.472,26.23,58.472,58.472S988.69,3100.024,956.448,3100.024z M956.448,3008.783
					c-18.069,0-32.769,14.702-32.769,32.769s14.7,32.769,32.769,32.769c18.069,0,32.768-14.702,32.768-32.769
					S974.517,3008.783,956.448,3008.783z"/>
			</g>
		</g>
		<g>
			<g>
				<path style="fill:#FBA229;" d="M1546.761,3004.897c-130.185,177.793-380.137,27.555-270.871-162.305
					c43.113-85.685-93.979-150.866-132.744-54.677c-143.333,304.83,240.065,535.49,415.627,304.83"/>
			</g>
			<g style="opacity:0.6;">
				<g>
					<path style="fill:#FFFFFF;" d="M1508.611,3045.408c-1.119,4.271-2.085,8.694-2.796,13.22
						c-134.18,132.858-350.272-10.881-247.311-189.805c37.778-75.098-62.895-134.485-114.401-83.183
						c40.066-92.843,174.551-28.016,131.79,56.947C1176.541,3015.156,1374.074,3155.031,1508.611,3045.408z"/>
				</g>
			</g>
			<g style="opacity:0.2;">
				<path style="fill:#3B0372;" d="M1558.795,3092.745c-175.568,230.684-558.991,0-415.659-304.816
					c6.254-15.457,14.999-26.694,25.118-34.422c-125.893,284.529,205.719,500.926,389.27,330.087L1558.795,3092.745z"/>
			</g>
			<g>
				<path style="fill:#FBA229;" d="M2236.357,2685.577c0,0,19.118-188.635,8.288-189.245c-10.83-0.661-623.005-4.119-629.31,26.846
					c-6.254,30.965-46.117,165.654-82.42,290.478c-36.303,124.774,25.728,212.787,25.728,212.787V3189.3h698.104
					c6.813-70.573,0-191.635,0-191.635c8.288-16.881,14.288-34.219,18.355-51.659
					C2305.455,2818.283,2236.357,2685.577,2236.357,2685.577z M1861.679,3178.216l15.355-85.471h59.794l7.881,89.945
					L1861.679,3178.216z"/>
			</g>
			<g style="opacity:0.2;">
				<path style="fill:#3B0372;" d="M2264.778,2946.406c8.602-14.001,14.541-28.996,17.158-45.035
					c-262.716,144.625-515.279,145.745-757.451,0c2.175,16.022,6.994,30.917,14.08,44.725c-0.809-0.03-1.593-0.06-2.453-0.09
					c4.068,17.44,10.067,34.778,18.355,51.659c0,0-6.813,121.062,0,191.635h205.516c-6.051-3.051-14.593-5.339-25.931-6.61
					c-165.52-18.557-151.553-157.921-148.094-180.928c142.907,112.714,491.137,102.268,634.354-7.666
					c4.509,27.546,19.831,170.322-143.151,188.594c-11.339,1.271-19.881,3.559-25.931,6.61h205.516
					c6.813-70.573,0-191.635,0-191.635c8.288-16.881,14.288-34.219,18.355-51.659
					C2271.052,2946.151,2267.594,2946.288,2264.778,2946.406z"/>
			</g>
			<g>
				<path style="fill:#3B0372;" d="M2256.898,3204.55h-698.125c-8.425,0-15.254-6.831-15.254-15.254v-158.335
					c-12.371-19.829-58.933-105.313-25.108-221.592c6.028-20.718,12.153-41.714,18.208-62.461
					c30.247-103.662,58.816-201.572,63.933-226.763c2.788-13.711,11.809-22.544,113.359-29.526
					c52.193-3.589,124.273-6.27,214.241-7.969c151.641-2.861,310.708-1.958,317.544-1.563c4.485,0.269,8.586,2.339,11.555,5.825
					c4.568,5.366,13.037,15.308-5.146,195.771c13.63,27.979,83.42,183.643,20.242,318.081c1.125,21.777,5.955,125.4-0.266,189.99
					C2271.329,3198.578,2264.757,3204.55,2256.898,3204.55z M1574.027,3174.042h668.801c4.678-69.668-1.086-174.38-1.15-175.503
					c-0.146-2.607,0.381-5.21,1.528-7.559c64.553-131.953-19.399-296.748-20.256-298.394c-1.367-2.637-1.941-5.625-1.641-8.579
					c7.007-68.96,12.605-145.986,11.509-172.734c-85.879-1.426-548.979,0.078-603.582,20.459
					c-7.61,32.754-34.726,125.679-63.332,223.721c-6.05,20.737-12.175,41.724-18.201,62.441
					c-33.672,115.742,22.983,198.95,23.56,199.775c1.785,2.559,2.764,5.635,2.764,8.755V3174.042z"/>
			</g>
			<g>
				<path style="fill:#FFFFFF;" d="M2256.898,2899.127c-237.142,59.641-463.199,67.37-673.189,0c0,0,36.608-97.927,37.93-202.567
					c0.102-5.898,0.051-11.796-0.101-17.745c-1.526-57.251-6.915-96.86-9.813-121.774c-2.695-23.389-3.203-33.863,3.763-33.863
					h32.388c129.146,0,596.921,0,596.921,0l-43.625,60.506c0,0-16.677,43.523-15.508,107.944
					C2186.732,2749.388,2202.189,2824.029,2256.898,2899.127z"/>
			</g>
			<g style="opacity:0.2;">
				<path style="fill:#3B0372;" d="M2201.172,2583.684c0,0-16.677,43.523-15.508,107.944c-2.746-3.864-5.034-8.135-6.661-12.813
					c-26.49-75.098-105.91-81.505-301.054-85.267c-195.194-3.813-178.212,145.57-179.992,149.739l-76.319-46.727
					c0.102-5.898,0.051-11.796-0.101-17.745c-1.526-57.251-6.915-96.86-9.813-121.774c10.169-10.423,22.118-21.762,36.151-33.863
					c129.146,0,596.921,0,596.921,0L2201.172,2583.684z"/>
			</g>
			<g>
				<path style="fill:#3B0372;" d="M1899.688,2962.28c-113.247,0.005-219.568-16.216-320.618-48.657
					c-3.967-1.274-7.241-4.116-9.06-7.866s-2.024-8.086-0.566-11.992c0.398-1.064,39.766-107.954,36.86-214.541
					c-1.362-50.02-5.745-86.875-8.645-111.265c-3.718-31.27-5.256-44.214,2.966-53.472c3.757-4.229,9.038-6.558,14.875-6.558
					h629.304c5.725,0,10.969,3.208,13.579,8.306c2.607,5.093,2.144,11.221-1.206,15.869l-42.334,58.73
					c-5.745,17.051-48.474,158.096,54.392,299.282c2.983,4.097,3.738,9.409,2.014,14.175c-1.726,4.771-5.706,8.364-10.623,9.604
					C2132.41,2946.147,2012.606,2962.28,1899.688,2962.28z M1603.26,2889.218c186.692,56.597,392.717,56.709,628.55,0.332
					c-102.092-156.963-47.339-304.858-44.866-311.313c0.471-1.23,1.099-2.393,1.87-3.462l26.194-36.338h-589.756
					c0.398,6.558,1.563,16.348,2.7,25.918c2.966,24.941,7.446,62.632,8.85,114.038
					C1639.239,2767.851,1614.439,2854.867,1603.26,2889.218z"/>
			</g>
			<g>
				<g>
					<path style="fill:#FBA229;" d="M2327.166,2407.556c-215.431,79.064-496.858,80.386-804.116,51.303
						c-473.419-154.112-272.123-478.961-272.123-478.961c8.593-61.777,39.252-182.687,40.015-185.788
						c0.051-0.051,0.051-0.051,0.051-0.051c-27.762-229.82-20.796-372.949,17.796-437.217l0.051-0.051
						c51.201-85.166,157.925-31.677,312.952,142.265c146.688-79.318,301.817-87.606,465.233-26.033
						c127.519-195.093,225.142-263.835,288.393-187.11c47.693,57.811,75.861,198.346,82.522,429.743
						c0,0,49.32,117.249,67.217,177.856C2525.157,1893.512,2772.468,2184.855,2327.166,2407.556z"/>
				</g>
				<g style="opacity:0.6;">
					<g>
						<path style="fill:#FFFFFF;" d="M2592.476,2107.316c-9.101-96.046-67.319-164.636-67.319-164.636
							c-17.897-60.607-67.217-177.856-67.217-177.856c-6.661-231.396-34.829-371.932-82.522-429.743
							c-63.251-76.725-160.874-7.983-288.393,187.11c-163.416-61.573-318.545-53.286-465.233,26.033
							c-155.027-173.941-261.751-227.43-312.952-142.265l-0.051,0.051c-20.898,34.778-32.49,92.742-34.371,175.111
							c-2.186-108.86,9.508-182.89,34.371-224.278l0.051-0.051c51.201-85.166,157.925-31.677,312.952,142.265
							c146.688-79.318,301.817-87.606,465.233-26.033c127.519-195.093,225.142-263.835,288.393-187.11
							c47.693,57.811,75.861,198.346,82.522,429.743c0,0,49.32,117.249,67.217,177.856
							C2525.157,1893.512,2603.967,1986.355,2592.476,2107.316z"/>
					</g>
				</g>
				<g style="opacity:0.2;">
					<path style="fill:#3B0372;" d="M2327.166,2407.556c-215.431,79.064-496.858,80.386-804.116,51.303
						c-278.326-90.606-323.426-240.193-313.307-348.137c28.067,85.979,108.961,177.145,301.867,239.938
						c307.257,29.083,588.685,27.761,804.115-51.303c192.805-96.453,255.802-205.719,265.157-298.664
						C2613.068,2105.74,2602.645,2269.817,2327.166,2407.556z"/>
				</g>
				<g>
					<path style="fill:#FD6883;" d="M2457.94,1715.656c-52.981-84.352-91.267-116.842-91.267-116.842
						c29.795-81.911,20.185-108.707-50.998-49.422c35.337-94.267,1.627-94.775-51.608-68.742
						c35.998-138.858,72.861-220.82,111.351-194.737C2423.111,1343.724,2451.279,1484.26,2457.94,1715.656z"/>
				</g>
				<g>
					<path style="fill:#FD6883;" d="M1406.971,1608.475c-79.166-48.049-84.708-20.084-43.066,56.489
						c0,0-33.049,37.829-72.912,129.096c-27.762-229.82-20.796-372.949,17.796-437.217l0.051-0.051
						c34.219-31.423,82.826,44.134,139.01,176.026C1391.311,1515.021,1358.058,1520.512,1406.971,1608.475z"/>
				</g>
				<g>
					<path style="fill:#3B0372;" d="M1465.599,2007.988c46.592-16.751,100.219-14.997,145.172,6.52
						c15.106,7.398,29.304,17.828,39.891,31.661c3.426,4.475,2.574,10.879-1.901,14.304c-3.981,3.056-9.469,2.687-13.054-0.522
						c-45.596-34.702-108.198-37.561-163.02-27.55C1457.298,2035.441,1451,2013.622,1465.599,2007.988L1465.599,2007.988z"/>
				</g>
				<g>
					<path style="fill:#3B0372;" d="M1695.67,1944.662c0,45.862-20.999,86.03-52.472,108.402
						c-29.999-32.541-91.419-47.642-149.535-38.286c-11.542-20.084-18.254-44.184-18.254-70.115
						c0-70.217,49.32-127.164,110.131-127.164C1646.35,1817.499,1695.67,1874.445,1695.67,1944.662z"/>
				</g>
				<g>
					<ellipse style="fill:#FFFFFF;" cx="1621.805" cy="1947.584" rx="38.323" ry="43.113"/>
				</g>
				<g>
					<path style="fill:#3B0372;" d="M2307.623,1944.731c-42.915-0.473-86.526,8.206-123.588,29.844
						c-12.131,7.307-23.338,15.877-32.328,26.477c-7.813,9.074-22.278-0.726-16.823-11.311
						c32.371-58.596,112.837-80.857,175.399-70.294C2325.696,1922.474,2323.264,1945.014,2307.623,1944.731L2307.623,1944.731z"/>
				</g>
				<g>
					<path style="fill:#3B0372;" d="M2072.642,1897.79c8.107,45.14,35.876,80.963,70.809,97.419
						c23.773-37.332,81.557-63.053,140.412-64.118c7.81-21.808,10.155-46.715,5.571-72.238
						c-12.413-69.111-71.023-116.442-130.876-105.692C2098.705,1763.91,2060.229,1828.679,2072.642,1897.79z"/>
				</g>
				<g>
					
						<ellipse transform="matrix(0.9843 -0.1768 0.1768 0.9843 -299.8925 409.0704)" style="fill:#FFFFFF;" cx="2145.86" cy="1887.608" rx="38.323" ry="43.113"/>
				</g>
				<g>
					<path style="fill:#3B0372;" d="M1925.643,2091.999c-16.761,6.109-35.239,6.124-52.173,0.515
						c-26.065-8.633-62.788-26.971-64.084-61.981c-2.017-54.459,175.731-46.139,179.008-11.094
						C1991.02,2047.517,1966.813,2076.993,1925.643,2091.999z"/>
				</g>
				<g>
					<path style="fill:#FFFFFF;" d="M1940.802,2017.184c0.464,8.865-20.289,12.423-46.049,13.771
						c-25.76,1.348-46.771-0.024-47.235-8.889c-0.464-8.865,20.042-17.144,45.802-18.492
						C1919.079,2002.226,1940.338,2008.319,1940.802,2017.184z"/>
				</g>
				<g>
					<path style="fill:#3B0372;" d="M1881.19,2197.068c37.71-43.099,109.436-56.171,157.427-23.106
						c5.526,3.66,2.112,12.522-4.388,11.656c-25.584-1.568-48.77-2.772-73.555,1.588c-24.166,3.691-47.803,11.839-70.811,20.691
						C1883.078,2211.202,1876.411,2202.888,1881.19,2197.068L1881.19,2197.068z"/>
				</g>
				<g>
					<path style="fill:#3B0372;" d="M1909.206,2076.545c0.085-0.496,0.096-1.011,0.034-1.509c0.476,1.117,1.464,3.56,1.923,4.729
						c11.61,29.826,28.517,56.717,49.991,80.498c8.018,8.351-1.86,21.646-12.079,16.363c-35.532-18.389-59.79-56.43-64.952-95.759
						C1879.949,2061.494,1907.682,2056.917,1909.206,2076.545L1909.206,2076.545z"/>
				</g>
				<g>
					<path style="fill:#FFFFFF;" d="M1748.603,1808.69c46.829-83.819-36.83-140.551-94.921-86.102
						c-4.608,4.319-4.388,11.745,0.686,15.506c26.678,19.775,52.683,43.652,77.89,72.397
						C1736.828,1815.702,1745.222,1814.742,1748.603,1808.69z"/>
				</g>
				<g>
					<path style="fill:#FFFFFF;" d="M2009.237,1713.726c15.213-16.803,43.075-42.784,78.469-54.607
						c9.992-3.338,13.023-16.303,5.192-23.35c-52.918-47.617-138.558-0.816-106.805,74.301
						C1990.033,1719.389,2002.447,1721.226,2009.237,1713.726z"/>
				</g>
				<g>
					<path style="fill:#3B0372;" d="M2239.718,2267.8c-37.818-71.164,16.994-152.23,97.601-140.588
						c3.941,0.524,4.347,6.267,0.535,7.333c-67.585,19.653-96.779,60.162-89.979,130.697
						C2248.423,2269.842,2241.876,2271.886,2239.718,2267.8L2239.718,2267.8z"/>
				</g>
				<g>
					<path style="fill:#3B0372;" d="M1851.7,2491.303c-99.233,0-208.784-5.791-330.1-17.275c-1.116-0.107-2.217-0.332-3.284-0.679
						c-166.111-54.072-269.953-135.122-308.645-240.898c-45.369-124.033,15.129-237.915,26.587-257.72
						c8.577-58.884,34.543-162.937,39.275-181.685c-34.897-290.906-14.426-449.248,62.571-484.014
						c63.379-28.616,157.339,27.31,287.104,170.974c143.201-73.909,296.396-82.458,455.708-25.444
						c106.943-161.206,191.543-230.427,258.438-211.545c81.304,22.949,125.054,176.499,133.728,469.363
						c7.461,17.837,48.586,116.885,65.813,173.838c14.268,17.886,91.001,121.526,64.551,250.916
						c-22.561,110.352-113.223,205.918-269.468,284.048c-0.508,0.254-1.03,0.479-1.565,0.679
						C2205.621,2468.393,2049.095,2491.303,1851.7,2491.303z M1526.16,2443.818c356.538,33.628,609.209,17.651,794.939-50.308
						c146.816-73.569,231.724-161.768,252.39-262.168c25.674-124.717-59.121-226.961-59.98-227.979
						c-1.362-1.616-2.388-3.511-2.986-5.537c-17.456-59.126-66.174-175.083-66.665-176.248c-0.73-1.738-1.133-3.596-1.187-5.479
						c-9.878-343.491-66.143-430.891-111.606-443.723c-36.436-10.298-106.172,17.617-231.292,209.019
						c-3.914,5.981-11.462,8.447-18.149,5.925c-158.745-59.836-311.013-51.37-452.566,25.151c-6.223,3.364-13.938,2.007-18.64-3.269
						c-152.144-170.705-225.225-187.952-259.761-172.366c-43.054,19.438-85.723,114.221-44.497,455.371
						c0.225,1.872,0.103,3.769-0.361,5.596c-0.313,1.223-31.282,123.147-39.763,184.194c-0.293,2.107-1.021,4.128-2.141,5.935
						c-0.688,1.118-69.365,114.819-25.461,234.341C1273.717,2318.329,1370.521,2392.861,1526.16,2443.818z M2327.156,2407.538h0.049
						H2327.156z"/>
				</g>
				<g>
					<path style="fill:#3B0372;" d="M1291.009,1809.296c-2.039,0-4.109-0.41-6.094-1.277c-7.722-3.369-11.247-12.361-7.878-20.08
						c30.276-69.365,56.78-108.652,68.701-124.604c-24.739-47.451-28.84-72.83-14.399-86.594c9.343-8.916,22.664-9.883,42.815-2.261
						c-8.62-24.185-8.035-40.972,1.348-52.476c10.354-12.7,27.373-14.358,45.991-11.44
						c-53.464-119.678-81.721-142.725-94.167-145.403c-1.982-0.422-4.417-0.593-8.186,2.879c-6.199,5.708-15.845,5.31-21.553-0.884
						c-5.708-6.196-5.313-15.845,0.884-21.553c10.276-9.468,22.466-13.027,35.271-10.266
						c23.865,5.134,59.995,31.543,128.132,191.526c2.334,5.478,1.265,11.814-2.734,16.226c-4.001,4.411-10.198,6.089-15.884,4.299
						c-37.195-11.724-44.058-6.162-44.116-6.099c-0.066,0.085-6.253,10.456,21.187,59.771c3.364,6.047,2.236,13.604-2.749,18.403
						c-4.983,4.797-12.573,5.644-18.494,2.053c-27.209-16.511-40.171-20.437-45.525-21.301c0.51,6.028,4.238,21.579,23.728,57.458
						c3.044,5.603,2.28,12.51-1.914,17.314c-0.295,0.342-32.214,37.724-70.376,125.154
						C1302.493,1805.876,1296.89,1809.296,1291.009,1809.296z"/>
				</g>
				<g>
					<path style="fill:#3B0372;" d="M1082.002,1985.042c72.611,0.007,143.957,13.104,212.557,36.132
						c22.881,7.479,45.069,16.971,67.043,26.912c6.396,2.893,9.235,10.425,6.342,16.821c-2.974,6.623-10.969,9.383-17.413,6.062
						c-62.517-30.514-130.068-50.674-199.012-60.141c-23.066-3.19-46.754-5.347-69.453-5.457
						C1068.872,2005.019,1068.646,1985.537,1082.002,1985.042L1082.002,1985.042z"/>
				</g>
				<g>
					<path style="fill:#3B0372;" d="M1131.063,2286.687c51.934-34.477,104.918-66.799,161.949-92.334
						c19.285-8.33,38.861-16.267,60.793-20.622c6.887-1.37,13.578,3.105,14.946,9.99c1.413,7.038-3.344,13.879-10.425,15.027
						c-58.006,12.468-112.271,44.016-163.938,73.026c-17.579,10.271-35.131,20.908-52.117,31.881
						C1131.025,2310.575,1120.198,2294.426,1131.063,2286.687L1131.063,2286.687z"/>
				</g>
				<g>
					<path style="fill:#3B0372;" d="M2457.933,1730.917c-5.076,0-10.037-2.532-12.935-7.146
						c-50.715-80.798-87.83-113.03-88.198-113.345c-4.824-4.133-6.609-10.847-4.438-16.816
						c13.948-38.374,15.325-54.307,14.937-60.344c-5.168,1.651-17.4,7.456-41.858,27.825c-5.313,4.426-12.942,4.729-18.594,0.715
						c-5.642-4.009-7.878-11.311-5.449-17.791c19.812-52.844,12.153-62.18,12.07-62.261c-0.061-0.042-7.678-4.526-42.715,12.585
						c-5.354,2.61-11.736,1.87-16.345-1.894c-4.612-3.767-6.609-9.873-5.115-15.64c43.63-168.325,75.442-199.805,98.279-208.425
						c12.253-4.626,24.836-2.92,36.406,4.914c6.975,4.724,8.799,14.209,4.075,21.184c-4.724,6.973-14.207,8.796-21.184,4.075
						c-4.241-2.871-6.626-2.351-8.523-1.631c-11.914,4.495-36.436,31.482-71.538,157.771c17.976-5.637,35.051-6.531,47.178,4.485
						c10.986,9.983,14.06,26.499,9.124,51.694c18.801-10.527,32.107-11.543,42.678-4.121c16.323,11.47,16.033,37.175-1.387,87.774
						c14.158,14.006,46.199,48.923,86.438,113.025c4.478,7.136,2.324,16.55-4.81,21.03
						C2463.509,1730.163,2460.704,1730.917,2457.933,1730.917z"/>
				</g>
				<g>
					<path style="fill:#3B0372;" d="M2695.482,1893.701c-90.951,15.618-179.158,52.519-255.308,104.655
						c-14.017,9.554-28.466-10.926-14.528-20.869c40.253-26.601,83.201-48.974,128.188-66.293
						c45.154-17.435,90.908-30.671,139.137-37.676c5.561-0.766,10.691,3.12,11.457,8.682
						C2705.221,1887.868,2701.134,1893.056,2695.482,1893.701L2695.482,1893.701z"/>
				</g>
				<g>
					<path style="fill:#3B0372;" d="M2680.558,2197.498c-36.932-16.552-74.995-31.814-113.32-44.915
						c-37.294-12.363-77.137-25.03-115.947-26.712c-16.678-0.78-16.228-25.388,0.601-25.419
						c63.96,5.084,122.191,29.806,180.7,53.309c19.054,8.07,37.838,16.374,56.641,25.341c5.069,2.419,7.219,8.489,4.8,13.557
						C2691.63,2197.706,2685.598,2199.849,2680.558,2197.498L2680.558,2197.498z"/>
				</g>
			</g>
			<g>
				<g>
					<path style="fill:#FBA229;" d="M2564.75,2387.181c53.637,168.103-54.459,340.728-328.266,298.371
						c-25.213-38.323-35.298-101.858-35.298-101.858c12.102-57.484,84.971-159.847,84.971-159.847
						c5.3-84.714,120.762-83.201,120.762-83.201s-71.351-23.448-100.345-77.15c-28.994-53.702,23.7-94.042,78.663-78.915
						C2440.201,2199.709,2537.017,2302.612,2564.75,2387.181z"/>
				</g>
				<g style="opacity:0.6;">
					<g>
						<path style="fill:#FFFFFF;" d="M2567.409,2539.754c6.356-38.541,2.949-80.081-10.22-121.316
							c-27.761-84.555-124.57-187.466-179.534-202.618c-32.744-9-64.675,1.678-79.013,23.135
							c-4.169-40.625,40.422-67.065,86.589-54.354c54.963,15.101,151.773,118.011,179.534,202.567
							C2581.595,2439.843,2582.51,2492.925,2567.409,2539.754z"/>
					</g>
				</g>
				<g style="opacity:0.2;">
					<path style="fill:#3B0372;" d="M2236.509,2685.577c-9.304-14.135-16.524-31.677-21.965-48.252
						c267.293,37.371,372.542-133.418,319.46-299.681c-3.966-12.101-9.355-24.558-15.813-37.066
						c20.44,28.27,37.321,58.421,46.574,86.589C2618.407,2555.261,2510.31,2727.931,2236.509,2685.577z"/>
				</g>
				<g style="opacity:0.2;">
					<path style="fill:#3B0372;" d="M2307.293,2375.079c0,128.633,89.6,133.499,179.803,85.822c0,0-13.11,66.822-70.595,79.428
						c-57.484,12.606-115.977-31.263-115.977-31.263l-14.366-85.218"/>
				</g>
				<g>
					<path style="fill:#3B0372;" d="M2316.097,2707.226c-26.028,0-53.391-2.183-81.943-6.602c-4.26-0.659-8.042-3.086-10.41-6.689
						c-26.714-40.601-37.188-105.122-37.622-107.847c-0.291-1.841-0.244-3.716,0.139-5.537
						c11.47-54.482,71.897-143.242,85.044-162.1c5.261-50.225,44.844-75.225,83.628-86.05c-22.1-13.672-46.785-33.892-61.78-61.66
						c-14.595-27.031-13.306-54.678,3.54-75.845c19.719-24.78,56.934-34.829,92.593-25.024
						c64.238,17.681,161.882,126.938,189.961,212.559c0.012,0.034,0.024,0.073,0.037,0.112
						c28.23,88.477,14.016,174.761-38.999,236.729C2490.863,2677.035,2412.852,2707.226,2316.097,2707.226z M2245.736,2671.503
						c120.627,17.188,216.819-8.311,271.367-72.065c45.981-53.745,58.059-129.395,33.137-207.559
						c-26.658-81.196-119.316-178.906-169.05-192.593c-23.674-6.519-48.599-0.508-60.627,14.609
						c-9.133,11.475-9.329,26.123-0.564,42.354c25.679,47.563,91.047,69.697,91.704,69.917c7.141,2.368,11.497,9.59,10.249,17.012
						c-1.248,7.417-7.788,12.759-15.232,12.725c-4.038-0.146-101.013-0.225-105.337,68.896c-0.178,2.842-1.147,5.576-2.798,7.891
						c-0.698,0.981-68.804,97.119-81.848,151.392C2218.836,2595.634,2227.84,2640.624,2245.736,2671.503z"/>
				</g>
				<g>
					<path style="fill:#3B0372;" d="M2301.402,2424.382c0.433,35.996,7.085,77.634,38.281,97.959
						c33.465,20.385,74.157,5.769,104.847-15.198c3.497-2.371,8.253-1.458,10.623,2.041c2.121,3.127,1.61,7.266-1.025,9.8
						c-15.836,15.256-35.083,28.127-57.646,34.773c-85.286,23.985-132.915-53.836-125.568-130.445
						C2272.696,2403.887,2301.025,2404.931,2301.402,2424.382L2301.402,2424.382z"/>
				</g>
			</g>
			<g>
				<g>
					<path style="fill:#FBA229;" d="M1561.799,2551.927c0,0,132.618-34.289,159.343,44.374
						c26.725,78.663-7.059,157.326-89.756,197.666c-178,172.958-387.045,30.175-202.708-197.666c0,0,69.951-76.032,114.895-103.868
						C1588.517,2464.596,1561.799,2551.927,1561.799,2551.927z"/>
				</g>
				<g style="opacity:0.2;">
					<path style="fill:#3B0372;" d="M1631.402,2793.979c-117.758,114.401-249.141,90.606-271.157-4.576
						c50.387,29.592,132.299,24.863,217.109-35.795c87.809-27.507,133.011-100.216,118.316-182.025
						c-0.712-3.915-1.678-7.627-2.898-11.084c12.61,7.881,22.779,19.372,28.372,35.795
						C1747.888,2674.951,1714.076,2753.608,1631.402,2793.979z"/>
				</g>
				<g>
					<path style="fill:#3B0372;" d="M1470.509,2885.883c-36.34,0-67.859-11.88-90.295-32.363
						c-47.561-43.428-66.511-139.36,36.606-266.816c0.203-0.249,0.415-0.493,0.632-0.732c2.915-3.169,71.899-77.9,118.088-106.509
						c18.989-11.758,31.087-7.983,37.888-2.739c13.626,10.498,13.025,34.346,8.972,55.679
						c43.071-6.436,129.722-10.063,153.184,58.994c29.163,85.84-9.126,172.021-95.31,215.19
						C1582.047,2862.465,1521.527,2885.883,1470.509,2885.883z M1440.223,2606.279c-89.436,110.767-77.166,190.264-39.441,224.712
						c43.713,39.902,133.306,36.245,219.973-47.964c1.16-1.128,2.49-2.065,3.943-2.773c74.431-36.304,106.619-106.582,82-179.043
						c-21.848-64.312-139.9-34.819-141.091-34.512c-5.337,1.382-11.011-0.249-14.822-4.233s-5.181-9.717-3.572-14.99
						c4.949-16.24,7.859-34.683,7.205-43.687c-0.806,0.42-1.741,0.947-2.813,1.611
						C1510.467,2530.878,1445.365,2600.732,1440.223,2606.279z"/>
				</g>
				<g>
					<path style="fill:#3B0372;" d="M1604.07,2760.901c-23.174,5.478-47.867-8.083-61.608-26.512
						c-27.921-36.855-34.629-86.261-24.764-130.893c5.405-22.408,15.887-44.536,32.641-61.638c0,0,19.47,23.052,19.47,23.052
						c-62.395,47.688-110.583,111.486-147.734,180.218c-3.176,6.188-12.798,2.631-10.998-4.18
						c5.133-20.118,11.693-40.039,20.644-58.852c8.456-19.165,19.359-37.178,31.143-54.6c24.504-34.711,54.201-66.421,90.924-88.55
						c15.072-9.348,31.178,9.958,19.459,23.065c-22.355,29.798-31.267,68.663-28.749,106.008
						c2.765,35.206,17.393,81.994,58.736,84.388C1608.183,2752.415,1608.948,2759.922,1604.07,2760.901L1604.07,2760.901z"/>
				</g>
			</g>
			<g>
				<g>
					<path style="fill:#FFFFFF;" d="M2263.203,2563.549c-226.82-40.727-457.708-41.134-692.307-5.084
						c-47.439-29.744-51.964-74.59-51.964-74.59c9.223-58.597,18.782-102.94,66.604-129.454
						c212.677-54.514,432.159-49.639,639.736-7.732c53.165,12.378,69.431,53.242,87.86,104.898
						C2339.369,2528.72,2263.203,2563.549,2263.203,2563.549z"/>
				</g>
				<g style="opacity:0.2;">
					<path style="fill:#3B0372;" d="M2263.203,2555.687c-226.82-40.727-457.708-41.134-692.307-5.084
						c-47.439-29.744-51.964-74.59-51.964-74.59c9.321-58.605,18.712-102.935,66.607-129.452c0,0-46.879,103.876,36.253,145.671
						c77.742,38.998,726.475,73.725,663.173-111.961C2338.486,2463.554,2320.478,2530.082,2263.203,2555.687z"/>
				</g>
				<g>
					<path style="fill:#3B0372;" d="M2263.209,2578.779c-0.898,0-1.802-0.078-2.695-0.239
						c-220.298-39.536-451.55-41.216-687.322-4.98c-3.633,0.552-7.324-0.21-10.427-2.158c-52.7-33.081-58.76-83.755-58.992-85.898
						c-0.137-1.265-0.117-2.549,0.063-3.813c9.08-63.447,25.227-132.627,102.366-150.347
						c214.583-42.153,423.782-41.973,622.263,0.444c63.53,14.639,81.582,65.503,99.041,114.692
						c24.316,71.543-27.285,116.904-57.957,130.918C2267.55,2578.31,2265.386,2578.779,2263.209,2578.779z M1907.513,2517.074
						c120.071,0,238.115,10.176,353.271,30.527c13.621-7.69,56.362-36.802,37.903-91.113
						c-18.545-52.251-33.008-84.819-76.836-94.922c-194.182-41.499-399.258-41.646-609.295-0.391
						c-51.836,11.914-68.176,54.019-78.208,122.671c1.27,7.251,8.208,36.494,40.032,58.672
						C1686.646,2525.551,1797.926,2517.074,1907.513,2517.074z"/>
				</g>
				<g>
					<g>
						<path style="fill:#3B0372;" d="M1998.479,2496.267c-5.075-2.402-5.619-3.952-3.487-8.324
							c13.096-27.722,28.06-71.007,37.873-12.284c26.55-63.061,30.238,6.582,34.137,23.837
							c-15.646,15.528-15.411-16.109-18.453-25.98c-15.129,34.972-24.191,34.324-30.395-3.527
							C2011.767,2477.407,2011.018,2500.3,1998.479,2496.267z"/>
					</g>
					<g>
						<path style="fill:#3B0372;" d="M1993.167,2475.187c1.702,7.508-13.57,7.908-13.56,1.055c3.169-9.578-5.044-32.49,9.058-32.656
							C2002.352,2445.316,1991.289,2465.722,1993.167,2475.187z M1979.613,2487.534c6.785-5.057,16.102,1.072,11.079,9.369
							C1984.184,2501.907,1974.557,2495.803,1979.613,2487.534z"/>
					</g>
					<g>
						<path style="fill:#3B0372;" d="M1974.729,2446.136c3.469,2.128-0.586,9.038-4.834,9.311
							c-3.58-0.558-13.624-7.178-15.998-2.392c1.878,2.76,11.427,2.527,14.911,5.9c10.026,8.733,3.964,23.375-12.6,21.281
							c-7.977,0.523-20.97-6.269-8.419-12.198c2.588,0.779,12.041,4.571,13.506,0.996
							C1922.58,2458.571,1945.316,2430.153,1974.729,2446.136z"/>
					</g>
					<g>
						<path style="fill:#3B0372;" d="M1913.147,2478.887c-18.318,0.512-20.952-21.42-18.153-35.139
							c1.511-2.825,13.187-3.153,13.016,1.639c-0.862,10.457,1.159,31.779,14.103,16.098c1.46-7.033-4.776-20.636,7.013-19.967
							c14.2-0.725,3.699,40.384,6.152,51.29c-0.569,2.904-2.322,3.644-6.567,3.675c-11.594,0.11-4.868-14.804-6.581-21.983
							C1919.561,2477.393,1916.578,2478.851,1913.147,2478.887z"/>
					</g>
					<g>
						<path style="fill:#3B0372;" d="M1889.561,2490.947c0.318,4.394-0.798,6.348-6.377,6.508
							c-13.789-1.277-5.185-28.407-8.677-38.898c0.309-7.352-8.939-0.291-8.228-9.255c-0.34-7.942,2.839-6.396,11.146-6.477
							C1896.788,2446.003,1885.692,2476.591,1889.561,2490.947z"/>
					</g>
					<g>
						<path style="fill:#3B0372;" d="M1863.603,2474.535c2.774,7.253-12.332,9.577-13.277,2.823
							c1.568-9.367-9.449-32.401,4.208-33.529C1868.33,2443.739,1860.364,2465.381,1863.603,2474.535z M1851.98,2488.541
							c6.017-5.909,16.093-1.034,12.341,7.827C1858.571,2502.188,1848.187,2497.375,1851.98,2488.541z"/>
					</g>
					<g>
						<path style="fill:#3B0372;" d="M1841.098,2448.181c3.735,1.622,0.757,9.024-3.432,9.855
							c-3.614-0.068-14.515-5.336-16.209-0.271c2.269,2.488,11.701,1.002,15.644,3.887c11.133,7.225,7.443,22.628-9.385,22.729
							c-7.734,1.55-21.76-3.394-10.13-10.976c2.661,0.419,12.58,2.961,13.538-0.786
							C1791.35,2467.413,1809.435,2436.207,1841.098,2448.181z"/>
					</g>
					<g>
						<path style="fill:#3B0372;" d="M1782.981,2476.379c1.689-0.147,3.378-0.289,5.067-0.427
							c-1.631-8.488,0.608-14.149-10.242-12.924c-13.086-16.511,26.97-19.781,23.697,11.164c9.21-4.7,11.76,14.045,1.624,11.778
							c0.231,5.754,4.562,13.453-4.807,13.954c-8.863,1.717-7.099-6.597-8.468-12.218c-4.181,0.724-6.211,1.8-9.759,0.888
							C1775.529,2486.122,1775.747,2475.322,1782.981,2476.379z"/>
					</g>
				</g>
				<g>
					<path style="fill:#3B0372;" d="M1638.384,2403.452c116.445-19.505,234.854-26.677,352.719-19.59
						c39.298,2.542,78.429,7.662,117.167,14.795c2.76,0.51,4.586,3.159,4.078,5.92c-0.501,2.739-3.117,4.537-5.826,4.099
						c-115.722-16.66-233.483-15.048-349.824-5.583c-38.759,3.327-77.737,7.285-116.176,12.891
						C1632.503,2417.253,1630.048,2405.051,1638.384,2403.452L1638.384,2403.452z"/>
				</g>
				<g>
					<path style="fill:#3B0372;" d="M1648.729,2371.658c93.474-12.472,187.571-19.627,281.871-19.883
						c56.015-0.209,114.25,2.732,169.514,12.086c6.331,1.024,5.326,10.679-1.292,10.078c0,0-0.279-0.029-0.279-0.029l-27.807-3.027
						c-102.58-8.747-205.835-3.808-308.411,3.439c-37.332,2.768-74.789,5.961-111.978,9.944
						C1642.346,2385.108,1640.323,2373.049,1648.729,2371.658L1648.729,2371.658z"/>
				</g>
				<g>
					<path style="fill:#3B0372;" d="M2146.698,2405.566c17.333,1.988,34.133,6.217,50.128,13.337
						c5.066,2.288,3.107,10.168-2.373,9.888c-17.484-0.916-34.374-4.773-50.721-10.866c-3.295-1.314-4.9-5.049-3.586-8.345
						C2141.225,2406.877,2143.941,2405.315,2146.698,2405.566L2146.698,2405.566z"/>
				</g>
				<g>
					<path style="fill:#3B0372;" d="M2146.698,2368.899c17.333,1.989,34.133,6.221,50.128,13.337
						c5.065,2.291,3.108,10.17-2.373,9.891c-17.485-0.916-34.373-4.776-50.721-10.866c-3.295-1.314-4.9-5.052-3.586-8.345
						C2141.225,2370.212,2143.941,2368.647,2146.698,2368.899L2146.698,2368.899z"/>
				</g>
			</g>
			<g>
				<path style="fill:#3B0372;" d="M1713.474,3032.4c60.657,25.086,124.975,40.871,190.551,40.2
					c65.648-0.078,129.916-16.232,191.07-40.288c11.778-4.448,19.674,12.263,8.533,18.457
					c-123.525,68.127-275.992,70.527-399.021-0.068C1693.665,3044.45,1701.691,3027.631,1713.474,3032.4L1713.474,3032.4z"/>
			</g>
			<g>
				<path style="fill:#3B0372;" d="M1861.846,3204.55c-0.676,0-1.36-0.044-2.051-0.137c-8.35-1.123-14.209-8.799-13.086-17.148
					l13.616-101.348c1.121-8.35,8.769-14.204,17.148-13.086c8.35,1.123,14.209,8.799,13.086,17.148l-13.616,101.348
					C1875.916,3198.989,1869.368,3204.55,1861.846,3204.55z"/>
			</g>
			<g>
				<path style="fill:#3B0372;" d="M1945.513,3204.55c-7.712,0-14.333-5.83-15.151-13.667l-10.589-101.348
					c-0.876-8.379,5.208-15.884,13.587-16.758c8.345-0.913,15.881,5.205,16.755,13.584l10.589,101.348
					c0.876,8.379-5.208,15.884-13.586,16.758C1946.58,3204.526,1946.043,3204.55,1945.513,3204.55z"/>
			</g>
			<g>
				<path style="fill:#3B0372;" d="M1375.953,3201.752c-48.403,0.005-97.764-14.058-141.843-40.781
					c-58.672-35.576-102.576-89.985-123.625-153.208c-23.708-71.216-17.249-149.341,18.679-225.957
					c13.154-32.285,38.528-52.808,69.673-56.338c32.676-3.672,67.319,12.007,86.196,39.097c17.42,24.99,19.053,55.928,4.483,84.883
					c-0.127,0.254-0.264,0.508-0.405,0.752c-49.807,86.548-17.881,160.586,35.854,195.571
					c56.409,36.743,146.03,36.782,209.49-49.888c4.98-6.792,14.521-8.271,21.318-3.291c6.797,4.976,8.271,14.521,3.296,21.318
					c-71.841,98.105-180.525,103.145-250.75,57.427c-63.569-41.387-104.978-132.847-45.876-235.962
					c11.948-24.058,5.286-42.29-2.437-53.369c-12.461-17.881-36.206-28.687-57.737-26.226c-14.212,1.611-33.547,9.482-44.976,37.837
					c-0.107,0.264-0.222,0.527-0.344,0.786c-71.809,152.72-5.044,281.045,92.979,340.479
					c87.729,53.193,213.503,57.939,296.707-51.377c5.102-6.704,14.668-8.003,21.377-2.9c6.704,5.103,8,14.673,2.9,21.377
					c-42.202,55.444-98.628,89.233-163.181,97.71C1397.23,3201.073,1386.612,3201.752,1375.953,3201.752z"/>
			</g>
		</g>
		<g>
			<g>
				<polygon style="fill:#FFFFFF;" points="1246.402,2555.668 695.75,2555.668 648.209,2186.227 635.498,2087.537 
					1186.151,2087.537 1198.862,2186.227 				"/>
			</g>
			<g>
				<polygon style="fill:#FBA229;" points="1198.862,2186.227 648.209,2186.227 635.498,2087.537 1186.151,2087.537 				"/>
			</g>
			<g>
				<path style="fill:#3B0372;" d="M1246.392,2568.539H695.75c-6.465,0-11.921-4.8-12.747-11.211l-60.242-468.174
					c-0.471-3.667,0.657-7.354,3.096-10.127c2.441-2.778,5.957-4.365,9.651-4.365h550.64c6.465,0,11.921,4.8,12.746,11.211
					l60.244,468.174c0.471,3.667-0.657,7.354-3.096,10.127C1253.602,2566.952,1250.086,2568.539,1246.392,2568.539z
					 M707.054,2542.836h524.727l-56.936-442.471H650.12L707.054,2542.836z"/>
			</g>
			<g>
				<polygon style="fill:#FFFFFF;" points="635.509,2087.513 545.989,2555.687 695.751,2555.687 				"/>
			</g>
			<g style="opacity:0.2;">
				<polygon style="fill:#3B0372;" points="635.509,2087.513 545.989,2555.687 695.751,2555.687 				"/>
			</g>
			<g>
				<path style="fill:#3B0372;" d="M695.75,2568.539H545.99c-3.831,0-7.463-1.709-9.905-4.663c-2.441-2.949-3.438-6.841-2.72-10.601
					l89.519-468.174c1.187-6.206,6.78-10.659,13.015-10.435c6.313,0.19,11.55,4.941,12.356,11.206l60.242,468.174
					c0.471,3.667-0.657,7.354-3.096,10.127C702.96,2566.952,699.444,2568.539,695.75,2568.539z M561.531,2542.836h119.607
					l-48.113-373.906L561.531,2542.836z"/>
			</g>
			<g>
				<path style="fill:#3B0372;" d="M1198.853,2199.091H648.211c-7.097,0-12.852-5.752-12.852-12.852s5.754-12.852,12.852-12.852
					h550.642c7.097,0,12.852,5.752,12.852,12.852S1205.95,2199.091,1198.853,2199.091z"/>
			</g>
			<g>
				<g>
					<path style="fill:#3B0372;" d="M744.183,2126.083c-7.097,0-12.852-5.752-12.852-12.852c0-42.192-13.728-61.704-23.474-62.08
						c-7.175-0.483-18.142,11.133-20.178,37.358c-0.552,7.075-6.714,12.441-13.811,11.816c-7.075-0.547-12.368-6.729-11.819-13.809
						c3.347-43.066,26.575-61.89,46.804-61.055c22.227,0.864,48.181,24.365,48.181,87.769
						C757.034,2120.331,751.28,2126.083,744.183,2126.083z"/>
				</g>
				<g>
					
						<ellipse transform="matrix(0.9644 -0.2644 0.2644 0.9644 -534.8389 272.51)" style="fill:#3B0372;" cx="744.938" cy="2123.147" rx="16.786" ry="19.729"/>
				</g>
			</g>
			<g>
				<g>
					<path style="fill:#3B0372;" d="M840.965,2126.083c-7.097,0-12.852-5.752-12.852-12.852c0-42.192-13.728-61.704-23.474-62.08
						c-7.131-0.483-18.142,11.133-20.178,37.358c-0.549,7.075-6.743,12.441-13.811,11.816c-7.075-0.547-12.368-6.729-11.819-13.809
						c3.345-43.066,26.599-61.89,46.804-61.055c22.227,0.864,48.181,24.365,48.181,87.769
						C853.817,2120.331,848.062,2126.083,840.965,2126.083z"/>
				</g>
				<g>
					
						<ellipse transform="matrix(0.9644 -0.2644 0.2644 0.9644 -531.3792 298.0869)" style="fill:#3B0372;" cx="841.72" cy="2123.147" rx="16.786" ry="19.729"/>
				</g>
			</g>
			<g>
				<g>
					<path style="fill:#3B0372;" d="M933.118,2126.083c-7.097,0-12.852-5.752-12.852-12.852c0-42.192-13.728-61.704-23.474-62.08
						c-7.219-0.483-18.142,11.133-20.178,37.358c-0.552,7.075-6.731,12.441-13.811,11.816c-7.075-0.547-12.368-6.729-11.819-13.809
						c3.345-43.066,26.633-61.89,46.804-61.055c22.227,0.864,48.181,24.365,48.181,87.769
						C945.97,2120.331,940.215,2126.083,933.118,2126.083z"/>
				</g>
				<g>
					
						<ellipse transform="matrix(0.9644 -0.2644 0.2644 0.9644 -528.0812 322.4355)" style="fill:#3B0372;" cx="933.873" cy="2123.147" rx="16.786" ry="19.729"/>
				</g>
			</g>
			<g>
				<g>
					<path style="fill:#3B0372;" d="M1026.387,2126.083c-7.097,0-12.852-5.752-12.852-12.852c0-42.192-13.728-61.704-23.474-62.08
						c-7.18-0.483-18.142,11.133-20.181,37.358c-0.552,7.075-6.709,12.441-13.811,11.816c-7.078-0.547-12.368-6.733-11.819-13.809
						c3.347-43.066,26.526-61.89,46.807-61.055c22.227,0.864,48.181,24.365,48.181,87.769
						C1039.239,2120.331,1033.485,2126.083,1026.387,2126.083z"/>
				</g>
				<g>
					
						<ellipse transform="matrix(0.9644 -0.2644 0.2644 0.9644 -524.7913 347.1181)" style="fill:#3B0372;" cx="1027.141" cy="2123.147" rx="16.786" ry="19.729"/>
				</g>
			</g>
			<g>
				<g>
					<path style="fill:#3B0372;" d="M1118.951,2126.083c-7.097,0-12.852-5.752-12.852-12.852c0-42.192-13.728-61.704-23.474-62.08
						c-7.261-0.483-18.145,11.133-20.181,37.358c-0.552,7.075-6.75,12.441-13.811,11.816c-7.078-0.547-12.368-6.733-11.819-13.809
						c3.347-43.066,26.633-61.89,46.807-61.055c22.227,0.864,48.181,24.365,48.181,87.769
						C1131.802,2120.331,1126.048,2126.083,1118.951,2126.083z"/>
				</g>
				<g>
					
						<ellipse transform="matrix(0.9644 -0.2644 0.2644 0.9644 -521.4974 371.5911)" style="fill:#3B0372;" cx="1119.705" cy="2123.147" rx="16.786" ry="19.729"/>
				</g>
			</g>
			<g>
				<path style="fill:#3B0372;" d="M1178.604,2386.01h-54.458c-3.894,0-7.166-2.935-7.583-6.807l-6.336-58.662
					c-0.232-2.153,0.462-4.307,1.907-5.913c1.448-1.611,3.511-2.534,5.676-2.534h54.456c3.894,0,7.163,2.935,7.583,6.807
					l6.338,58.662c0.232,2.153-0.461,4.302-1.907,5.913C1182.833,2385.087,1180.77,2386.01,1178.604,2386.01z M1130.994,2370.756
					h39.114l-4.69-43.408h-39.114L1130.994,2370.756z"/>
			</g>
			<g>
				<path style="fill:#3B0372;" d="M1080.028,2386.01h-54.458c-3.894,0-7.165-2.935-7.583-6.807l-6.335-58.662
					c-0.232-2.153,0.461-4.307,1.907-5.913c1.448-1.611,3.511-2.534,5.676-2.534h54.458c3.894,0,7.165,2.935,7.583,6.807
					l6.335,58.662c0.232,2.153-0.462,4.307-1.907,5.913C1084.256,2385.087,1082.193,2386.01,1080.028,2386.01z M1032.418,2370.756
					h39.116l-4.69-43.408h-39.116L1032.418,2370.756z"/>
			</g>
			<g>
				<path style="fill:#3B0372;" d="M984.324,2386.01h-54.456c-3.894,0-7.163-2.935-7.583-6.807l-6.338-58.662
					c-0.232-2.153,0.461-4.302,1.907-5.913c1.448-1.611,3.511-2.534,5.676-2.534h54.458c3.894,0,7.165,2.935,7.583,6.807
					l6.335,58.662c0.232,2.153-0.461,4.307-1.907,5.913C988.553,2385.087,986.49,2386.01,984.324,2386.01z M936.717,2370.756h39.114
					l-4.69-43.408h-39.114L936.717,2370.756z"/>
			</g>
			<g>
				<path style="fill:#3B0372;" d="M1161.114,2289.936h-54.456c-3.894,0-7.166-2.935-7.583-6.807l-6.335-58.662
					c-0.232-2.153,0.461-4.307,1.907-5.913c1.448-1.611,3.511-2.534,5.676-2.534h54.455c3.894,0,7.166,2.935,7.583,6.807
					l6.336,58.662c0.232,2.153-0.461,4.307-1.907,5.913C1165.343,2289.013,1163.28,2289.936,1161.114,2289.936z M1113.507,2274.682
					h39.114l-4.69-43.408h-39.114L1113.507,2274.682z"/>
			</g>
			<g>
				<path style="fill:#3B0372;" d="M1062.54,2289.936h-54.458c-3.894,0-7.166-2.935-7.583-6.807l-6.335-58.662
					c-0.232-2.153,0.461-4.307,1.907-5.913c1.448-1.611,3.511-2.534,5.676-2.534h54.456c3.894,0,7.163,2.935,7.583,6.807
					l6.338,58.662c0.232,2.153-0.462,4.302-1.907,5.913C1066.768,2289.013,1064.705,2289.936,1062.54,2289.936z M1014.93,2274.682
					h39.114l-4.69-43.408h-39.114L1014.93,2274.682z"/>
			</g>
			<g>
				<path style="fill:#3B0372;" d="M966.837,2289.936h-54.455c-3.894,0-7.163-2.935-7.583-6.807l-6.338-58.662
					c-0.232-2.153,0.461-4.302,1.907-5.913c1.448-1.611,3.511-2.534,5.676-2.534h54.458c3.894,0,7.166,2.935,7.583,6.807
					l6.335,58.662c0.232,2.153-0.461,4.307-1.907,5.913C971.065,2289.013,969.002,2289.936,966.837,2289.936z M919.229,2274.682
					h39.114l-4.69-43.408h-39.114L919.229,2274.682z"/>
			</g>
			<g>
				<path style="fill:#3B0372;" d="M890.237,2386.01h-54.456c-3.894,0-7.163-2.935-7.583-6.807l-6.338-58.662
					c-0.232-2.153,0.461-4.302,1.907-5.913c1.448-1.611,3.511-2.534,5.676-2.534h54.458c3.894,0,7.165,2.935,7.583,6.807
					l6.335,58.662c0.232,2.153-0.461,4.307-1.907,5.913C894.466,2385.087,892.403,2386.01,890.237,2386.01z M842.63,2370.756h39.114
					l-4.69-43.408H837.94L842.63,2370.756z"/>
			</g>
			<g>
				<path style="fill:#3B0372;" d="M794.534,2386.01h-54.456c-3.894,0-7.166-2.935-7.583-6.807l-6.335-58.662
					c-0.232-2.153,0.461-4.307,1.907-5.913c1.448-1.611,3.511-2.534,5.676-2.534h54.455c3.894,0,7.166,2.935,7.583,6.807
					l6.336,58.662c0.232,2.153-0.461,4.307-1.907,5.913C798.763,2385.087,796.7,2386.01,794.534,2386.01z M746.927,2370.756h39.114
					l-4.69-43.408h-39.114L746.927,2370.756z"/>
			</g>
			<g>
				<path style="fill:#3B0372;" d="M1198.853,2483.881h-54.458c-3.894,0-7.165-2.935-7.583-6.807l-6.335-58.662
					c-0.232-2.153,0.461-4.307,1.907-5.913c1.448-1.611,3.511-2.534,5.676-2.534h54.455c3.894,0,7.163,2.935,7.583,6.807
					l6.338,58.662c0.232,2.153-0.461,4.302-1.907,5.913C1203.082,2482.958,1201.019,2483.881,1198.853,2483.881z M1151.243,2468.627
					h39.114l-4.69-43.408h-39.114L1151.243,2468.627z"/>
			</g>
			<g>
				<path style="fill:#3B0372;" d="M1100.277,2483.881h-54.458c-3.894,0-7.166-2.935-7.583-6.807l-6.335-58.662
					c-0.232-2.153,0.461-4.307,1.907-5.913c1.448-1.611,3.511-2.534,5.676-2.534h54.458c3.894,0,7.166,2.935,7.583,6.807
					l6.336,58.662c0.232,2.153-0.461,4.307-1.907,5.913C1104.505,2482.958,1102.442,2483.881,1100.277,2483.881z M1052.667,2468.627
					h39.116l-4.69-43.408h-39.116L1052.667,2468.627z"/>
			</g>
			<g>
				<path style="fill:#3B0372;" d="M1004.573,2483.881h-54.456c-3.894,0-7.165-2.935-7.583-6.807l-6.335-58.662
					c-0.232-2.153,0.461-4.307,1.907-5.913c1.448-1.611,3.511-2.534,5.676-2.534h54.456c3.894,0,7.166,2.935,7.583,6.807
					l6.336,58.662c0.232,2.153-0.461,4.307-1.907,5.913C1008.802,2482.958,1006.739,2483.881,1004.573,2483.881z M956.966,2468.627
					h39.114l-4.69-43.408h-39.114L956.966,2468.627z"/>
			</g>
			<g>
				<path style="fill:#3B0372;" d="M910.486,2483.881h-54.455c-3.894,0-7.163-2.935-7.583-6.807l-6.338-58.662
					c-0.232-2.153,0.461-4.302,1.907-5.913c1.448-1.611,3.511-2.534,5.676-2.534h54.458c3.894,0,7.166,2.935,7.583,6.807
					l6.335,58.662c0.232,2.153-0.461,4.307-1.907,5.913C914.715,2482.958,912.652,2483.881,910.486,2483.881z M862.879,2468.627
					h39.114l-4.69-43.408h-39.114L862.879,2468.627z"/>
			</g>
			<g>
				<path style="fill:#3B0372;" d="M814.783,2483.881h-54.456c-3.894,0-7.165-2.935-7.583-6.807l-6.335-58.662
					c-0.232-2.153,0.461-4.307,1.907-5.913c1.448-1.611,3.511-2.534,5.676-2.534h54.456c3.894,0,7.165,2.935,7.583,6.807
					l6.335,58.662c0.232,2.153-0.461,4.307-1.907,5.913C819.012,2482.958,816.949,2483.881,814.783,2483.881z M767.176,2468.627
					h39.114l-4.69-43.408h-39.114L767.176,2468.627z"/>
			</g>
			<g>
				<path style="fill:#E1293A;" d="M1069.881,2500.937c-1.274,0-2.551-0.317-3.706-0.962
					c-35.715-19.858-50.029-50.293-48.215-70.166c0.906-9.907,5.798-17.065,13.428-19.634c6.523-2.207,16.975-1.704,31.152,11.416
					c16.646-15.674,28.454-16.533,35.662-14.219c8.196,2.646,13.679,10.4,15.044,21.279c2.681,21.353-9.958,52.637-39.299,71.113
					C1072.706,2500.546,1071.295,2500.937,1069.881,2500.937z M1037.518,2424.448c-0.5,0-0.92,0.068-1.257,0.181
					c-1.909,0.645-2.859,3.813-3.11,6.567c-1.101,12.065,7.842,35.635,36.443,53.12c21.045-15.117,30.437-38.491,28.518-53.765
					c-0.588-4.688-2.307-7.925-4.597-8.662c-3.799-1.25-12.754,2.148-25.391,15.728c-1.45,1.558-3.469,2.544-5.613,2.432
					c-2.129-0.01-4.158-0.908-5.596-2.476C1047.393,2427.177,1040.75,2424.448,1037.518,2424.448z"/>
			</g>
			<g>
				<path style="fill:#E1293A;" d="M859.276,2399.448c-10.601,0-22.969-2.07-37.095-6.23c-3.503-1.03-5.784-4.399-5.44-8.037
					l9.834-103.594c0.295-3.115,2.468-5.737,5.479-6.606c3.008-0.864,6.245,0.195,8.157,2.676
					c41.863,54.341,60.396,88.062,61.162,89.468c1.069,1.958,1.228,4.292,0.43,6.377
					C895.194,2390.781,880.941,2399.448,859.276,2399.448z M832.53,2380.258c39.268,10.181,49.939-1.592,53.65-8.994
					c-4.885-8.408-19.81-33.101-46.272-68.726L832.53,2380.258z"/>
			</g>
			<g>
				<path style="fill:#E1293A;" d="M834.154,2289.926c-2.036,0-4.043-0.815-5.515-2.363c-6.775-7.139-15.881-4.849-16.267-4.736
					c-4.067,1.064-8.227-1.313-9.338-5.342c-1.111-4.028,1.186-8.188,5.203-9.341c0.508-0.146,8.857-2.456,18.335,0.591
					c0.791-4.834,2.586-9.976,6.311-14.043c3.362-3.672,9.6-7.861,20.327-6.855c4.194,0.386,7.283,4.097,6.897,8.291
					c-0.386,4.194-4.111,7.324-8.293,6.895c-5.415-0.449-7.104,1.348-7.664,1.948c-3.347,3.638-3.113,12.349-2.473,15.996
					c0.581,3.315-1.074,6.626-4.08,8.14C836.502,2289.657,835.323,2289.926,834.154,2289.926z"/>
			</g>
		</g>
	</g>
</g>
</svg>
