<?xml version="1.0" encoding="UTF-8"?>
<svg xmlns="http://www.w3.org/2000/svg" xmlns:xlink="http://www.w3.org/1999/xlink" version="1.1" x="0px" y="0px" viewBox="0 0 500 500" style="background: transparent;" xml:space="preserve">
<g id="BACKGROUND">
	
</g>
<g id="OBJECTS">
	<ellipse style="fill:#E6B7BC;" cx="239.567" cy="404.522" rx="154.497" ry="30.512"/>
	<g>
		<path style="fill:#DB903F;" d="M121.61,373.29c0,0-14.339-6.582-20.213-1.469c-5.873,5.113-6.864,24.018,6.958,33.228    c13.822,9.209,46.96,5.331,46.96,5.331s-6.557-31.895-8.304-32.386C145.265,377.502,121.61,373.29,121.61,373.29z"/>
		<path style="fill:#DB903F;" d="M339.978,317.251c-14.053-46.644-0.512-73.11-12.515-144.794    c-12.003-71.684-106.812-93.161-158.213-53.215c-17.201,13.368-27.911,27.262-34.197,40.802c-1.595,3.238-3.118,6.512-4.531,9.835    c-3.298,7.756-6.119,15.709-8.405,23.823c-1.295,4.598-2.442,9.24-3.394,13.922c-0.293,1.442,1.357,3.256,2.81,2.16    c1.52-1.147,3.102-2.197,4.737-3.158c-1.56,4.521-2.751,9.16-3.575,13.879c-0.15,0.861,0.03,1.7,0.768,2.252    c0.619,0.462,1.703,0.689,2.379,0.167c1.621-1.251,3.226-2.546,4.863-3.791c2.893,27.752,19.383,31.427,19.178,32.154    c0,0,29.089,136.132,46.615,154.256s28.798,24.177,77.942,15.04C319.688,412.169,354.031,363.895,339.978,317.251z"/>
		<path style="fill:#FFFFFF;" d="M111.047,267.302c0,0-1.871,109.589,9.769,133.266c11.64,23.677,70.589,19.87,81.525,12.943    c17.945-11.366,43.3-125.995,43.3-125.995L111.047,267.302z"/>
		<path style="fill:#B07B6F;" d="M119.846,267.559c0,0-1.911,105.062,8.212,125.654c10.123,20.592,61.392,17.281,70.903,11.256    c15.606-9.885,41.012-118.88,41.012-118.88L119.846,267.559z"/>
		<path style="fill:#DB903F;" d="M108.595,291.009c-11.67,1.322-11.977,18.145-3.434,27.201c8.543,9.056,19.879,12.908,25.881,3.396    C137.043,312.093,133.335,288.207,108.595,291.009z"/>
		<path style="fill:#DB903F;" d="M261.197,297.656c0,0-16.689,13.605-37.055,17.415c-20.366,3.81-25.757,22.588-10.123,30.088    c15.634,7.501,34.941,9.824,53.299-0.649C285.677,334.036,261.197,297.656,261.197,297.656z"/>
		<path style="fill:#DB903F;" d="M278.842,417.501c-45.547,6.599-67.284,12.131-77.924-0.509    c-10.64-12.639-3.827-34.898,10.768-37.115c14.596-2.217,31.353-3.05,40.707-6.74    C261.748,369.447,278.842,417.501,278.842,417.501z"/>
		<path style="fill:#DB903F;" d="M328.422,348.051c0,0,8.727,17.868,26.346,2.529c17.62-15.339,2.878-89.163,47.627-108.256    c34.778-14.839,54.47,19.64,27.12,36.457c-27.35,16.817-33.04,30.742-36.513,59.262c-3.473,28.521-20.542,70.296-77.638,50.138    L328.422,348.051z"/>
		<path style="fill:#DB903F;" d="M209.414,102.822c0,0-19.905-26.751-37.135-30.064c-8.202-1.577-15.153,38.916-10.682,54.527    C161.597,127.285,198.09,130.092,209.414,102.822z"/>
		<path style="fill:#CE5E57;" d="M196.063,104.737c-2.459-4.45-16.974-17.013-22.23-16.796c-5.256,0.216-7.639,23.768-4.994,29.882    S200.2,112.225,196.063,104.737z"/>
		<path style="fill:#DB903F;" d="M275.764,112.835c0,0,31.111-20.963,50.636-18.049c9.294,1.387,1.558,46.96-9.015,61.861    C317.385,156.647,277.604,146.006,275.764,112.835z"/>
		<path style="fill:#CE5E57;" d="M289.169,118.151c4.27-3.805,24.365-11.721,29.864-9.53c5.498,2.191-0.764,28.078-5.853,33.58    C308.091,147.703,281.983,124.555,289.169,118.151z"/>
		<path style="fill:#31161A;" d="M210.458,177.398c-2.364,0.019-3.965,0.721-6.009,1.778c-0.651,0.337-1.313,0.658-1.956,1.01    c-0.319-0.291-0.642-0.577-0.954-0.87c-1.181-1.11-2.114-2.036-3.754-2.354c-1.644-0.318-3.716,0.302-4.136,2.192    c-0.557,2.504,0.322,4.359,1.181,6.684c1.009,2.731,2.178,5.143,5.158,6.138c2.632,0.879,5.06-0.125,7.443-1.275    c2.823-1.362,5.495-2.681,7.311-5.305C216.971,182.176,214.329,177.366,210.458,177.398z"/>
		<path style="fill:#31171A;" d="M189.353,175.214c0.038,0.291-0.002-0.43,0.009-0.575c0.045-0.57,0.104-1.139,0.143-1.71    c0.138-2.023,0.118-4.032-0.111-6.047c-0.396-3.492-1.646-6.87-3.911-9.587c-2.389-2.866-6.222-5.001-9.886-3.311    c-3.017,1.392-5.685,4.161-7.699,6.742c-1.087,1.393-2.009,2.926-2.766,4.52c-0.253,0.532-0.509,1.074-0.74,1.623    c-0.273-0.407-0.574-0.785-1.015-1.02c-0.482-0.257-1.195-0.199-1.479,0.342c-1.016,1.937,0.985,4.047,2.026,5.528    c0.729,1.038,2.192,1.534,3.217,0.51c1.26-1.259,1.7-3.008,2.523-4.569c0.797-1.511,1.749-2.95,2.839-4.267    c0.982-1.188,2.097-2.276,3.289-3.251c0.911-0.745,2.05-1.945,3.279-1.411c2.679,1.164,4.244,4.16,4.854,6.863    c0.422,1.869,0.467,3.771,0.378,5.678c-0.09,1.929-0.953,4.68,0.7,6.169c0.978,0.88,2.614,1.182,3.62,0.105    c0.291-0.311,0.549-0.656,0.68-1.067c0.053-0.167,0.118-0.544,0.123-0.721C189.426,175.795,189.287,174.709,189.353,175.214z"/>
		<path style="fill:#31171A;" d="M261.045,183.996c-0.639-2.342-3.201-1.931-4.881-1.204c-0.37,0.16-0.743,0.31-1.114,0.465    c-0.058-2.481-0.29-4.964-0.769-7.386c-0.698-3.526-2.243-6.849-5.117-9.1c-2.857-2.238-6.493-2.587-9.787-1.161    c-3.14,1.359-5.576,4.269-7.382,7.082c-1.052,1.638-2.067,3.437-2.676,5.291c-0.324,0.986-0.606,1.994-0.719,3.028    c-0.121,1.101,0.027,2.548,1.321,2.869c2.03,0.505,3.004-2.637,3.711-3.929c0.916-1.676,1.766-3.343,2.884-4.9    c1.57-2.186,3.929-5.232,6.914-5.161c2.798,0.066,4.626,3.028,5.33,5.532c1.052,3.741,1.133,7.819,0.881,11.671    c-0.108,1.648,1.684,3.217,3.32,2.686c1.637-0.532,3.252-1.126,4.846-1.775C259.477,187.322,261.653,186.225,261.045,183.996z"/>
		<path style="fill:#CB4F4F;" d="M170.523,184.394c-0.707,5.925-8.282,9.893-16.92,8.862c-8.638-1.031-15.067-6.669-14.36-12.595    c0.707-5.925,8.283-9.893,16.92-8.862C164.801,172.83,171.23,178.469,170.523,184.394z"/>
		<path style="fill:#D88579;" d="M152.396,176.027c-0.295-0.314-0.716-0.391-1.121-0.262c-0.651,0.206-1.201,0.788-1.704,1.226    c-0.507,0.441-1.015,0.882-1.522,1.324c-0.51,0.444-1.037,0.875-1.531,1.337c-0.513,0.482-1.186,1.077-1.157,1.831    c0.011,0.281,0.261,0.479,0.511,0.537c0.406,0.095,0.772-0.074,1.108-0.283c0.276-0.171,0.564-0.331,0.83-0.518    c0.545-0.385,1.058-0.828,1.583-1.239c0.513-0.401,1.025-0.802,1.538-1.204c0.598-0.468,1.288-0.936,1.657-1.617    C152.785,176.798,152.66,176.308,152.396,176.027z"/>
		<path style="fill:#D88579;" d="M162.416,176.488c-0.185-0.631-0.743-1.092-1.427-1.02c-0.483,0.051-0.828,0.414-1.218,0.664    c-1.95,1.251-3.57,3.061-5.234,4.664c-0.912,0.879-1.79,1.805-2.664,2.721c-0.436,0.457-0.841,0.947-1.256,1.424    c-0.211,0.243-0.398,0.488-0.57,0.759c-0.159,0.251-0.275,0.608-0.457,0.827c-0.432,0.519,0.028,1.225,0.648,1.198    c1.043-0.044,2.048-0.953,2.853-1.53c0.904-0.649,1.756-1.365,2.622-2.063c1.816-1.464,3.62-2.99,5.288-4.621    C161.781,178.746,162.766,177.682,162.416,176.488z"/>
		<path style="fill:#D88579;" d="M165.923,182.562c0.026-0.547-0.311-0.916-0.866-0.911c-0.727,0.007-1.305,0.528-1.786,1.014    c-0.406,0.41-0.843,0.805-1.218,1.244c-0.364,0.426-0.723,0.857-1.084,1.286c-0.203,0.241-0.357,0.511-0.521,0.78    c-0.171,0.28-0.318,0.506-0.287,0.85c0.019,0.208,0.2,0.405,0.41,0.431c0.35,0.045,0.589-0.1,0.884-0.265    c0.245-0.137,0.497-0.264,0.719-0.436c0.456-0.353,0.91-0.708,1.362-1.067c0.438-0.348,0.836-0.757,1.248-1.136    C165.303,183.874,165.887,183.318,165.923,182.562z"/>
		<path style="fill:#CB4F4F;" d="M279.163,203.704c-0.707,5.925-8.282,9.893-16.92,8.862c-8.638-1.031-15.067-6.669-14.36-12.595    c0.707-5.925,8.282-9.893,16.92-8.862C273.441,192.141,279.87,197.779,279.163,203.704z"/>
		<path style="fill:#D88579;" d="M261.036,195.337c-0.295-0.314-0.716-0.391-1.121-0.262c-0.651,0.206-1.201,0.788-1.704,1.226    c-0.507,0.441-1.015,0.883-1.522,1.324c-0.51,0.444-1.037,0.875-1.531,1.337c-0.513,0.482-1.186,1.077-1.156,1.831    c0.011,0.281,0.261,0.479,0.511,0.537c0.406,0.095,0.772-0.074,1.109-0.283c0.276-0.171,0.564-0.331,0.829-0.518    c0.545-0.385,1.058-0.828,1.583-1.239c0.513-0.401,1.025-0.803,1.538-1.204c0.599-0.468,1.288-0.936,1.657-1.617    C261.426,196.108,261.3,195.618,261.036,195.337z"/>
		<path style="fill:#D88579;" d="M271.056,195.799c-0.185-0.631-0.743-1.092-1.427-1.02c-0.483,0.05-0.828,0.413-1.218,0.664    c-1.95,1.251-3.57,3.061-5.234,4.664c-0.912,0.879-1.789,1.805-2.664,2.721c-0.436,0.457-0.841,0.947-1.256,1.424    c-0.211,0.243-0.398,0.488-0.57,0.759c-0.16,0.251-0.275,0.608-0.458,0.827c-0.432,0.519,0.027,1.225,0.648,1.198    c1.043-0.045,2.048-0.953,2.853-1.531c0.904-0.649,1.756-1.365,2.622-2.063c1.816-1.464,3.62-2.99,5.288-4.621    C270.422,198.056,271.407,196.992,271.056,195.799z"/>
		<path style="fill:#D88579;" d="M274.563,201.872c0.026-0.547-0.311-0.916-0.866-0.911c-0.727,0.007-1.305,0.528-1.787,1.014    c-0.406,0.41-0.843,0.805-1.218,1.244c-0.364,0.426-0.723,0.857-1.084,1.286c-0.203,0.241-0.357,0.511-0.521,0.78    c-0.171,0.28-0.318,0.506-0.287,0.85c0.019,0.209,0.2,0.405,0.41,0.431c0.35,0.045,0.589-0.1,0.884-0.265    c0.245-0.137,0.497-0.264,0.719-0.436c0.456-0.353,0.91-0.708,1.362-1.067c0.438-0.348,0.836-0.757,1.247-1.136    C273.944,203.184,274.527,202.629,274.563,201.872z"/>
		<path style="fill:#A6532E;" d="M134.198,306.418c-0.418-1.551-1.212-4.361-2.967-4.856c-0.181-0.051-0.424,0.063-0.46,0.261    c-0.151,0.842,0.206,1.544,0.489,2.322c0.294,0.811,0.527,1.657,0.721,2.497c0.426,1.85,0.512,3.762,0.369,5.651    c-0.348,4.598-1.972,9.903-6.59,11.805c-2.909,1.198-6.27,1.376-9.328,0.723c-6.434-1.375-11.338-6.07-14.254-11.816    c-0.828-1.632-1.446-3.337-2.011-5.074c-0.309-0.95-0.593-1.917-0.764-2.902c-0.162-0.932-0.155-1.942-0.53-2.815    c-0.05-0.116-0.229-0.123-0.307-0.04c-1.239,1.329-0.711,3.788-0.434,5.39c0.327,1.891,0.895,3.718,1.622,5.492    c1.411,3.443,3.418,6.636,6.122,9.211c3.442,3.278,8.019,5.481,12.768,5.924c3.742,0.349,8.21-0.052,11.514-2.165    c4.518-2.889,4.496-8.283,4.712-13.111C134.967,310.743,134.766,308.523,134.198,306.418z"/>
		<path style="fill:#A6532E;" d="M129.063,409.461c-0.631-0.489-1.058-0.811-1.875-0.884c-0.728-0.064-1.458-0.102-2.186-0.167    c-1.605-0.145-3.205-0.337-4.798-0.586c-2.948-0.461-5.94-1.009-8.773-1.968c-5.028-1.702-8.302-5.471-10.169-10.353    c-1.773-4.637-2.802-9.955-2.072-14.911c0.352-2.39,1.163-4.717,2.573-6.691c0.58-0.812,1.316-1.776,2.417-1.693    c1.187,0.09,2.499,0.942,3.438,1.619c2.221,1.602,3.807,4.037,4.587,6.642c0.918,3.065,0.749,6.359,0.686,9.518    c-0.013,0.637,0.972,0.965,1.26,0.341c0.663-1.436,1.045-2.718,1.225-4.299c0.194-1.712,0.068-3.436-0.252-5.126    c-0.554-2.924-1.908-5.68-3.914-7.88c-0.241-0.264-0.502-0.53-0.78-0.794c0.361,0.045,0.722,0.09,1.083,0.135    c0.974,0.121,2.292,0.537,3.07-0.246c0.328-0.33,0.442-0.932,0.173-1.337c-0.639-0.96-1.914-0.825-2.944-0.9    c-0.962-0.07-1.925-0.14-2.887-0.21c-0.925-0.067-1.849-0.134-2.774-0.201c-0.896-0.314-1.819-0.462-2.728-0.361    c-2.922,0.326-4.817,3.493-5.886,5.933c-2.37,5.408-1.975,11.63-0.576,17.24c1.42,5.695,4.139,11.459,9.291,14.655    c3.224,2,7.046,2.854,10.729,3.55c2.007,0.379,4.029,0.68,6.058,0.917c1.017,0.119,2.035,0.218,3.055,0.298    c1.109,0.087,1.786,0.092,2.745-0.508C129.377,410.857,129.651,409.916,129.063,409.461z"/>
		<path style="fill:#A6532E;" d="M333.813,233.922c-0.218-0.864-1.486-1.039-1.918-0.251c-0.728,1.329-1.31,2.579-1.848,4    c-0.532,1.406-1.265,2.74-2.067,4.008c-1.591,2.516-3.749,4.568-5.77,6.724c-3.998,4.268-8.449,8.148-13.227,11.518    c-9.567,6.747-20.355,11.702-31.659,14.732c-3.188,0.855-6.424,1.535-9.688,2.03c-1.569,0.238-3.148,0.427-4.724,0.611    c-1.659,0.194-3.389,0.178-4.992,0.66c-0.745,0.224-0.743,1.285,0,1.51c1.434,0.435,2.952,0.39,4.441,0.417    c1.533,0.028,3.058-0.004,4.588-0.095c3.15-0.186,6.29-0.547,9.405-1.05c6.095-0.986,11.976-2.592,17.695-4.923    c11.624-4.738,22.21-11.745,30.898-20.834c2.542-2.659,4.659-5.663,6.447-8.869c0.868-1.556,1.613-3.201,2.173-4.894    c0.286-0.863,0.523-1.727,0.61-2.635C334.262,235.685,334.032,234.789,333.813,233.922z"/>
		<path style="fill:#CE6337;" d="M313.922,219.702c-0.35-2.321-1.059-4.505-1.732-6.745c-0.291-0.968-1.869-0.829-1.817,0.246    c0.187,3.902,0.058,7.9-0.083,11.806c-0.125,3.469-0.744,6.915-2.03,10.15c-0.607,1.526-1.398,2.991-2.318,4.351    c-0.398,0.588-0.824,1.151-1.29,1.687c-0.164,0.189-0.332,0.376-0.503,0.559c-0.111,0.078-0.173,0.134-0.214,0.178    c-0.266-0.097-0.559-0.305-0.764-0.404c-3.508-1.704-6.906-3.599-10.25-5.601c-0.973-0.583-2.65-0.096-2.844,1.157    c-0.375,2.429-0.903,4.83-1.609,7.185c-0.342,1.141-0.723,2.271-1.143,3.386c-0.385,1.023-0.738,2.253-1.377,3.157    c-0.156,0.221-0.001,0.198-0.112,0.181c-0.318-0.05-0.611-0.579-0.768-0.832c-0.437-0.708-0.572-1.547-0.862-2.318    c-0.609-1.615-1.621-3.157-3.521-3.171c-1.233-0.009-1.259,1.576-0.27,1.992c0.8,0.336,1.045,1.444,1.226,2.195    c0.247,1.027,0.393,2.018,0.883,2.973c1.066,2.078,3.546,3.363,5.58,1.701c0.974-0.796,1.438-2.017,1.93-3.138    c0.57-1.298,1.103-2.613,1.577-3.949c0.673-1.897,1.223-3.831,1.672-5.791c1.217,0.71,2.442,1.405,3.683,2.072    c1.875,1.008,3.815,2.162,5.818,2.899c2.384,0.877,3.99-0.806,5.349-2.532c1.19-1.512,2.22-3.125,3.042-4.867    c1.77-3.75,2.698-7.776,2.991-11.904C314.323,224.099,314.255,221.906,313.922,219.702z"/>
		<path style="fill:#CE6337;" d="M209.389,101.433c-0.015,1.431,0.029,2.862,0.136,4.292c0.082,1.097,0.2,2.189,0.343,3.28    c0.158,1.203,0.537,2.36,0.776,3.549c0.284,1.412,0.606,2.887,0.997,4.355c0.38,3.527,1.143,7.018,2.253,10.361    c0.372,1.12,1.777,1.921,2.878,1.171c5.559-3.791,11.024-7.716,16.492-11.637c1.034,8.415,2.837,16.704,5.225,24.844    c0.66,2.248,3.373,2.303,4.628,0.605c3.934-5.324,8.154-10.463,12.813-15.171c6.528-6.595,13.841-12.146,20.978-17.978    C256.154,99.724,231.876,97.011,209.389,101.433z"/>
		<path style="fill:#CE6337;" d="M136.723,214.166c-1.393,0.528-2.592,0.979-3.819,1.855c-1.202,0.858-2.345,1.808-3.514,2.71    c-1.542,1.189-3.089,2.373-4.644,3.547c0.114-6.002,0.993-11.946,2.646-17.738c0.365-1.279-1.141-2.521-2.306-1.772    c-1.568,1.009-3.064,2.12-4.499,3.307c0.19-0.718,0.381-1.434,0.588-2.147c0.495-1.706,1.037-3.398,1.626-5.073    c0.589-1.675,1.252-3.321,1.882-4.98c0.595-1.568,1.421-3.096,1.097-4.816c-0.073-0.389-0.554-0.516-0.862-0.351    c-1.833,0.981-2.614,3.37-3.381,5.177c-0.833,1.961-1.569,3.969-2.251,5.987c-0.683,2.019-1.297,4.062-1.841,6.123    c-0.473,1.791-0.745,3.511,0.897,4.756c0.547,0.415,1.41,0.189,1.865-0.241c0.994-0.939,2.027-1.824,3.099-2.66    c-1.312,5.779-1.924,11.708-1.789,17.638c0.025,1.124,1.392,2.147,2.432,1.395c2.449-1.771,4.932-3.493,7.391-5.251    c1.2-0.858,2.43-1.69,3.589-2.604c0.57-0.45,1.193-0.905,1.671-1.448c0.491-0.557,0.885-1.249,1.327-1.847    C138.468,215.004,137.566,213.846,136.723,214.166z"/>
		<g>
			<path style="fill:#CE6337;" d="M414.494,289.566c-4.679-1.94-9.679-3.043-14.724-3.28c-0.487-0.066-0.975-0.119-1.464-0.15     c-1.868-0.119-3.743,0.022-5.575,0.382c-2.887,0.328-5.745,0.938-8.521,1.846c-2.216,0.724-2.46,3.466-0.621,4.748     c2.262,1.576,4.525,3.147,6.811,4.688c2.069,1.396,4.282,2.689,5.996,4.53c1.399,1.503,2.546,3.335,3.661,5.055     c0.091,0.141,0.185,0.281,0.277,0.422C403.485,301.12,407.927,295.285,414.494,289.566z"/>
			<path style="fill:#CE6337;" d="M385.782,345.619c-4.164-2.245-7.91-4.847-11.145-8.324c-1.387-1.491-3.85-0.671-4.401,1.162     c-0.806,2.684-0.73,5.466-0.454,8.224c0.151,1.505,0.322,3.008,0.505,4.509c0.081,0.837,0.186,1.671,0.323,2.5     c0.041,0.304,0.076,0.609,0.118,0.913c0.693,4.971,1.869,9.895,4.318,14.319c1.156,2.089,2.615,4.072,4.334,5.733     c0.123,0.119,0.254,0.242,0.382,0.365c5.835-8.031,9.429-17.696,11.506-26.929C389.399,347.36,387.55,346.572,385.782,345.619z"/>
			<path style="fill:#CE6337;" d="M386.732,327.963c1.802,0.486,4.18-1.35,3.345-3.345c-1.361-3.251-2.846-6.464-4.6-9.511     c-0.743-1.398-1.581-2.745-2.521-4.008c-0.12-0.161-0.248-0.315-0.37-0.473c-1.055-1.452-2.198-2.844-3.452-4.158     c-2.246-2.351-4.887-4.405-7.782-5.885c-1.032-0.528-2.096-0.994-3.17-1.432c-1.608,9.169-2.702,18.214-4.031,26.215     C371.754,324.998,379.361,325.975,386.732,327.963z"/>
			<path style="fill:#CE6337;" d="M347.232,358.847c0.887,2.128,1.665,4.296,2.302,6.512c1.26,4.379,2.177,8.784,2.466,13.338     c0.133,2.105,2.989,3.142,4.139,1.144c0.497-0.124,0.967-0.406,1.286-0.866c2.993-4.313,4.675-9.23,5.202-14.444     c0.253-2.504,0.171-5.035-0.247-7.518c-0.025-0.151-0.061-0.299-0.092-0.449c0.057-4.951-0.637-9.89-2.14-14.555     c-1.39,3.66-3.117,6.6-5.38,8.57c-3.219,2.802-6.137,4.487-8.763,5.384C346.435,356.916,346.83,357.882,347.232,358.847z"/>
			<path style="fill:#CE6337;" d="M402.395,242.324c-6.702,2.86-12.061,6.954-16.403,11.888     c4.896,9.136,14.418,16.196,22.513,22.195c1.591,1.179,3.422-0.466,3.57-2.049c1.155-12.365,4.881-24.516,10.958-35.345     C417.137,238.165,410.142,239.018,402.395,242.324z"/>
		</g>
		<path style="fill:#965650;" d="M235.927,294.746c-1.327-3.839-6.079-3.529-7.514,0c-0.516,1.27-5.443-0.606-6.533-0.722    c-2.294-0.244-4.427,0.15-6.511,1.137c-2.02,0.957-3.821,2.837-5.985,3.427c-2.371,0.646-4.567-0.861-6.613-1.923    c-4.102-2.13-8.026-3.728-12.727-2.905c-5.76,1.008-10.621,4.229-16.329,0.893c-3.813-2.229-6.202-5.94-11.004-6.232    c-4.549-0.276-9.227,3.779-13.528,2.735c-4.03-0.978-6.589-5.74-10.595-7.17c-2.208-0.788-4.356-0.645-6.642-0.832    c-2.16-0.177-3.303-0.199-4.815-1.791c-0.442-0.465-0.804-1.339-1.226-1.872c-0.653-0.826-2.121-0.701-2.793,0    c-3.648,3.806,1.06,8.538,4.935,9.818c3.436,1.135,6.632,0.792,9.683,3.113c2.157,1.641,3.943,3.738,6.298,5.134    c5.158,3.057,9.658,1.292,14.93-0.241c3.914-1.138,5.144,0.494,7.997,2.78c2.334,1.87,4.993,3.283,7.913,3.997    c2.926,0.717,6.017,0.762,8.965,0.159c3.413-0.698,6.859-2.877,10.397-2.117c5.64,1.212,9.457,5.906,15.697,5.066    c2.987-0.402,5.107-1.958,7.627-3.43c3.557-2.078,5.757-0.074,9.506,0.068C231.951,304.025,237.834,300.264,235.927,294.746z"/>
		<path style="fill:#CE5E57;" d="M112.892,249.303c-8.12,5.91-10.982,14.211-5.856,19.644c5.126,5.433,10.521,1.628,13.058,5.224    c2.537,3.596-1.512,6.561,4.118,9.807c5.63,3.246,12.37-1.401,15.322,3.088c2.952,4.489,3.327,6.702,9.889,8.214    c6.561,1.512,9.457-7.21,13.767-4.002c4.31,3.208,5.878,9.858,12.891,10.943c7.014,1.085,14.238-7.833,18.179-4.314    c3.941,3.518,5.579,5.006,11.751,4.746c6.172-0.26,9.444-6.77,13.818-5.762c4.374,1.008,4.271,4.528,9.564,4.242    c5.292-0.286,5.083-8.218,9.495-8.53s5.186,3.512,9.628,2.042c4.891-1.619,11.537-18.158-0.914-29.089    C239.965,258.852,146.632,224.746,112.892,249.303z"/>
		<path style="fill:#D88579;" d="M187.524,289.798c-2.865-1.021-5.783-1.279-8.781-1.695c-2.975-0.413-5.944-0.864-8.903-1.38    c-5.76-1.005-11.483-2.25-17.092-3.91c-10.038-2.97-19.702-7.39-28.106-13.685c-2.253-1.688-4.392-3.536-6.393-5.516    c-2.057-2.035-3.743-4.501-5.967-6.337c-0.386-0.319-1.182-0.033-0.951,0.554c0.936,2.385,2.749,4.31,4.463,6.182    c1.718,1.878,3.558,3.643,5.493,5.297c3.974,3.394,8.317,6.327,12.934,8.772c10.177,5.389,21.337,8.59,32.611,10.722    c3.371,0.637,6.758,1.184,10.153,1.675c3.448,0.499,6.855,1.14,10.34,0.789C188.16,291.181,188.345,290.09,187.524,289.798z"/>
		<path style="fill:#D88579;" d="M248.652,279.197c-1.306,0.363-2.435,1.693-3.442,2.566c-1.106,0.958-2.365,1.733-3.669,2.39    c-2.771,1.396-5.823,2.197-8.852,2.804c-7.758,1.555-15.748,2.281-23.639,2.73c-2.235,0.128-4.472,0.212-6.71,0.254    c-1.193,0.022-2.387,0.009-3.579,0.066c-1.018,0.049-2.115-0.046-3.025,0.459c-0.46,0.255-0.415,0.902,0,1.167    c0.772,0.494,1.685,0.474,2.578,0.555c1.119,0.101,2.233,0.13,3.356,0.149c2.162,0.037,4.325,0.034,6.487-0.009    c4.252-0.085,8.488-0.332,12.716-0.792c7.138-0.776,14.76-1.522,21.356-4.565c1.659-0.766,3.207-1.725,4.621-2.883    c1.175-0.962,2.781-2.61,2.636-4.258C249.448,279.413,249.094,279.074,248.652,279.197z"/>
		<path style="fill:#965650;" d="M150.005,386.185c-0.237-1.082-0.754-2.089-1.59-2.859c-0.112-0.103-0.23-0.194-0.345-0.289    c-1.504-1.594-3.58-2.633-5.898-2.615c-2.766,0.022-5.139,1.872-5.997,4.465c-0.024,0.073-0.04,0.147-0.062,0.22    c-1.527,2.56-1.556,5.814-0.134,8.506c1.598,3.024,5.768,4.265,8.859,3.136c2.556-0.934,4.682-2.927,5.414-5.617    C150.707,389.466,150.571,387.747,150.005,386.185z"/>
		<path style="fill:#965650;" d="M164.874,375.987c-1.131-2.68-4.322-4.57-7.24-3.703c-1.388,0.413-2.591,1.33-3.317,2.587    c-0.418,0.723-0.622,1.458-0.691,2.215c-0.667,1.21-0.903,2.656-0.483,3.943c0.697,2.14,2.246,3.807,4.483,4.322    c2.172,0.5,4.628-0.045,6.031-1.862c0.232-0.3,0.43-0.547,0.595-0.876c0.158-0.374,0.316-0.749,0.474-1.123    c-0.096,0.233-0.193,0.466-0.289,0.698c0.071-0.02,0.171-0.352,0.202-0.418c0.189-0.409,0.443-0.935,0.56-1.417    C165.563,378.866,165.465,377.388,164.874,375.987z"/>
		<path style="fill:#965650;" d="M142.664,362.556c-0.505-0.862-1.283-1.493-2.193-1.877c-0.358-0.207-0.744-0.312-1.158-0.313    c-0.406-0.109-0.813-0.109-1.219,0c-0.414,0.001-0.8,0.106-1.158,0.313c-0.443,0.144-0.826,0.393-1.177,0.697    c-0.539,0.388-0.986,0.869-1.331,1.451c-0.43,0.741-0.646,1.54-0.648,2.397c0,1.674,0.908,3.256,2.353,4.102    c1.466,0.858,3.329,0.858,4.795,0c0.714-0.422,1.282-0.99,1.704-1.704c0.43-0.741,0.646-1.54,0.648-2.397    c0.016-0.12,0.02-0.233,0.01-0.354C143.226,364.069,143.076,363.261,142.664,362.556z"/>
		<path style="fill:#965650;" d="M176.774,395.24c-0.077-0.182-0.154-0.365-0.231-0.546c-0.008-0.028-0.012-0.056-0.021-0.084    c-0.179-0.425-0.358-0.849-0.538-1.274c-0.335-0.621-0.793-1.12-1.373-1.496c-0.333-0.33-0.725-0.559-1.176-0.686    c-0.636-0.334-1.32-0.487-2.055-0.459c-0.473,0.064-0.945,0.127-1.418,0.191c-0.903,0.253-1.688,0.711-2.353,1.371    c-0.761,0.87-1.07,1.318-1.417,2.429c-0.085,0.272-0.082,0.494-0.127,0.824c-0.123,0.917-0.173,1.323,0.118,2.361l0.538,1.275    c0.004,0.009,0.008,0.018,0.011,0.027c0.012,0.021,0.024,0.04,0.037,0.06c0.093,0.15,0.74,0.99,0.862,1.112    c0.007,0.006,0.014,0.013,0.021,0.019c0.36,0.278,0.72,0.556,1.08,0.835c0.02,0.013,0.041,0.026,0.062,0.039    c0.213,0.101,0.43,0.193,0.651,0.276c0.218,0.107,0.441,0.2,0.67,0.28c0.011,0.002,0.022,0.005,0.032,0.007l1.419,0.191    c0.248,0.032,0.495,0.001,0.742-0.091c0.248-0.027,0.495-0.06,0.74-0.1c0.424-0.179,0.849-0.359,1.274-0.538    c0.621-0.335,1.12-0.793,1.496-1.373c0.33-0.333,0.559-0.725,0.686-1.176c0.334-0.635,0.487-1.32,0.459-2.054    C176.901,396.185,176.838,395.713,176.774,395.24z"/>
		<path style="fill:#965650;" d="M194.803,384.28c0.001-0.011,0.003-0.022,0.004-0.034c-0.001,0.011-0.003,0.021-0.004,0.032    c0.041-0.701-0.039-1.402-0.259-2.103c-0.139-0.431-0.33-0.861-0.526-1.287c-0.018-0.043-0.032-0.077-0.051-0.122    c-0.279-0.859-0.742-1.61-1.367-2.267c-0.073-0.087-0.145-0.176-0.223-0.259c-0.508-0.606-1.105-1.133-1.796-1.527    c-1.147-0.654-2.533-1.059-3.894-1.046c-0.052-0.007-0.104-0.014-0.155-0.021c-1.082-0.041-2.091,0.185-3.027,0.677    c-0.666,0.187-1.243,0.523-1.734,1.01c-0.855,0.554-1.53,1.289-2.024,2.205c-0.264,0.625-0.528,1.251-0.792,1.877    c-0.374,1.392-0.374,2.785,0,4.178c0.02,0.129,0.053,0.223,0.093,0.346c0.652,1.973,1.837,3.671,3.651,4.748    c1.314,0.78,2.805,1.166,4.334,1.156c2.724-0.018,5.355-1.419,6.744-3.795c0.358-0.612,0.615-1.265,0.781-1.937    c-0.006,0.043-0.012,0.086-0.017,0.128c0.09-0.247,0.126-0.507,0.133-0.774c0.038-0.241,0.068-0.482,0.082-0.726    C194.776,384.585,194.794,384.432,194.803,384.28z"/>
		<path style="fill:#965650;" d="M207.265,369.677c-0.514-0.895-1.032-1.3-1.862-1.879c-0.381-0.161-0.762-0.322-1.144-0.483    c-0.636-0.2-1.273-0.228-1.909-0.086c-0.432,0.001-0.835,0.11-1.208,0.327c-0.593,0.193-1.107,0.523-1.541,0.99    c-0.096,0.079-0.197,0.154-0.29,0.237c-0.25,0.324-0.501,0.648-0.751,0.972c-0.161,0.383-0.323,0.765-0.484,1.147    c-0.015,0.064-0.023,0.129-0.035,0.193c-0.038,0.219-0.077,0.439-0.115,0.658c-0.198,0.738-0.198,1.476,0,2.214    c0.129,0.542,0.377,1.014,0.745,1.416c0.294,0.453,0.683,0.811,1.168,1.073c0.26,0.151,0.531,0.263,0.808,0.354    c0.706,0.413,1.501,0.669,2.331,0.632c0.421-0.057,0.842-0.113,1.263-0.17c0.805-0.225,1.503-0.633,2.096-1.221    c0.98-1.039,1.596-2.331,1.606-3.783C207.951,371.352,207.721,370.471,207.265,369.677z"/>
		<path style="fill:#965650;" d="M181.953,365.338c-0.301-1.072-0.843-2.002-1.627-2.792c-0.427-0.33-0.854-0.659-1.28-0.989    c-0.987-0.572-2.051-0.86-3.193-0.864c-0.871-0.033-1.683,0.149-2.437,0.545c-0.784,0.255-1.463,0.691-2.036,1.308    c-0.617,0.573-1.053,1.252-1.308,2.036c-0.396,0.754-0.578,1.566-0.545,2.438c0.075,0.561,0.151,1.121,0.226,1.682    c0.301,1.072,0.843,2.002,1.627,2.792c0.427,0.33,0.854,0.66,1.28,0.989c0.987,0.572,2.051,0.86,3.193,0.864    c0.871,0.033,1.684-0.149,2.438-0.545c0.784-0.255,1.463-0.691,2.036-1.308c0.617-0.573,1.053-1.251,1.308-2.036    c0.396-0.754,0.578-1.566,0.545-2.438L181.953,365.338z"/>
		<path style="fill:#965650;" d="M157.27,359.688c-0.943-0.865-2.102-1.411-3.407-1.411c-1.236,0-2.533,0.538-3.407,1.411    c-0.836,0.836-1.465,2.207-1.411,3.407c0.056,1.246,0.465,2.539,1.411,3.407c0.943,0.865,2.102,1.411,3.407,1.411    c1.235,0,2.533-0.537,3.407-1.411c0.836-0.836,1.465-2.207,1.411-3.407C158.625,361.848,158.216,360.556,157.27,359.688z"/>
		<path style="fill:#CE6337;" d="M119.027,319.869c-0.156-0.258-0.289-0.49-0.507-0.706c-0.088-0.088-0.173-0.178-0.256-0.271    c-0.134-0.15-0.303-0.255-0.465-0.372c-0.013-0.01-0.027-0.02-0.04-0.03c-0.04-0.033-0.082-0.066-0.121-0.099    c-0.165-0.139-0.337-0.268-0.505-0.405c0.04,0.031,0.08,0.062,0.12,0.093c-0.037-0.029-0.074-0.059-0.111-0.089    c-0.046-0.038-0.091-0.076-0.136-0.115c-0.107-0.092-0.212-0.189-0.313-0.288c-0.194-0.189-0.373-0.391-0.546-0.6    c-0.005-0.006-0.002-0.002-0.006-0.006c-0.002-0.002,0-0.001-0.002-0.003c-0.041-0.058-0.084-0.115-0.124-0.173    c-0.11-0.158-0.222-0.315-0.348-0.462c-0.001-0.002,0,0-0.001-0.001c-0.04-0.055-0.08-0.109-0.119-0.164    c-0.08-0.115-0.158-0.233-0.231-0.353c-0.168-0.275-0.369-0.472-0.593-0.698c-0.293-0.295-0.824-0.16-0.931,0.246    c-0.033,0.125-0.064,0.252-0.087,0.379c-0.047,0.259-0.017,0.482,0.038,0.736c0.058,0.272,0.134,0.541,0.227,0.804    c0.24,0.682,0.678,1.281,1.135,1.832c0.429,0.517,0.923,0.947,1.505,1.285c0.315,0.183,0.629,0.282,0.986,0.336    c0.258,0.039,0.476,0.076,0.732,0.023c0.127-0.026,0.255-0.074,0.377-0.116C119.027,320.543,119.215,320.18,119.027,319.869z"/>
		<g>
			<path style="fill:#CE6337;" d="M126.076,314.244c0.005,0.002,0.012,0.005,0.017,0.008c0.072,0.034,0.035,0.012-0.036-0.017     c0.004,0.002,0.009,0.004,0.013,0.006C126.072,314.241,126.074,314.243,126.076,314.244z"/>
			<path style="fill:#CE6337;" d="M126.587,314.868c-0.041-0.158-0.127-0.351-0.253-0.467c-0.081-0.075-0.167-0.124-0.258-0.158     c-0.002-0.001-0.004-0.002-0.007-0.003c-0.092-0.034-0.191-0.052-0.298-0.064c0.109,0.012,0.168,0.021,0.189,0.025     c0.036,0.011,0.068,0.022,0.096,0.033c-0.145-0.068-0.332-0.147-0.496-0.137c-0.043-0.021-0.093-0.043-0.181-0.066     c-0.076-0.02-0.153-0.032-0.229-0.052c-0.005-0.001-0.075-0.024-0.136-0.044c-0.011-0.006-0.022-0.011-0.032-0.017     c-0.173-0.096-0.337-0.21-0.501-0.321c-0.2-0.135-0.394-0.277-0.587-0.421c-0.12-0.089-0.042-0.03,0.018,0.016     c-0.107-0.082-0.21-0.169-0.322-0.243c-0.094-0.062-0.192-0.117-0.287-0.178c-0.199-0.127-0.396-0.259-0.588-0.396     c-0.249-0.177-0.514-0.273-0.801-0.373c-0.609-0.211-1.212,0.447-1.036,1.036c0.071,0.238,0.141,0.478,0.282,0.684     c0.164,0.239,0.361,0.466,0.549,0.687c0.131,0.154,0.261,0.312,0.403,0.455c0.214,0.215,0.481,0.394,0.721,0.575     c0.727,0.548,1.671,1.238,2.637,0.957C126.149,316.201,126.786,315.645,126.587,314.868z"/>
		</g>
		<g>
			<path style="fill:#CE6337;" d="M129.767,308.132c-0.031-0.024-0.062-0.048-0.094-0.071c0.081,0.058,0.121,0.088,0.139,0.1     c-0.031-0.023-0.144-0.104-0.163-0.119c-0.169-0.131-0.361-0.202-0.564-0.27c-0.176-0.059-0.35-0.124-0.521-0.195     c0.096,0.04,0.191,0.081,0.287,0.121c-0.201-0.085-0.375-0.159-0.581-0.21c-0.119-0.03-0.236-0.062-0.353-0.098     c-0.106-0.032-0.212-0.067-0.317-0.104c-0.057-0.021-0.114-0.041-0.17-0.063c-0.023-0.009-0.118-0.048-0.13-0.052     c-0.132-0.056-0.218-0.093-0.346-0.124c-0.113-0.028-0.226-0.058-0.338-0.091c-0.108-0.032-0.217-0.082-0.326-0.108     c-0.184-0.043-0.348-0.011-0.52,0.048c-0.159,0.054-0.33,0.181-0.36,0.361c-0.045,0.267-0.05,0.499,0.104,0.736     c0.087,0.135,0.179,0.266,0.276,0.394c0.175,0.233,0.315,0.399,0.541,0.574c0.174,0.134,0.349,0.267,0.532,0.389     c0.357,0.239,0.734,0.463,1.153,0.572c0.169,0.044,0.34,0.083,0.512,0.114c0.26,0.047,0.473,0.063,0.734,0.013     c0.089-0.017,0.179-0.041,0.266-0.065c0.389-0.11,0.672-0.445,0.725-0.841C130.309,308.705,130.101,308.386,129.767,308.132z"/>
			<path style="fill:#CE6337;" d="M129.812,308.161C129.822,308.168,129.825,308.17,129.812,308.161L129.812,308.161z"/>
		</g>
		<path style="fill:#CE6337;" d="M222.127,325.732c-0.571-0.609-1.39-0.63-2.166-0.653c-0.606-0.018-1.212,0.083-1.814,0.149    c-0.604,0.067-1.209,0.13-1.814,0.2c-0.349,0.04-0.689,0.097-1.033,0.168c-0.134,0.028-0.27,0.05-0.402,0.083    c-0.041,0.008-0.073,0.013-0.095,0.018c-0.042,0-0.083-0.002-0.125,0.004c-0.945,0.083-1.425,1.124-0.769,1.856    c0.489,0.546,1.46,0.513,2.144,0.555c0.647,0.04,1.305,0.01,1.953,0.012c0.745,0.002,1.476,0.021,2.215-0.081    c0.408-0.056,0.78-0.094,1.162-0.259c0.399-0.172,0.646-0.383,0.912-0.731C222.593,326.667,222.428,326.055,222.127,325.732z"/>
		<path style="fill:#CE6337;" d="M222.529,334.7c-0.366-0.717-1.221-0.922-1.947-1.049c-0.743-0.13-1.507-0.077-2.259-0.073    c-0.651,0.004-1.284,0.03-1.931,0.096c-0.252,0.026-0.729,0.01-1.023,0.119c-0.156-0.019-0.307-0.002-0.451,0.075    c-0.925,0.495-0.195,1.727,0.526,1.969c0.32,0.107,0.677,0.152,1.007,0.226c0.45,0.101,0.901,0.163,1.358,0.22    c0.722,0.09,1.461,0.236,2.188,0.268c0.905,0.04,1.995-0.12,2.532-0.922C222.717,335.348,222.674,334.983,222.529,334.7z"/>
		<path style="fill:#CE6337;" d="M223.807,342.129c-0.142-0.16-0.399-0.377-0.574-0.479c-0.247-0.144-0.553-0.202-0.824-0.284    c-0.27-0.081-0.524-0.13-0.808-0.16c-0.125-0.014-0.25-0.026-0.375-0.04c-0.022-0.003-0.044-0.005-0.067-0.008    c-0.173-0.064-0.415-0.059-0.592-0.089c-0.275-0.046-0.547-0.096-0.826-0.098c-0.212-0.001-0.429-0.023-0.641-0.015    c-0.244,0.009-0.479,0.094-0.713,0.156c-0.507,0.135-0.561,0.701-0.281,1.063c0.159,0.206,0.298,0.398,0.515,0.547    c0.177,0.122,0.368,0.229,0.553,0.338c0.424,0.249,0.921,0.382,1.391,0.521c0.958,0.284,2.201,0.538,3.069-0.118    C224.086,343.122,224.203,342.574,223.807,342.129z"/>
		<path style="fill:#F0CB6A;" d="M175.406,76.998c-0.022-0.032-0.046-0.064-0.069-0.095c-0.076-0.1-0.148-0.205-0.233-0.297    c-0.086-0.094-0.203-0.171-0.309-0.243c-0.206-0.14-0.443-0.237-0.675-0.322c-0.071-0.026-0.143-0.048-0.217-0.065    c-0.266-0.062-0.489-0.042-0.752,0.011c-0.211,0.042-0.417,0.131-0.609,0.226c-0.058,0.045-0.116,0.09-0.174,0.134    c-0.045,0.058-0.09,0.116-0.135,0.174c-0.098,0.167-0.128,0.359-0.102,0.549c0.021,0.155,0.074,0.284,0.169,0.407    c0.116,0.15,0.25,0.228,0.425,0.298c-0.04-0.017-0.08-0.034-0.119-0.05c0.108,0.047,0.206,0.11,0.301,0.179    c0.045,0.035,0.091,0.07,0.143,0.094c0.044,0.021,0.088,0.041,0.131,0.064c0.057,0.031,0.109,0.069,0.163,0.105    c0.008,0.007,0.017,0.014,0.025,0.021c0.117,0.113,0.251,0.204,0.38,0.302c-0.078-0.061-0.156-0.121-0.235-0.181    c0.032,0.025,0.063,0.05,0.093,0.077c0.162,0.143,0.341,0.271,0.554,0.325c0.352,0.09,0.695,0.019,0.98-0.201    c0.265-0.205,0.464-0.534,0.443-0.883C175.571,77.407,175.533,77.185,175.406,76.998z"/>
		<path style="fill:#F0CB6A;" d="M176.442,81.818c-0.132-0.206-0.316-0.354-0.553-0.425c-0.12-0.036-0.24-0.074-0.361-0.108    c-0.259-0.074-0.501-0.021-0.755,0.026c-0.152,0.028-0.307,0.046-0.442,0.13c-0.165,0.102-0.325,0.298-0.347,0.491    c-0.018,0.159,0.033,0.344,0.111,0.48c0.078,0.137,0.211,0.225,0.331,0.322c0.19,0.153,0.373,0.318,0.62,0.37l0.352,0.074    c0.244,0.051,0.493,0.035,0.713-0.093c0.192-0.112,0.375-0.332,0.425-0.553C176.589,82.294,176.577,82.028,176.442,81.818z"/>
		<path style="fill:#F0CB6A;" d="M180.834,81.187c0.009-0.344-0.201-0.752-0.52-0.906c-0.073-0.035-0.145-0.07-0.218-0.105    c-0.031-0.015-0.062-0.03-0.094-0.045c-0.24-0.114-0.322-0.14-0.583-0.169c-0.132-0.014-0.264-0.027-0.395-0.04    c-0.131-0.013-0.236-0.022-0.375,0.015c-0.156,0.042-0.264,0.123-0.382,0.226c-0.089,0.078-0.151,0.143-0.166,0.273    c-0.008,0.068-0.016,0.136-0.025,0.204c-0.038,0.315,0.18,0.547,0.363,0.771c0.084,0.102,0.164,0.21,0.253,0.308    c0.143,0.157,0.38,0.266,0.563,0.374c0.303,0.18,0.759,0.208,1.059,0c0.051-0.036,0.097-0.08,0.146-0.12    c0.233-0.136,0.378-0.389,0.356-0.661C180.821,81.27,180.833,81.228,180.834,81.187z"/>
		<path style="fill:#F0CB6A;" d="M313.049,99.099c-0.141-0.011-0.284,0.003-0.425,0.007c-0.385,0.013-0.722,0.142-1.083,0.26    c-0.279,0.091-0.561,0.175-0.838,0.274c-0.208,0.074-0.375,0.183-0.56,0.297c-0.208,0.128-0.397,0.27-0.506,0.497    c-0.195,0.404-0.091,0.816,0.281,1.073c0.336,0.232,0.945,0.231,1.343,0.158c0.289-0.053,0.576-0.119,0.864-0.178    c0.144-0.03,0.288-0.059,0.432-0.089c0.223-0.046,0.422-0.115,0.626-0.222c0.116-0.061,0.236-0.118,0.347-0.187    c0.325-0.201,0.533-0.541,0.529-0.925C314.055,99.495,313.562,99.138,313.049,99.099z"/>
		<path style="fill:#F0CB6A;" d="M318.226,100.73c-0.249-0.336-0.616-0.386-0.946-0.144c-0.007,0.003-0.014,0.006-0.021,0.009    c0.16-0.128,0.053-0.039,0.002-0.01c-0.038,0.022-0.077,0.041-0.117,0.058c-0.091,0.038-0.183,0.075-0.273,0.116    c0.087-0.037,0.174-0.074,0.261-0.11c-0.095,0.039-0.192,0.062-0.292,0.086c-0.164,0.039-0.311,0.12-0.459,0.197    c-0.026,0.008-0.051,0.018-0.077,0.027c-0.103,0.035-0.199,0.085-0.296,0.132c-0.049,0.018-0.099,0.038-0.15,0.053    c-0.172,0.049-0.332,0.12-0.497,0.192c0.101-0.043,0.202-0.085,0.303-0.128c-0.079,0.033-0.16,0.061-0.244,0.083    c-0.111,0.029-0.214,0.072-0.319,0.112c-0.01,0.001-0.019,0.001-0.029,0.002l0.142-0.06c-0.083,0.034-0.169,0.055-0.257,0.071    c-0.444,0.037-0.858,0.487-0.691,0.953c0.066,0.183,0.142,0.361,0.258,0.518c0.142,0.192,0.265,0.358,0.474,0.485    c0.145,0.087,0.311,0.149,0.465,0.212c0.241,0.099,0.496,0.151,0.76,0.138c0.263-0.013,0.539-0.046,0.794-0.119    c0.349-0.099,0.667-0.347,0.933-0.582c0.261-0.232,0.434-0.546,0.505-0.886C318.559,101.64,318.535,101.148,318.226,100.73z"/>
		<path style="fill:#F0CB6A;" d="M322.333,96.728c-0.219-0.362-0.644-0.497-1.036-0.372c-0.15,0.048-0.302,0.082-0.453,0.122    c-0.275,0.072-0.5,0.266-0.76,0.376c0.021-0.009,0.042-0.018,0.064-0.027c-0.058,0.027-0.115,0.055-0.168,0.093    c-0.047,0.035-0.095,0.067-0.145,0.098c-0.075,0.047-0.155,0.085-0.236,0.122c-0.068,0.029-0.137,0.058-0.205,0.086    c-0.037,0.029-0.074,0.058-0.112,0.086c-0.177,0.128-0.361,0.225-0.486,0.404c-0.129,0.079-0.219,0.214-0.168,0.376    c0.011,0.034,0.026,0.067,0.039,0.1c0.018,0.405,0.334,0.671,0.652,0.885c0.291,0.195,0.667,0.232,1.012,0.221    c0.371-0.012,0.75-0.063,1.073-0.256c0.311-0.185,0.651-0.431,0.833-0.752c0.164-0.288,0.244-0.657,0.234-0.984    C322.466,97.106,322.439,96.904,322.333,96.728z"/>
		<path style="fill:#F0CB6A;" d="M217.136,136.429c-0.233-0.418-0.777-0.633-1.234-0.502c-0.291,0.083-0.571,0.18-0.793,0.405    c-0.086,0.087-0.166,0.181-0.249,0.272c-0.275,0.3-0.512,0.621-0.73,0.964c-0.153,0.241-0.306,0.482-0.459,0.723    c-0.076,0.12-0.158,0.239-0.23,0.362c-0.143,0.245-0.228,0.56-0.32,0.834c-0.079,0.252-0.09,0.504-0.034,0.756    c0.012,0.252,0.086,0.487,0.225,0.704c0.099,0.128,0.198,0.256,0.296,0.384c0.236,0.235,0.515,0.397,0.836,0.487    c0.186,0.075,0.452,0.104,0.616,0.104c0.341-0.001,0.658-0.087,0.952-0.258c0.134-0.102,0.266-0.204,0.399-0.308    c0.097-0.125,0.193-0.25,0.29-0.376c0.136-0.213,0.209-0.443,0.22-0.69c0.011-0.039,0.01-0.078,0.016-0.118    c0.004-0.013,0.012-0.027,0.016-0.04c0.033-0.128,0.057-0.258,0.086-0.387c0.064-0.29,0.129-0.58,0.193-0.87    c0.087-0.394,0.152-0.785,0.169-1.188c0.006-0.132,0.018-0.267,0.017-0.399C217.417,136.965,217.287,136.699,217.136,136.429z"/>
		<path style="fill:#F0CB6A;" d="M226.09,144.839c-0.057-0.437-0.115-0.874-0.182-1.309c-0.052-0.34-0.157-0.625-0.289-0.942    c-0.149-0.359-0.301-0.72-0.647-0.888c-0.117-0.179-0.355-0.212-0.501-0.053c-0.17,0.039-0.332,0.107-0.464,0.228    c-0.088,0.081-0.181,0.236-0.259,0.338c-0.014,0.019-0.021,0.028-0.03,0.04c-0.008,0.01-0.013,0.016-0.025,0.032    c-0.167,0.213-0.349,0.415-0.476,0.655c-0.094,0.178-0.181,0.359-0.274,0.537c-0.252,0.484-0.504,0.954-0.679,1.475    c-0.063,0.187-0.127,0.373-0.192,0.559c-0.126,0.359-0.146,0.742-0.191,1.118c0.024-0.179,0.048-0.359,0.072-0.538    c-0.102,0.676-0.179,1.296,0.154,1.934c0.299,0.574,0.956,0.915,1.595,0.915c0.768,0,1.568-0.556,1.928-1.226    c0.308-0.574,0.4-1.179,0.452-1.82C226.111,145.535,226.137,145.197,226.09,144.839z"/>
		<path style="fill:#F0CB6A;" d="M218.816,148.825c-0.024-0.278-0.086-0.47-0.18-0.72c-0.134-0.358-0.361-0.64-0.745-0.746    c-0.397-0.109-0.734,0.028-1.039,0.275c-0.068,0.055-0.135,0.116-0.208,0.165c0.055-0.042,0.109-0.084,0.164-0.126    c-0.128,0.063-0.232,0.15-0.311,0.262c-0.094,0.113-0.183,0.23-0.278,0.343c-0.096,0.114-0.196,0.225-0.292,0.339    c-0.198,0.236-0.341,0.474-0.503,0.729c-0.081,0.127-0.172,0.248-0.249,0.377c-0.156,0.26-0.241,0.578-0.352,0.863    c-0.375,0.959,0.032,2.222,1.09,2.513c0.496,0.137,1.033,0.04,1.448-0.262c0.342-0.249,0.494-0.358,0.727-0.713    c0.041-0.063,0.08-0.128,0.12-0.192c0.245-0.401,0.395-0.827,0.5-1.282c0.101-0.439,0.151-0.871,0.136-1.32    C218.837,149.161,218.831,148.992,218.816,148.825z"/>
		<path style="fill:#F0CB6A;" d="M212.919,156.188c-0.053-0.191-0.151-0.356-0.287-0.499c-0.014-0.038-0.026-0.076-0.039-0.115    c-0.048-0.141-0.077-0.286-0.102-0.432c-0.012-0.123-0.027-0.245-0.059-0.364c-0.015-0.055-0.023-0.112-0.033-0.168    c-0.003-0.035-0.007-0.071-0.009-0.106c-0.014-0.218-0.075-0.416-0.19-0.584c-0.037-0.124-0.133-0.257-0.247-0.317    c-0.133-0.07-0.257-0.074-0.401-0.057c-0.003-0.001-0.006-0.001-0.009-0.001c0.169-0.023,0.078-0.013,0.034-0.008    c-0.016,0.002-0.033,0.005-0.049,0.007c-0.38-0.029-0.725,0.222-0.978,0.492c-0.127,0.135-0.238,0.286-0.349,0.434    c-0.117,0.157-0.178,0.347-0.24,0.531c-0.202,0.6-0.263,1.279-0.04,1.877l0.148,0.35c0.092,0.17,0.217,0.307,0.377,0.41    c0.251,0.194,0.561,0.321,0.886,0.314c0.424-0.008,0.857-0.141,1.15-0.462c0.047-0.052,0.091-0.107,0.136-0.161    c0.196-0.231,0.358-0.513,0.344-0.83C212.947,156.396,212.933,156.292,212.919,156.188z"/>
		<path style="fill:#F0CB6A;" d="M220.151,159.224c-0.088-0.238-0.182-0.481-0.306-0.703c-0.068-0.123-0.149-0.214-0.256-0.297    c-0.001-0.001-0.007-0.006-0.009-0.008c-0.009-0.012-0.019-0.024-0.025-0.034c-0.031-0.046-0.064-0.092-0.097-0.137    c-0.239-0.326-0.707-0.283-0.845,0.11c-0.014,0.041-0.03,0.081-0.045,0.122c-0.102,0.084-0.174,0.211-0.235,0.323    c-0.095,0.173-0.207,0.336-0.325,0.494c-0.066,0.083-0.129,0.168-0.175,0.263c-0.048,0.098-0.095,0.196-0.148,0.291    c-0.179,0.323-0.319,0.661-0.368,1.028c-0.06,0.449,0.061,0.925,0.387,1.255c0.311,0.315,0.841,0.478,1.276,0.337    c0.385-0.125,0.715-0.34,0.933-0.695c0.054-0.087,0.102-0.179,0.147-0.271c0.16-0.325,0.19-0.565,0.231-0.922    c0.011-0.099,0.02-0.199,0.025-0.299C220.328,159.783,220.254,159.5,220.151,159.224z"/>
		<path style="fill:#F0CB6A;" d="M214.49,162.722c-0.054-0.196-0.166-0.382-0.306-0.53c-0.035-0.037-0.076-0.067-0.108-0.107    l0.14,0.182c-0.067-0.09-0.135-0.179-0.205-0.265c-0.052-0.04-0.104-0.08-0.156-0.12c-0.088-0.056-0.184-0.087-0.286-0.091    c-0.157-0.021-0.357-0.006-0.491,0.091c-0.03,0.022-0.063,0.041-0.095,0.06c-0.111,0.046-0.216,0.099-0.316,0.177    c-0.127,0.099-0.216,0.208-0.309,0.34c-0.002,0.003-0.005,0.006-0.007,0.01c-0.062,0.074-0.123,0.148-0.19,0.217    c-0.214,0.222-0.318,0.448-0.418,0.731c-0.002,0.005-0.004,0.009-0.005,0.014c-0.013,0.028-0.025,0.055-0.039,0.083    c-0.095,0.149-0.146,0.31-0.154,0.483c-0.01,0.067-0.019,0.134-0.027,0.201c-0.008,0.136,0.011,0.276,0.049,0.406    c0.154,0.531,0.628,0.867,1.169,0.89c0.479,0.021,0.895-0.26,1.193-0.608c0.12-0.14,0.244-0.287,0.344-0.439    c0.175-0.266,0.204-0.543,0.239-0.854c0.017-0.153,0.025-0.307,0.021-0.461C214.532,162.996,214.525,162.848,214.49,162.722z"/>
		<g>
			<path style="fill:#CE6337;" d="M244.847,390.134c-0.957-1.679-3.2-0.767-3.371,0.913c-0.716,7.001-1.964,13.97-3.695,20.792     c-0.869,3.424-1.907,6.793-2.979,10.158c-0.287,0.9-0.605,1.79-0.911,2.684c6.547,0.343,14.334-0.108,23.955-1.398     C255.145,411.682,250.751,400.492,244.847,390.134z"/>
			<path style="fill:#CE6337;" d="M286.184,416.438c-0.853-2.223-1.857-4.389-3.042-6.454c-2.303-4.013-5.251-7.673-8.678-10.78     c-1.105-1.002-3.215-0.716-3.552,0.938c-0.768,3.761-0.691,7.548-0.5,11.361c0.163,3.24,0.428,6.595-0.087,9.824     c1.343-0.236,2.712-0.483,4.115-0.744c4.119-0.766,8.146-1.866,12.056-3.261C286.394,417.026,286.296,416.73,286.184,416.438z"/>
		</g>
		<g>
			<path style="fill:#CE6337;" d="M320.761,313.564c-1.52,1.474-0.377,4.203,1.732,4.181c5.357-0.057,10.725-1.052,15.706-3.037     c0.312-0.124,0.619-0.26,0.929-0.39c-1.867-6.627-3.181-12.862-4.102-18.9C331.116,302.071,326.302,308.189,320.761,313.564z"/>
			<path style="fill:#CE6337;" d="M332.931,258.853c-3.388,3.953-6.718,7.945-10.418,11.636c-4.956,4.943-10.293,9.5-15.932,13.646     c-3.195,2.349-6.504,4.536-9.856,6.653c-1.495,0.945-1.54,3.901,0.55,4.205c12.546,1.825,25.291,0.658,37.22-3.356     C333.085,280.602,332.901,270.09,332.931,258.853z"/>
		</g>
		<g>
			<path style="fill:#CE6337;" d="M248.368,337.554c-1.531-3.324-3.478-6.46-6.092-9.044c-0.662-0.654-2.107-0.449-2.269,0.599     c-0.6,3.865-1.386,7.685-2.254,11.497c-0.63,2.763-1.012,6.866-3.41,8.777c-0.551,0.439,0.008,1.152,0.568,1.131     c0.096,0.873,1.018,1.655,1.96,1.905c1.626,0.433,3.405-0.156,4.999-0.461c2.219-0.425,4.439-0.844,6.658-1.274     c1.722-0.333,3.336-1.086,3.393-3.087c0.047-1.675-0.892-3.448-1.468-4.984C249.811,340.907,249.131,339.211,248.368,337.554z"/>
			<path style="fill:#CE6337;" d="M243.391,315.687c0.82,1.245,1.585,2.526,2.294,3.838c1.449,2.683,2.639,5.484,3.582,8.383     c0.378,1.16,2.046,1.208,2.404,0c1.909-6.434,1.682-13.406-0.568-19.725c-0.25-0.703-0.848-1.018-1.576-0.895     c-1.492,0.252-2.919,0.727-4.273,1.404c-0.989,0.494-2.642,1.305-3.2,2.396c-0.445-0.193-1.008,0.233-0.847,0.73     C241.674,313.254,242.566,314.434,243.391,315.687z"/>
		</g>
		<path style="fill:#A6532E;" d="M279.402,334.192c-2.297,1.072-4.264,2.557-6.362,3.962c-1.985,1.33-4.042,2.554-6.156,3.668    c-4.384,2.309-9.014,4.113-13.796,5.407c-9.263,2.507-19.565,3.347-28.975,1.128c-4.475-1.055-8.92-2.963-12.163-6.316    c-2.862-2.96-4.692-7.084-4.613-11.231c0.176-9.18,9.797-12.18,17.193-13.893c5.551-1.286,10.973-2.639,16.288-4.733    c2.796-1.102,5.548-2.32,8.236-3.663c1.291-0.645,2.563-1.32,3.809-2.048c1.322-0.772,2.413-1.743,3.622-2.68    c0.452-0.35-0.041-1.204-0.571-0.981c-1.208,0.508-2.47,0.849-3.644,1.421c-1.362,0.664-2.738,1.305-4.118,1.93    c-2.65,1.201-5.357,2.273-8.105,3.225c-5.098,1.765-10.331,3.027-15.587,4.213c-8.319,1.876-18.607,5.102-20.186,14.872    c-0.739,4.575,0.522,9.329,3.109,13.144c2.807,4.138,7.02,6.929,11.647,8.68c4.848,1.834,10.126,2.473,15.282,2.592    c5.178,0.12,10.375-0.376,15.45-1.406c5.817-1.18,11.474-3.121,16.816-5.705c2.604-1.26,5.13-2.683,7.554-4.262    c2.551-1.662,4.933-3.383,6.682-5.911C281.458,334.673,280.245,333.799,279.402,334.192z"/>
		<path style="fill:#F0CB6A;" d="M206.129,393.043c-0.028-0.276-0.031-0.582-0.105-0.832c-0.037-0.126-0.085-0.249-0.124-0.375    c-0.082-0.262-0.172-0.525-0.331-0.752c-0.064-0.092-0.124-0.186-0.178-0.284c-0.142-0.241-0.334-0.432-0.574-0.575    c-0.184-0.117-0.382-0.18-0.595-0.19c-0.213-0.048-0.426-0.038-0.639,0.029c-0.271,0.076-0.507,0.213-0.706,0.412    c-0.131,0.161-0.26,0.322-0.387,0.487c-0.081,0.105-0.134,0.168-0.193,0.267c-0.106,0.178-0.164,0.349-0.217,0.536    c-0.024,0.085-0.047,0.171-0.067,0.257c-0.08,0.334-0.128,0.66-0.088,0.997c0.031,0.262,0.066,0.523,0.105,0.783    c0.006,0.041,0.011,0.084,0.02,0.125c0.071,0.167,0.141,0.334,0.212,0.501c0.098,0.17,0.218,0.321,0.358,0.453    c0.258,0.257,0.563,0.434,0.913,0.532c0.275,0.086,0.55,0.099,0.825,0.037c0.275-0.012,0.532-0.095,0.769-0.246    c0.311-0.184,0.559-0.431,0.742-0.742c0.076-0.154,0.183-0.37,0.229-0.536c0.025-0.186,0.05-0.372,0.075-0.558    C206.162,393.26,206.144,393.152,206.129,393.043z"/>
		<path style="fill:#F0CB6A;" d="M213.646,393.518c-0.06-0.213-0.156-0.392-0.267-0.558c-0.019-0.047-0.05-0.105-0.074-0.156    c-0.061-0.227-0.099-0.46-0.148-0.691c-0.073-0.347-0.206-0.687-0.314-1.026c-0.262-0.819-0.635-1.527-1.104-2.24    c-0.313-0.476-0.818-0.745-1.393-0.667c-0.59,0.079-0.949,0.468-1.162,1.001c-0.114,0.285-0.239,0.568-0.327,0.862    c-0.137,0.454-0.212,0.889-0.264,1.365c-0.071,0.643-0.154,1.272-0.125,1.92c0.017,0.389,0.057,0.802,0.186,1.172    c0.226,0.644,0.589,1.242,1.222,1.567c0.374,0.192,0.656,0.276,1.054,0.329c0.972,0.131,1.986-0.261,2.489-1.147    C213.708,394.739,213.805,394.087,213.646,393.518z"/>
		<path style="fill:#F0CB6A;" d="M218.643,394.543c-0.046-0.209-0.084-0.42-0.137-0.627c-0.026-0.104-0.068-0.203-0.105-0.303    c-0.046-0.125-0.096-0.292-0.159-0.391c-0.12-0.185-0.262-0.314-0.447-0.438c-0.313-0.21-0.823-0.21-1.136,0    c-0.178,0.12-0.336,0.248-0.447,0.438c-0.064,0.11-0.112,0.263-0.159,0.391c-0.033,0.091-0.073,0.182-0.099,0.275    c-0.06,0.214-0.096,0.438-0.143,0.655c-0.073,0.335-0.079,0.656-0.079,0.994c0,0.447-0.033,0.922,0.234,1.311    c0.296,0.434,0.718,0.723,1.261,0.723c0.543,0,0.964-0.29,1.261-0.723c0.259-0.379,0.234-0.844,0.234-1.281    C218.721,395.217,218.719,394.893,218.643,394.543z"/>
		<path style="fill:#F0CB6A;" d="M104.851,381.417c0-0.131-0.033-0.252-0.099-0.365c-0.058-0.179-0.158-0.335-0.299-0.466    c-0.044-0.049-0.095-0.09-0.155-0.122c-0.141-0.129-0.306-0.216-0.496-0.261c-0.037-0.01-0.061-0.015-0.089-0.022    c-0.007-0.008-0.016-0.015-0.023-0.023c-0.047-0.066-0.097-0.132-0.154-0.189c-0.04-0.04-0.08-0.079-0.117-0.121    c-0.286-0.325-0.799-0.43-1.203-0.318c-0.209,0.059-0.391,0.165-0.546,0.318c-0.153,0.154-0.259,0.336-0.318,0.546    c-0.064,0.173-0.11,0.356-0.107,0.543c0.003,0.185,0.036,0.374,0.068,0.555c0.013,0.075,0.034,0.147,0.062,0.218    c0.049,0.124,0.1,0.259,0.16,0.379c0.004,0.01,0.009,0.019,0.016,0.028c0.077,0.1,0.154,0.199,0.231,0.299    c0.024,0.026,0.049,0.05,0.076,0.073c0.125,0.105,0.269,0.236,0.425,0.311c0.132,0.063,0.273,0.122,0.41,0.173    c0.028,0.01,0.056,0.019,0.085,0.026c0.176,0.042,0.359,0.066,0.541,0.073c0.027,0.001,0.053,0.001,0.08,0    c0.07-0.004,0.14-0.013,0.21-0.027c0.194-0.009,0.375-0.066,0.542-0.173c0.098-0.076,0.197-0.152,0.295-0.228    c0.082-0.098,0.159-0.199,0.233-0.303c0.049-0.115,0.097-0.23,0.146-0.345C104.886,381.801,104.895,381.609,104.851,381.417z"/>
		<path style="fill:#F0CB6A;" d="M107.933,379.53c-0.002-0.005-0.007-0.009-0.009-0.014c-0.036-0.147-0.061-0.297-0.089-0.445    c-0.05-0.268-0.139-0.53-0.214-0.792c-0.1-0.352-0.196-0.692-0.358-1.024c-0.115-0.235-0.228-0.47-0.341-0.705    c-0.114-0.235-0.361-0.409-0.591-0.506c-0.245-0.104-0.544-0.147-0.805-0.062c-0.531,0.172-0.889,0.628-0.907,1.191    c-0.005,0.163-0.01,0.326-0.016,0.49c-0.009,0.281-0.003,0.521,0.038,0.807c0.045,0.309,0.089,0.617,0.133,0.926    c0.043,0.301,0.099,0.594,0.182,0.887c0.061,0.215,0.149,0.438,0.262,0.63c0.235,0.401,0.582,0.668,1.024,0.814    c0.235,0.078,0.559,0.065,0.795,0c0.315-0.087,0.58-0.281,0.777-0.536c0.166-0.215,0.258-0.439,0.294-0.707    C108.159,380.126,108.079,379.859,107.933,379.53z"/>
		<path style="fill:#F0CB6A;" d="M430.45,245.899c-0.115-0.413-0.358-0.738-0.763-0.909c-0.151-0.064-0.303-0.124-0.455-0.184    c-0.206-0.081-0.42-0.195-0.634-0.246c-0.218-0.052-0.454-0.063-0.677-0.093c-0.108-0.015-0.217-0.029-0.325-0.044    c-0.233-0.032-0.37-0.039-0.602,0.007c-0.058,0.012-0.115,0.025-0.172,0.038c-0.272,0.06-0.482,0.277-0.586,0.524    c-0.102,0.242-0.122,0.58,0.046,0.805c0.123,0.165,0.235,0.337,0.399,0.464c0.121,0.093,0.248,0.176,0.375,0.26    c0.186,0.123,0.369,0.255,0.56,0.37c0.261,0.157,0.603,0.24,0.892,0.343c0.102,0.036,0.204,0.076,0.307,0.109    c0.373,0.119,0.788,0.053,1.114-0.16C430.351,246.906,430.59,246.402,430.45,245.899z"/>
		<path style="fill:#F0CB6A;" d="M431.434,250.361c-0.022-0.163-0.097-0.306-0.194-0.432c-0.001-0.003-0.003-0.005-0.004-0.007    c-0.007-0.012-0.018-0.021-0.025-0.033c-0.013-0.015-0.021-0.032-0.034-0.046c-0.213-0.324-0.608-0.513-0.986-0.52    c-0.11-0.002-0.221-0.022-0.33-0.011c-0.108,0.011-0.217,0.017-0.326,0.013c-0.197-0.006-0.343-0.016-0.552,0.037    c-0.273,0.069-0.544,0.171-0.701,0.427l-0.026,0.042c-0.178,0.292-0.161,0.657,0,0.95c0.082,0.149,0.182,0.305,0.304,0.42    c0.137,0.129,0.296,0.221,0.466,0.295c0.175,0.077,0.355,0.16,0.541,0.212c0.209,0.058,0.411,0.059,0.622,0.036    c0.107-0.015,0.214-0.029,0.322-0.043c0.157-0.038,0.295-0.11,0.412-0.217c0.194-0.15,0.341-0.352,0.415-0.589    c0.005-0.011,0.014-0.018,0.018-0.029C431.43,250.697,431.46,250.555,431.434,250.361z"/>
		<path style="fill:#F0CB6A;" d="M437.09,251.74c-0.016-0.119-0.091-0.278-0.158-0.377c-0.024-0.035-0.05-0.07-0.075-0.105    c-0.046-0.064-0.092-0.128-0.137-0.193c-0.101-0.142-0.196-0.296-0.319-0.418c-0.061-0.061-0.128-0.117-0.192-0.174    c-0.299-0.268-0.662-0.471-0.998-0.688c-0.172-0.111-0.415-0.149-0.639-0.117c-0.034-0.003-0.07-0.012-0.103-0.011    c-0.018-0.012-0.035-0.024-0.053-0.036c-0.134-0.092-0.334-0.061-0.454,0.032c-0.117,0.09-0.207,0.281-0.147,0.43    c0.01,0.026,0.021,0.051,0.031,0.077c-0.01,0.036-0.013,0.075-0.017,0.114c-0.075,0.198-0.098,0.422-0.032,0.599    c0.056,0.15,0.112,0.3,0.167,0.449c0.087,0.232,0.163,0.475,0.286,0.691c0.13,0.229,0.284,0.434,0.461,0.63    c0.058,0.064,0.116,0.128,0.174,0.192c0.024,0.027,0.048,0.054,0.072,0.08c0.182,0.192,0.363,0.264,0.606,0.354    c0.406,0.15,0.916-0.027,1.209-0.32c0.154-0.155,0.261-0.338,0.319-0.548C437.149,252.18,437.149,251.96,437.09,251.74z"/>
		<path style="fill:#F0CB6A;" d="M436.776,256.219c-0.01-0.103-0.024-0.237-0.046-0.338c-0.003-0.017-0.008-0.033-0.013-0.049    c-0.031-0.093-0.083-0.208-0.125-0.297c-0.004-0.009-0.008-0.018-0.013-0.027c-0.064-0.118-0.154-0.225-0.247-0.321    c-0.017-0.018-0.036-0.034-0.055-0.05c-0.083-0.069-0.17-0.139-0.26-0.199c-0.018-0.012-0.037-0.023-0.056-0.033    c-0.119-0.075-0.247-0.116-0.384-0.123c-0.137-0.031-0.275-0.025-0.412,0.018c-0.033,0.014-0.067,0.028-0.1,0.042    c-0.053,0.007-0.106,0.008-0.157,0.017c-0.104,0.018-0.207,0.051-0.298,0.104c-0.055,0.008-0.11,0.014-0.16,0.043    c-0.074,0.043-0.127,0.109-0.16,0.187c-0.06,0.141-0.033,0.318,0.081,0.428c0.007,0.006,0.013,0.013,0.02,0.02    c0.009,0.023,0.013,0.047,0.024,0.07c-0.049,0.087-0.089,0.179-0.117,0.278c-0.037,0.133-0.044,0.193-0.046,0.253    c-0.012,0.029-0.024,0.058-0.036,0.086c-0.02,0.065-0.029,0.131-0.026,0.198c0.002,0.07,0.013,0.156,0.03,0.224    c0.002,0.009,0.005,0.017,0.007,0.026c0.014,0.045,0.062,0.156,0.084,0.198c0.002,0.004,0.004,0.009,0.007,0.013    c0.009,0.016,0.023,0.029,0.034,0.044c0.007,0.015,0.013,0.03,0.019,0.046c0.016,0.026,0.045,0.038,0.063,0.063    c0.009,0.011,0.017,0.024,0.026,0.035c0.008,0.009,0.016,0.019,0.024,0.027c-0.012-0.016-0.025-0.033-0.038-0.049    c0.09,0.124,0.186,0.241,0.32,0.32c0.172,0.1,0.358,0.15,0.557,0.151c0.128,0.008,0.304-0.029,0.403-0.044    c0.032-0.005,0.064-0.011,0.095-0.022c0.008-0.003,0.016-0.007,0.024-0.01l0.3-0.127c0.05-0.027,0.096-0.062,0.137-0.104    c0.138-0.089,0.246-0.207,0.325-0.354c0.042-0.101,0.085-0.201,0.127-0.302c0.002-0.006,0.041-0.242,0.046-0.356    c0.001-0.017,0.001-0.034,0-0.052C436.779,256.241,436.778,256.23,436.776,256.219z"/>
		<path style="fill:#F0CB6A;" d="M109.309,294.797c-0.168-0.093-0.352-0.167-0.532-0.231c-0.191-0.068-0.416-0.07-0.621-0.078    c-0.315-0.012-0.628,0.014-0.934,0.097c-0.514,0.141-1.02,0.357-1.476,0.632c-0.48,0.289-0.675,0.886-0.459,1.4    c0.091,0.215,0.246,0.424,0.459,0.536c0.254,0.134,0.584,0.216,0.864,0.113c0.287-0.106,0.584-0.178,0.885-0.228    c0.081-0.007,0.162-0.014,0.243-0.021c0.173-0.013,0.343-0.045,0.513-0.075c0.164-0.014,0.333-0.023,0.483-0.066    c0.106-0.03,0.213-0.066,0.317-0.103c0.414-0.147,0.714-0.45,0.775-0.899C109.882,295.459,109.689,295.007,109.309,294.797z"/>
		<path style="fill:#F0CB6A;" d="M112.955,298.041c-0.013-0.08-0.035-0.159-0.064-0.235c-0.108-0.282-0.239-0.534-0.46-0.747    c-0.17-0.164-0.411-0.232-0.64-0.169c-0.201,0.055-0.426,0.241-0.46,0.46c-0.008,0.052-0.027,0.101-0.043,0.151    c-0.011,0.02-0.022,0.039-0.034,0.058c-0.037,0.038-0.07,0.08-0.111,0.114c-0.11,0.091-0.185,0.21-0.263,0.328    c-0.021,0.022-0.039,0.046-0.061,0.067c-0.081,0.078-0.146,0.167-0.214,0.255c-0.007,0.005-0.014,0.011-0.021,0.016    c0.033-0.043,0.066-0.086,0.1-0.129c-0.069,0.087-0.147,0.165-0.234,0.234c-0.153,0.135-0.279,0.301-0.326,0.505    c-0.013,0.093-0.025,0.186-0.038,0.279c-0.006,0.145,0.025,0.28,0.091,0.405c0.085,0.202,0.231,0.398,0.43,0.503    c0.084,0.035,0.167,0.071,0.251,0.106c0.186,0.05,0.373,0.05,0.559,0c0.092-0.017,0.18-0.044,0.267-0.078    c0.255-0.101,0.505-0.198,0.699-0.402c0.128-0.134,0.242-0.286,0.342-0.443c0.091-0.142,0.194-0.341,0.233-0.494    C113.031,298.541,113.003,298.328,112.955,298.041z"/>
		<path style="fill:#F0CB6A;" d="M115.668,295.214c-0.102-0.138-0.161-0.217-0.286-0.315c-0.067-0.066-0.146-0.112-0.236-0.138    c-0.128-0.067-0.265-0.098-0.413-0.092c-0.052-0.007-0.104-0.013-0.155-0.02c-0.193-0.025-0.387,0.025-0.573,0.075    c-0.096,0.026-0.193,0.052-0.289,0.078c-0.053,0.014-0.108,0.027-0.161,0.043c-0.153,0.048-0.291,0.13-0.409,0.239    c-0.069,0.063-0.119,0.14-0.16,0.221c-0.127,0.115-0.22,0.247-0.22,0.434c0,0.2,0.103,0.341,0.246,0.46    c0.02,0.034,0.037,0.069,0.062,0.102c0.124,0.161,0.283,0.273,0.482,0.332c0.048,0.014,0.096,0.026,0.145,0.039    c0.102,0.027,0.204,0.054,0.305,0.082c0.18,0.048,0.37,0.101,0.556,0.078c0.058-0.007,0.115-0.015,0.173-0.022    c0.095-0.013,0.19-0.026,0.285-0.038c0.085-0.036,0.17-0.072,0.256-0.108c0.178-0.094,0.28-0.244,0.395-0.398    c0.094-0.163,0.142-0.338,0.142-0.526C115.81,295.552,115.762,295.377,115.668,295.214z"/>
		<path style="fill:#F0CB6A;" d="M137.276,225.947c-0.104-0.176-0.195-0.36-0.274-0.548c0.044,0.104,0.088,0.208,0.132,0.312    c-0.091-0.22-0.186-0.433-0.298-0.643c-0.053-0.101-0.1-0.205-0.146-0.309c-0.066-0.165-0.132-0.331-0.203-0.495    c0.04,0.095,0.08,0.19,0.12,0.285c-0.056-0.134-0.106-0.27-0.15-0.408c-0.167-0.526-0.657-0.864-1.21-0.79    c-0.232,0.031-0.471,0.126-0.633,0.303c-0.057,0.074-0.115,0.149-0.172,0.223c-0.1,0.172-0.15,0.358-0.151,0.557    c-0.053,0.489-0.002,0.97,0.124,1.444c0.077,0.288,0.175,0.587,0.333,0.839c0.154,0.246,0.333,0.477,0.516,0.702    c0.289,0.357,0.711,0.536,1.17,0.502c0.196-0.015,0.401-0.025,0.572-0.136c0.215-0.138,0.354-0.335,0.411-0.584    c0.012-0.053,0.028-0.105,0.042-0.158C137.562,226.645,137.478,226.29,137.276,225.947z"/>
		<path style="fill:#F0CB6A;" d="M141.549,227.801c-0.063-0.28-0.219-0.557-0.39-0.788c-0.148-0.2-0.278-0.37-0.51-0.475    c-0.236-0.106-0.429-0.174-0.671-0.134c-0.051-0.014-0.101-0.03-0.153-0.04c-0.205-0.04-0.459,0.138-0.372,0.372    c0.012,0.033,0.02,0.068,0.03,0.101c-0.03,0.089-0.05,0.18-0.059,0.283c0,0.004-0.001,0.007-0.001,0.01    c-0.016,0.084-0.032,0.168-0.029,0.252c0.002,0.046,0.013,0.093,0.02,0.139c0.019,0.158,0.013,0.312,0.015,0.471    c0.002,0.171,0.007,0.337-0.015,0.508c0.013-0.099,0.026-0.198,0.04-0.296c-0.037,0.254-0.069,0.436-0.005,0.686    c0.015,0.056,0.033,0.11,0.046,0.167c0.011,0.049,0.017,0.099,0.028,0.148c0.016,0.076,0.049,0.148,0.083,0.219    c0.002,0.005,0.004,0.01,0.006,0.015c0.001,0.004,0.004,0.006,0.005,0.01c0.014,0.029,0.028,0.058,0.04,0.087    c-0.009-0.022-0.019-0.045-0.028-0.067c0.185,0.475,0.668,0.664,1.131,0.438c0.142-0.069,0.282-0.157,0.39-0.272    c0.117-0.125,0.223-0.283,0.308-0.434c0.142-0.252,0.204-0.528,0.177-0.814C141.617,228.191,141.593,227.993,141.549,227.801z"/>
		<path style="fill:#F0CB6A;" d="M141.029,234.038c-0.055-0.166-0.104-0.347-0.191-0.497c-0.094-0.162-0.23-0.309-0.344-0.458    c-0.056-0.073-0.111-0.146-0.167-0.219c-0.095-0.124-0.187-0.272-0.294-0.38c-0.113-0.114-0.228-0.178-0.363-0.249    c-0.059-0.031-0.116-0.058-0.178-0.084c-0.167-0.071-0.321-0.06-0.485-0.039c-0.069-0.022-0.144-0.026-0.204,0.009    c-0.056,0.033-0.087,0.083-0.104,0.14c-0.117,0.115-0.223,0.236-0.268,0.4c-0.009,0.033-0.012,0.068-0.018,0.102    c-0.006,0.034-0.012,0.068-0.018,0.102c-0.034,0.199-0.047,0.346-0.006,0.552c0.035,0.176,0.088,0.349,0.133,0.522    c0.045,0.173,0.081,0.352,0.14,0.52c0.059,0.167,0.137,0.31,0.233,0.455c0.143,0.216,0.285,0.448,0.533,0.558    c0.174,0.101,0.361,0.151,0.562,0.152c0.153,0.006,0.296-0.026,0.429-0.096c0.311-0.131,0.559-0.386,0.644-0.721    C141.131,234.541,141.114,234.292,141.029,234.038z"/>
		<path style="fill:#F0CB6A;" d="M326.95,226.114c-0.038-0.214-0.127-0.419-0.25-0.598c-0.115-0.165-0.241-0.342-0.399-0.472    c-0.079-0.062-0.159-0.123-0.238-0.184c-0.135-0.086-0.281-0.133-0.438-0.14c-0.251-0.034-0.532-0.002-0.752,0.14    c-0.17,0.11-0.313,0.252-0.423,0.423c-0.144,0.223-0.222,0.655-0.119,0.908c0.03,0.074,0.047,0.152,0.061,0.231    c0.005,0.05,0.012,0.099,0.017,0.149c-0.001,0.003-0.002,0.005-0.002,0.008c-0.007-0.055-0.015-0.11-0.022-0.165    c0.011,0.083,0.002,0.166,0,0.249c-0.017,0.072-0.031,0.144-0.057,0.214c-0.053,0.122-0.1,0.243-0.14,0.37    c-0.024,0.076-0.022,0.158-0.034,0.238c-0.185,0.155-0.276,0.424-0.246,0.649c0.018,0.131,0.063,0.24,0.143,0.345    c0.105,0.136,0.22,0.195,0.379,0.261c0.1,0.042,0.203,0.062,0.308,0.077c0.417,0.142,0.912,0.171,1.283-0.072    c0.257-0.169,0.534-0.387,0.67-0.67c0.094-0.195,0.186-0.405,0.235-0.618C327.034,226.991,327.032,226.581,326.95,226.114z"/>
		<path style="fill:#F0CB6A;" d="M323.196,232.45c-0.003-0.037-0.008-0.066-0.019-0.149c-0.023-0.168-0.015-0.157-0.052-0.243    c-0.009-0.023-0.013-0.047-0.02-0.071c0.019-0.347-0.212-0.698-0.502-0.868c-0.298-0.175-0.73-0.2-1.026,0    c-0.262,0.176-0.467,0.376-0.63,0.65c-0.068,0.114-0.126,0.244-0.159,0.368c-0.073,0.273-0.038,0.447,0.009,0.723    c0.028,0.166,0.114,0.329,0.179,0.478c0.076,0.141,0.18,0.254,0.312,0.34c0.117,0.107,0.254,0.179,0.411,0.217l0.322,0.043    c0.167,0.006,0.322-0.029,0.466-0.104c0.103-0.029,0.192-0.081,0.267-0.156c0.132-0.085,0.236-0.199,0.312-0.34    C323.211,233.066,323.272,232.753,323.196,232.45z"/>
		<path style="fill:#F0CB6A;" d="M327.507,233.726c-0.114-0.264-0.253-0.514-0.471-0.711c-0.162-0.147-0.368-0.105-0.495,0.057    c0.009-0.011,0.015-0.02,0.005-0.008c-0.008,0.009-0.016,0.019-0.023,0.028c-0.021,0.024-0.043,0.047-0.065,0.07    c-0.02,0.02-0.042,0.036-0.063,0.054c-0.026,0.018-0.054,0.033-0.081,0.049c-0.137,0.051-0.263,0.129-0.38,0.224    c-0.009,0.007-0.019,0.014-0.029,0.021c-0.171,0.122-0.325,0.252-0.427,0.438c-0.013,0.023-0.025,0.047-0.038,0.07    c-0.026,0.046-0.057,0.089-0.084,0.134c-0.08,0.137-0.122,0.285-0.142,0.439c-0.023,0.17,0.002,0.339,0.055,0.501    c0.005,0.034,0.009,0.069,0.014,0.104c0.024,0.101,0.07,0.189,0.139,0.264c0.089,0.115,0.224,0.223,0.37,0.263    c0.115,0.065,0.238,0.105,0.369,0.111c0.099,0.026,0.198,0.026,0.296,0c0.148-0.007,0.287-0.051,0.415-0.132    c0.309-0.171,0.681-0.592,0.739-0.924c0.026-0.149,0.047-0.302,0.058-0.454C327.682,234.113,327.612,233.91,327.507,233.726z"/>
		<path style="fill:#CE6337;" d="M210.736,202.499c-1.167-0.797-2.68-0.706-3.731,0.267c-1.064,0.986-1.279,2.423-1.534,3.773    c-1.164,6.163-2.672,12.26-3.857,18.421c-0.301,1.565-0.586,3.146-0.883,4.729c-0.162,0.576-0.328,1.152-0.492,1.732    c-0.392,1.389-0.505,2.85-0.801,4.263c-0.145,0.692-0.306,1.383-0.481,2.072c-0.036,0.132-0.073,0.263-0.109,0.394    c-0.113,0.43-0.234,0.857-0.361,1.284c-0.462,1.528-0.991,3.032-1.618,4.498c-0.235,0.549-0.33,1.133-0.275,1.685    c-0.691,0.342-0.462,1.527,0.265,1.763c1.756,0.571,3.609,0.767,5.392,1.284c1.002,0.29,1.834-0.36,2.19-1.244    c1.156-2.865,1.521-6.175,2.084-9.208c0.575-3.101,1.139-6.205,1.692-9.31c1.106-6.211,2.163-12.43,3.187-18.654    C211.78,207.966,213.134,204.138,210.736,202.499z"/>
		<path style="fill:#FFFFFF;" d="M172.043,259.392c-0.996,5.766,15.505,11.9,19.204,5.843c3.699-6.057,16.415-64.691,16.415-64.691    l-6.646-6.138l-10.694,4.312C190.323,198.718,173.632,250.191,172.043,259.392z"/>
		<path style="fill:#31161A;" d="M226.205,194.487c-0.392-0.623-1.087-0.98-1.826-0.806c-1.83,0.432-2.563,1.929-3.518,3.065    c-0.871,1.036-1.716,1.696-2.797,2.331c-2.195,1.29-4.501,1.704-6.988,1.315c-2.401-0.376-4.728-2.16-6.162-4.174    c-0.723-1.016-1.285-2.172-1.622-3.371c-0.076-0.268-0.127-0.544-0.171-0.822c0.449-1.34,0.6-2.824-0.469-3.873    c-0.428-0.419-1.237-0.659-1.781-0.283c-1.288,0.893-1.401,2.247-2.002,3.574c-0.472,1.041-1.188,1.962-2.022,2.736    c-1.804,1.674-4.164,2.718-6.65,2.549c-2.467-0.168-4.646-1.57-6.255-3.378c-0.832-0.934-1.508-2.025-1.963-3.193    c-0.477-1.225-0.441-2.72-1.045-3.862c-0.39-0.737-1.577-0.826-1.996-0.058c-0.76,1.392-0.34,3.401,0.102,4.846    c0.501,1.64,1.291,3.13,2.317,4.499c2.042,2.723,5.203,4.561,8.577,4.979c3.425,0.423,7.004-0.865,9.57-3.124    c0.398-0.351,0.768-0.736,1.122-1.137c0.284,0.79,0.633,1.557,1.039,2.278c1.802,3.201,4.762,5.575,8.273,6.664    c3.496,1.085,7.554,0.288,10.707-1.438C223.448,202.269,228.446,198.048,226.205,194.487z"/>
		<path style="fill:#B73B34;" d="M196.191,265.315c-0.078-0.914-0.748-1.526-1.6-1.563c-1.071-0.247-2.09,0.556-3.042,1.025    c-1.135,0.559-2.39,0.617-3.633,0.652c-2.756,0.078-5.601,0.2-8.285-0.536c-2.069-0.567-4.049-1.409-5.795-2.667    c-1.898-1.368-3.217-3.174-4.511-5.086c-0.642-0.949-2.117-0.368-1.858,0.783c1.18,5.243,6.213,9.972,11.289,11.394    c3.256,0.912,6.88,0.969,10.24,0.831c1.696-0.069,3.508-0.313,5.011-1.165C195.371,268.211,196.617,266.787,196.191,265.315z"/>
		<path style="fill:#D88579;" d="M145.497,249.357c-1.599-2.928-5.876-3.161-8.872-3.048c-3.447,0.131-7.063,1.021-9.767,3.195    c-0.074,0.06-0.133,0.128-0.197,0.194c-1.098,0.788-1.993,1.691-2.511,2.652c-1.454,2.695,0.413,5.46,3.284,5.722    c5.97,0.546,14.307,0.763,18.063-4.964C146.232,251.989,146.114,250.486,145.497,249.357z"/>
		<path style="fill:#D88579;" d="M158.163,248.976c-1.725-3.919-8.971-1.629-7.049,2.619c0.863,1.907,3.599,2.107,5.283,1.396    C157.908,252.354,158.84,250.512,158.163,248.976z"/>
		<path style="fill:#D88579;" d="M229.661,263.574c-1.755-0.657-4.032-1.455-5.75-0.374c-0.567,0.357-1.065,1.038-1.002,1.747    c0.192,2.158,1.982,3.436,3.682,4.559c1.888,1.247,5.041,2.081,6.441-0.313C234.538,266.617,231.83,264.386,229.661,263.574z"/>
		<path style="fill:#31171A;" d="M159.102,316.108c0.301,0.094-0.327-0.187-0.389-0.22c-0.241-0.127-0.489-0.246-0.728-0.377    c-0.479-0.263-0.928-0.584-1.392-0.874c-0.893-0.56-1.798-1.103-2.698-1.652c-1.854-1.133-3.756-2.157-5.75-3.02    c-1.481-0.641-2.719,1.302-1.293,2.212c1.787,1.141,3.564,2.311,5.266,3.577c0.577,0.429,1.121,0.891,1.658,1.365    c-1.31,0.52-2.596,1.116-3.804,1.842c-1.306,0.785-2.536,1.74-3.676,2.749c-1.318,1.165-2.71,2.923-2.258,4.805    c0.216,0.902,1.051,1.375,1.906,1.451c1.592,0.142,3.077-1.315,4.172-2.265c0.199-0.173,0.403-0.339,0.607-0.505    c-0.012,0.017,0.479-0.365,0.547-0.413c0.527-0.376,1.071-0.727,1.622-1.067c0.551-0.34,1.113-0.661,1.69-0.956    c0.288-0.147,0.579-0.289,0.873-0.424c0.114-0.053,0.23-0.103,0.345-0.154c0.034-0.014,0.064-0.026,0.115-0.047    c1.406-0.53,3.21-0.761,4.29-1.851C161.56,318.913,160.885,316.665,159.102,316.108z"/>
		<path style="fill:#31171A;" d="M188.376,323.36c-1.528-1.138-3.21-2.084-4.971-2.844c2.655-1.782,5.462-3.312,8.138-5.093    c0.804-0.535,0.611-2.159-0.548-2.022c-4.871,0.575-9.401,3.121-13.337,5.946c-1.543,1.107-1.353,3.388,0.525,4.014    c1.387,0.462,2.483,0.879,3.714,1.499c0.627,0.316,1.241,0.657,1.838,1.026c0.297,0.184,0.59,0.375,0.879,0.572    c0.144,0.098,0.286,0.199,0.428,0.301c0.026,0.019,0.229,0.172,0.282,0.21c0.524,0.417,1.009,0.887,1.467,1.375    c0.234,0.249,0.456,0.509,0.679,0.768c0.038,0.044,0.096,0.116,0.127,0.154c0.084,0.112,0.167,0.226,0.247,0.34    c0.412,0.589,0.781,1.208,1.098,1.853c0.071,0.144,0.139,0.29,0.205,0.437c0.006,0.02,0.014,0.043,0.028,0.085    c0.174,0.501,0.353,1.034,0.647,1.473c0.671,1.003,1.845,1.572,3.049,1.241c1.056-0.29,2.11-1.443,1.982-2.604    C194.453,328.444,191.156,325.43,188.376,323.36z"/>
		<path style="fill:#CB4F4F;" d="M149.756,326.296c-0.097-0.724-0.415-1.389-0.946-1.904c-0.621-0.603-1.372-0.893-2.161-1.211    c-1.073-0.433-2.257-0.628-3.407-0.685c-1.722-0.085-3.633,0.262-4.591,1.866c-0.528,0.884-0.649,1.951-0.4,2.943    c0.227,0.908,0.779,1.662,1.508,2.225c0.257,0.199,0.476,0.361,0.769,0.492c0.382,0.17,0.793,0.376,1.214,0.446    c0.646,0.109,1.313,0.194,1.969,0.233c1.396,0.084,2.744-0.328,3.832-1.199c0.515-0.104,1.002-0.337,1.365-0.72    C149.559,328.096,149.883,327.24,149.756,326.296z"/>
		<path style="fill:#CB4F4F;" d="M195.825,331.578c-0.097-0.724-0.415-1.389-0.946-1.904c-0.621-0.603-1.372-0.893-2.16-1.211    c-1.073-0.433-2.257-0.628-3.407-0.685c-1.722-0.085-3.633,0.262-4.591,1.866c-0.528,0.884-0.649,1.951-0.4,2.943    c0.227,0.908,0.779,1.662,1.508,2.225c0.257,0.198,0.476,0.361,0.769,0.492c0.382,0.17,0.793,0.376,1.214,0.446    c0.646,0.109,1.313,0.194,1.969,0.233c1.396,0.084,2.744-0.328,3.832-1.199c0.515-0.104,1.002-0.337,1.365-0.72    C195.628,333.378,195.952,332.522,195.825,331.578z"/>
		<path style="fill:#31171A;" d="M173.179,325.371c-0.571-0.447-1.55-0.538-1.934,0.249c-0.461,0.945-0.467,2.046-0.357,3.075    c0.002,0.019,0.005,0.029,0.007,0.036c-0.004,0.015-0.007,0.025-0.012,0.046c-0.023,0.096-0.048,0.192-0.074,0.288    c-0.003,0.01-0.003,0.015-0.005,0.024c-0.091,0.135-0.104,0.164-0.038,0.084c0.019-0.021,0.022-0.024,0.026-0.029v0    c-0.007,0.008-0.015,0.017-0.04,0.045c-0.009,0.011-0.068,0.07-0.108,0.112c-0.059,0.037-0.169,0.114-0.191,0.127    c-0.006,0.002-0.009,0.004-0.016,0.005c-0.022,0.006-0.149,0.037-0.221,0.057c-0.055,0.005-0.126,0.013-0.143,0.013    c-0.098,0.002-0.196-0.002-0.294-0.009c-0.007-0.001-0.009,0-0.014,0c-0.017-0.007-0.041-0.016-0.075-0.027    c-0.093-0.031-0.189-0.053-0.282-0.087c0.257,0.093-0.185-0.14-0.24-0.158c-0.035-0.045-0.264-0.278-0.28-0.276    c-0.132-0.176-0.245-0.375-0.341-0.57c-0.008-0.016-0.012-0.023-0.017-0.034c-0.004-0.012-0.007-0.021-0.014-0.04    c-0.036-0.101-0.068-0.202-0.097-0.305c-0.036-0.129-0.065-0.259-0.092-0.39c-0.002-0.01-0.004-0.025-0.006-0.038    c0.021-0.025,0.043-0.052,0.063-0.076c0.838-1.003,0.272-2.395-1.036-2.501c-1.016-0.083-1.698,0.731-1.933,1.626    c-0.394,0.535-0.787,1.057-1.206,1.502c-0.264,0.28-0.511,0.488-0.781,0.618c-0.049,0.024-0.135,0.037-0.188,0.019    c0.085,0.029-0.164-0.098-0.097-0.042c0.075,0.063,0.02,0.047-0.063-0.069c-0.335-0.466-0.448-1.013-0.261-1.648    c0.113-0.385,0.365-0.642,0.564-0.995c0.378-0.671,0.143-1.452-0.581-1.733c-1.51-0.586-2.417,1.937-2.544,3.007    c-0.154,1.296,0.282,2.695,1.332,3.517c1.609,1.262,3.134,0.542,4.432-0.638c0.681,1.243,1.814,2.208,3.263,2.442    c1.807,0.292,3.612-0.461,4.46-2.137C174.508,328.953,174.65,326.522,173.179,325.371z"/>
		<path style="fill:#D4A193;" d="M132.051,338.507c-0.32-1.8-0.772-3.682-1.801-5.221c-1.234-1.847-4.316-1.711-4.915,0.642    c-0.434,1.704-0.394,3.478-0.426,5.223c-0.04,2.178,0.034,4.127,2.156,5.324c0.945,0.533,2.254,0.623,3.191,0    C132.514,342.974,132.485,340.949,132.051,338.507z"/>
		<path style="fill:#D4A193;" d="M131.306,348.672c-1.324-1.341-3.415-0.605-3.986,1.052c-0.239,0.693-0.29,1.726-0.111,2.428    c0.252,0.986,0.726,1.678,1.563,2.28c1.092,0.785,2.847,0.203,3.46-0.907C133.122,351.916,132.552,349.933,131.306,348.672z"/>
		<path style="fill:#D4A193;" d="M215.937,354.106c-0.584-0.968-1.846-1.3-2.833-0.743c-1.629,0.919-2.729,3.194-2.234,5.019    c0.418,1.541,2.336,2.39,3.727,1.516c0.549-0.345,1.025-0.764,1.357-1.332c0.339-0.58,0.362-1.19,0.442-1.84    C216.516,355.751,216.462,354.976,215.937,354.106z"/>
		<path style="fill:#D4A193;" d="M166.638,357.073c-0.089-0.316-0.249-0.591-0.48-0.824c-0.133-0.133-0.279-0.25-0.441-0.349    c-0.148-0.063-0.297-0.126-0.445-0.188c-0.248-0.078-0.495-0.089-0.743-0.033c-0.168,0-0.325,0.043-0.47,0.127    c-0.231,0.075-0.431,0.204-0.6,0.385c-0.097,0.126-0.194,0.251-0.292,0.377c-0.063,0.149-0.125,0.297-0.188,0.445    c-0.078,0.248-0.089,0.495-0.033,0.743c0.011,0.248,0.085,0.479,0.221,0.693c0.044,0.073,0.096,0.14,0.155,0.203    c0.044,0.074,0.097,0.141,0.158,0.201c0.012,0.012,0.024,0.025,0.037,0.037c0.169,0.182,0.37,0.311,0.601,0.386    c0.223,0.117,0.463,0.171,0.72,0.161c0.257,0.01,0.497-0.044,0.72-0.161c0.232-0.075,0.432-0.204,0.601-0.386    c0.097-0.126,0.195-0.252,0.292-0.378c0.169-0.291,0.254-0.606,0.255-0.943C166.683,357.404,166.661,357.238,166.638,357.073z"/>
		<path style="fill:#D4A193;" d="M147.512,347.067c-0.127-0.452-0.355-0.844-0.686-1.177c-0.18-0.139-0.36-0.278-0.54-0.417    c-0.416-0.241-0.865-0.363-1.346-0.364c-0.367-0.014-0.71,0.063-1.028,0.23c-0.331,0.108-0.617,0.292-0.858,0.552    c-0.26,0.242-0.444,0.528-0.552,0.859c-0.167,0.318-0.244,0.661-0.23,1.028c0.032,0.236,0.063,0.473,0.095,0.709    c0.127,0.452,0.355,0.844,0.686,1.177c0.18,0.139,0.36,0.278,0.54,0.417c0.416,0.241,0.865,0.363,1.346,0.364    c0.367,0.014,0.71-0.063,1.028-0.23c0.331-0.108,0.617-0.291,0.859-0.552c0.26-0.242,0.444-0.528,0.552-0.859    c0.167-0.318,0.244-0.661,0.23-1.028C147.575,347.539,147.544,347.303,147.512,347.067z"/>
		<path style="fill:#D4A193;" d="M137.529,374.847c-0.121-0.431-0.339-0.804-0.654-1.121c-0.171-0.133-0.343-0.265-0.514-0.397    c-0.396-0.23-0.824-0.346-1.283-0.347c-0.35-0.013-0.676,0.06-0.979,0.219c-0.315,0.103-0.588,0.277-0.818,0.526    c-0.248,0.23-0.423,0.503-0.525,0.818c-0.159,0.303-0.232,0.629-0.219,0.979c0.03,0.225,0.06,0.45,0.091,0.676    c0.121,0.431,0.339,0.804,0.654,1.121c0.172,0.133,0.343,0.265,0.514,0.397c0.396,0.23,0.824,0.346,1.283,0.347    c0.35,0.013,0.676-0.06,0.979-0.219c0.315-0.103,0.588-0.277,0.818-0.526c0.248-0.23,0.423-0.503,0.525-0.818    c0.159-0.303,0.232-0.629,0.219-0.979C137.589,375.297,137.559,375.072,137.529,374.847z"/>
		<path style="fill:#D4A193;" d="M160.393,394.889c-0.016-0.121-0.063-0.233-0.141-0.337c-0.112-0.344-0.303-0.641-0.573-0.893    c-0.346-0.344-0.754-0.581-1.224-0.713c-0.246-0.033-0.492-0.066-0.737-0.099c-0.501,0.001-0.967,0.128-1.4,0.378    c-0.323,0.174-0.583,0.413-0.778,0.714c-0.245,0.268-0.411,0.582-0.496,0.943c-0.132,0.491-0.132,0.983,0,1.474l0.28,0.662    c0.246,0.417,0.578,0.748,0.995,0.995l0.662,0.28c0.492,0.132,0.983,0.132,1.474,0c0.47-0.132,0.878-0.37,1.224-0.713    c0.155-0.179,0.301-0.367,0.435-0.563c0.202-0.317,0.311-0.66,0.328-1.028C160.524,395.624,160.508,395.256,160.393,394.889z"/>
		<path style="fill:#D4A193;" d="M174.282,380.586c-0.005-0.038-0.022-0.219-0.044-0.321c-0.076-0.179-0.151-0.359-0.227-0.538    c-0.142-0.263-0.335-0.473-0.58-0.632c-0.141-0.14-0.306-0.236-0.497-0.29c-0.102-0.054-0.21-0.086-0.318-0.117    c0.008,0.001,0.017,0.002,0.026,0.003c-0.014-0.002-0.027-0.006-0.041-0.011c-0.003,0-0.005-0.001-0.008-0.001    c-0.153-0.042-0.311-0.065-0.475-0.064c-0.047-0.006-0.094-0.013-0.14-0.019c-0.208,0.028-0.416,0.056-0.623,0.084    c-0.305,0.073-0.571,0.212-0.797,0.42c-0.176,0.104-0.316,0.244-0.421,0.421c-0.145,0.146-0.246,0.319-0.301,0.517    c-0.106,0.183-0.159,0.38-0.16,0.592c-0.056,0.208-0.056,0.415,0,0.623c0.014,0.312,0.107,0.603,0.278,0.872    c0.122,0.158,0.244,0.316,0.367,0.474c0.158,0.122,0.316,0.245,0.475,0.367c0.187,0.079,0.373,0.158,0.56,0.236l0.623,0.084    c0.208-0.028,0.415-0.056,0.623-0.084c0.305-0.073,0.571-0.212,0.797-0.42c0.176-0.104,0.316-0.244,0.421-0.421    c0.207-0.227,0.347-0.492,0.42-0.797c0.018-0.125,0.084-0.504,0.085-0.632c0-0.009,0.001-0.017,0.001-0.026    C174.323,380.808,174.271,380.51,174.282,380.586z"/>
		<path style="fill:#D4A193;" d="M192.418,359.851c-0.077-0.276-0.211-0.518-0.371-0.746c-0.004-0.007-0.009-0.014-0.012-0.022    c-0.209-0.353-0.49-0.635-0.843-0.844c-0.367-0.213-0.762-0.319-1.187-0.321c-0.424,0.001-0.82,0.108-1.187,0.321    c-0.353,0.209-0.634,0.49-0.843,0.844c-0.1,0.217-0.217,0.435-0.274,0.668c-0.042,0.171-0.078,0.491-0.09,0.667    c-0.002,0.029-0.004,0.054-0.002,0.083c0.001,0.442,0.113,0.854,0.334,1.236c0.218,0.368,0.511,0.661,0.879,0.879    c0.382,0.222,0.794,0.333,1.236,0.334c0.337,0.013,0.652-0.058,0.944-0.211c0.304-0.099,0.566-0.267,0.788-0.506    c0.304-0.305,0.513-0.666,0.63-1.081C192.535,360.719,192.535,360.285,192.418,359.851z"/>
		<path style="fill:#D4A193;" d="M189.679,398.03c-0.014-0.026-0.027-0.052-0.041-0.078c-0.218-0.369-0.512-0.663-0.881-0.881    c-0.383-0.222-0.796-0.334-1.24-0.336c-0.443,0.001-0.857,0.113-1.24,0.336c-0.369,0.218-0.663,0.512-0.881,0.881    c-0.014,0.026-0.027,0.052-0.041,0.078c-0.227,0.391-0.34,0.812-0.342,1.264c0.001,0.452,0.115,0.873,0.342,1.264    c0.446,0.762,1.28,1.24,2.162,1.24s1.717-0.479,2.162-1.24c0.227-0.391,0.34-0.812,0.342-1.264    C190.02,398.842,189.906,398.421,189.679,398.03z"/>
		<path style="fill:#B73A34;" d="M172.845,114.535c-0.026-0.135-0.054-0.231-0.109-0.362c-0.022-0.053-0.046-0.105-0.07-0.157    c-0.12-0.3-0.214-0.609-0.271-0.928c-0.029-0.166-0.086-0.317-0.133-0.479c-0.033-0.112-0.059-0.22-0.105-0.328    c-0.069-0.162-0.163-0.292-0.287-0.417c-0.143-0.144-0.382-0.253-0.588-0.243c-0.235,0.01-0.403,0.101-0.588,0.243    c-0.234,0.181-0.339,0.443-0.411,0.721c-0.063,0.242-0.126,0.504-0.109,0.752c0.03,0.428,0.094,0.862,0.213,1.274    c0.023,0.081,0.049,0.161,0.077,0.241c0.028,0.081,0.061,0.158,0.094,0.237c0.071,0.168,0.151,0.286,0.267,0.429    c0.253,0.311,0.573,0.546,0.998,0.54c0.393-0.005,0.728-0.22,0.933-0.548C172.95,115.204,172.909,114.868,172.845,114.535z"/>
		<path style="fill:#B73A34;" d="M176.367,115.831c-0.017-0.046-0.033-0.091-0.05-0.137c-0.033-0.091-0.066-0.183-0.1-0.274    c-0.044-0.121-0.085-0.252-0.153-0.362c-0.064-0.102-0.149-0.195-0.227-0.287c-0.061-0.072-0.122-0.144-0.183-0.216    c-0.063-0.048-0.125-0.097-0.188-0.145c-0.074-0.031-0.148-0.063-0.222-0.094l-0.247-0.033c-0.128-0.005-0.247,0.022-0.358,0.08    c-0.079,0.022-0.147,0.062-0.205,0.12c-0.07,0.041-0.125,0.097-0.167,0.167c-0.121,0.156-0.21,0.36-0.2,0.563    c0.005,0.091,0.009,0.181,0.014,0.272c0.004,0.085,0.013,0.164,0.024,0.25c0.005,0.057,0.013,0.114,0.024,0.17    c0.036,0.085,0.072,0.17,0.108,0.255c0.009,0.022,0.019,0.044,0.029,0.067c0.036,0.085,0.073,0.17,0.109,0.254    c0.019,0.045,0.038,0.089,0.057,0.134c0.008,0.018,0.015,0.036,0.023,0.053c0.019,0.051,0.051,0.096,0.094,0.133    c0.025,0.05,0.06,0.091,0.103,0.123c0.129,0.128,0.282,0.217,0.457,0.266c0.184,0.049,0.367,0.049,0.551,0    c0.175-0.049,0.328-0.138,0.457-0.266c0.128-0.129,0.217-0.282,0.266-0.457c0.008-0.054,0.015-0.108,0.022-0.163    c0.025-0.093,0.025-0.186,0-0.279C176.395,115.941,176.392,115.899,176.367,115.831z"/>
		<path style="fill:#B73A34;" d="M312.919,134.181c-0.13-0.223-0.333-0.387-0.568-0.486c-0.257-0.109-0.497-0.115-0.774-0.06    c-0.49,0.097-0.746,0.54-1.017,0.912c-0.123,0.169-0.224,0.325-0.31,0.515c-0.083,0.184-0.166,0.367-0.249,0.551    c-0.142,0.313-0.242,0.54-0.249,0.892c-0.006,0.294,0.049,0.561,0.191,0.824c0.128,0.237,0.358,0.411,0.6,0.513    c0.266,0.112,0.532,0.129,0.817,0.063c0.457-0.105,0.871-0.523,1.06-0.94c0.083-0.184,0.166-0.367,0.249-0.55    c0.081-0.18,0.182-0.359,0.232-0.548c0.027-0.1,0.045-0.203,0.068-0.304c0.023-0.101,0.045-0.203,0.068-0.304    c0.02-0.089,0.032-0.173,0.045-0.265C313.12,134.7,313.07,134.44,312.919,134.181z"/>
		<path style="fill:#B73A34;" d="M312.188,139.932c-0.09-0.086-0.188-0.156-0.309-0.193c-0.09-0.028-0.184-0.047-0.28-0.042    c-0.203,0.01-0.375,0.083-0.543,0.19c-0.064,0.041-0.129,0.081-0.192,0.124c-0.146,0.1-0.247,0.196-0.36,0.319    c-0.168,0.182-0.39,0.379-0.503,0.596c-0.078,0.15-0.132,0.316-0.19,0.475c-0.064,0.176-0.108,0.326-0.109,0.526    c-0.007,0.832,0.967,1.426,1.69,0.97c0.169-0.107,0.269-0.207,0.383-0.353c0.111-0.141,0.25-0.281,0.328-0.437    c0.119-0.236,0.179-0.493,0.25-0.746c0.066-0.238,0.083-0.473,0.086-0.717C312.442,140.384,312.384,140.119,312.188,139.932z"/>
		<path style="fill:#A6532E;" d="M345.46,349.148c0.491-3.086,0.705-6.261,0.547-9.293c-0.16-3.068-0.519-6.161-1.14-9.17    c-0.309-1.497-0.676-2.982-1.099-4.45c-0.319-1.107-0.75-2.783-1.864-3.343c-0.115-0.058-0.245-0.028-0.316,0.083    c-0.651,1.009-0.278,2.563-0.121,3.678c0.198,1.402,0.34,2.812,0.432,4.225c0.195,2.995,0.213,5.984-0.015,8.977    c-0.219,2.88-0.371,5.728-0.881,8.578c-0.259,1.445-0.611,2.861-0.931,4.292c-0.108,0.482-0.228,1.015-0.309,1.558    c-0.899,2.776-1.864,5.531-2.901,8.259c-2.915,7.666-6.57,15.09-11.171,21.892c-4.539,6.71-10.122,12.825-16.694,17.594    c-7.406,5.375-15.915,9.038-24.609,11.771c-9.157,2.878-18.626,4.72-28.029,6.586c-10.225,2.03-20.58,3.865-31.046,3.633    c-8.758-0.195-19.232-1.346-24.76-9.041c-4.471-6.224-5.439-14.775-2.453-21.84c1.603-3.792,4.473-7.268,8.445-8.678    c4.145-1.471,8.37-0.647,11.486,2.494c5.704,5.751,7.093,15.019,4.923,22.599c-0.567,1.981-1.412,3.911-2.424,5.703    c-0.348,0.616,0.518,1.333,1.009,0.771c5.818-6.646,6.792-16.695,3.297-24.672c-1.7-3.881-4.534-7.709-8.422-9.606    c0.581-0.09,1.161-0.188,1.745-0.264c2.02-0.267,4.052-0.461,6.084-0.613c2.002-0.149,4.231,0.114,5.934-1.147    c0.463-0.343,0.488-0.957-0.006-1.29c-1.756-1.186-3.944-0.843-5.943-0.694c-2.172,0.162-4.329,0.485-6.473,0.865    c-2.15,0.381-4.303,0.807-6.426,1.321c-0.822,0.199-1.903,0.357-2.878,0.676c-2.024,0.299-3.997,1.004-5.753,2.052    c-7.858,4.69-10.621,14.949-9.255,23.525c0.647,4.061,2.294,8.005,4.815,11.26c2.818,3.638,6.59,6.092,10.928,7.571    c5.063,1.725,10.603,2.277,15.923,2.44c5.648,0.173,11.298-0.262,16.895-1.002c10.591-1.4,21.151-3.544,31.582-5.841    c9.865-2.171,19.742-4.884,28.757-9.536c8.136-4.198,15.359-9.992,21.286-16.964c9.229-10.856,15.403-23.87,19.709-37.404    c0.569-0.825,0.898-1.897,1.124-2.769C344.862,352.388,345.2,350.78,345.46,349.148z"/>
		<path style="fill:#CE6337;" d="M231.003,360.475c-0.139-0.032-0.281-0.032-0.42,0c-0.211,0.048-0.35,0.2-0.473,0.364    c-0.226,0.299-0.501,0.594-0.657,0.936c-0.279,0.613-0.715,1.342-0.305,2.001c0.126,0.202,0.299,0.351,0.518,0.443    c0.212,0.09,0.481,0.132,0.706,0.055c0.328-0.113,0.586-0.302,0.746-0.617c0.079-0.156,0.159-0.317,0.204-0.487    c0.05-0.191,0.1-0.381,0.15-0.572c0.115-0.438,0.096-0.91,0.112-1.36C231.596,360.905,231.331,360.549,231.003,360.475z"/>
		<g>
			<path style="fill:#CE6337;" d="M233.167,365.499c-0.064-0.249-0.134-0.594-0.337-0.778c-0.007-0.011-0.013-0.022-0.019-0.033     c-0.115-0.195-0.354-0.177-0.49-0.029c-0.173,0.098-0.272,0.312-0.377,0.472c-0.058,0.089-0.119,0.175-0.181,0.261     c0.004-0.004,0.006-0.007,0.01-0.011c-0.007,0.007-0.017,0.021-0.025,0.03c-0.017,0.021-0.026,0.033-0.029,0.034     c-0.064,0.077-0.14,0.177-0.158,0.206c-0.119,0.184-0.209,0.389-0.324,0.576c-0.118,0.192-0.247,0.376-0.384,0.555     c0.061-0.08,0.123-0.159,0.184-0.239c-0.161,0.206-0.271,0.392-0.396,0.614c-0.08,0.143-0.167,0.282-0.257,0.419     c-0.185,0.278-0.2,0.688-0.07,1.007c0.003,0.02,0.007,0.04,0.01,0.059c0.061,0.373,0.507,0.677,0.87,0.662     c0.013,0,0.027-0.005,0.04-0.006c0.34,0.047,0.759-0.06,0.967-0.322c0.297-0.374,0.632-0.771,0.788-1.23     c0.105-0.307,0.172-0.629,0.22-0.95c0.033-0.219,0.08-0.457,0.071-0.681C233.272,365.913,233.218,365.697,233.167,365.499z"/>
			<path style="fill:#CE6337;" d="M231.762,365.393C231.762,365.393,231.762,365.393,231.762,365.393     c-0.032,0.032-0.047,0.055-0.042,0.052c0.01-0.012,0.02-0.024,0.029-0.034C231.753,365.404,231.755,365.402,231.762,365.393z"/>
		</g>
		<path style="fill:#CE6337;" d="M229.011,369.099c-0.01-0.351-0.211-0.66-0.536-0.796c-0.319-0.134-0.704-0.07-0.952,0.18    c-0.113,0.114-0.229,0.227-0.343,0.34c-0.183,0.181-0.313,0.393-0.445,0.611c-0.094,0.153-0.18,0.305-0.224,0.484    c-0.021,0.085-0.038,0.171-0.057,0.256c-0.01,0.043-0.02,0.085-0.028,0.128c-0.064,0.322-0.032,0.603,0.117,0.893    c0.114,0.221,0.326,0.397,0.551,0.491c0.239,0.101,0.495,0.115,0.745,0.046c0.347-0.096,0.583-0.332,0.76-0.63    c0.137-0.231,0.265-0.456,0.321-0.723c0.052-0.252,0.121-0.51,0.111-0.768C229.024,369.44,229.016,369.27,229.011,369.099z"/>
		<path style="fill:#CE6337;" d="M340.875,384.545c-0.793-0.517-1.792-0.334-2.681-0.319c-0.376,0.006-0.749-0.011-1.126,0.003    c-0.255,0.01-0.509-0.007-0.761,0.044c-0.158,0.033-0.312,0.082-0.468,0.122c-0.609,0.155-0.711,0.877-0.345,1.308    c0.166,0.196,0.333,0.4,0.557,0.535c0.154,0.093,0.323,0.168,0.486,0.244c0.44,0.204,0.861,0.33,1.336,0.416    c0.479,0.086,0.972,0.184,1.458,0.132c0.284-0.03,0.577-0.049,0.853-0.122c0.293-0.077,0.72-0.356,0.92-0.582    C341.603,385.761,341.513,384.961,340.875,384.545z"/>
		<path style="fill:#CE6337;" d="M345.755,388.33c0.01-0.37-0.25-0.602-0.565-0.699c-0.017-0.011-0.04-0.018-0.058-0.028    c0.011,0.001,0.007-0.001-0.013-0.006c-0.072-0.039-0.142-0.078-0.232-0.11c-0.051-0.018-0.104-0.035-0.155-0.051    c-0.235-0.074-0.454-0.054-0.69-0.056c-0.251-0.002-0.474-0.016-0.728,0.046c-0.074,0.018-0.148,0.031-0.221,0.048    c-0.095,0.007-0.189,0.018-0.284,0.015c-0.17-0.005-0.335,0.022-0.501,0.052c-0.051,0.003-0.102,0.009-0.154,0.007    c-0.102-0.003-0.346-0.064-0.023,0.009c-0.072-0.017-0.146-0.025-0.219-0.043c-0.173-0.043-0.315-0.036-0.457-0.006    c-0.046-0.027-0.089-0.067-0.127-0.1c-0.238-0.208-0.554-0.003-0.505,0.294c0.015,0.091,0.043,0.179,0.059,0.269    c-0.014-0.082-0.001,0.035-0.002,0.042c0.001,0.012,0.002,0.024,0.003,0.035c-0.072-0.047-0.087,0.019-0.046,0.199    c0.012,0.262,0.151,0.52,0.298,0.736c0.139,0.204,0.299,0.397,0.462,0.583c0.257,0.295,0.561,0.444,0.923,0.582    c0.17,0.065,0.344,0.116,0.522,0.148c0.206,0.037,0.416,0.07,0.625,0.084c0.272,0.018,0.517-0.059,0.762-0.163    c0.303-0.128,0.617-0.273,0.854-0.51c0.196-0.196,0.315-0.453,0.404-0.711c0.056-0.161,0.059-0.321,0.047-0.483    C345.741,388.452,345.753,388.392,345.755,388.33z"/>
		<g>
			<path style="fill:#CE6337;" d="M350.696,384.511c-0.008-0.026-0.017-0.052-0.027-0.078c-0.051-0.131-0.111-0.25-0.17-0.372     c-0.026-0.06-0.042-0.125-0.075-0.179c-0.183-0.305-0.5-0.56-0.875-0.545c-0.158,0.007-0.328,0.036-0.465,0.122     c-0.01,0.006-0.016,0.014-0.025,0.021c0.009-0.007,0.018-0.014,0.027-0.021c-0.069,0.047-0.123,0.104-0.181,0.158     c-0.027,0.03-0.053,0.061-0.078,0.094c0,0-0.001,0-0.001,0.001c0.02-0.025,0.039-0.051,0.059-0.077     c-0.031,0.031-0.063,0.062-0.09,0.096c-0.06,0.033-0.116,0.07-0.17,0.11c0.011-0.008,0.021-0.017,0.032-0.025     c-0.043,0.032-0.091,0.056-0.138,0.08c-0.039,0.017-0.076,0.03-0.118,0.055c-0.023,0.014-0.041,0.034-0.063,0.049     c-0.014,0.01-0.03,0.016-0.044,0.025c-0.042,0.012-0.084,0.026-0.128,0.034c-0.017,0.003-0.034,0.003-0.051,0.007     c-0.108,0-0.208,0.028-0.301,0.082c-0.035,0.015-0.068,0.037-0.102,0.055c-0.003,0-0.006,0.001-0.008,0.002     c-0.212,0.035-0.398,0.172-0.533,0.339c-0.066,0.056-0.12,0.126-0.156,0.212c-0.04,0.095-0.048,0.186-0.038,0.277     c-0.012,0.118-0.012,0.236,0.019,0.351c0.038,0.138,0.111,0.246,0.194,0.351c0.106,0.23,0.294,0.436,0.51,0.551     c0.084,0.045,0.175,0.079,0.262,0.116c0.139,0.059,0.275,0.12,0.423,0.15c0.158,0.032,0.321,0.052,0.481,0.066     c0.05,0.004,0.101,0.006,0.151,0.003c0.15-0.01,0.305-0.017,0.448-0.059c0.113-0.034,0.27-0.091,0.372-0.151     c0.102-0.06,0.225-0.165,0.313-0.243c0.134-0.119,0.243-0.277,0.344-0.42c0.019-0.027,0.037-0.055,0.054-0.084     c0.124-0.221,0.221-0.487,0.209-0.742C350.75,384.789,350.732,384.638,350.696,384.511z"/>
			<path style="fill:#CE6337;" d="M348.91,383.594c0.005-0.004,0.009-0.007,0.014-0.01c0.001-0.001,0.003-0.003,0.004-0.005     C348.923,383.585,348.916,383.59,348.91,383.594z"/>
			<path style="fill:#CE6337;" d="M349.058,383.48c-0.045,0.034-0.09,0.069-0.134,0.104c-0.013,0.017-0.027,0.035-0.04,0.052     c0.007-0.006,0.014-0.012,0.021-0.018C348.95,383.567,349,383.52,349.058,383.48z"/>
		</g>
		<g>
			<path style="fill:#CE6337;" d="M264.281,269.643c-0.105-0.44-0.664-0.663-1.045-0.425c-0.053,0.033-0.108,0.063-0.164,0.092     c0.009-0.001,0.018-0.004,0.027-0.003c-0.011-0.001-0.025,0.006-0.039,0.01c-0.008,0.004-0.015,0.009-0.023,0.013     c-0.082,0.04-0.085,0.028-0.057,0.009c-0.254,0.061-0.483,0.158-0.723,0.262c0.109-0.046,0.217-0.092,0.326-0.137     c-0.134,0.055-0.27,0.092-0.408,0.134c-0.183,0.055-0.354,0.14-0.525,0.224c-0.166,0.057-0.333,0.103-0.502,0.153     c-0.159,0.047-0.317,0.083-0.476,0.118c-0.469,0.033-0.955,0.001-1.418-0.031c-0.892-0.063-1.548,1.087-1.047,1.825     c0.435,0.642,1.064,1.098,1.839,1.228c0.684,0.115,1.489,0.175,2.146-0.088c0.334-0.134,0.668-0.273,0.968-0.475     c0.39-0.262,0.695-0.579,0.917-0.992c0.193-0.36,0.341-0.735,0.31-1.15C264.364,270.154,264.34,269.893,264.281,269.643z"/>
			<path style="fill:#CE6337;" d="M263.06,269.317c0.004-0.002,0.008-0.005,0.012-0.007c-0.039,0.003-0.073,0.015-0.092,0.028     c0.006-0.002,0.012-0.004,0.018-0.006C263.015,269.329,263.037,269.323,263.06,269.317z"/>
		</g>
		<path style="fill:#CE6337;" d="M267.366,264.733c-0.224-0.101-0.452-0.193-0.69-0.253c-0.303-0.076-0.565-0.046-0.862-0.015    c-0.48,0.05-0.947,0.184-1.425,0.25l0.37-0.05c-0.551,0.072-1.147,0.214-1.624,0.527c-0.105,0.04-0.21,0.081-0.316,0.116    c-0.208,0.07-0.35,0.153-0.505,0.276c-0.061-0.002-0.122-0.003-0.183-0.006c-0.189-0.008-0.274,0.28-0.099,0.365    c0.063,0.03,0.127,0.059,0.19,0.089c0.048,0.192,0.207,0.326,0.37,0.448c0.088,0.066,0.177,0.13,0.267,0.192    c0.022,0.015,0.045,0.031,0.067,0.046c0.081,0.03,0.092,0.048,0.034,0.054c0.231,0.235,0.556,0.343,0.853,0.467    c0.293,0.122,0.524,0.178,0.856,0.204c0.502,0.039,1.046,0.059,1.541-0.045c0.289-0.061,0.6-0.135,0.845-0.302    c0.301-0.206,0.52-0.443,0.737-0.734C268.151,265.882,267.906,264.975,267.366,264.733z"/>
		<path style="fill:#CE6337;" d="M274.135,268.768c0.036-0.259,0.059-0.506,0.03-0.767c-0.029-0.273-0.177-0.551-0.47-0.618    c-0.292-0.066-0.556,0.05-0.723,0.294c-0.02,0.029-0.039,0.053-0.047,0.065c-0.021,0.024-0.041,0.049-0.063,0.072    c-0.033,0.035-0.067,0.07-0.102,0.103c-0.016,0.007-0.029,0.013-0.037,0.017c-0.086,0.036-0.151,0.072-0.229,0.117    c-0.053,0.031-0.11,0.056-0.165,0.083c-0.048,0.017-0.096,0.037-0.146,0.052c-0.103,0.03-0.184,0.059-0.288,0.103    c-0.1,0.042-0.187,0.096-0.272,0.155c0.007-0.005,0.014-0.011,0.021-0.016c-0.252,0.193-0.543,0.359-0.833,0.498    c-0.064,0.023-0.126,0.05-0.192,0.067c-0.091,0.024-0.174,0.052-0.253,0.086c-0.029-0.004-0.058-0.009-0.088-0.014    c-0.164-0.026-0.335-0.045-0.486,0.006l-0.086-0.035c-0.2-0.082-0.397,0.195-0.281,0.366c0.014,0.021,0.028,0.041,0.042,0.062    c-0.031,0.218,0.086,0.449,0.164,0.652c0.095,0.247,0.173,0.506,0.365,0.698c0.181,0.181,0.427,0.275,0.673,0.327    c0.595,0.126,1.222,0.144,1.795-0.084c0.506-0.201,0.914-0.394,1.218-0.883c0.151-0.243,0.265-0.516,0.362-0.785    c0.058-0.161,0.11-0.341,0.109-0.512c0-0.036,0.001-0.077-0.007-0.112C274.142,268.751,274.138,268.76,274.135,268.768z"/>
	</g>
	<g>
		<path style="fill:#CE5E57;" d="M86.521,317.302c-0.429-0.646-0.823-1.231-1.514-1.618c-0.285-0.16-0.54-0.283-0.852-0.405    c-0.043-0.017-0.187-0.075-0.254-0.102c-0.282-0.119-0.563-0.24-0.84-0.37c-0.621-0.294-1.249-0.576-1.865-0.879    c-0.137-0.067-0.272-0.14-0.406-0.213c0.131-0.166,0.268-0.32,0.395-0.493c0.027-0.037,0.157-0.21,0.2-0.268    c0.124-0.161,0.249-0.321,0.376-0.48c0.336-0.418,0.688-0.821,1.006-1.254c0.054-0.073,0.081-0.109,0.094-0.128    c0.024-0.031,0.048-0.063,0.073-0.095c0.129-0.167,0.26-0.332,0.392-0.496c0.265-0.328,0.543-0.644,0.815-0.966    c0.532-0.629,0.712-1.172,0.755-1.97c0.035-0.674-0.168-1.283-0.838-1.567c-0.246-0.104-0.482-0.131-0.75-0.115    c-0.449,0.069-0.532,0.08-0.249,0.032c-0.204,0.024-0.407,0.055-0.609,0.095c-0.644,0.207-1.068,0.621-1.494,1.122    c-0.616,0.726-1.247,1.479-1.763,2.279c-0.213,0.33-0.41,0.673-0.599,1.019c-0.112-0.256-0.224-0.514-0.332-0.765    c-0.298-0.693-0.566-1.411-0.898-2.089c-0.249-0.508-0.666-1.093-1.137-1.382c-0.492-0.302-1.134-0.422-1.681-0.191    c-0.646,0.273-1.02,1.002-1.034,1.681c-0.01,0.482,0.164,0.938,0.336,1.381c0.304,0.782,0.769,1.514,1.169,2.251    c0.075,0.137,0.148,0.275,0.222,0.414c-0.241-0.017-0.482-0.039-0.722-0.042c-0.735-0.009-1.481,0.13-2.194,0.307    c-0.306,0.076-0.608,0.166-0.906,0.271c-0.316,0.111-0.629,0.225-0.895,0.431c-0.388,0.301-0.641,0.675-0.787,1.155    c-0.209,0.69,0.18,1.567,0.817,1.896c0.65,0.336,1.286,0.305,1.953,0.065c0.282-0.102,0.569-0.191,0.859-0.267    c0.29-0.076,0.583-0.139,0.878-0.189c0.042-0.007,0.248-0.038,0.15-0.025c0.118-0.018,0.249-0.039,0.315-0.052    c0.153-0.029,0.306-0.059,0.459-0.085c0.004-0.001,0.001,0,0.005-0.001c0.022-0.001,0.046-0.002,0.062-0.004    c0.151-0.017,0.302-0.029,0.453-0.039c-0.038,0.194-0.08,0.388-0.119,0.582l-0.496,2.419c-0.166,0.808-0.297,1.623-0.41,2.441    c-0.088,0.638-0.129,1.236,0.226,1.82c0.466,0.767,1.269,1.03,2.123,0.88c0.876-0.154,1.259-1.149,1.127-1.926    c0-0.004,0.001-0.005,0.001-0.01c0.016-0.192,0.002-0.148-0.014-0.068l-0.001-0.004c0.051-0.326,0.099-0.653,0.148-0.979    c0.125-0.829,0.2-1.663,0.283-2.497c0.063-0.637,0.126-1.273,0.189-1.91c0.207,0.191,0.43,0.37,0.645,0.545    c0.649,0.527,1.31,1.011,2.048,1.405c0.733,0.392,1.505,0.8,2.321,0.974c0.528,0.112,1.014,0.106,1.536-0.039    c0.325-0.09,0.632-0.238,0.938-0.379C86.612,318.23,86.746,317.64,86.521,317.302z"/>
		<path style="fill:#CE5E57;" d="M149.032,114.169c-0.499-0.652-0.956-1.242-1.714-1.601c-0.313-0.148-0.59-0.261-0.928-0.367    c-0.046-0.015-0.202-0.066-0.276-0.089c-0.306-0.106-0.611-0.213-0.913-0.332c-0.676-0.266-1.359-0.52-2.032-0.797    c-0.15-0.061-0.297-0.129-0.444-0.196c0.126-0.185,0.261-0.356,0.382-0.548c0.026-0.041,0.151-0.233,0.192-0.297    c0.119-0.179,0.24-0.357,0.363-0.533c0.326-0.465,0.668-0.915,0.974-1.395c0.052-0.081,0.078-0.121,0.091-0.141    c0.023-0.035,0.046-0.07,0.07-0.105c0.124-0.185,0.251-0.369,0.379-0.551c0.257-0.365,0.528-0.719,0.792-1.078    c0.517-0.702,0.669-1.288,0.658-2.133c-0.01-0.714-0.268-1.343-0.995-1.596c-0.267-0.093-0.518-0.104-0.8-0.068    c-0.469,0.105-0.556,0.122-0.26,0.051c-0.214,0.04-0.426,0.087-0.636,0.143c-0.665,0.264-1.084,0.731-1.498,1.291    c-0.599,0.81-1.212,1.65-1.7,2.531c-0.201,0.364-0.385,0.739-0.561,1.119c-0.136-0.263-0.273-0.527-0.405-0.784    c-0.364-0.711-0.697-1.45-1.096-2.142c-0.299-0.519-0.78-1.107-1.298-1.379c-0.541-0.284-1.227-0.366-1.789-0.083    c-0.663,0.334-1.007,1.13-0.973,1.848c0.023,0.509,0.24,0.979,0.452,1.434c0.376,0.804,0.919,1.544,1.393,2.294    c0.088,0.14,0.176,0.281,0.263,0.421c-0.255-0.001-0.511-0.007-0.765,0.007c-0.777,0.043-1.555,0.242-2.295,0.48    c-0.318,0.102-0.631,0.219-0.938,0.35c-0.326,0.14-0.648,0.282-0.915,0.518c-0.389,0.345-0.629,0.758-0.749,1.275    c-0.172,0.743,0.301,1.642,0.997,1.944c0.71,0.309,1.38,0.231,2.066-0.07c0.29-0.127,0.587-0.242,0.888-0.342    c0.301-0.101,0.606-0.188,0.914-0.262c0.044-0.011,0.259-0.058,0.157-0.037c0.124-0.028,0.26-0.059,0.329-0.077    c0.16-0.042,0.319-0.084,0.479-0.122c0.004-0.001,0.002-0.001,0.005-0.002c0.023-0.002,0.049-0.005,0.066-0.008    c0.158-0.028,0.317-0.052,0.476-0.073c-0.026,0.208-0.057,0.416-0.085,0.623l-0.353,2.59c-0.118,0.865-0.199,1.735-0.26,2.606    c-0.048,0.68-0.049,1.315,0.367,1.906c0.546,0.777,1.412,0.998,2.304,0.779c0.914-0.224,1.248-1.303,1.054-2.114    c0-0.005,0.001-0.005,0.001-0.01c0.003-0.204-0.008-0.156-0.019-0.071l-0.001-0.004c0.031-0.348,0.058-0.696,0.087-1.044    c0.074-0.884,0.094-1.77,0.122-2.657c0.021-0.677,0.043-1.354,0.064-2.03c0.232,0.187,0.48,0.361,0.72,0.53    c0.723,0.511,1.455,0.974,2.262,1.339c0.802,0.362,1.646,0.739,2.519,0.864c0.566,0.081,1.078,0.04,1.619-0.15    c0.337-0.118,0.651-0.296,0.964-0.467C149.193,115.143,149.293,114.51,149.032,114.169z"/>
		<path style="fill:#CE5E57;" d="M430.521,314c-0.499-0.652-0.956-1.242-1.714-1.601c-0.313-0.148-0.59-0.26-0.928-0.367    c-0.046-0.014-0.202-0.066-0.276-0.089c-0.306-0.106-0.611-0.213-0.913-0.332c-0.676-0.266-1.359-0.52-2.032-0.797    c-0.15-0.061-0.297-0.129-0.444-0.196c0.126-0.185,0.261-0.357,0.382-0.548c0.026-0.041,0.151-0.233,0.192-0.297    c0.119-0.179,0.24-0.357,0.363-0.533c0.326-0.466,0.668-0.915,0.974-1.395c0.052-0.081,0.078-0.121,0.091-0.141    c0.023-0.035,0.046-0.07,0.07-0.105c0.124-0.185,0.251-0.369,0.379-0.551c0.257-0.365,0.528-0.719,0.792-1.078    c0.517-0.702,0.669-1.288,0.658-2.133c-0.01-0.714-0.268-1.343-0.996-1.596c-0.267-0.093-0.518-0.104-0.8-0.068    c-0.469,0.105-0.556,0.122-0.26,0.051c-0.214,0.04-0.426,0.087-0.636,0.143c-0.665,0.264-1.084,0.731-1.498,1.29    c-0.599,0.81-1.212,1.65-1.7,2.531c-0.201,0.364-0.385,0.739-0.561,1.119c-0.136-0.263-0.273-0.526-0.405-0.784    c-0.364-0.711-0.697-1.45-1.096-2.142c-0.299-0.519-0.78-1.107-1.298-1.379c-0.541-0.284-1.227-0.366-1.789-0.083    c-0.663,0.334-1.007,1.13-0.974,1.848c0.023,0.509,0.24,0.979,0.452,1.434c0.376,0.804,0.919,1.544,1.394,2.294    c0.088,0.139,0.176,0.28,0.263,0.421c-0.255-0.001-0.511-0.007-0.765,0.007c-0.777,0.043-1.555,0.242-2.295,0.48    c-0.318,0.102-0.631,0.219-0.938,0.35c-0.326,0.14-0.648,0.282-0.915,0.518c-0.389,0.345-0.629,0.758-0.749,1.275    c-0.172,0.743,0.301,1.642,0.997,1.944c0.71,0.309,1.379,0.231,2.066-0.07c0.29-0.127,0.587-0.241,0.888-0.342    c0.301-0.101,0.605-0.188,0.914-0.262c0.044-0.011,0.259-0.058,0.157-0.036c0.124-0.028,0.26-0.059,0.329-0.077    c0.16-0.042,0.319-0.084,0.479-0.122c0.004-0.001,0.002,0,0.005-0.002c0.023-0.002,0.049-0.005,0.066-0.008    c0.158-0.028,0.316-0.052,0.476-0.073c-0.026,0.208-0.057,0.416-0.085,0.623l-0.353,2.59c-0.118,0.865-0.199,1.735-0.26,2.606    c-0.047,0.68-0.049,1.315,0.367,1.906c0.547,0.777,1.412,0.998,2.304,0.779c0.914-0.224,1.248-1.303,1.054-2.113    c0-0.005,0-0.005,0-0.01c0.003-0.204-0.008-0.156-0.019-0.071l-0.001-0.004c0.031-0.348,0.058-0.696,0.087-1.044    c0.074-0.884,0.094-1.77,0.122-2.657c0.021-0.677,0.043-1.354,0.064-2.03c0.232,0.187,0.48,0.361,0.72,0.53    c0.723,0.511,1.455,0.974,2.262,1.339c0.802,0.362,1.646,0.739,2.519,0.864c0.565,0.081,1.078,0.04,1.619-0.15    c0.337-0.119,0.651-0.296,0.964-0.467C430.682,314.973,430.781,314.341,430.521,314z"/>
		<path style="fill:#CE5E57;" d="M349.002,217.928c0.065-0.55,0.121-1.051-0.077-1.581c-0.082-0.219-0.163-0.404-0.277-0.614    c-0.016-0.029-0.067-0.127-0.092-0.173c-0.099-0.195-0.196-0.391-0.286-0.59c-0.202-0.447-0.414-0.891-0.609-1.341    c-0.044-0.1-0.083-0.202-0.123-0.304c0.148-0.03,0.294-0.05,0.443-0.086c0.032-0.008,0.183-0.042,0.233-0.054    c0.142-0.03,0.284-0.06,0.426-0.087c0.376-0.072,0.754-0.129,1.127-0.218c0.063-0.015,0.095-0.022,0.11-0.026    c0.028-0.006,0.055-0.012,0.083-0.018c0.147-0.031,0.295-0.061,0.443-0.089c0.296-0.056,0.593-0.1,0.89-0.149    c0.58-0.097,0.93-0.309,1.321-0.724c0.331-0.351,0.501-0.776,0.268-1.241c-0.086-0.17-0.202-0.294-0.355-0.409    c-0.276-0.17-0.326-0.202-0.15-0.098c-0.122-0.081-0.247-0.158-0.375-0.23c-0.446-0.185-0.869-0.156-1.332-0.079    c-0.671,0.111-1.363,0.229-2.013,0.426c-0.269,0.081-0.534,0.177-0.798,0.278c0.058-0.191,0.116-0.383,0.173-0.57    c0.158-0.515,0.344-1.03,0.476-1.552c0.099-0.392,0.143-0.903,0.02-1.278c-0.128-0.392-0.422-0.754-0.827-0.881    c-0.478-0.15-1.019,0.074-1.34,0.437c-0.228,0.257-0.344,0.587-0.455,0.907c-0.196,0.566-0.281,1.18-0.404,1.766    c-0.023,0.109-0.047,0.219-0.071,0.328c-0.123-0.121-0.244-0.244-0.374-0.356c-0.396-0.344-0.867-0.613-1.337-0.846    c-0.202-0.1-0.408-0.19-0.619-0.271c-0.224-0.085-0.446-0.168-0.687-0.179c-0.35-0.016-0.661,0.071-0.962,0.265    c-0.433,0.279-0.626,0.936-0.432,1.41c0.199,0.483,0.559,0.76,1.034,0.938c0.2,0.075,0.398,0.159,0.591,0.252    c0.193,0.092,0.382,0.193,0.566,0.303c0.027,0.016,0.153,0.094,0.093,0.056c0.073,0.045,0.154,0.094,0.196,0.117    c0.097,0.055,0.194,0.109,0.289,0.166c0.003,0.002,0.001,0.001,0.003,0.002c0.012,0.01,0.026,0.021,0.036,0.027    c0.09,0.061,0.178,0.124,0.265,0.188c-0.111,0.088-0.223,0.175-0.334,0.262l-1.388,1.088c-0.464,0.363-0.912,0.747-1.351,1.14    c-0.342,0.307-0.642,0.614-0.718,1.095c-0.101,0.633,0.215,1.147,0.749,1.46c0.548,0.321,1.217-0.044,1.504-0.528    c0.002-0.002,0.003-0.002,0.005-0.005c0.098-0.097,0.07-0.079,0.024-0.043l0.001-0.003c0.179-0.154,0.355-0.31,0.533-0.465    c0.451-0.393,0.878-0.813,1.308-1.229c0.328-0.318,0.657-0.635,0.986-0.953c0.025,0.2,0.063,0.4,0.099,0.595    c0.11,0.588,0.246,1.156,0.466,1.712c0.218,0.552,0.45,1.131,0.814,1.603c0.236,0.305,0.503,0.526,0.855,0.689    c0.219,0.101,0.454,0.163,0.686,0.227C348.623,218.475,348.968,218.216,349.002,217.928z"/>
		<path style="fill:#CE5E57;" d="M274.777,92.7c0.47-0.293,0.896-0.563,1.186-1.049c0.12-0.201,0.213-0.38,0.306-0.6    c0.013-0.03,0.057-0.132,0.078-0.18c0.091-0.199,0.182-0.397,0.281-0.592c0.222-0.438,0.436-0.88,0.665-1.314    c0.051-0.097,0.105-0.191,0.16-0.286c0.116,0.097,0.223,0.198,0.344,0.292c0.026,0.02,0.147,0.116,0.187,0.148    c0.113,0.092,0.224,0.184,0.335,0.278c0.292,0.249,0.572,0.508,0.875,0.743c0.051,0.04,0.077,0.06,0.089,0.07    c0.022,0.018,0.044,0.036,0.066,0.054c0.116,0.095,0.232,0.192,0.346,0.29c0.229,0.196,0.449,0.401,0.673,0.602    c0.438,0.392,0.822,0.532,1.391,0.578c0.481,0.039,0.92-0.094,1.136-0.567c0.079-0.173,0.103-0.341,0.097-0.533    c-0.04-0.322-0.046-0.381-0.018-0.178c-0.013-0.146-0.031-0.292-0.055-0.437c-0.135-0.464-0.422-0.775-0.771-1.089    c-0.506-0.454-1.031-0.92-1.591-1.304c-0.232-0.159-0.472-0.306-0.716-0.449c0.185-0.074,0.371-0.149,0.553-0.221    c0.501-0.199,1.019-0.376,1.509-0.599c0.368-0.167,0.794-0.453,1.01-0.784c0.226-0.345,0.324-0.801,0.17-1.196    c-0.182-0.467-0.695-0.749-1.179-0.772c-0.344-0.017-0.673,0.098-0.992,0.212c-0.564,0.201-1.096,0.518-1.63,0.789    c-0.099,0.05-0.2,0.1-0.3,0.15c0.017-0.172,0.037-0.343,0.044-0.515c0.021-0.525-0.063-1.06-0.176-1.572    c-0.048-0.22-0.107-0.438-0.175-0.652c-0.073-0.228-0.148-0.453-0.289-0.648c-0.207-0.283-0.469-0.471-0.809-0.585    c-0.488-0.163-1.122,0.097-1.37,0.545c-0.253,0.457-0.243,0.912-0.085,1.393c0.067,0.203,0.125,0.41,0.173,0.618    c0.048,0.208,0.088,0.419,0.118,0.631c0.004,0.031,0.022,0.178,0.014,0.108c0.011,0.085,0.023,0.178,0.031,0.226    c0.018,0.11,0.036,0.22,0.051,0.33c0,0.003,0,0.001,0.001,0.004c0,0.015,0,0.033,0.001,0.045c0.009,0.108,0.015,0.216,0.019,0.324    c-0.138-0.031-0.276-0.065-0.413-0.097l-1.717-0.403c-0.574-0.135-1.153-0.245-1.734-0.341c-0.454-0.076-0.88-0.117-1.304,0.124    c-0.557,0.317-0.761,0.885-0.671,1.498c0.092,0.628,0.795,0.922,1.352,0.843c0.003,0,0.004,0.001,0.007,0.001    c0.137,0.015,0.105,0.005,0.049-0.008l0.003-0.001c0.232,0.043,0.464,0.084,0.696,0.126c0.589,0.106,1.183,0.176,1.777,0.252    c0.453,0.057,0.907,0.115,1.36,0.173c-0.14,0.144-0.273,0.3-0.402,0.45c-0.39,0.453-0.748,0.915-1.044,1.434    c-0.294,0.515-0.602,1.058-0.742,1.637c-0.091,0.375-0.096,0.722-0.003,1.097c0.058,0.234,0.157,0.456,0.252,0.677    C274.113,92.746,274.531,92.854,274.777,92.7z"/>
		<path style="fill:#CE5E57;" d="M86.96,341.332c0.47-0.293,0.896-0.563,1.186-1.049c0.12-0.201,0.213-0.38,0.306-0.6    c0.013-0.03,0.057-0.132,0.078-0.18c0.091-0.199,0.182-0.397,0.281-0.592c0.222-0.438,0.436-0.88,0.665-1.314    c0.051-0.097,0.105-0.191,0.16-0.286c0.116,0.097,0.223,0.198,0.344,0.292c0.026,0.02,0.147,0.116,0.187,0.148    c0.113,0.092,0.224,0.184,0.335,0.278c0.292,0.249,0.572,0.508,0.875,0.743c0.051,0.04,0.077,0.06,0.089,0.07    c0.022,0.018,0.044,0.036,0.066,0.054c0.116,0.095,0.232,0.192,0.346,0.29c0.229,0.196,0.449,0.401,0.673,0.601    c0.438,0.392,0.822,0.532,1.391,0.578c0.48,0.039,0.92-0.094,1.136-0.567c0.079-0.173,0.103-0.341,0.097-0.533    c-0.04-0.322-0.046-0.381-0.018-0.178c-0.013-0.146-0.031-0.292-0.055-0.437c-0.135-0.464-0.422-0.775-0.771-1.089    c-0.506-0.454-1.031-0.92-1.591-1.304c-0.232-0.159-0.472-0.306-0.716-0.448c0.185-0.074,0.371-0.149,0.553-0.222    c0.501-0.199,1.019-0.376,1.509-0.599c0.368-0.167,0.794-0.453,1.01-0.784c0.226-0.345,0.324-0.801,0.17-1.196    c-0.182-0.467-0.695-0.749-1.179-0.772c-0.344-0.017-0.673,0.099-0.992,0.212c-0.564,0.201-1.096,0.518-1.63,0.789    c-0.099,0.05-0.2,0.1-0.3,0.15c0.017-0.172,0.037-0.343,0.044-0.515c0.021-0.525-0.063-1.06-0.176-1.572    c-0.048-0.22-0.107-0.438-0.175-0.652c-0.073-0.228-0.148-0.453-0.289-0.648c-0.207-0.283-0.469-0.471-0.809-0.585    c-0.488-0.163-1.122,0.097-1.37,0.545c-0.253,0.457-0.244,0.912-0.085,1.393c0.067,0.203,0.125,0.41,0.173,0.618    c0.048,0.208,0.088,0.419,0.118,0.631c0.004,0.03,0.022,0.178,0.014,0.108c0.011,0.085,0.023,0.178,0.031,0.226    c0.018,0.11,0.036,0.219,0.052,0.33c0,0.003,0,0.001,0.001,0.004c0,0.016,0,0.033,0.001,0.045    c0.009,0.108,0.015,0.216,0.019,0.324c-0.138-0.031-0.276-0.065-0.413-0.097l-1.717-0.403c-0.574-0.135-1.153-0.245-1.734-0.342    c-0.454-0.075-0.88-0.117-1.304,0.125c-0.557,0.317-0.761,0.885-0.671,1.498c0.092,0.628,0.795,0.922,1.353,0.843    c0.003,0,0.004,0.001,0.007,0.001c0.137,0.015,0.105,0.005,0.049-0.008l0.003-0.001c0.232,0.043,0.464,0.084,0.696,0.125    c0.589,0.106,1.183,0.176,1.777,0.252c0.453,0.057,0.907,0.115,1.36,0.173c-0.14,0.144-0.273,0.3-0.402,0.45    c-0.39,0.453-0.748,0.915-1.044,1.434c-0.294,0.516-0.602,1.058-0.742,1.637c-0.091,0.375-0.096,0.722-0.003,1.098    c0.058,0.234,0.157,0.456,0.252,0.677C86.295,341.378,86.714,341.485,86.96,341.332z"/>
	</g>
</g>
</svg>