<svg xmlns="http://www.w3.org/2000/svg" width="420" height="420" viewBox="0 0 420 420">
  <defs>
    <linearGradient id="g" x1="0" y1="0" x2="1" y2="1">
      <stop offset="0" stop-color="#a7f3d0" />
      <stop offset="0.55" stop-color="#34d399" />
      <stop offset="1" stop-color="#047857" />
    </linearGradient>
    <filter id="s" x="-20%" y="-20%" width="140%" height="140%">
      <feDropShadow dx="0" dy="18" stdDeviation="14" flood-color="#00140c" flood-opacity="0.45" />
    </filter>
  </defs>
  <g filter="url(#s)">
    <path
      d="M312 78c-38-18-92-2-131 37-33 33-48 76-45 115-32-18-74-18-113 2 42 62 119 120 198 117 56-2 111-35 139-86 31-56 17-137-48-185Z"
      fill="url(#g)"
      opacity="0.95"
    />
    <path
      d="M115 246c40-12 74-38 100-70 27-33 42-71 53-113"
      fill="none"
      stroke="#d1fae5"
      stroke-width="8"
      stroke-linecap="round"
      opacity="0.55"
    />
    <path
      d="M142 260c22-20 41-46 58-76"
      fill="none"
      stroke="#d1fae5"
      stroke-width="6"
      stroke-linecap="round"
      opacity="0.35"
    />
  </g>
</svg>

