<?xml version="1.0" encoding="utf-8"?>
<svg xmlns="http://www.w3.org/2000/svg" version="1.1" viewBox="0 0 4000 4000">
  <g>
    <g id="Layer_1">
      <g id="Layer_x5F_1">
        <g id="_2480426037296">
          <g style="" transform="matrix(1.943962, 0, 0, 1.943962, -1779.944092, -1470.05249)">
            <g>
              <path d="M2000,948.24c69.33-3.04,145.33,7.78,216.56,32.1,53.75-48.65,168.76-136.66,337.57-181.89,0,0,85.91,224.22-26.11,410.94,51.21-136.65-24.7-286.04-24.7-286.04-82.01,25.77-144.87,65.2-189.37,101,119.31,69.18,203.12,184.69,177.42,344.43,0,0,179.4,380.8-202.88,503.79,47.71,23.98,114.26,70.95,122.99,149.02-61.37-13.77-134.91-24.5-216.38-31.17v-38.16c0-12.81-10.48-23.29-23.3-23.29s-23.29,10.48-23.29,23.29v34.85c-47.5-2.88-97.25-4.42-148.51-4.42s-101.01,1.54-148.51,4.42v-34.85c0-12.81-10.48-23.29-23.29-23.29s-23.3,10.48-23.3,23.29v38.16c-81.48,6.67-155.01,17.4-216.38,31.17,8.73-78.07,75.28-125.04,122.99-149.02-382.28-122.99-202.88-503.79-202.88-503.79-25.7-159.74,58.11-275.25,177.42-344.43-44.5-35.8-107.36-75.23-189.37-101,0,0-75.91,149.39-24.7,286.04-112.02-186.72-26.11-410.94-26.11-410.94,168.81,45.23,283.82,133.24,337.57,181.89,71.23-24.32,147.23-35.14,216.56-32.1h0ZM1815.79,1533.73c-40.28-17.69-112.76-37.69-169-19.01-5.72,1.9-4.33,10.41,1.7,10.39,66.71-.29,129.87,24.96,154.71,36.22,15.7,7.11,29.12-20.33,12.59-27.6h0ZM1746.65,1587.68c-37.02-9.4-99.72-16.14-145.48,5.58-5.49,2.61-2.95,10.98,3.07,10.09,56.1-8.27,111.92,3.96,135.54,10.33,16.73,4.5,23.76-21.7,6.87-26h0ZM1805.05,1650.82c-38.13,2.18-99.96,14.64-137.04,49.13-4.46,4.14.48,11.36,5.96,8.7,51-24.78,107.91-29.93,132.36-30.97,17.31-.74,16.12-27.85-1.28-26.86h0ZM2184.21,1533.73c40.28-17.69,112.76-37.69,169-19.01,5.72,1.9,4.33,10.41-1.7,10.39-66.71-.29-129.87,24.96-154.71,36.22-15.7,7.11-29.12-20.33-12.59-27.6ZM2253.35,1587.68c37.02-9.4,99.72-16.14,145.48,5.58,5.49,2.61,2.95,10.98-3.07,10.09-56.1-8.27-111.92,3.96-135.54,10.33-16.73,4.5-23.76-21.7-6.87-26h0ZM2194.95,1650.82c38.13,2.18,99.96,14.64,137.04,49.13,4.46,4.14-.48,11.36-5.96,8.7-51-24.78-107.91-29.93-132.36-30.97-17.31-.74-16.12-27.85,1.28-26.86ZM2070.61,1565.11c0,22.27-23.74,49.74-55.45,56.68,10.5,41.46,49.55,62.67,87.13,55.16,15.95-3.18,24.95,17.78,11.67,27.16-31.64,22.33-79.8,17.67-113.96-9.27-34.16,26.94-82.32,31.6-113.96,9.27-13.28-9.38-4.28-30.34,11.67-27.16,37.58,7.51,76.63-13.7,87.13-55.16-31.71-6.94-55.45-34.41-55.45-56.68,0-61.12,141.22-61.12,141.22,0ZM2207.03,1322.78c48.48,0,87.77,57.39,87.77,128.18,0,1.91-.03,3.81-.09,5.7-5.49-1.03-11.08-1.91-16.76-2.65-.75-45.88-26.45-82.75-58.06-82.75-32.07,0-58.07,37.97-58.07,84.81,0,1.45.02,2.89.07,4.32-14.63,3.66-28.43,8.36-41.17,13.96-.95-7.59-1.46-15.4-1.46-23.39,0-70.79,39.3-128.18,87.77-128.18h0ZM1792.97,1322.78c-48.48,0-87.77,57.39-87.77,128.18,0,1.91.03,3.81.09,5.7,5.49-1.03,11.08-1.91,16.76-2.65.75-45.88,26.45-82.75,58.06-82.75,32.07,0,58.07,37.97,58.07,84.81,0,1.45-.02,2.89-.07,4.32,14.63,3.66,28.43,8.36,41.17,13.96.95-7.59,1.46-15.4,1.46-23.39,0-70.79-39.3-128.18-87.77-128.18h0Z" style="fill: #e60040; fill-rule: evenodd;"/>
              <path d="M2292.91,2114.99c-41.94-48.45-116.66-55.66-167.25-12.88-10.56,8.93-19.58,19.69-26.54,31.85,41.87-30.68,100.29-37.89,150.78-8.98,13.65-5.55,28.18-8.96,43.01-9.99h0Z" style="fill: #f9bf3b; fill-rule: evenodd;"/>
              <path d="M1900.88,2133.83c-40.25-70.24-139.44-81.44-193.8-18.82,14.63.9,29.25,4.14,43.25,9.85,48.96-27.85,107.91-22.44,150.55,8.97Z" style="fill: #f9bf3b; fill-rule: evenodd;"/>
              <path d="M2058.52,2181.01c2.52-4.81,5.31-9.43,8.34-13.85,1.61-8.4,3.93-16.45,6.88-24.09-41.41-40.11-105.79-44.72-152.49-11.26,5.51,11.1,9.58,23.09,11.97,35.75,2.02,2.99,3.94,6.07,5.75,9.26,37.34-16.27,81.3-15.87,119.55,4.19h0Z" style="fill: #f9bf3b; fill-rule: evenodd;"/>
              <path d="M1572.23,2195.75c-46.88-11.09-82.83-24.04-104.66-38.2,39.19-50.92,111.34-60.99,162.8-25.06-24.61,13.74-45.37,35.16-58.14,63.26Z" style="fill: #f9bf3b; fill-rule: evenodd;"/>
              <path d="M1815.11,2229.08c-86.4-6-163.01-16.08-223.89-29.07,9.4-18.95,23.5-34.71,40.52-46.11,70.77-47.35,166.7-7.07,183.37,75.18h0Z" style="fill: #f9bf3b; fill-rule: evenodd;"/>
              <path d="M1875.66,2232.53c-13.88-.62-27.56-1.34-41.03-2.17-6.66-40.04-30.25-74.03-63.39-94.77,54.85-23.78,120.44-3.06,150.9,49.99-18.48,11.28-34.58,27.07-46.48,46.95Z" style="fill: #f9bf3b; fill-rule: evenodd;"/>
              <path d="M2043.33,2234.96c-14.29.22-28.75.33-43.33.33-34.9,0-69.04-.64-102.16-1.86,34.98-48.29,100.75-63.14,153.08-35-4.05,11.39-6.66,23.61-7.59,36.53Z" style="fill: #f9bf3b; fill-rule: evenodd;"/>
              <path d="M2165.36,2230.36c-33.09,2.03-67.53,3.46-102.96,4.24,7.06-82.29,93.72-130.85,166.51-98.97-32.23,19.9-56.64,52.95-63.55,94.73Z" style="fill: #f9bf3b; fill-rule: evenodd;"/>
              <path d="M2408.78,2200.01c-60.87,12.99-137.5,23.07-223.88,29.07,5.35-26.13,19.1-48.92,38.16-65.66,59.27-52.04,151.38-32.9,185.72,36.59h0Z" style="fill: #f9bf3b; fill-rule: evenodd;"/>
              <path d="M2532.43,2157.55c-21.83,14.16-57.79,27.11-104.66,38.2-12.4-27.24-32.82-48.93-58.14-63.26,51.46-35.93,123.61-25.86,162.8,25.06h0Z" style="fill: #f9bf3b; fill-rule: evenodd;"/>
              <path d="M2000,2015.98c307.29,0,556.41,49.09,556.41,109.65,0,6.82-3.19,13.48-9.22,19.95-47.61-61.42-136.84-71.47-196.94-22.18-10.86-4.1-21.96-6.7-33.06-7.92-57.79-85.05-184.85-79.06-234.95,9.59-47.66-42.09-118.34-46.22-170.62-9.73-7.07-10.36-15.5-19.69-25.01-27.73-63.12-53.39-158.13-39.65-203.92,28.05-11.21,1.28-22.24,3.92-32.82,7.84-60.1-49.4-149.42-39.38-197.06,22.08-6.05-6.47-9.22-13.13-9.22-19.95,0-60.56,249.12-109.65,556.41-109.65h0Z" style="fill: #e60040; fill-rule: evenodd;"/>
              <path d="M2000,2684.63c366.84,0,534.32-169.27,554.34-499.1-97.76,56.23-309.2,95.17-554.34,95.17s-456.58-38.94-554.34-95.17c20.02,329.83,187.5,499.1,554.34,499.1ZM2000,2443.3c108.61,10.5,67.45,173.97,0,173.97s-108.61-163.47,0-173.97ZM2000,2333.57c56.81,5.5,35.28,91.01,0,91.01s-56.81-85.51,0-91.01ZM2125.26,2377.05c41.19,39.52-28.68,93.29-56.38,71.43-27.7-21.86,8.38-102.32,56.38-71.43ZM1874.74,2377.05c-41.19,39.52,28.68,93.29,56.38,71.43,27.7-21.86-8.38-102.32-56.38-71.43Z" style="fill: #e60040; fill-rule: evenodd;"/>
            </g>
          </g>
        </g>
      </g>
    </g>
  </g>
</svg>